999
dxflib 2.2.0.0
  0
SECTION
  2
HEADER
  9
$ACADVER
  1
AC1015
  9
$HANDSEED
  5
FFFF
  9
$DIMASZ
 40
2.5
  9
$PLIMMIN
 10
0.0
 20
0.0
  9
$DIMEXE
 40
1.25
  9
$DIMGAP
 40
0.625
  9
$PLIMMAX
 10
210.0
 20
297.0
  9
$INSUNITS
 70
4
  9
$DIMSTYLE
  2
Standard
  9
$MEASUREMENT
 70
1
  9
$DIMEXO
 40
0.625
  9
$DIMTXT
 40
2.5
  0
ENDSEC
  0
SECTION
  2
TABLES
  0
TABLE
  2
VPORT
  5
8
100
AcDbSymbolTable
 70
1
  0
VPORT
  5
30
100
AcDbSymbolTableRecord
100
AcDbViewportTableRecord
  2
*Active
 70
0
 10
0.0
 20
0.0
 11
1.0
 21
1.0
 12
286.3055555555554861
 22
148.5
 13
0.0
 23
0.0
 14
10.0
 24
10.0
 15
10.0
 25
10.0
 16
0.0
 26
0.0
 36
1.0
 17
0.0
 27
0.0
 37
0.0
 40
297.0
 41
1.92798353909465
 42
50.0
 43
0.0
 44
0.0
 50
0.0
 51
0.0
 71
0
 72
100
 73
1
 74
3
 75
1
 76
1
 77
0
 78
0
281
0
 65
1
110
0.0
120
0.0
130
0.0
111
1.0
121
0.0
131
0.0
112
0.0
122
1.0
132
0.0
 79
0
146
0.0
  0
ENDTAB
  0
TABLE
  2
LTYPE
  5
5
100
AcDbSymbolTable
 70
21
  0
LTYPE
  5
14
100
AcDbSymbolTableRecord
100
AcDbLinetypeTableRecord
  2
ByBlock
 70
0
  3

 72
65
 73
0
 40
0.0
  0
LTYPE
  5
15
100
AcDbSymbolTableRecord
100
AcDbLinetypeTableRecord
  2
ByLayer
 70
0
  3

 72
65
 73
0
 40
0.0
  0
LTYPE
  5
16
100
AcDbSymbolTableRecord
100
AcDbLinetypeTableRecord
  2
CONTINUOUS
 70
0
  3
Solid line
 72
65
 73
0
 40
0.0
  0
LTYPE
  5
31
100
AcDbSymbolTableRecord
100
AcDbLinetypeTableRecord
  2
DOT
 70
0
  3
Dot . . . . . . . . . . . . . . . . . . . . . .
 72
65
 73
2
 40
6.3499999999999996
 49
0.0
 74
0
 49
-6.3499999999999996
 74
0
  0
LTYPE
  5
32
100
AcDbSymbolTableRecord
100
AcDbLinetypeTableRecord
  2
DOT2
 70
0
  3
Dot (.5x) .....................................
 72
65
 73
2
 40
3.1749999999999998
 49
0.0
 74
0
 49
-3.1749999999999998
 74
0
  0
LTYPE
  5
33
100
AcDbSymbolTableRecord
100
AcDbLinetypeTableRecord
  2
DOTX2
 70
0
  3
Dot (2x) .  .  .  .  .  .  .  .  .  .  .  .  .
 72
65
 73
2
 40
12.6999999999999993
 49
0.0
 74
0
 49
-12.6999999999999993
 74
0
  0
LTYPE
  5
34
100
AcDbSymbolTableRecord
100
AcDbLinetypeTableRecord
  2
DASHED
 70
0
  3
Dashed __ __ __ __ __ __ __ __ __ __ __ __ __ _
 72
65
 73
2
 40
19.0500000000000007
 49
12.6999999999999993
 74
0
 49
-6.3499999999999996
 74
0
  0
LTYPE
  5
35
100
AcDbSymbolTableRecord
100
AcDbLinetypeTableRecord
  2
DASHED2
 70
0
  3
Dashed (.5x) _ _ _ _ _ _ _ _ _ _ _ _ _ _ _ _ _
 72
65
 73
2
 40
9.5250000000000004
 49
6.3499999999999996
 74
0
 49
-3.1749999999999998
 74
0
  0
LTYPE
  5
36
100
AcDbSymbolTableRecord
100
AcDbLinetypeTableRecord
  2
DASHEDX2
 70
0
  3
Dashed (2x) ____  ____  ____  ____  ____  ___
 72
65
 73
2
 40
38.1000000000000014
 49
25.3999999999999986
 74
0
 49
-12.6999999999999993
 74
0
  0
LTYPE
  5
37
100
AcDbSymbolTableRecord
100
AcDbLinetypeTableRecord
  2
DASHDOT
 70
0
  3
Dash dot __ . __ . __ . __ . __ . __ . __ . __
 72
65
 73
4
 40
25.3999999999999986
 49
12.6999999999999993
 74
0
 49
-6.3499999999999996
 74
0
 49
0.0
 74
0
 49
-6.3499999999999996
 74
0
  0
LTYPE
  5
38
100
AcDbSymbolTableRecord
100
AcDbLinetypeTableRecord
  2
DASHDOT2
 70
0
  3
Dash dot (.5x) _._._._._._._._._._._._._._._.
 72
65
 73
4
 40
12.6999999999999993
 49
6.3499999999999996
 74
0
 49
-3.1749999999999998
 74
0
 49
0.0
 74
0
 49
-3.1749999999999998
 74
0
  0
LTYPE
  5
39
100
AcDbSymbolTableRecord
100
AcDbLinetypeTableRecord
  2
DASHDOTX2
 70
0
  3
Dash dot (2x) ____  .  ____  .  ____  .  ___
 72
65
 73
4
 40
50.7999999999999972
 49
25.3999999999999986
 74
0
 49
-12.6999999999999993
 74
0
 49
0.0
 74
0
 49
-12.6999999999999993
 74
0
  0
LTYPE
  5
3A
100
AcDbSymbolTableRecord
100
AcDbLinetypeTableRecord
  2
DIVIDE
 70
0
  3
Divide ____ . . ____ . . ____ . . ____ . . ____
 72
65
 73
6
 40
31.75
 49
12.6999999999999993
 74
0
 49
-6.3499999999999996
 74
0
 49
0.0
 74
0
 49
-6.3499999999999996
 74
0
 49
0.0
 74
0
 49
-6.3499999999999996
 74
0
  0
LTYPE
  5
3B
100
AcDbSymbolTableRecord
100
AcDbLinetypeTableRecord
  2
DIVIDE2
 70
0
  3
Divide (.5x) __..__..__..__..__..__..__..__.._
 72
65
 73
6
 40
15.875
 49
6.3499999999999996
 74
0
 49
-3.1749999999999998
 74
0
 49
0.0
 74
0
 49
-3.1749999999999998
 74
0
 49
0.0
 74
0
 49
-3.1749999999999998
 74
0
  0
LTYPE
  5
3C
100
AcDbSymbolTableRecord
100
AcDbLinetypeTableRecord
  2
DIVIDEX2
 70
0
  3
Divide (2x) ________  .  .  ________  .  .  _
 72
65
 73
6
 40
63.5
 49
25.3999999999999986
 74
0
 49
-12.6999999999999993
 74
0
 49
0.0
 74
0
 49
-12.6999999999999993
 74
0
 49
0.0
 74
0
 49
-12.6999999999999993
 74
0
  0
LTYPE
  5
3D
100
AcDbSymbolTableRecord
100
AcDbLinetypeTableRecord
  2
CENTER
 70
0
  3
Center ____ _ ____ _ ____ _ ____ _ ____ _ ____
 72
65
 73
4
 40
50.7999999999999972
 49
31.75
 74
0
 49
-6.3499999999999996
 74
0
 49
6.3499999999999996
 74
0
 49
-6.3499999999999996
 74
0
  0
LTYPE
  5
3E
100
AcDbSymbolTableRecord
100
AcDbLinetypeTableRecord
  2
CENTER2
 70
0
  3
Center (.5x) ___ _ ___ _ ___ _ ___ _ ___ _ ___
 72
65
 73
4
 40
28.5749999999999993
 49
19.0500000000000007
 74
0
 49
-3.1749999999999998
 74
0
 49
3.1749999999999998
 74
0
 49
-3.1749999999999998
 74
0
  0
LTYPE
  5
3F
100
AcDbSymbolTableRecord
100
AcDbLinetypeTableRecord
  2
CENTERX2
 70
0
  3
Center (2x) ________  __  ________  __  _____
 72
65
 73
4
 40
101.5999999999999943
 49
63.5
 74
0
 49
-12.6999999999999993
 74
0
 49
12.6999999999999993
 74
0
 49
-12.6999999999999993
 74
0
  0
LTYPE
  5
40
100
AcDbSymbolTableRecord
100
AcDbLinetypeTableRecord
  2
BORDER
 70
0
  3
Border __ __ . __ __ . __ __ . __ __ . __ __ .
 72
65
 73
6
 40
44.4500000000000028
 49
12.6999999999999993
 74
0
 49
-6.3499999999999996
 74
0
 49
12.6999999999999993
 74
0
 49
-6.3499999999999996
 74
0
 49
0.0
 74
0
 49
-6.3499999999999996
 74
0
  0
LTYPE
  5
41
100
AcDbSymbolTableRecord
100
AcDbLinetypeTableRecord
  2
BORDER2
 70
0
  3
Border (.5x) __.__.__.__.__.__.__.__.__.__.__.
 72
65
 73
6
 40
22.2250000000000014
 49
6.3499999999999996
 74
0
 49
-3.1749999999999998
 74
0
 49
6.3499999999999996
 74
0
 49
-3.1749999999999998
 74
0
 49
0.0
 74
0
 49
-3.1749999999999998
 74
0
  0
LTYPE
  5
42
100
AcDbSymbolTableRecord
100
AcDbLinetypeTableRecord
  2
BORDERX2
 70
0
  3
Border (2x) ____  ____  .  ____  ____  .  ___
 72
65
 73
6
 40
88.9000000000000057
 49
25.3999999999999986
 74
0
 49
-12.6999999999999993
 74
0
 49
25.3999999999999986
 74
0
 49
-12.6999999999999993
 74
0
 49
0.0
 74
0
 49
-12.6999999999999993
 74
0
  0
ENDTAB
  0
TABLE
  2
LAYER
  5
2
100
AcDbSymbolTable
 70
5
  0
LAYER
  5
10
100
AcDbSymbolTableRecord
100
AcDbLayerTableRecord
  2
0
 70
0
 62
7
  6
CONTINUOUS
390
F
  0
LAYER
  5
43
100
AcDbSymbolTableRecord
100
AcDbLayerTableRecord
  2
Guide
 70
0
 62
2
  6
CONTINUOUS
370
0
390
F
  0
LAYER
  5
44
100
AcDbSymbolTableRecord
100
AcDbLayerTableRecord
  2
Engrave2
 70
0
 62
7
  6
CONTINUOUS
370
0
390
F
  0
LAYER
  5
45
100
AcDbSymbolTableRecord
100
AcDbLayerTableRecord
  2
Engrave3
 70
0
 62
7
  6
CONTINUOUS
370
0
390
F
  0
LAYER
  5
46
100
AcDbSymbolTableRecord
100
AcDbLayerTableRecord
  2
Engrave1
 70
0
 62
7
  6
CONTINUOUS
370
-3
390
F
  0
ENDTAB
  0
TABLE
  2
STYLE
  5
3
100
AcDbSymbolTable
 70
1
  0
STYLE
  5
11
100
AcDbSymbolTableRecord
100
AcDbTextStyleTableRecord
  2
Standard
 70
0
 40
0.0
 41
0.75
 50
0.0
 71
0
 42
2.5
  3
txt
  4

  0
ENDTAB
  0
TABLE
  2
VIEW
  5
6
100
AcDbSymbolTable
 70
0
  0
ENDTAB
  0
TABLE
  2
UCS
  5
7
100
AcDbSymbolTable
 70
0
  0
ENDTAB
  0
TABLE
  2
APPID
  5
9
100
AcDbSymbolTable
 70
1
  0
APPID
  5
12
100
AcDbSymbolTableRecord
100
AcDbRegAppTableRecord
  2
ACAD
 70
0
  0
ENDTAB
  0
TABLE
  2
DIMSTYLE
  5
A
100
AcDbSymbolTable
 70
1
100
AcDbDimStyleTable
 71
0
  0
DIMSTYLE
105
27
100
AcDbSymbolTableRecord
100
AcDbDimStyleTableRecord
  2
Standard
 41
2.5
 42
0.625
 43
3.75
 44
1.25
 70
0
 73
0
 74
0
 77
1
 78
8
140
2.5
141
2.5
143
0.03937007874016
147
0.625
171
3
172
1
271
2
272
2
274
3
278
44
283
0
284
8
340
11
  0
ENDTAB
  0
TABLE
  2
BLOCK_RECORD
  5
1
100
AcDbSymbolTable
 70
1
  0
BLOCK_RECORD
  5
1F
100
AcDbSymbolTableRecord
100
AcDbBlockTableRecord
  2
*Model_Space
340
22
  0
BLOCK_RECORD
  5
1B
100
AcDbSymbolTableRecord
100
AcDbBlockTableRecord
  2
*Paper_Space
340
1E
  0
BLOCK_RECORD
  5
23
100
AcDbSymbolTableRecord
100
AcDbBlockTableRecord
  2
*Paper_Space0
340
26
  0
ENDTAB
  0
ENDSEC
  0
SECTION
  2
BLOCKS
  0
BLOCK
  5
20
100
AcDbEntity
  8
0
100
AcDbBlockBegin
  2
*Model_Space
 70
0
 10
0.0
 20
0.0
 30
0.0
  3
*Model_Space
  1

  0
ENDBLK
  5
21
100
AcDbEntity
  8
0
100
AcDbBlockEnd
  0
BLOCK
  5
1C
100
AcDbEntity
 67
1
  8
0
100
AcDbBlockBegin
  2
*Paper_Space
 70
0
 10
0.0
 20
0.0
 30
0.0
  3
*Paper_Space
  1

  0
ENDBLK
  5
1D
100
AcDbEntity
 67
1
  8
0
100
AcDbBlockEnd
  0
BLOCK
  5
24
100
AcDbEntity
  8
0
100
AcDbBlockBegin
  2
*Paper_Space0
 70
0
 10
0.0
 20
0.0
 30
0.0
  3
*Paper_Space0
  1

  0
ENDBLK
  5
25
100
AcDbEntity
  8
0
100
AcDbBlockEnd
  0
ENDSEC
  0
SECTION
  2
ENTITIES
  0
LINE
  5
47
100
AcDbEntity
100
AcDbLine
  8
Guide
 62
256
370
-1
  6
ByLayer
 10
0.0
 20
0.0
 30
0.0
 11
100.0
 21
0.0
 31
0.0
  0
LINE
  5
48
100
AcDbEntity
100
AcDbLine
  8
Guide
 62
256
370
-1
  6
ByLayer
 10
0.0
 20
0.0
 30
0.0
 11
0.0000000000000037
 21
60.0
 31
0.0
  0
LINE
  5
49
100
AcDbEntity
100
AcDbLine
  8
Guide
 62
256
370
-1
  6
ByLayer
 10
100.0
 20
0.0
 30
0.0
 11
100.0
 21
60.0
 31
0.0
  0
LINE
  5
4A
100
AcDbEntity
100
AcDbLine
  8
Guide
 62
256
370
-1
  6
ByLayer
 10
0.0000000000000037
 20
60.0
 30
0.0
 11
100.0
 21
60.0
 31
0.0
  0
SPLINE
  5
4B
  8
Engrave2
 62
7
370
-1
  6
ByLayer
100
AcDbEntity
100
AcDbSpline
 70
8
 71
3
 72
8
 73
4
 74
0
 40
0.0
 40
0.0
 40
0.0
 40
0.0
 40
1.0
 40
1.0
 40
1.0
 40
1.0
 10
23.8706710000000015
 20
23.5211140000000114
 30
0.0
 10
23.6913360000000068
 20
22.8184990000000028
 30
0.0
 10
23.3679570000000041
 20
22.2819839999999942
 30
0.0
 10
22.9005319999999983
 20
21.9115669999999909
 30
0.0
  0
SPLINE
  5
4C
  8
Engrave2
 62
7
370
-1
  6
ByLayer
100
AcDbEntity
100
AcDbSpline
 70
8
 71
3
 72
8
 73
4
 74
0
 40
0.0
 40
0.0
 40
0.0
 40
0.0
 40
1.0
 40
1.0
 40
1.0
 40
1.0
 10
22.9005319999999983
 20
21.9115669999999909
 30
0.0
 10
22.4360369999999989
 20
21.5440910000000088
 30
0.0
 10
21.8671810000000022
 20
21.3603500000000111
 30
0.0
 10
21.1939689999999956
 20
21.3603500000000111
 30
0.0
  0
SPLINE
  5
4D
  8
Engrave2
 62
7
370
-1
  6
ByLayer
100
AcDbEntity
100
AcDbSpline
 70
8
 71
3
 72
8
 73
4
 74
0
 40
0.0
 40
0.0
 40
0.0
 40
0.0
 40
1.0
 40
1.0
 40
1.0
 40
1.0
 10
21.1939689999999956
 20
21.3603500000000111
 30
0.0
 10
20.4972300000000018
 20
21.3603500000000111
 30
0.0
 10
19.9298469999999952
 20
21.5014610000000062
 30
0.0
 10
19.491816
 20
21.7836839999999938
 30
0.0
  0
SPLINE
  5
4E
  8
Engrave2
 62
7
370
-1
  6
ByLayer
100
AcDbEntity
100
AcDbSpline
 70
8
 71
3
 72
8
 73
4
 74
0
 40
0.0
 40
0.0
 40
0.0
 40
0.0
 40
1.0
 40
1.0
 40
1.0
 40
1.0
 10
19.491816
 20
21.7836839999999938
 30
0.0
 10
19.0567219999999935
 20
22.0688460000000077
 30
0.0
 10
18.7245240000000024
 20
22.4804200000000094
 30
0.0
 10
18.4952190000000058
 20
23.0184059999999988
 30
0.0
  0
SPLINE
  5
4F
  8
Engrave2
 62
7
370
-1
  6
ByLayer
100
AcDbEntity
100
AcDbSpline
 70
8
 71
3
 72
8
 73
4
 74
0
 40
0.0
 40
0.0
 40
0.0
 40
0.0
 40
1.0
 40
1.0
 40
1.0
 40
1.0
 10
18.4952190000000058
 20
23.0184059999999988
 30
0.0
 10
18.2688540000000046
 20
23.5563919999999882
 30
0.0
 10
18.1556690000000032
 20
24.1340639999999951
 30
0.0
 10
18.1556709999999981
 20
24.7514280000000042
 30
0.0
  0
SPLINE
  5
50
  8
Engrave2
 62
7
370
-1
  6
ByLayer
100
AcDbEntity
100
AcDbSpline
 70
8
 71
3
 72
8
 73
4
 74
0
 40
0.0
 40
0.0
 40
0.0
 40
0.0
 40
1.0
 40
1.0
 40
1.0
 40
1.0
 10
18.1556709999999981
 20
24.7514280000000042
 30
0.0
 10
18.1556690000000032
 20
25.4246410000000083
 30
0.0
 10
18.2835520000000002
 20
26.0111330000000009
 30
0.0
 10
18.5393159999999995
 20
26.5109060000000056
 30
0.0
  0
SPLINE
  5
51
  8
Engrave2
 62
7
370
-1
  6
ByLayer
100
AcDbEntity
100
AcDbSpline
 70
8
 71
3
 72
8
 73
4
 74
0
 40
0.0
 40
0.0
 40
0.0
 40
0.0
 40
1.0
 40
1.0
 40
1.0
 40
1.0
 10
18.5393159999999995
 20
26.5109060000000056
 30
0.0
 10
18.798017999999999
 20
27.0136080000000049
 30
0.0
 10
19.1640260000000069
 20
27.394315000000006
 30
0.0
 10
19.6373379999999997
 20
27.6530250000000137
 30
0.0
  0
SPLINE
  5
52
  8
Engrave2
 62
7
370
-1
  6
ByLayer
100
AcDbEntity
100
AcDbSpline
 70
8
 71
3
 72
8
 73
4
 74
0
 40
0.0
 40
0.0
 40
0.0
 40
0.0
 40
1.0
 40
1.0
 40
1.0
 40
1.0
 10
19.6373379999999997
 20
27.6530250000000137
 30
0.0
 10
20.1135850000000005
 20
27.9146619999999928
 30
0.0
 10
20.6368700000000018
 20
28.0454829999999902
 30
0.0
 10
21.2071990000000028
 20
28.0454890000000034
 30
0.0
  0
SPLINE
  5
53
  8
Engrave2
 62
7
370
-1
  6
ByLayer
100
AcDbEntity
100
AcDbSpline
 70
8
 71
3
 72
8
 73
4
 74
0
 40
0.0
 40
0.0
 40
0.0
 40
0.0
 40
1.0
 40
1.0
 40
1.0
 40
1.0
 10
21.2071990000000028
 20
28.0454890000000034
 30
0.0
 10
21.8539540000000017
 20
28.0454829999999902
 30
0.0
 10
22.3978180000000009
 20
27.8808549999999968
 30
0.0
 10
22.8387960000000021
 20
27.5516000000000076
 30
0.0
  0
SPLINE
  5
54
  8
Engrave2
 62
7
370
-1
  6
ByLayer
100
AcDbEntity
100
AcDbSpline
 70
8
 71
3
 72
8
 73
4
 74
0
 40
0.0
 40
0.0
 40
0.0
 40
0.0
 40
1.0
 40
1.0
 40
1.0
 40
1.0
 10
22.8387960000000021
 20
27.5516000000000076
 30
0.0
 10
23.2797630000000026
 20
27.2223370000000102
 30
0.0
 10
23.5869730000000004
 20
26.7593149999999866
 30
0.0
 10
23.7604270000000071
 20
26.1625390000000095
 30
0.0
  0
LWPOLYLINE
  5
55
  8
Engrave2
 62
7
370
-1
  6
ByLayer
100
AcDbEntity
100
AcDbPolyline
 90
2
 70
0
 10
23.0151850000000024
 20
23.7371919999999932
 10
23.8706710000000015
 20
23.5211140000000114
  0
SPLINE
  5
56
  8
Engrave2
 62
7
370
-1
  6
ByLayer
100
AcDbEntity
100
AcDbSpline
 70
8
 71
3
 72
8
 73
4
 74
0
 40
0.0
 40
0.0
 40
0.0
 40
0.0
 40
1.0
 40
1.0
 40
1.0
 40
1.0
 10
22.918171000000001
 20
25.964100000000002
 30
0.0
 10
22.7682350000000042
 20
26.4344659999999863
 30
0.0
 10
22.550690000000003
 20
26.7769539999999893
 30
0.0
 10
22.2655319999999932
 20
26.9915670000000034
 30
0.0
  0
SPLINE
  5
57
  8
Engrave2
 62
7
370
-1
  6
ByLayer
100
AcDbEntity
100
AcDbSpline
 70
8
 71
3
 72
8
 73
4
 74
0
 40
0.0
 40
0.0
 40
0.0
 40
0.0
 40
1.0
 40
1.0
 40
1.0
 40
1.0
 10
22.2655319999999932
 20
26.9915670000000034
 30
0.0
 10
21.9803639999999945
 20
27.2061689999999885
 30
0.0
 10
21.6217070000000007
 20
27.3134699999999953
 30
0.0
 10
21.1895600000000002
 20
27.3134750000000111
 30
0.0
  0
SPLINE
  5
58
  8
Engrave2
 62
7
370
-1
  6
ByLayer
100
AcDbEntity
100
AcDbSpline
 70
8
 71
3
 72
8
 73
4
 74
0
 40
0.0
 40
0.0
 40
0.0
 40
0.0
 40
1.0
 40
1.0
 40
1.0
 40
1.0
 10
21.1895600000000002
 20
27.3134750000000111
 30
0.0
 10
20.6927280000000025
 20
27.3134699999999953
 30
0.0
 10
20.2767439999999937
 20
27.1944080000000099
 30
0.0
 10
19.9416070000000047
 20
26.9562889999999982
 30
0.0
  0
SPLINE
  5
59
  8
Engrave2
 62
7
370
-1
  6
ByLayer
100
AcDbEntity
100
AcDbSpline
 70
8
 71
3
 72
8
 73
4
 74
0
 40
0.0
 40
0.0
 40
0.0
 40
0.0
 40
1.0
 40
1.0
 40
1.0
 40
1.0
 10
19.9416070000000047
 20
26.9562889999999982
 30
0.0
 10
19.609406000000007
 20
26.7181579999999883
 30
0.0
 10
19.3756929999999983
 20
26.3977179999999976
 30
0.0
 10
19.2404630000000054
 20
25.994969999999995
 30
0.0
  0
SPLINE
  5
5A
  8
Engrave2
 62
7
370
-1
  6
ByLayer
100
AcDbEntity
100
AcDbSpline
 70
8
 71
3
 72
8
 73
4
 74
0
 40
0.0
 40
0.0
 40
0.0
 40
0.0
 40
1.0
 40
1.0
 40
1.0
 40
1.0
 10
19.2404630000000054
 20
25.994969999999995
 30
0.0
 10
19.1052279999999968
 20
25.5951509999999871
 30
0.0
 10
19.0376129999999932
 20
25.1821079999999995
 30
0.0
 10
19.0376159999999999
 20
24.755835999999988
 30
0.0
  0
SPLINE
  5
5B
  8
Engrave2
 62
7
370
-1
  6
ByLayer
100
AcDbEntity
100
AcDbSpline
 70
8
 71
3
 72
8
 73
4
 74
0
 40
0.0
 40
0.0
 40
0.0
 40
0.0
 40
1.0
 40
1.0
 40
1.0
 40
1.0
 10
19.0376159999999999
 20
24.755835999999988
 30
0.0
 10
19.0376129999999932
 20
24.206089999999989
 30
0.0
 10
19.1169880000000063
 20
23.7254289999999912
 30
0.0
 10
19.2757409999999965
 20
23.3138590000000079
 30
0.0
  0
SPLINE
  5
5C
  8
Engrave2
 62
7
370
-1
  6
ByLayer
100
AcDbEntity
100
AcDbSpline
 70
8
 71
3
 72
8
 73
4
 74
0
 40
0.0
 40
0.0
 40
0.0
 40
0.0
 40
1.0
 40
1.0
 40
1.0
 40
1.0
 10
19.2757409999999965
 20
23.3138590000000079
 30
0.0
 10
19.4374289999999945
 20
22.9052230000000066
 30
0.0
 10
19.687310999999994
 20
22.5994809999999973
 30
0.0
 10
20.0253940000000057
 20
22.3966360000000009
 30
0.0
  0
SPLINE
  5
5D
  8
Engrave2
 62
7
370
-1
  6
ByLayer
100
AcDbEntity
100
AcDbSpline
 70
8
 71
3
 72
8
 73
4
 74
0
 40
0.0
 40
0.0
 40
0.0
 40
0.0
 40
1.0
 40
1.0
 40
1.0
 40
1.0
 10
20.0253940000000057
 20
22.3966360000000009
 30
0.0
 10
20.3634679999999975
 20
22.1937890000000095
 30
0.0
 10
20.7294760000000053
 20
22.0923640000000034
 30
0.0
 10
21.1234129999999993
 20
22.0923640000000034
 30
0.0
  0
SPLINE
  5
5E
  8
Engrave2
 62
7
370
-1
  6
ByLayer
100
AcDbEntity
100
AcDbSpline
 70
8
 71
3
 72
8
 73
4
 74
0
 40
0.0
 40
0.0
 40
0.0
 40
0.0
 40
1.0
 40
1.0
 40
1.0
 40
1.0
 10
21.1234129999999993
 20
22.0923640000000034
 30
0.0
 10
21.6025980000000004
 20
22.0923640000000034
 30
0.0
 10
22.0082929999999948
 20
22.2305340000000058
 30
0.0
 10
22.3404960000000017
 20
22.5068780000000004
 30
0.0
  0
SPLINE
  5
5F
  8
Engrave2
 62
7
370
-1
  6
ByLayer
100
AcDbEntity
100
AcDbSpline
 70
8
 71
3
 72
8
 73
4
 74
0
 40
0.0
 40
0.0
 40
0.0
 40
0.0
 40
1.0
 40
1.0
 40
1.0
 40
1.0
 10
22.3404960000000017
 20
22.5068780000000004
 30
0.0
 10
22.6726919999999978
 20
22.7832209999999975
 30
0.0
 10
22.897586000000004
 20
23.1933239999999898
 30
0.0
 10
23.0151850000000024
 20
23.7371919999999932
 30
0.0
  0
SPLINE
  5
60
  8
Engrave2
 62
7
370
-1
  6
ByLayer
100
AcDbEntity
100
AcDbSpline
 70
8
 71
3
 72
8
 73
4
 74
0
 40
0.0
 40
0.0
 40
0.0
 40
0.0
 40
1.0
 40
1.0
 40
1.0
 40
1.0
 10
27.8835190000000068
 20
22.0482670000000098
 30
0.0
 10
27.589533000000003
 20
21.7983839999999987
 30
0.0
 10
27.3058410000000009
 20
21.6219959999999958
 30
0.0
 10
27.0324410000000057
 20
21.5191000000000088
 30
0.0
  0
SPLINE
  5
61
  8
Engrave2
 62
7
370
-1
  6
ByLayer
100
AcDbEntity
100
AcDbSpline
 70
8
 71
3
 72
8
 73
4
 74
0
 40
0.0
 40
0.0
 40
0.0
 40
0.0
 40
1.0
 40
1.0
 40
1.0
 40
1.0
 10
27.0324410000000057
 20
21.5191000000000088
 30
0.0
 10
26.7619760000000042
 20
21.4162080000000117
 30
0.0
 10
26.4709339999999997
 20
21.3647609999999872
 30
0.0
 10
26.159316000000004
 20
21.3647609999999872
 30
0.0
  0
SPLINE
  5
62
  8
Engrave2
 62
7
370
-1
  6
ByLayer
100
AcDbEntity
100
AcDbSpline
 70
8
 71
3
 72
8
 73
4
 74
0
 40
0.0
 40
0.0
 40
0.0
 40
0.0
 40
1.0
 40
1.0
 40
1.0
 40
1.0
 10
26.159316000000004
 20
21.3647609999999872
 30
0.0
 10
25.6448469999999986
 20
21.3647609999999872
 30
0.0
 10
25.2494429999999994
 20
21.489703999999989
 30
0.0
 10
24.9731019999999972
 20
21.7395860000000027
 30
0.0
  0
SPLINE
  5
63
  8
Engrave2
 62
7
370
-1
  6
ByLayer
100
AcDbEntity
100
AcDbSpline
 70
8
 71
3
 72
8
 73
4
 74
0
 40
0.0
 40
0.0
 40
0.0
 40
0.0
 40
1.0
 40
1.0
 40
1.0
 40
1.0
 10
24.9731019999999972
 20
21.7395860000000027
 30
0.0
 10
24.6967580000000027
 20
21.9924120000000016
 30
0.0
 10
24.5585849999999937
 20
22.3143210000000067
 30
0.0
 10
24.5585880000000003
 20
22.705317000000008
 30
0.0
  0
SPLINE
  5
64
  8
Engrave2
 62
7
370
-1
  6
ByLayer
100
AcDbEntity
100
AcDbSpline
 70
8
 71
3
 72
8
 73
4
 74
0
 40
0.0
 40
0.0
 40
0.0
 40
0.0
 40
1.0
 40
1.0
 40
1.0
 40
1.0
 10
24.5585880000000003
 20
22.705317000000008
 30
0.0
 10
24.5585849999999937
 20
22.9346199999999953
 30
0.0
 10
24.6100339999999989
 20
23.1433480000000031
 30
0.0
 10
24.7129269999999934
 20
23.331497000000013
 30
0.0
  0
SPLINE
  5
65
  8
Engrave2
 62
7
370
-1
  6
ByLayer
100
AcDbEntity
100
AcDbSpline
 70
8
 71
3
 72
8
 73
4
 74
0
 40
0.0
 40
0.0
 40
0.0
 40
0.0
 40
1.0
 40
1.0
 40
1.0
 40
1.0
 10
24.7129269999999934
 20
23.331497000000013
 30
0.0
 10
24.8187599999999975
 20
23.5225839999999948
 30
0.0
 10
24.9554600000000022
 20
23.6754530000000045
 30
0.0
 10
25.1230319999999949
 20
23.7901090000000011
 30
0.0
  0
SPLINE
  5
66
  8
Engrave2
 62
7
370
-1
  6
ByLayer
100
AcDbEntity
100
AcDbSpline
 70
8
 71
3
 72
8
 73
4
 74
0
 40
0.0
 40
0.0
 40
0.0
 40
0.0
 40
1.0
 40
1.0
 40
1.0
 40
1.0
 10
25.1230319999999949
 20
23.7901090000000011
 30
0.0
 10
25.293539999999993
 20
23.9047579999999869
 30
0.0
 10
25.4846270000000032
 20
23.9914829999999881
 30
0.0
 10
25.6962960000000038
 20
24.0502810000000125
 30
0.0
  0
SPLINE
  5
67
  8
Engrave2
 62
7
370
-1
  6
ByLayer
100
AcDbEntity
100
AcDbSpline
 70
8
 71
3
 72
8
 73
4
 74
0
 40
0.0
 40
0.0
 40
0.0
 40
0.0
 40
1.0
 40
1.0
 40
1.0
 40
1.0
 10
25.6962960000000038
 20
24.0502810000000125
 30
0.0
 10
25.8521029999999996
 20
24.0914370000000133
 30
0.0
 10
26.0872899999999959
 20
24.1311230000000023
 30
0.0
 10
26.4018520000000052
 20
24.1693449999999928
 30
0.0
  0
SPLINE
  5
68
  8
Engrave2
 62
7
370
-1
  6
ByLayer
100
AcDbEntity
100
AcDbSpline
 70
8
 71
3
 72
8
 73
4
 74
0
 40
0.0
 40
0.0
 40
0.0
 40
0.0
 40
1.0
 40
1.0
 40
1.0
 40
1.0
 10
26.4018520000000052
 20
24.1693449999999928
 30
0.0
 10
27.0427279999999968
 20
24.2457760000000064
 30
0.0
 10
27.5145669999999996
 20
24.3369109999999864
 30
0.0
 10
27.8173709999999943
 20
24.4427469999999971
 30
0.0
  0
SPLINE
  5
69
  8
Engrave2
 62
7
370
-1
  6
ByLayer
100
AcDbEntity
100
AcDbSpline
 70
8
 71
3
 72
8
 73
4
 74
0
 40
0.0
 40
0.0
 40
0.0
 40
0.0
 40
1.0
 40
1.0
 40
1.0
 40
1.0
 10
27.8173709999999943
 20
24.4427469999999971
 30
0.0
 10
27.8203060000000022
 20
24.5515159999999923
 30
0.0
 10
27.8217740000000049
 20
24.6206039999999859
 30
0.0
 10
27.8217740000000049
 20
24.6500029999999981
 30
0.0
  0
SPLINE
  5
6A
  8
Engrave2
 62
7
370
-1
  6
ByLayer
100
AcDbEntity
100
AcDbSpline
 70
8
 71
3
 72
8
 73
4
 74
0
 40
0.0
 40
0.0
 40
0.0
 40
0.0
 40
1.0
 40
1.0
 40
1.0
 40
1.0
 10
27.8217740000000049
 20
24.6500029999999981
 30
0.0
 10
27.8217680000000058
 20
24.9733789999999942
 30
0.0
 10
27.7468039999999974
 20
25.201217000000014
 30
0.0
 10
27.5968770000000063
 20
25.3335109999999872
 30
0.0
  0
SPLINE
  5
6B
  8
Engrave2
 62
7
370
-1
  6
ByLayer
100
AcDbEntity
100
AcDbSpline
 70
8
 71
3
 72
8
 73
4
 74
0
 40
0.0
 40
0.0
 40
0.0
 40
0.0
 40
1.0
 40
1.0
 40
1.0
 40
1.0
 10
27.5968770000000063
 20
25.3335109999999872
 30
0.0
 10
27.3940269999999941
 20
25.5128349999999955
 30
0.0
 10
27.0926950000000062
 20
25.602499999999992
 30
0.0
 10
26.692885000000004
 20
25.6025030000000129
 30
0.0
  0
SPLINE
  5
6C
  8
Engrave2
 62
7
370
-1
  6
ByLayer
100
AcDbEntity
100
AcDbSpline
 70
8
 71
3
 72
8
 73
4
 74
0
 40
0.0
 40
0.0
 40
0.0
 40
0.0
 40
1.0
 40
1.0
 40
1.0
 40
1.0
 10
26.692885000000004
 20
25.6025030000000129
 30
0.0
 10
26.3195249999999987
 20
25.602499999999992
 30
0.0
 10
26.0431839999999966
 20
25.5363529999999912
 30
0.0
 10
25.8638569999999959
 20
25.4040669999999977
 30
0.0
  0
SPLINE
  5
6D
  8
Engrave2
 62
7
370
-1
  6
ByLayer
100
AcDbEntity
100
AcDbSpline
 70
8
 71
3
 72
8
 73
4
 74
0
 40
0.0
 40
0.0
 40
0.0
 40
0.0
 40
1.0
 40
1.0
 40
1.0
 40
1.0
 10
25.8638569999999959
 20
25.4040669999999977
 30
0.0
 10
25.6874660000000006
 20
25.2747099999999989
 30
0.0
 10
25.5566440000000057
 20
25.0439340000000072
 30
0.0
 10
25.471390999999997
 20
24.7117389999999943
 30
0.0
  0
LWPOLYLINE
  5
6E
  8
Engrave2
 62
7
370
-1
  6
ByLayer
100
AcDbEntity
100
AcDbPolyline
 90
2
 70
0
 10
23.7604270000000071
 20
26.1625390000000095
 10
22.918171000000001
 20
25.964100000000002
  0
SPLINE
  5
6F
  8
Engrave2
 62
7
370
-1
  6
ByLayer
100
AcDbEntity
100
AcDbSpline
 70
8
 71
3
 72
8
 73
4
 74
0
 40
0.0
 40
0.0
 40
0.0
 40
0.0
 40
1.0
 40
1.0
 40
1.0
 40
1.0
 10
24.6952799999999968
 20
24.8175720000000126
 30
0.0
 10
24.7658349999999956
 20
25.1497679999999946
 30
0.0
 10
24.8819579999999974
 20
25.4172920000000033
 30
0.0
 10
25.043649000000002
 20
25.6201419999999871
 30
0.0
  0
SPLINE
  5
70
  8
Engrave2
 62
7
370
-1
  6
ByLayer
100
AcDbEntity
100
AcDbSpline
 70
8
 71
3
 72
8
 73
4
 74
0
 40
0.0
 40
0.0
 40
0.0
 40
0.0
 40
1.0
 40
1.0
 40
1.0
 40
1.0
 10
25.043649000000002
 20
25.6201419999999871
 30
0.0
 10
25.2053370000000001
 20
25.8259270000000072
 30
0.0
 10
25.4390510000000063
 20
25.9832069999999931
 30
0.0
 10
25.7447930000000014
 20
26.0919839999999965
 30
0.0
  0
SPLINE
  5
71
  8
Engrave2
 62
7
370
-1
  6
ByLayer
100
AcDbEntity
100
AcDbSpline
 70
8
 71
3
 72
8
 73
4
 74
0
 40
0.0
 40
0.0
 40
0.0
 40
0.0
 40
1.0
 40
1.0
 40
1.0
 40
1.0
 10
25.7447930000000014
 20
26.0919839999999965
 30
0.0
 10
26.0505330000000015
 20
26.203692999999987
 30
0.0
 10
26.4047790000000049
 20
26.2595469999999978
 30
0.0
 10
26.8075379999999939
 20
26.259553000000011
 30
0.0
  0
SPLINE
  5
72
  8
Engrave2
 62
7
370
-1
  6
ByLayer
100
AcDbEntity
100
AcDbSpline
 70
8
 71
3
 72
8
 73
4
 74
0
 40
0.0
 40
0.0
 40
0.0
 40
0.0
 40
1.0
 40
1.0
 40
1.0
 40
1.0
 10
26.8075379999999939
 20
26.259553000000011
 30
0.0
 10
27.2073479999999961
 20
26.2595469999999978
 30
0.0
 10
27.5321969999999965
 20
26.2125120000000038
 30
0.0
 10
27.782084999999995
 20
26.1184419999999875
 30
0.0
  0
SPLINE
  5
73
  8
Engrave2
 62
7
370
-1
  6
ByLayer
100
AcDbEntity
100
AcDbSpline
 70
8
 71
3
 72
8
 73
4
 74
0
 40
0.0
 40
0.0
 40
0.0
 40
0.0
 40
1.0
 40
1.0
 40
1.0
 40
1.0
 10
27.782084999999995
 20
26.1184419999999875
 30
0.0
 10
28.0319649999999996
 20
26.0243629999999939
 30
0.0
 10
28.2157049999999998
 20
25.9052990000000136
 30
0.0
 10
28.3333020000000033
 20
25.7612530000000106
 30
0.0
  0
SPLINE
  5
74
  8
Engrave2
 62
7
370
-1
  6
ByLayer
100
AcDbEntity
100
AcDbSpline
 70
8
 71
3
 72
8
 73
4
 74
0
 40
0.0
 40
0.0
 40
0.0
 40
0.0
 40
1.0
 40
1.0
 40
1.0
 40
1.0
 10
28.3333020000000033
 20
25.7612530000000106
 30
0.0
 10
28.4508900000000011
 20
25.6201389999999947
 30
0.0
 10
28.5332030000000003
 20
25.4408090000000016
 30
0.0
 10
28.5802460000000025
 20
25.2232669999999928
 30
0.0
  0
SPLINE
  5
75
  8
Engrave2
 62
7
370
-1
  6
ByLayer
100
AcDbEntity
100
AcDbSpline
 70
8
 71
3
 72
8
 73
4
 74
0
 40
0.0
 40
0.0
 40
0.0
 40
0.0
 40
1.0
 40
1.0
 40
1.0
 40
1.0
 10
28.5802460000000025
 20
25.2232669999999928
 30
0.0
 10
28.6066900000000004
 20
25.0880319999999983
 30
0.0
 10
28.6199289999999991
 20
24.8440280000000087
 30
0.0
 10
28.6199320000000057
 20
24.4912530000000004
 30
0.0
  0
LWPOLYLINE
  5
76
  8
Engrave2
 62
7
370
-1
  6
ByLayer
100
AcDbEntity
100
AcDbPolyline
 90
2
 70
0
 10
25.471390999999997
 20
24.7117389999999943
 10
24.6952799999999968
 20
24.8175720000000126
  0
SPLINE
  5
77
  8
Engrave2
 62
7
370
-1
  6
ByLayer
100
AcDbEntity
100
AcDbSpline
 70
8
 71
3
 72
8
 73
4
 74
0
 40
0.0
 40
0.0
 40
0.0
 40
0.0
 40
1.0
 40
1.0
 40
1.0
 40
1.0
 10
28.6199320000000057
 20
23.4329199999999958
 30
0.0
 10
28.6199289999999991
 20
22.6950270000000103
 30
0.0
 10
28.6361040000000031
 20
22.2275960000000055
 30
0.0
 10
28.6684410000000014
 20
22.0306280000000072
 30
0.0
  0
SPLINE
  5
78
  8
Engrave2
 62
7
370
-1
  6
ByLayer
100
AcDbEntity
100
AcDbSpline
 70
8
 71
3
 72
8
 73
4
 74
0
 40
0.0
 40
0.0
 40
0.0
 40
0.0
 40
1.0
 40
1.0
 40
1.0
 40
1.0
 10
28.6684410000000014
 20
22.0306280000000072
 30
0.0
 10
28.7037129999999934
 20
21.8366000000000042
 30
0.0
 10
28.7713279999999969
 20
21.6499210000000062
 30
0.0
 10
28.8712880000000069
 20
21.470595000000003
 30
0.0
  0
LWPOLYLINE
  5
79
  8
Engrave2
 62
7
370
-1
  6
ByLayer
100
AcDbEntity
100
AcDbPolyline
 90
2
 70
0
 10
28.6199320000000057
 20
24.4912530000000004
 10
28.6199320000000057
 20
23.4329199999999958
  0
SPLINE
  5
7A
  8
Engrave2
 62
7
370
-1
  6
ByLayer
100
AcDbEntity
100
AcDbSpline
 70
8
 71
3
 72
8
 73
4
 74
0
 40
0.0
 40
0.0
 40
0.0
 40
0.0
 40
1.0
 40
1.0
 40
1.0
 40
1.0
 10
28.0422599999999989
 20
21.470595000000003
 30
0.0
 10
27.9599419999999981
 20
21.6352229999999963
 30
0.0
 10
27.9070250000000044
 20
21.8277809999999874
 30
0.0
 10
27.8835100000000011
 20
22.0482670000000098
 30
0.0
  0
SPLINE
  5
7B
  8
Engrave2
 62
7
370
-1
  6
ByLayer
100
AcDbEntity
100
AcDbSpline
 70
8
 71
3
 72
8
 73
4
 74
0
 40
0.0
 40
0.0
 40
0.0
 40
0.0
 40
1.0
 40
1.0
 40
1.0
 40
1.0
 10
27.8173630000000003
 20
23.8209750000000042
 30
0.0
 10
27.5292589999999961
 20
23.7033820000000048
 30
0.0
 10
27.0971059999999966
 20
23.6034270000000106
 30
0.0
 10
26.5209049999999991
 20
23.5211140000000114
 30
0.0
  0
SPLINE
  5
7C
  8
Engrave2
 62
7
370
-1
  6
ByLayer
100
AcDbEntity
100
AcDbSpline
 70
8
 71
3
 72
8
 73
4
 74
0
 40
0.0
 40
0.0
 40
0.0
 40
0.0
 40
1.0
 40
1.0
 40
1.0
 40
1.0
 10
26.5209049999999991
 20
23.5211140000000114
 30
0.0
 10
26.1945819999999969
 20
23.4740759999999966
 30
0.0
 10
25.9638089999999977
 20
23.4211589999999887
 30
0.0
 10
25.8285800000000023
 20
23.3623640000000137
 30
0.0
  0
SPLINE
  5
7D
  8
Engrave2
 62
7
370
-1
  6
ByLayer
100
AcDbEntity
100
AcDbSpline
 70
8
 71
3
 72
8
 73
4
 74
0
 40
0.0
 40
0.0
 40
0.0
 40
0.0
 40
1.0
 40
1.0
 40
1.0
 40
1.0
 10
25.8285800000000023
 20
23.3623640000000137
 30
0.0
 10
25.6933439999999962
 20
23.3035659999999893
 30
0.0
 10
25.588981000000004
 20
23.216842000000014
 30
0.0
 10
25.5154880000000048
 20
23.1021920000000023
 30
0.0
  0
SPLINE
  5
7E
  8
Engrave2
 62
7
370
-1
  6
ByLayer
100
AcDbEntity
100
AcDbSpline
 70
8
 71
3
 72
8
 73
4
 74
0
 40
0.0
 40
0.0
 40
0.0
 40
0.0
 40
1.0
 40
1.0
 40
1.0
 40
1.0
 10
25.5154880000000048
 20
23.1021920000000023
 30
0.0
 10
25.4419919999999991
 20
22.9904769999999985
 30
0.0
 10
25.4052429999999987
 20
22.8655339999999967
 30
0.0
 10
25.4052460000000053
 20
22.7273639999999943
 30
0.0
  0
SPLINE
  5
7F
  8
Engrave2
 62
7
370
-1
  6
ByLayer
100
AcDbEntity
100
AcDbSpline
 70
8
 71
3
 72
8
 73
4
 74
0
 40
0.0
 40
0.0
 40
0.0
 40
0.0
 40
1.0
 40
1.0
 40
1.0
 40
1.0
 10
25.4052460000000053
 20
22.7273639999999943
 30
0.0
 10
25.4052429999999987
 20
22.5156969999999887
 30
0.0
 10
25.4846179999999976
 20
22.3393089999999859
 30
0.0
 10
25.6433710000000019
 20
22.1981969999999933
 30
0.0
  0
SPLINE
  5
80
  8
Engrave2
 62
7
370
-1
  6
ByLayer
100
AcDbEntity
100
AcDbSpline
 70
8
 71
3
 72
8
 73
4
 74
0
 40
0.0
 40
0.0
 40
0.0
 40
0.0
 40
1.0
 40
1.0
 40
1.0
 40
1.0
 10
25.6433710000000019
 20
22.1981969999999933
 30
0.0
 10
25.805059
 20
22.0570859999999982
 30
0.0
 10
26.0402430000000038
 20
21.9865310000000136
 30
0.0
 10
26.3489270000000033
 20
21.9865310000000136
 30
0.0
  0
SPLINE
  5
81
  8
Engrave2
 62
7
370
-1
  6
ByLayer
100
AcDbEntity
100
AcDbSpline
 70
8
 71
3
 72
8
 73
4
 74
0
 40
0.0
 40
0.0
 40
0.0
 40
0.0
 40
1.0
 40
1.0
 40
1.0
 40
1.0
 10
26.3489270000000033
 20
21.9865310000000136
 30
0.0
 10
26.6546639999999968
 20
21.9865310000000136
 30
0.0
 10
26.9265960000000035
 20
22.052677999999986
 30
0.0
 10
27.1647240000000068
 20
22.1849699999999928
 30
0.0
  0
SPLINE
  5
82
  8
Engrave2
 62
7
370
-1
  6
ByLayer
100
AcDbEntity
100
AcDbSpline
 70
8
 71
3
 72
8
 73
4
 74
0
 40
0.0
 40
0.0
 40
0.0
 40
0.0
 40
1.0
 40
1.0
 40
1.0
 40
1.0
 10
27.1647240000000068
 20
22.1849699999999928
 30
0.0
 10
27.4028459999999967
 20
22.3201990000000023
 30
0.0
 10
27.5777649999999994
 20
22.5039370000000076
 30
0.0
 10
27.6894819999999982
 20
22.7361840000000086
 30
0.0
  0
SPLINE
  5
83
  8
Engrave2
 62
7
370
-1
  6
ByLayer
100
AcDbEntity
100
AcDbSpline
 70
8
 71
3
 72
8
 73
4
 74
0
 40
0.0
 40
0.0
 40
0.0
 40
0.0
 40
1.0
 40
1.0
 40
1.0
 40
1.0
 10
27.6894819999999982
 20
22.7361840000000086
 30
0.0
 10
27.7747329999999977
 20
22.9155130000000042
 30
0.0
 10
27.8173599999999936
 20
23.1800939999999969
 30
0.0
 10
27.8173630000000003
 20
23.5299339999999972
 30
0.0
  0
LWPOLYLINE
  5
84
  8
Engrave2
 62
7
370
-1
  6
ByLayer
100
AcDbEntity
100
AcDbPolyline
 90
2
 70
0
 10
28.8712880000000069
 20
21.470595000000003
 10
28.0422599999999989
 20
21.470595000000003
  0
LWPOLYLINE
  5
85
  8
Engrave2
 62
7
370
-1
  6
ByLayer
100
AcDbEntity
100
AcDbPolyline
 90
2
 70
0
 10
27.8173630000000003
 20
23.5299339999999972
 10
27.8173630000000003
 20
23.8209750000000042
  0
SPLINE
  5
86
  8
Engrave2
 62
7
370
-1
  6
ByLayer
100
AcDbEntity
100
AcDbSpline
 70
8
 71
3
 72
8
 73
4
 74
0
 40
0.0
 40
0.0
 40
0.0
 40
0.0
 40
1.0
 40
1.0
 40
1.0
 40
1.0
 10
30.5602190000000036
 20
25.4437529999999867
 30
0.0
 10
30.7424859999999995
 20
25.7759479999999996
 30
0.0
 10
30.9100559999999973
 20
25.9949640000000102
 30
0.0
 10
31.062927000000002
 20
26.1008030000000133
 30
0.0
  0
SPLINE
  5
87
  8
Engrave2
 62
7
370
-1
  6
ByLayer
100
AcDbEntity
100
AcDbSpline
 70
8
 71
3
 72
8
 73
4
 74
0
 40
0.0
 40
0.0
 40
0.0
 40
0.0
 40
1.0
 40
1.0
 40
1.0
 40
1.0
 10
31.062927000000002
 20
26.1008030000000133
 30
0.0
 10
31.2187360000000069
 20
26.2066309999999874
 30
0.0
 10
31.389244000000005
 20
26.2595469999999978
 30
0.0
 10
31.5744550000000004
 20
26.259553000000011
 30
0.0
  0
SPLINE
  5
88
  8
Engrave2
 62
7
370
-1
  6
ByLayer
100
AcDbEntity
100
AcDbSpline
 70
8
 71
3
 72
8
 73
4
 74
0
 40
0.0
 40
0.0
 40
0.0
 40
0.0
 40
1.0
 40
1.0
 40
1.0
 40
1.0
 10
31.5744550000000004
 20
26.259553000000011
 30
0.0
 10
31.8419760000000025
 20
26.2595469999999978
 30
0.0
 10
32.113907999999995
 20
26.1742940000000033
 30
0.0
 10
32.3902549999999962
 20
26.0037890000000118
 30
0.0
  0
LWPOLYLINE
  5
89
  8
Engrave2
 62
7
370
-1
  6
ByLayer
100
AcDbEntity
100
AcDbPolyline
 90
4
 70
0
 10
29.8458439999999996
 20
21.470595000000003
 10
29.8458439999999996
 20
26.1537199999999928
 10
30.5602190000000036
 20
26.1537199999999928
 10
30.5602190000000036
 20
25.4437529999999867
  0
SPLINE
  5
8A
  8
Engrave2
 62
7
370
-1
  6
ByLayer
100
AcDbEntity
100
AcDbSpline
 70
8
 71
3
 72
8
 73
4
 74
0
 40
0.0
 40
0.0
 40
0.0
 40
0.0
 40
1.0
 40
1.0
 40
1.0
 40
1.0
 10
32.1168519999999944
 20
25.2673639999999864
 30
0.0
 10
31.922820999999999
 20
25.3820139999999981
 30
0.0
 10
31.7287939999999935
 20
25.4393389999999897
 30
0.0
 10
31.5347689999999972
 20
25.439345000000003
 30
0.0
  0
SPLINE
  5
8B
  8
Engrave2
 62
7
370
-1
  6
ByLayer
100
AcDbEntity
100
AcDbSpline
 70
8
 71
3
 72
8
 73
4
 74
0
 40
0.0
 40
0.0
 40
0.0
 40
0.0
 40
1.0
 40
1.0
 40
1.0
 40
1.0
 10
31.5347689999999972
 20
25.439345000000003
 30
0.0
 10
31.3613179999999971
 20
25.4393389999999897
 30
0.0
 10
31.2055059999999997
 20
25.3864250000000027
 30
0.0
 10
31.0673380000000066
 20
25.2805950000000053
 30
0.0
  0
SPLINE
  5
8C
  8
Engrave2
 62
7
370
-1
  6
ByLayer
100
AcDbEntity
100
AcDbSpline
 70
8
 71
3
 72
8
 73
4
 74
0
 40
0.0
 40
0.0
 40
0.0
 40
0.0
 40
1.0
 40
1.0
 40
1.0
 40
1.0
 10
31.0673380000000066
 20
25.2805950000000053
 30
0.0
 10
30.9291649999999976
 20
25.1776959999999974
 30
0.0
 10
30.8306809999999984
 20
25.033647000000002
 30
0.0
 10
30.7718849999999975
 20
24.8484420000000057
 30
0.0
  0
SPLINE
  5
8D
  8
Engrave2
 62
7
370
-1
  6
ByLayer
100
AcDbEntity
100
AcDbSpline
 70
8
 71
3
 72
8
 73
4
 74
0
 40
0.0
 40
0.0
 40
0.0
 40
0.0
 40
1.0
 40
1.0
 40
1.0
 40
1.0
 10
30.7718849999999975
 20
24.8484420000000057
 30
0.0
 10
30.6836909999999961
 20
24.5662169999999946
 30
0.0
 10
30.6395940000000024
 20
24.2575359999999876
 30
0.0
 10
30.6395940000000024
 20
23.9224000000000103
 30
0.0
  0
LWPOLYLINE
  5
8E
  8
Engrave2
 62
7
370
-1
  6
ByLayer
100
AcDbEntity
100
AcDbPolyline
 90
2
 70
0
 10
32.3902549999999962
 20
26.0037890000000118
 10
32.1168519999999944
 20
25.2673639999999864
  0
LWPOLYLINE
  5
8F
  8
Engrave2
 62
7
370
-1
  6
ByLayer
100
AcDbEntity
100
AcDbPolyline
 90
3
 70
0
 10
30.6395940000000024
 20
23.9224000000000103
 10
30.6395940000000024
 20
21.470595000000003
 10
29.8458439999999996
 20
21.470595000000003
  0
SPLINE
  5
90
  8
Engrave2
 62
7
370
-1
  6
ByLayer
100
AcDbEntity
100
AcDbSpline
 70
8
 71
3
 72
8
 73
4
 74
0
 40
0.0
 40
0.0
 40
0.0
 40
0.0
 40
1.0
 40
1.0
 40
1.0
 40
1.0
 10
35.9092129999999941
 20
22.0614970000000028
 30
0.0
 10
35.6122869999999949
 20
21.5970079999999882
 30
0.0
 10
35.1757259999999974
 20
21.3647609999999872
 30
0.0
 10
34.5995240000000024
 20
21.3647609999999872
 30
0.0
  0
SPLINE
  5
91
  8
Engrave2
 62
7
370
-1
  6
ByLayer
100
AcDbEntity
100
AcDbSpline
 70
8
 71
3
 72
8
 73
4
 74
0
 40
0.0
 40
0.0
 40
0.0
 40
0.0
 40
1.0
 40
1.0
 40
1.0
 40
1.0
 10
34.5995240000000024
 20
21.3647609999999872
 30
0.0
 10
34.2261670000000038
 20
21.3647609999999872
 30
0.0
 10
33.8822080000000057
 20
21.4676540000000102
 30
0.0
 10
33.567649000000003
 20
21.6734419999999943
 30
0.0
  0
SPLINE
  5
92
  8
Engrave2
 62
7
370
-1
  6
ByLayer
100
AcDbEntity
100
AcDbSpline
 70
8
 71
3
 72
8
 73
4
 74
0
 40
0.0
 40
0.0
 40
0.0
 40
0.0
 40
1.0
 40
1.0
 40
1.0
 40
1.0
 10
33.567649000000003
 20
21.6734419999999943
 30
0.0
 10
33.2560280000000006
 20
21.879226999999986
 30
0.0
 10
33.0134939999999943
 20
22.1658600000000092
 30
0.0
 10
32.840046000000001
 20
22.5333359999999914
 30
0.0
  0
SPLINE
  5
93
  8
Engrave2
 62
7
370
-1
  6
ByLayer
100
AcDbEntity
100
AcDbSpline
 70
8
 71
3
 72
8
 73
4
 74
0
 40
0.0
 40
0.0
 40
0.0
 40
0.0
 40
1.0
 40
1.0
 40
1.0
 40
1.0
 10
32.840046000000001
 20
22.5333359999999914
 30
0.0
 10
32.6695359999999937
 20
22.9037529999999947
 30
0.0
 10
32.5842800000000068
 20
23.3285569999999893
 30
0.0
 10
32.5842820000000017
 20
23.8077470000000062
 30
0.0
  0
SPLINE
  5
94
  8
Engrave2
 62
7
370
-1
  6
ByLayer
100
AcDbEntity
100
AcDbSpline
 70
8
 71
3
 72
8
 73
4
 74
0
 40
0.0
 40
0.0
 40
0.0
 40
0.0
 40
1.0
 40
1.0
 40
1.0
 40
1.0
 10
32.5842820000000017
 20
23.8077470000000062
 30
0.0
 10
32.5842800000000068
 20
24.2751749999999902
 30
0.0
 10
32.662187000000003
 20
24.6985080000000039
 30
0.0
 10
32.8179959999999937
 20
25.077746999999988
 30
0.0
  0
SPLINE
  5
95
  8
Engrave2
 62
7
370
-1
  6
ByLayer
100
AcDbEntity
100
AcDbSpline
 70
8
 71
3
 72
8
 73
4
 74
0
 40
0.0
 40
0.0
 40
0.0
 40
0.0
 40
1.0
 40
1.0
 40
1.0
 40
1.0
 10
32.8179959999999937
 20
25.077746999999988
 30
0.0
 10
32.9738059999999962
 20
25.4599190000000135
 30
0.0
 10
33.2075219999999973
 20
25.7524310000000014
 30
0.0
 10
33.5191439999999972
 20
25.9552810000000136
 30
0.0
  0
SPLINE
  5
96
  8
Engrave2
 62
7
370
-1
  6
ByLayer
100
AcDbEntity
100
AcDbSpline
 70
8
 71
3
 72
8
 73
4
 74
0
 40
0.0
 40
0.0
 40
0.0
 40
0.0
 40
1.0
 40
1.0
 40
1.0
 40
1.0
 10
33.5191439999999972
 20
25.9552810000000136
 30
0.0
 10
33.8307619999999929
 20
26.1581250000000125
 30
0.0
 10
34.1791290000000032
 20
26.2595469999999978
 30
0.0
 10
34.5642459999999971
 20
26.259553000000011
 30
0.0
  0
SPLINE
  5
97
  8
Engrave2
 62
7
370
-1
  6
ByLayer
100
AcDbEntity
100
AcDbSpline
 70
8
 71
3
 72
8
 73
4
 74
0
 40
0.0
 40
0.0
 40
0.0
 40
0.0
 40
1.0
 40
1.0
 40
1.0
 40
1.0
 10
34.5642459999999971
 20
26.259553000000011
 30
0.0
 10
34.8464660000000066
 20
26.2595469999999978
 30
0.0
 10
35.0978209999999962
 20
26.1992820000000108
 30
0.0
 10
35.3183099999999968
 20
26.0787530000000061
 30
0.0
  0
SPLINE
  5
98
  8
Engrave2
 62
7
370
-1
  6
ByLayer
100
AcDbEntity
100
AcDbSpline
 70
8
 71
3
 72
8
 73
4
 74
0
 40
0.0
 40
0.0
 40
0.0
 40
0.0
 40
1.0
 40
1.0
 40
1.0
 40
1.0
 10
35.3183099999999968
 20
26.0787530000000061
 30
0.0
 10
35.5387910000000034
 20
25.9611569999999858
 30
0.0
 10
35.718119999999999
 20
25.8068179999999927
 30
0.0
 10
35.8562960000000004
 20
25.6157340000000033
 30
0.0
  0
LWPOLYLINE
  5
99
  8
Engrave2
 62
7
370
-1
  6
ByLayer
100
AcDbEntity
100
AcDbPolyline
 90
2
 70
0
 10
35.9092129999999941
 20
21.470595000000003
 10
35.9092129999999941
 20
22.0614970000000028
  0
SPLINE
  5
9A
  8
Engrave2
 62
7
370
-1
  6
ByLayer
100
AcDbEntity
100
AcDbSpline
 70
8
 71
3
 72
8
 73
4
 74
0
 40
0.0
 40
0.0
 40
0.0
 40
0.0
 40
1.0
 40
1.0
 40
1.0
 40
1.0
 10
33.4000800000000027
 20
23.8077470000000062
 30
0.0
 10
33.4000800000000027
 20
23.2080219999999997
 30
0.0
 10
33.5264899999999955
 20
22.7597010000000068
 30
0.0
 10
33.7793159999999943
 20
22.4627810000000068
 30
0.0
  0
SPLINE
  5
9B
  8
Engrave2
 62
7
370
-1
  6
ByLayer
100
AcDbEntity
100
AcDbSpline
 70
8
 71
3
 72
8
 73
4
 74
0
 40
0.0
 40
0.0
 40
0.0
 40
0.0
 40
1.0
 40
1.0
 40
1.0
 40
1.0
 10
33.7793159999999943
 20
22.4627810000000068
 30
0.0
 10
34.0321390000000008
 20
22.1658600000000092
 30
0.0
 10
34.330529999999996
 20
22.0174000000000092
 30
0.0
 10
34.6744910000000033
 20
22.0174000000000092
 30
0.0
  0
SPLINE
  5
9C
  8
Engrave2
 62
7
370
-1
  6
ByLayer
100
AcDbEntity
100
AcDbSpline
 70
8
 71
3
 72
8
 73
4
 74
0
 40
0.0
 40
0.0
 40
0.0
 40
0.0
 40
1.0
 40
1.0
 40
1.0
 40
1.0
 10
34.6744910000000033
 20
22.0174000000000092
 30
0.0
 10
35.0213839999999976
 20
22.0174000000000092
 30
0.0
 10
35.3153669999999948
 20
22.1585110000000043
 30
0.0
 10
35.5564349999999934
 20
22.440733999999992
 30
0.0
  0
SPLINE
  5
9D
  8
Engrave2
 62
7
370
-1
  6
ByLayer
100
AcDbEntity
100
AcDbSpline
 70
8
 71
3
 72
8
 73
4
 74
0
 40
0.0
 40
0.0
 40
0.0
 40
0.0
 40
1.0
 40
1.0
 40
1.0
 40
1.0
 10
35.5564349999999934
 20
22.440733999999992
 30
0.0
 10
35.8004360000000048
 20
22.7258940000000109
 30
0.0
 10
35.9224379999999996
 20
23.1595169999999939
 30
0.0
 10
35.9224410000000063
 20
23.7416000000000054
 30
0.0
  0
SPLINE
  5
9E
  8
Engrave2
 62
7
370
-1
  6
ByLayer
100
AcDbEntity
100
AcDbSpline
 70
8
 71
3
 72
8
 73
4
 74
0
 40
0.0
 40
0.0
 40
0.0
 40
0.0
 40
1.0
 40
1.0
 40
1.0
 40
1.0
 10
35.9224410000000063
 20
23.7416000000000054
 30
0.0
 10
35.9224379999999996
 20
24.3824789999999894
 30
0.0
 10
35.798965999999993
 20
24.852846999999997
 30
0.0
 10
35.552024000000003
 20
25.1527110000000107
 30
0.0
  0
SPLINE
  5
9F
  8
Engrave2
 62
7
370
-1
  6
ByLayer
100
AcDbEntity
100
AcDbSpline
 70
8
 71
3
 72
8
 73
4
 74
0
 40
0.0
 40
0.0
 40
0.0
 40
0.0
 40
1.0
 40
1.0
 40
1.0
 40
1.0
 10
35.552024000000003
 20
25.1527110000000107
 30
0.0
 10
35.3050769999999972
 20
25.4525700000000086
 30
0.0
 10
35.0008069999999947
 20
25.602499999999992
 30
0.0
 10
34.639212999999998
 20
25.6025030000000129
 30
0.0
  0
SPLINE
  5
A0
  8
Engrave2
 62
7
370
-1
  6
ByLayer
100
AcDbEntity
100
AcDbSpline
 70
8
 71
3
 72
8
 73
4
 74
0
 40
0.0
 40
0.0
 40
0.0
 40
0.0
 40
1.0
 40
1.0
 40
1.0
 40
1.0
 10
34.639212999999998
 20
25.6025030000000129
 30
0.0
 10
34.2864320000000049
 20
25.602499999999992
 30
0.0
 10
33.9909799999999933
 20
25.4584480000000042
 30
0.0
 10
33.7528570000000059
 20
25.1703500000000133
 30
0.0
  0
SPLINE
  5
A1
  8
Engrave2
 62
7
370
-1
  6
ByLayer
100
AcDbEntity
100
AcDbSpline
 70
8
 71
3
 72
8
 73
4
 74
0
 40
0.0
 40
0.0
 40
0.0
 40
0.0
 40
1.0
 40
1.0
 40
1.0
 40
1.0
 10
33.7528570000000059
 20
25.1703500000000133
 30
0.0
 10
33.5176699999999954
 20
24.8822460000000092
 30
0.0
 10
33.4000800000000027
 20
24.4280459999999948
 30
0.0
 10
33.4000800000000027
 20
23.8077470000000062
 30
0.0
  0
LWPOLYLINE
  5
A2
  8
Engrave2
 62
7
370
-1
  6
ByLayer
100
AcDbEntity
100
AcDbPolyline
 90
5
 70
0
 10
35.8562960000000004
 20
25.6157340000000033
 10
35.8562960000000004
 20
27.9352470000000039
 10
36.6456349999999986
 20
27.9352470000000039
 10
36.6456349999999986
 20
21.470595000000003
 10
35.9092129999999941
 20
21.470595000000003
  0
SPLINE
  5
A3
  8
Engrave2
 62
7
370
-1
  6
ByLayer
100
AcDbEntity
100
AcDbSpline
 70
8
 71
3
 72
8
 73
4
 74
0
 40
0.0
 40
0.0
 40
0.0
 40
0.0
 40
1.0
 40
1.0
 40
1.0
 40
1.0
 10
38.6873379999999969
 20
25.6289610000000039
 30
0.0
 10
39.0224740000000025
 20
26.0493510000000015
 30
0.0
 10
39.4502159999999975
 20
26.2595469999999978
 30
0.0
 10
39.9705660000000051
 20
26.259553000000011
 30
0.0
  0
SPLINE
  5
A4
  8
Engrave2
 62
7
370
-1
  6
ByLayer
100
AcDbEntity
100
AcDbSpline
 70
8
 71
3
 72
8
 73
4
 74
0
 40
0.0
 40
0.0
 40
0.0
 40
0.0
 40
1.0
 40
1.0
 40
1.0
 40
1.0
 10
39.9705660000000051
 20
26.259553000000011
 30
0.0
 10
40.258663999999996
 20
26.2595469999999978
 30
0.0
 10
40.5305960000000027
 20
26.2007519999999943
 30
0.0
 10
40.786366000000001
 20
26.0831640000000107
 30
0.0
  0
SPLINE
  5
A5
  8
Engrave2
 62
7
370
-1
  6
ByLayer
100
AcDbEntity
100
AcDbSpline
 70
8
 71
3
 72
8
 73
4
 74
0
 40
0.0
 40
0.0
 40
0.0
 40
0.0
 40
1.0
 40
1.0
 40
1.0
 40
1.0
 10
40.786366000000001
 20
26.0831640000000107
 30
0.0
 10
41.0450649999999939
 20
25.9685059999999908
 30
0.0
 10
41.256731000000002
 20
25.8053470000000118
 30
0.0
 10
41.4213660000000061
 20
25.5936839999999961
 30
0.0
  0
SPLINE
  5
A6
  8
Engrave2
 62
7
370
-1
  6
ByLayer
100
AcDbEntity
100
AcDbSpline
 70
8
 71
3
 72
8
 73
4
 74
0
 40
0.0
 40
0.0
 40
0.0
 40
0.0
 40
1.0
 40
1.0
 40
1.0
 40
1.0
 10
41.4213660000000061
 20
25.5936839999999961
 30
0.0
 10
41.5889300000000048
 20
25.3849549999999908
 30
0.0
 10
41.7197510000000023
 20
25.1321289999999919
 30
0.0
 10
41.8138299999999958
 20
24.8352109999999868
 30
0.0
  0
SPLINE
  5
A7
  8
Engrave2
 62
7
370
-1
  6
ByLayer
100
AcDbEntity
100
AcDbSpline
 70
8
 71
3
 72
8
 73
4
 74
0
 40
0.0
 40
0.0
 40
0.0
 40
0.0
 40
1.0
 40
1.0
 40
1.0
 40
1.0
 10
41.8138299999999958
 20
24.8352109999999868
 30
0.0
 10
41.9078999999999979
 20
24.5382879999999943
 30
0.0
 10
41.9549350000000061
 20
24.2207879999999989
 30
0.0
 10
41.9549410000000051
 20
23.8827110000000005
 30
0.0
  0
SPLINE
  5
A8
  8
Engrave2
 62
7
370
-1
  6
ByLayer
100
AcDbEntity
100
AcDbSpline
 70
8
 71
3
 72
8
 73
4
 74
0
 40
0.0
 40
0.0
 40
0.0
 40
0.0
 40
1.0
 40
1.0
 40
1.0
 40
1.0
 10
41.9549410000000051
 20
23.8827110000000005
 30
0.0
 10
41.9549350000000061
 20
23.0801419999999951
 30
0.0
 10
41.7564990000000051
 20
22.459840000000014
 30
0.0
 10
41.3596299999999957
 20
22.0218089999999904
 30
0.0
  0
SPLINE
  5
A9
  8
Engrave2
 62
7
370
-1
  6
ByLayer
100
AcDbEntity
100
AcDbSpline
 70
8
 71
3
 72
8
 73
4
 74
0
 40
0.0
 40
0.0
 40
0.0
 40
0.0
 40
1.0
 40
1.0
 40
1.0
 40
1.0
 10
41.3596299999999957
 20
22.0218089999999904
 30
0.0
 10
40.9627490000000023
 20
21.5837769999999978
 30
0.0
 10
40.4864989999999949
 20
21.3647609999999872
 30
0.0
 10
39.9308800000000019
 20
21.3647609999999872
 30
0.0
  0
SPLINE
  5
AA
  8
Engrave2
 62
7
370
-1
  6
ByLayer
100
AcDbEntity
100
AcDbSpline
 70
8
 71
3
 72
8
 73
4
 74
0
 40
0.0
 40
0.0
 40
0.0
 40
0.0
 40
1.0
 40
1.0
 40
1.0
 40
1.0
 10
39.9308800000000019
 20
21.3647609999999872
 30
0.0
 10
39.378192999999996
 20
21.3647609999999872
 30
0.0
 10
38.9445690000000013
 20
21.5955370000000073
 30
0.0
 10
38.6300099999999986
 20
22.0570859999999982
 30
0.0
  0
LWPOLYLINE
  5
AB
  8
Engrave2
 62
7
370
-1
  6
ByLayer
100
AcDbEntity
100
AcDbPolyline
 90
5
 70
0
 10
38.6300099999999986
 20
21.470595000000003
 10
37.8935879999999941
 20
21.470595000000003
 10
37.8935879999999941
 20
27.9352470000000039
 10
38.6873379999999969
 20
27.9352470000000039
 10
38.6873379999999969
 20
25.6289610000000039
  0
SPLINE
  5
AC
  8
Engrave2
 62
7
370
-1
  6
ByLayer
100
AcDbEntity
100
AcDbSpline
 70
8
 71
3
 72
8
 73
4
 74
0
 40
0.0
 40
0.0
 40
0.0
 40
0.0
 40
1.0
 40
1.0
 40
1.0
 40
1.0
 10
38.6212050000000033
 20
23.8474339999999927
 30
0.0
 10
38.6212050000000033
 20
23.2859269999999867
 30
0.0
 10
38.6976389999999952
 20
22.880234999999999
 30
0.0
 10
38.8505099999999999
 20
22.6303499999999929
 30
0.0
  0
SPLINE
  5
AD
  8
Engrave2
 62
7
370
-1
  6
ByLayer
100
AcDbEntity
100
AcDbSpline
 70
8
 71
3
 72
8
 73
4
 74
0
 40
0.0
 40
0.0
 40
0.0
 40
0.0
 40
1.0
 40
1.0
 40
1.0
 40
1.0
 10
38.8505099999999999
 20
22.6303499999999929
 30
0.0
 10
39.1003929999999968
 20
22.221714999999989
 30
0.0
 10
39.4384720000000044
 20
22.0174000000000092
 30
0.0
 10
39.8647469999999942
 20
22.0174000000000092
 30
0.0
  0
SPLINE
  5
AE
  8
Engrave2
 62
7
370
-1
  6
ByLayer
100
AcDbEntity
100
AcDbSpline
 70
8
 71
3
 72
8
 73
4
 74
0
 40
0.0
 40
0.0
 40
0.0
 40
0.0
 40
1.0
 40
1.0
 40
1.0
 40
1.0
 10
39.8647469999999942
 20
22.0174000000000092
 30
0.0
 10
40.2116429999999951
 20
22.0174000000000092
 30
0.0
 10
40.5115040000000022
 20
22.1673309999999901
 30
0.0
 10
40.7643300000000011
 20
22.4671920000000114
 30
0.0
  0
SPLINE
  5
AF
  8
Engrave2
 62
7
370
-1
  6
ByLayer
100
AcDbEntity
100
AcDbSpline
 70
8
 71
3
 72
8
 73
4
 74
0
 40
0.0
 40
0.0
 40
0.0
 40
0.0
 40
1.0
 40
1.0
 40
1.0
 40
1.0
 10
40.7643300000000011
 20
22.4671920000000114
 30
0.0
 10
41.0171500000000009
 20
22.7699910000000045
 30
0.0
 10
41.1435630000000003
 20
23.2197830000000067
 30
0.0
 10
41.143566000000007
 20
23.816566999999992
 30
0.0
  0
SPLINE
  5
B0
  8
Engrave2
 62
7
370
-1
  6
ByLayer
100
AcDbEntity
100
AcDbSpline
 70
8
 71
3
 72
8
 73
4
 74
0
 40
0.0
 40
0.0
 40
0.0
 40
0.0
 40
1.0
 40
1.0
 40
1.0
 40
1.0
 10
41.143566000000007
 20
23.816566999999992
 30
0.0
 10
41.1435630000000003
 20
24.4280459999999948
 30
0.0
 10
41.0215610000000055
 20
24.8793060000000139
 30
0.0
 10
40.777559999999994
 20
25.1703500000000133
 30
0.0
  0
SPLINE
  5
B1
  8
Engrave2
 62
7
370
-1
  6
ByLayer
100
AcDbEntity
100
AcDbSpline
 70
8
 71
3
 72
8
 73
4
 74
0
 40
0.0
 40
0.0
 40
0.0
 40
0.0
 40
1.0
 40
1.0
 40
1.0
 40
1.0
 10
40.777559999999994
 20
25.1703500000000133
 30
0.0
 10
40.5364919999999955
 20
25.4613889999999969
 30
0.0
 10
40.2439799999999934
 20
25.6069080000000042
 30
0.0
 10
39.9000240000000019
 20
25.6069139999999891
 30
0.0
  0
SPLINE
  5
B2
  8
Engrave2
 62
7
370
-1
  6
ByLayer
100
AcDbEntity
100
AcDbSpline
 70
8
 71
3
 72
8
 73
4
 74
0
 40
0.0
 40
0.0
 40
0.0
 40
0.0
 40
1.0
 40
1.0
 40
1.0
 40
1.0
 10
39.9000240000000019
 20
25.6069139999999891
 30
0.0
 10
39.5531249999999943
 20
25.6069080000000042
 30
0.0
 10
39.2532640000000015
 20
25.4555100000000039
 30
0.0
 10
39.000440999999995
 20
25.1527110000000107
 30
0.0
  0
SPLINE
  5
B3
  8
Engrave2
 62
7
370
-1
  6
ByLayer
100
AcDbEntity
100
AcDbSpline
 70
8
 71
3
 72
8
 73
4
 74
0
 40
0.0
 40
0.0
 40
0.0
 40
0.0
 40
1.0
 40
1.0
 40
1.0
 40
1.0
 10
39.000440999999995
 20
25.1527110000000107
 30
0.0
 10
38.7476149999999961
 20
24.852846999999997
 30
0.0
 10
38.6212050000000033
 20
24.4177569999999946
 30
0.0
 10
38.6212050000000033
 20
23.8474339999999927
 30
0.0
  0
SPLINE
  5
B4
  8
Engrave2
 62
7
370
-1
  6
ByLayer
100
AcDbEntity
100
AcDbSpline
 70
8
 71
3
 72
8
 73
4
 74
0
 40
0.0
 40
0.0
 40
0.0
 40
0.0
 40
1.0
 40
1.0
 40
1.0
 40
1.0
 10
42.6296300000000059
 20
23.8121559999999874
 30
0.0
 10
42.6296269999999993
 20
24.6793989999999894
 30
0.0
 10
42.8706930000000028
 20
25.3217480000000137
 30
0.0
 10
43.3528239999999983
 20
25.7392059999999958
 30
0.0
  0
SPLINE
  5
B5
  8
Engrave2
 62
7
370
-1
  6
ByLayer
100
AcDbEntity
100
AcDbSpline
 70
8
 71
3
 72
8
 73
4
 74
0
 40
0.0
 40
0.0
 40
0.0
 40
0.0
 40
1.0
 40
1.0
 40
1.0
 40
1.0
 10
43.3528239999999983
 20
25.7392059999999958
 30
0.0
 10
43.7555749999999932
 20
26.0860989999999902
 30
0.0
 10
44.2465260000000029
 20
26.2595469999999978
 30
0.0
 10
44.8256709999999998
 20
26.259553000000011
 30
0.0
  0
SPLINE
  5
B6
  8
Engrave2
 62
7
370
-1
  6
ByLayer
100
AcDbEntity
100
AcDbSpline
 70
8
 71
3
 72
8
 73
4
 74
0
 40
0.0
 40
0.0
 40
0.0
 40
0.0
 40
1.0
 40
1.0
 40
1.0
 40
1.0
 10
44.8256709999999998
 20
26.259553000000011
 30
0.0
 10
45.4694850000000059
 20
26.2595469999999978
 30
0.0
 10
45.9957140000000066
 20
26.0478809999999896
 30
0.0
 10
46.4043520000000029
 20
25.6245529999999917
 30
0.0
  0
SPLINE
  5
B7
  8
Engrave2
 62
7
370
-1
  6
ByLayer
100
AcDbEntity
100
AcDbSpline
 70
8
 71
3
 72
8
 73
4
 74
0
 40
0.0
 40
0.0
 40
0.0
 40
0.0
 40
1.0
 40
1.0
 40
1.0
 40
1.0
 10
46.4043520000000029
 20
25.6245529999999917
 30
0.0
 10
46.8129809999999935
 20
25.2041549999999859
 30
0.0
 10
47.0172960000000018
 20
24.6220710000000054
 30
0.0
 10
47.0173020000000008
 20
23.8783029999999883
 30
0.0
  0
SPLINE
  5
B8
  8
Engrave2
 62
7
370
-1
  6
ByLayer
100
AcDbEntity
100
AcDbSpline
 70
8
 71
3
 72
8
 73
4
 74
0
 40
0.0
 40
0.0
 40
0.0
 40
0.0
 40
1.0
 40
1.0
 40
1.0
 40
1.0
 10
47.0173020000000008
 20
23.8783029999999883
 30
0.0
 10
47.0172960000000018
 20
23.2756400000000099
 30
0.0
 10
46.926164
 20
22.8008600000000001
 30
0.0
 10
46.743898999999999
 20
22.4539609999999925
 30
0.0
  0
SPLINE
  5
B9
  8
Engrave2
 62
7
370
-1
  6
ByLayer
100
AcDbEntity
100
AcDbSpline
 70
8
 71
3
 72
8
 73
4
 74
0
 40
0.0
 40
0.0
 40
0.0
 40
0.0
 40
1.0
 40
1.0
 40
1.0
 40
1.0
 10
46.743898999999999
 20
22.4539609999999925
 30
0.0
 10
46.5645669999999967
 20
22.1100030000000061
 30
0.0
 10
46.3014540000000068
 20
21.8424819999999897
 30
0.0
 10
45.9545600000000007
 20
21.6513919999999871
 30
0.0
  0
SPLINE
  5
BA
  8
Engrave2
 62
7
370
-1
  6
ByLayer
100
AcDbEntity
100
AcDbSpline
 70
8
 71
3
 72
8
 73
4
 74
0
 40
0.0
 40
0.0
 40
0.0
 40
0.0
 40
1.0
 40
1.0
 40
1.0
 40
1.0
 10
45.9545600000000007
 20
21.6513919999999871
 30
0.0
 10
45.610596000000001
 20
21.4603050000000053
 30
0.0
 10
45.2343010000000021
 20
21.3647609999999872
 30
0.0
 10
44.8256709999999998
 20
21.3647609999999872
 30
0.0
  0
SPLINE
  5
BB
  8
Engrave2
 62
7
370
-1
  6
ByLayer
100
AcDbEntity
100
AcDbSpline
 70
8
 71
3
 72
8
 73
4
 74
0
 40
0.0
 40
0.0
 40
0.0
 40
0.0
 40
1.0
 40
1.0
 40
1.0
 40
1.0
 10
44.8256709999999998
 20
21.3647609999999872
 30
0.0
 10
44.1700890000000044
 20
21.3647609999999872
 30
0.0
 10
43.6394549999999981
 20
21.5749580000000094
 30
0.0
 10
43.2337600000000037
 20
21.995350000000002
 30
0.0
  0
SPLINE
  5
BC
  8
Engrave2
 62
7
370
-1
  6
ByLayer
100
AcDbEntity
100
AcDbSpline
 70
8
 71
3
 72
8
 73
4
 74
0
 40
0.0
 40
0.0
 40
0.0
 40
0.0
 40
1.0
 40
1.0
 40
1.0
 40
1.0
 10
43.2337600000000037
 20
21.995350000000002
 30
0.0
 10
42.8310069999999996
 20
22.415742999999992
 30
0.0
 10
42.6296269999999993
 20
23.0213459999999941
 30
0.0
 10
42.6296300000000059
 20
23.8121559999999874
 30
0.0
  0
SPLINE
  5
BD
  8
Engrave2
 62
7
370
-1
  6
ByLayer
100
AcDbEntity
100
AcDbSpline
 70
8
 71
3
 72
8
 73
4
 74
0
 40
0.0
 40
0.0
 40
0.0
 40
0.0
 40
1.0
 40
1.0
 40
1.0
 40
1.0
 10
43.4454269999999951
 20
23.8121559999999874
 30
0.0
 10
43.4454269999999951
 20
23.2124340000000018
 30
0.0
 10
43.5762480000000068
 20
22.7626419999999996
 30
0.0
 10
43.8378940000000057
 20
22.4627810000000068
 30
0.0
  0
SPLINE
  5
BE
  8
Engrave2
 62
7
370
-1
  6
ByLayer
100
AcDbEntity
100
AcDbSpline
 70
8
 71
3
 72
8
 73
4
 74
0
 40
0.0
 40
0.0
 40
0.0
 40
0.0
 40
1.0
 40
1.0
 40
1.0
 40
1.0
 10
43.8378940000000057
 20
22.4627810000000068
 30
0.0
 10
44.0995329999999939
 20
22.1658600000000092
 30
0.0
 10
44.4287939999999963
 20
22.0174000000000092
 30
0.0
 10
44.8256709999999998
 20
22.0174000000000092
 30
0.0
  0
SPLINE
  5
BF
  8
Engrave2
 62
7
370
-1
  6
ByLayer
100
AcDbEntity
100
AcDbSpline
 70
8
 71
3
 72
8
 73
4
 74
0
 40
0.0
 40
0.0
 40
0.0
 40
0.0
 40
1.0
 40
1.0
 40
1.0
 40
1.0
 10
44.8256709999999998
 20
22.0174000000000092
 30
0.0
 10
45.2196030000000064
 20
22.0174000000000092
 30
0.0
 10
45.5473929999999996
 20
22.1673309999999901
 30
0.0
 10
45.809038000000001
 20
22.4671920000000114
 30
0.0
  0
SPLINE
  5
C0
  8
Engrave2
 62
7
370
-1
  6
ByLayer
100
AcDbEntity
100
AcDbSpline
 70
8
 71
3
 72
8
 73
4
 74
0
 40
0.0
 40
0.0
 40
0.0
 40
0.0
 40
1.0
 40
1.0
 40
1.0
 40
1.0
 10
45.809038000000001
 20
22.4671920000000114
 30
0.0
 10
46.0706780000000009
 20
22.7670500000000118
 30
0.0
 10
46.2014989999999983
 20
23.2241909999999905
 30
0.0
 10
46.2015049999999974
 20
23.8386140000000069
 30
0.0
  0
SPLINE
  5
C1
  8
Engrave2
 62
7
370
-1
  6
ByLayer
100
AcDbEntity
100
AcDbSpline
 70
8
 71
3
 72
8
 73
4
 74
0
 40
0.0
 40
0.0
 40
0.0
 40
0.0
 40
1.0
 40
1.0
 40
1.0
 40
1.0
 10
46.2015049999999974
 20
23.8386140000000069
 30
0.0
 10
46.2014989999999983
 20
24.4177569999999946
 30
0.0
 10
46.0692070000000058
 20
24.8557879999999898
 30
0.0
 10
45.8046300000000031
 20
25.1527110000000107
 30
0.0
  0
SPLINE
  5
C2
  8
Engrave2
 62
7
370
-1
  6
ByLayer
100
AcDbEntity
100
AcDbSpline
 70
8
 71
3
 72
8
 73
4
 74
0
 40
0.0
 40
0.0
 40
0.0
 40
0.0
 40
1.0
 40
1.0
 40
1.0
 40
1.0
 10
45.8046300000000031
 20
25.1527110000000107
 30
0.0
 10
45.5429809999999975
 20
25.4525700000000086
 30
0.0
 10
45.2166619999999995
 20
25.602499999999992
 30
0.0
 10
44.8256709999999998
 20
25.6025030000000129
 30
0.0
  0
SPLINE
  5
C3
  8
Engrave2
 62
7
370
-1
  6
ByLayer
100
AcDbEntity
100
AcDbSpline
 70
8
 71
3
 72
8
 73
4
 74
0
 40
0.0
 40
0.0
 40
0.0
 40
0.0
 40
1.0
 40
1.0
 40
1.0
 40
1.0
 10
44.8256709999999998
 20
25.6025030000000129
 30
0.0
 10
44.4287939999999963
 20
25.602499999999992
 30
0.0
 10
44.0995329999999939
 20
25.454039999999992
 30
0.0
 10
43.8378940000000057
 20
25.1571219999999869
 30
0.0
  0
SPLINE
  5
C4
  8
Engrave2
 62
7
370
-1
  6
ByLayer
100
AcDbEntity
100
AcDbSpline
 70
8
 71
3
 72
8
 73
4
 74
0
 40
0.0
 40
0.0
 40
0.0
 40
0.0
 40
1.0
 40
1.0
 40
1.0
 40
1.0
 10
43.8378940000000057
 20
25.1571219999999869
 30
0.0
 10
43.5762480000000068
 20
24.860196000000002
 30
0.0
 10
43.4454269999999951
 20
24.4118750000000091
 30
0.0
 10
43.4454269999999951
 20
23.8121559999999874
 30
0.0
  0
SPLINE
  5
C5
  8
Engrave2
 62
7
370
-1
  6
ByLayer
100
AcDbEntity
100
AcDbSpline
 70
8
 71
3
 72
8
 73
4
 74
0
 40
0.0
 40
0.0
 40
0.0
 40
0.0
 40
1.0
 40
1.0
 40
1.0
 40
1.0
 10
51.0081019999999938
 20
22.0482670000000098
 30
0.0
 10
50.7141170000000017
 20
21.7983839999999987
 30
0.0
 10
50.4304240000000021
 20
21.6219959999999958
 30
0.0
 10
50.1570240000000069
 20
21.5191000000000088
 30
0.0
  0
SPLINE
  5
C6
  8
Engrave2
 62
7
370
-1
  6
ByLayer
100
AcDbEntity
100
AcDbSpline
 70
8
 71
3
 72
8
 73
4
 74
0
 40
0.0
 40
0.0
 40
0.0
 40
0.0
 40
1.0
 40
1.0
 40
1.0
 40
1.0
 10
50.1570240000000069
 20
21.5191000000000088
 30
0.0
 10
49.8865590000000054
 20
21.4162080000000117
 30
0.0
 10
49.5955179999999984
 20
21.3647609999999872
 30
0.0
 10
49.2838990000000052
 20
21.3647609999999872
 30
0.0
  0
SPLINE
  5
C7
  8
Engrave2
 62
7
370
-1
  6
ByLayer
100
AcDbEntity
100
AcDbSpline
 70
8
 71
3
 72
8
 73
4
 74
0
 40
0.0
 40
0.0
 40
0.0
 40
0.0
 40
1.0
 40
1.0
 40
1.0
 40
1.0
 10
49.2838990000000052
 20
21.3647609999999872
 30
0.0
 10
48.7694309999999973
 20
21.3647609999999872
 30
0.0
 10
48.3740260000000006
 20
21.489703999999989
 30
0.0
 10
48.0976849999999985
 20
21.7395860000000027
 30
0.0
  0
SPLINE
  5
C8
  8
Engrave2
 62
7
370
-1
  6
ByLayer
100
AcDbEntity
100
AcDbSpline
 70
8
 71
3
 72
8
 73
4
 74
0
 40
0.0
 40
0.0
 40
0.0
 40
0.0
 40
1.0
 40
1.0
 40
1.0
 40
1.0
 10
48.0976849999999985
 20
21.7395860000000027
 30
0.0
 10
47.8213420000000013
 20
21.9924120000000016
 30
0.0
 10
47.6831690000000066
 20
22.3143210000000067
 30
0.0
 10
47.6831710000000015
 20
22.705317000000008
 30
0.0
  0
SPLINE
  5
C9
  8
Engrave2
 62
7
370
-1
  6
ByLayer
100
AcDbEntity
100
AcDbSpline
 70
8
 71
3
 72
8
 73
4
 74
0
 40
0.0
 40
0.0
 40
0.0
 40
0.0
 40
1.0
 40
1.0
 40
1.0
 40
1.0
 10
47.6831710000000015
 20
22.705317000000008
 30
0.0
 10
47.6831690000000066
 20
22.9346199999999953
 30
0.0
 10
47.7346179999999976
 20
23.1433480000000031
 30
0.0
 10
47.8375099999999946
 20
23.331497000000013
 30
0.0
  0
SPLINE
  5
CA
  8
Engrave2
 62
7
370
-1
  6
ByLayer
100
AcDbEntity
100
AcDbSpline
 70
8
 71
3
 72
8
 73
4
 74
0
 40
0.0
 40
0.0
 40
0.0
 40
0.0
 40
1.0
 40
1.0
 40
1.0
 40
1.0
 10
47.8375099999999946
 20
23.331497000000013
 30
0.0
 10
47.9433439999999962
 20
23.5225839999999948
 30
0.0
 10
48.0800440000000009
 20
23.6754530000000045
 30
0.0
 10
48.2476159999999936
 20
23.7901090000000011
 30
0.0
  0
SPLINE
  5
CB
  8
Engrave2
 62
7
370
-1
  6
ByLayer
100
AcDbEntity
100
AcDbSpline
 70
8
 71
3
 72
8
 73
4
 74
0
 40
0.0
 40
0.0
 40
0.0
 40
0.0
 40
1.0
 40
1.0
 40
1.0
 40
1.0
 10
48.2476159999999936
 20
23.7901090000000011
 30
0.0
 10
48.4181229999999942
 20
23.9047579999999869
 30
0.0
 10
48.6092100000000045
 20
23.9914829999999881
 30
0.0
 10
48.8208800000000025
 20
24.0502810000000125
 30
0.0
  0
SPLINE
  5
CC
  8
Engrave2
 62
7
370
-1
  6
ByLayer
100
AcDbEntity
100
AcDbSpline
 70
8
 71
3
 72
8
 73
4
 74
0
 40
0.0
 40
0.0
 40
0.0
 40
0.0
 40
1.0
 40
1.0
 40
1.0
 40
1.0
 10
48.8208800000000025
 20
24.0502810000000125
 30
0.0
 10
48.9766860000000008
 20
24.0914370000000133
 30
0.0
 10
49.2118729999999971
 20
24.1311230000000023
 30
0.0
 10
49.5264350000000064
 20
24.1693449999999928
 30
0.0
  0
SPLINE
  5
CD
  8
Engrave2
 62
7
370
-1
  6
ByLayer
100
AcDbEntity
100
AcDbSpline
 70
8
 71
3
 72
8
 73
4
 74
0
 40
0.0
 40
0.0
 40
0.0
 40
0.0
 40
1.0
 40
1.0
 40
1.0
 40
1.0
 10
49.5264350000000064
 20
24.1693449999999928
 30
0.0
 10
50.167310999999998
 20
24.2457760000000064
 30
0.0
 10
50.6391500000000008
 20
24.3369109999999864
 30
0.0
 10
50.941954999999993
 20
24.4427469999999971
 30
0.0
  0
SPLINE
  5
CE
  8
Engrave2
 62
7
370
-1
  6
ByLayer
100
AcDbEntity
100
AcDbSpline
 70
8
 71
3
 72
8
 73
4
 74
0
 40
0.0
 40
0.0
 40
0.0
 40
0.0
 40
1.0
 40
1.0
 40
1.0
 40
1.0
 10
50.941954999999993
 20
24.4427469999999971
 30
0.0
 10
50.9448900000000009
 20
24.5515159999999923
 30
0.0
 10
50.9463570000000061
 20
24.6206039999999859
 30
0.0
 10
50.9463570000000061
 20
24.6500029999999981
 30
0.0
  0
SPLINE
  5
CF
  8
Engrave2
 62
7
370
-1
  6
ByLayer
100
AcDbEntity
100
AcDbSpline
 70
8
 71
3
 72
8
 73
4
 74
0
 40
0.0
 40
0.0
 40
0.0
 40
0.0
 40
1.0
 40
1.0
 40
1.0
 40
1.0
 10
50.9463570000000061
 20
24.6500029999999981
 30
0.0
 10
50.9463520000000045
 20
24.9733789999999942
 30
0.0
 10
50.8713879999999961
 20
25.201217000000014
 30
0.0
 10
50.7214599999999933
 20
25.3335109999999872
 30
0.0
  0
SPLINE
  5
D0
  8
Engrave2
 62
7
370
-1
  6
ByLayer
100
AcDbEntity
100
AcDbSpline
 70
8
 71
3
 72
8
 73
4
 74
0
 40
0.0
 40
0.0
 40
0.0
 40
0.0
 40
1.0
 40
1.0
 40
1.0
 40
1.0
 10
50.7214599999999933
 20
25.3335109999999872
 30
0.0
 10
50.5186099999999954
 20
25.5128349999999955
 30
0.0
 10
50.2172790000000049
 20
25.602499999999992
 30
0.0
 10
49.8174680000000052
 20
25.6025030000000129
 30
0.0
  0
SPLINE
  5
D1
  8
Engrave2
 62
7
370
-1
  6
ByLayer
100
AcDbEntity
100
AcDbSpline
 70
8
 71
3
 72
8
 73
4
 74
0
 40
0.0
 40
0.0
 40
0.0
 40
0.0
 40
1.0
 40
1.0
 40
1.0
 40
1.0
 10
49.8174680000000052
 20
25.6025030000000129
 30
0.0
 10
49.4441079999999999
 20
25.602499999999992
 30
0.0
 10
49.1677669999999978
 20
25.5363529999999912
 30
0.0
 10
48.9884409999999946
 20
25.4040669999999977
 30
0.0
  0
SPLINE
  5
D2
  8
Engrave2
 62
7
370
-1
  6
ByLayer
100
AcDbEntity
100
AcDbSpline
 70
8
 71
3
 72
8
 73
4
 74
0
 40
0.0
 40
0.0
 40
0.0
 40
0.0
 40
1.0
 40
1.0
 40
1.0
 40
1.0
 10
48.9884409999999946
 20
25.4040669999999977
 30
0.0
 10
48.8120490000000018
 20
25.2747099999999989
 30
0.0
 10
48.6812280000000044
 20
25.0439340000000072
 30
0.0
 10
48.5959739999999982
 20
24.7117389999999943
 30
0.0
  0
LWPOLYLINE
  5
D3
  8
Engrave2
 62
7
370
-1
  6
ByLayer
100
AcDbEntity
100
AcDbPolyline
 90
2
 70
0
 10
38.6300099999999986
 20
22.0570859999999982
 10
38.6300099999999986
 20
21.470595000000003
  0
SPLINE
  5
D4
  8
Engrave2
 62
7
370
-1
  6
ByLayer
100
AcDbEntity
100
AcDbSpline
 70
8
 71
3
 72
8
 73
4
 74
0
 40
0.0
 40
0.0
 40
0.0
 40
0.0
 40
1.0
 40
1.0
 40
1.0
 40
1.0
 10
47.819862999999998
 20
24.8175720000000126
 30
0.0
 10
47.8904179999999968
 20
25.1497679999999946
 30
0.0
 10
48.0065419999999961
 20
25.4172920000000033
 30
0.0
 10
48.1682320000000033
 20
25.6201419999999871
 30
0.0
  0
SPLINE
  5
D5
  8
Engrave2
 62
7
370
-1
  6
ByLayer
100
AcDbEntity
100
AcDbSpline
 70
8
 71
3
 72
8
 73
4
 74
0
 40
0.0
 40
0.0
 40
0.0
 40
0.0
 40
1.0
 40
1.0
 40
1.0
 40
1.0
 10
48.1682320000000033
 20
25.6201419999999871
 30
0.0
 10
48.3299200000000013
 20
25.8259270000000072
 30
0.0
 10
48.5636339999999933
 20
25.9832069999999931
 30
0.0
 10
48.8693770000000001
 20
26.0919839999999965
 30
0.0
  0
SPLINE
  5
D6
  8
Engrave2
 62
7
370
-1
  6
ByLayer
100
AcDbEntity
100
AcDbSpline
 70
8
 71
3
 72
8
 73
4
 74
0
 40
0.0
 40
0.0
 40
0.0
 40
0.0
 40
1.0
 40
1.0
 40
1.0
 40
1.0
 10
48.8693770000000001
 20
26.0919839999999965
 30
0.0
 10
49.1751170000000002
 20
26.203692999999987
 30
0.0
 10
49.5293620000000061
 20
26.2595469999999978
 30
0.0
 10
49.9321209999999951
 20
26.259553000000011
 30
0.0
  0
SPLINE
  5
D7
  8
Engrave2
 62
7
370
-1
  6
ByLayer
100
AcDbEntity
100
AcDbSpline
 70
8
 71
3
 72
8
 73
4
 74
0
 40
0.0
 40
0.0
 40
0.0
 40
0.0
 40
1.0
 40
1.0
 40
1.0
 40
1.0
 10
49.9321209999999951
 20
26.259553000000011
 30
0.0
 10
50.3319309999999973
 20
26.2595469999999978
 30
0.0
 10
50.6567799999999977
 20
26.2125120000000038
 30
0.0
 10
50.9066679999999963
 20
26.1184419999999875
 30
0.0
  0
SPLINE
  5
D8
  8
Engrave2
 62
7
370
-1
  6
ByLayer
100
AcDbEntity
100
AcDbSpline
 70
8
 71
3
 72
8
 73
4
 74
0
 40
0.0
 40
0.0
 40
0.0
 40
0.0
 40
1.0
 40
1.0
 40
1.0
 40
1.0
 10
50.9066679999999963
 20
26.1184419999999875
 30
0.0
 10
51.1565480000000008
 20
26.0243629999999939
 30
0.0
 10
51.3402889999999985
 20
25.9052990000000136
 30
0.0
 10
51.4578850000000045
 20
25.7612530000000106
 30
0.0
  0
SPLINE
  5
D9
  8
Engrave2
 62
7
370
-1
  6
ByLayer
100
AcDbEntity
100
AcDbSpline
 70
8
 71
3
 72
8
 73
4
 74
0
 40
0.0
 40
0.0
 40
0.0
 40
0.0
 40
1.0
 40
1.0
 40
1.0
 40
1.0
 10
51.4578850000000045
 20
25.7612530000000106
 30
0.0
 10
51.5754730000000023
 20
25.6201389999999947
 30
0.0
 10
51.6577860000000015
 20
25.4408090000000016
 30
0.0
 10
51.7048300000000012
 20
25.2232669999999928
 30
0.0
  0
SPLINE
  5
DA
  8
Engrave2
 62
7
370
-1
  6
ByLayer
100
AcDbEntity
100
AcDbSpline
 70
8
 71
3
 72
8
 73
4
 74
0
 40
0.0
 40
0.0
 40
0.0
 40
0.0
 40
1.0
 40
1.0
 40
1.0
 40
1.0
 10
51.7048300000000012
 20
25.2232669999999928
 30
0.0
 10
51.7312739999999991
 20
25.0880319999999983
 30
0.0
 10
51.7445129999999978
 20
24.8440280000000087
 30
0.0
 10
51.7445160000000044
 20
24.4912530000000004
 30
0.0
  0
LWPOLYLINE
  5
DB
  8
Engrave2
 62
7
370
-1
  6
ByLayer
100
AcDbEntity
100
AcDbPolyline
 90
2
 70
0
 10
48.5959739999999982
 20
24.7117389999999943
 10
47.819862999999998
 20
24.8175720000000126
  0
SPLINE
  5
DC
  8
Engrave2
 62
7
370
-1
  6
ByLayer
100
AcDbEntity
100
AcDbSpline
 70
8
 71
3
 72
8
 73
4
 74
0
 40
0.0
 40
0.0
 40
0.0
 40
0.0
 40
1.0
 40
1.0
 40
1.0
 40
1.0
 10
51.7445160000000044
 20
23.4329199999999958
 30
0.0
 10
51.7445129999999978
 20
22.6950270000000103
 30
0.0
 10
51.7606870000000043
 20
22.2275960000000055
 30
0.0
 10
51.7930240000000026
 20
22.0306280000000072
 30
0.0
  0
SPLINE
  5
DD
  8
Engrave2
 62
7
370
-1
  6
ByLayer
100
AcDbEntity
100
AcDbSpline
 70
8
 71
3
 72
8
 73
4
 74
0
 40
0.0
 40
0.0
 40
0.0
 40
0.0
 40
1.0
 40
1.0
 40
1.0
 40
1.0
 10
51.7930240000000026
 20
22.0306280000000072
 30
0.0
 10
51.8282959999999946
 20
21.8366000000000042
 30
0.0
 10
51.8959109999999981
 20
21.6499210000000062
 30
0.0
 10
51.995870999999994
 20
21.470595000000003
 30
0.0
  0
LWPOLYLINE
  5
DE
  8
Engrave2
 62
7
370
-1
  6
ByLayer
100
AcDbEntity
100
AcDbPolyline
 90
2
 70
0
 10
51.7445160000000044
 20
24.4912530000000004
 10
51.7445160000000044
 20
23.4329199999999958
  0
SPLINE
  5
DF
  8
Engrave2
 62
7
370
-1
  6
ByLayer
100
AcDbEntity
100
AcDbSpline
 70
8
 71
3
 72
8
 73
4
 74
0
 40
0.0
 40
0.0
 40
0.0
 40
0.0
 40
1.0
 40
1.0
 40
1.0
 40
1.0
 10
51.1668430000000001
 20
21.470595000000003
 30
0.0
 10
51.0845249999999993
 20
21.6352229999999963
 30
0.0
 10
51.0316080000000056
 20
21.8277809999999874
 30
0.0
 10
51.0080930000000023
 20
22.0482670000000098
 30
0.0
  0
SPLINE
  5
E0
  8
Engrave2
 62
7
370
-1
  6
ByLayer
100
AcDbEntity
100
AcDbSpline
 70
8
 71
3
 72
8
 73
4
 74
0
 40
0.0
 40
0.0
 40
0.0
 40
0.0
 40
1.0
 40
1.0
 40
1.0
 40
1.0
 10
50.9419460000000015
 20
23.8209750000000042
 30
0.0
 10
50.6538419999999974
 20
23.7033820000000048
 30
0.0
 10
50.2216899999999953
 20
23.6034270000000106
 30
0.0
 10
49.6454880000000003
 20
23.5211140000000114
 30
0.0
  0
SPLINE
  5
E1
  8
Engrave2
 62
7
370
-1
  6
ByLayer
100
AcDbEntity
100
AcDbSpline
 70
8
 71
3
 72
8
 73
4
 74
0
 40
0.0
 40
0.0
 40
0.0
 40
0.0
 40
1.0
 40
1.0
 40
1.0
 40
1.0
 10
49.6454880000000003
 20
23.5211140000000114
 30
0.0
 10
49.3191659999999956
 20
23.4740759999999966
 30
0.0
 10
49.0883919999999989
 20
23.4211589999999887
 30
0.0
 10
48.9531630000000035
 20
23.3623640000000137
 30
0.0
  0
SPLINE
  5
E2
  8
Engrave2
 62
7
370
-1
  6
ByLayer
100
AcDbEntity
100
AcDbSpline
 70
8
 71
3
 72
8
 73
4
 74
0
 40
0.0
 40
0.0
 40
0.0
 40
0.0
 40
1.0
 40
1.0
 40
1.0
 40
1.0
 10
48.9531630000000035
 20
23.3623640000000137
 30
0.0
 10
48.8179279999999949
 20
23.3035659999999893
 30
0.0
 10
48.7135650000000027
 20
23.216842000000014
 30
0.0
 10
48.6400710000000061
 20
23.1021920000000023
 30
0.0
  0
SPLINE
  5
E3
  8
Engrave2
 62
7
370
-1
  6
ByLayer
100
AcDbEntity
100
AcDbSpline
 70
8
 71
3
 72
8
 73
4
 74
0
 40
0.0
 40
0.0
 40
0.0
 40
0.0
 40
1.0
 40
1.0
 40
1.0
 40
1.0
 10
48.6400710000000061
 20
23.1021920000000023
 30
0.0
 10
48.5665750000000003
 20
22.9904769999999985
 30
0.0
 10
48.5298269999999974
 20
22.8655339999999967
 30
0.0
 10
48.529830000000004
 20
22.7273639999999943
 30
0.0
  0
SPLINE
  5
E4
  8
Engrave2
 62
7
370
-1
  6
ByLayer
100
AcDbEntity
100
AcDbSpline
 70
8
 71
3
 72
8
 73
4
 74
0
 40
0.0
 40
0.0
 40
0.0
 40
0.0
 40
1.0
 40
1.0
 40
1.0
 40
1.0
 10
48.529830000000004
 20
22.7273639999999943
 30
0.0
 10
48.5298269999999974
 20
22.5156969999999887
 30
0.0
 10
48.6092019999999962
 20
22.3393089999999859
 30
0.0
 10
48.7679550000000006
 20
22.1981969999999933
 30
0.0
  0
SPLINE
  5
E5
  8
Engrave2
 62
7
370
-1
  6
ByLayer
100
AcDbEntity
100
AcDbSpline
 70
8
 71
3
 72
8
 73
4
 74
0
 40
0.0
 40
0.0
 40
0.0
 40
0.0
 40
1.0
 40
1.0
 40
1.0
 40
1.0
 10
48.7679550000000006
 20
22.1981969999999933
 30
0.0
 10
48.9296420000000012
 20
22.0570859999999982
 30
0.0
 10
49.1648270000000025
 20
21.9865310000000136
 30
0.0
 10
49.4735100000000045
 20
21.9865310000000136
 30
0.0
  0
SPLINE
  5
E6
  8
Engrave2
 62
7
370
-1
  6
ByLayer
100
AcDbEntity
100
AcDbSpline
 70
8
 71
3
 72
8
 73
4
 74
0
 40
0.0
 40
0.0
 40
0.0
 40
0.0
 40
1.0
 40
1.0
 40
1.0
 40
1.0
 10
49.4735100000000045
 20
21.9865310000000136
 30
0.0
 10
49.779246999999998
 20
21.9865310000000136
 30
0.0
 10
50.0511790000000047
 20
22.052677999999986
 30
0.0
 10
50.2893069999999938
 20
22.1849699999999928
 30
0.0
  0
SPLINE
  5
E7
  8
Engrave2
 62
7
370
-1
  6
ByLayer
100
AcDbEntity
100
AcDbSpline
 70
8
 71
3
 72
8
 73
4
 74
0
 40
0.0
 40
0.0
 40
0.0
 40
0.0
 40
1.0
 40
1.0
 40
1.0
 40
1.0
 10
50.2893069999999938
 20
22.1849699999999928
 30
0.0
 10
50.5274289999999979
 20
22.3201990000000023
 30
0.0
 10
50.7023480000000006
 20
22.5039370000000076
 30
0.0
 10
50.8140659999999968
 20
22.7361840000000086
 30
0.0
  0
SPLINE
  5
E8
  8
Engrave2
 62
7
370
-1
  6
ByLayer
100
AcDbEntity
100
AcDbSpline
 70
8
 71
3
 72
8
 73
4
 74
0
 40
0.0
 40
0.0
 40
0.0
 40
0.0
 40
1.0
 40
1.0
 40
1.0
 40
1.0
 10
50.8140659999999968
 20
22.7361840000000086
 30
0.0
 10
50.8993169999999964
 20
22.9155130000000042
 30
0.0
 10
50.9419429999999949
 20
23.1800939999999969
 30
0.0
 10
50.9419460000000015
 20
23.5299339999999972
 30
0.0
  0
LWPOLYLINE
  5
E9
  8
Engrave2
 62
7
370
-1
  6
ByLayer
100
AcDbEntity
100
AcDbPolyline
 90
2
 70
0
 10
51.995870999999994
 20
21.470595000000003
 10
51.1668430000000001
 20
21.470595000000003
  0
LWPOLYLINE
  5
EA
  8
Engrave2
 62
7
370
-1
  6
ByLayer
100
AcDbEntity
100
AcDbPolyline
 90
2
 70
0
 10
50.9419460000000015
 20
23.5299339999999972
 10
50.9419460000000015
 20
23.8209750000000042
  0
SPLINE
  5
EB
  8
Engrave2
 62
7
370
-1
  6
ByLayer
100
AcDbEntity
100
AcDbSpline
 70
8
 71
3
 72
8
 73
4
 74
0
 40
0.0
 40
0.0
 40
0.0
 40
0.0
 40
1.0
 40
1.0
 40
1.0
 40
1.0
 10
53.6848020000000048
 20
25.4437529999999867
 30
0.0
 10
53.8670690000000008
 20
25.7759479999999996
 30
0.0
 10
54.0346389999999985
 20
25.9949640000000102
 30
0.0
 10
54.1875100000000032
 20
26.1008030000000133
 30
0.0
  0
SPLINE
  5
EC
  8
Engrave2
 62
7
370
-1
  6
ByLayer
100
AcDbEntity
100
AcDbSpline
 70
8
 71
3
 72
8
 73
4
 74
0
 40
0.0
 40
0.0
 40
0.0
 40
0.0
 40
1.0
 40
1.0
 40
1.0
 40
1.0
 10
54.1875100000000032
 20
26.1008030000000133
 30
0.0
 10
54.3433189999999939
 20
26.2066309999999874
 30
0.0
 10
54.5138270000000063
 20
26.2595469999999978
 30
0.0
 10
54.6990380000000016
 20
26.259553000000011
 30
0.0
  0
SPLINE
  5
ED
  8
Engrave2
 62
7
370
-1
  6
ByLayer
100
AcDbEntity
100
AcDbSpline
 70
8
 71
3
 72
8
 73
4
 74
0
 40
0.0
 40
0.0
 40
0.0
 40
0.0
 40
1.0
 40
1.0
 40
1.0
 40
1.0
 10
54.6990380000000016
 20
26.259553000000011
 30
0.0
 10
54.9665590000000037
 20
26.2595469999999978
 30
0.0
 10
55.2384919999999937
 20
26.1742940000000033
 30
0.0
 10
55.5148379999999975
 20
26.0037890000000118
 30
0.0
  0
LWPOLYLINE
  5
EE
  8
Engrave2
 62
7
370
-1
  6
ByLayer
100
AcDbEntity
100
AcDbPolyline
 90
4
 70
0
 10
52.9704270000000008
 20
21.470595000000003
 10
52.9704270000000008
 20
26.1537199999999928
 10
53.6848020000000048
 20
26.1537199999999928
 10
53.6848020000000048
 20
25.4437529999999867
  0
SPLINE
  5
EF
  8
Engrave2
 62
7
370
-1
  6
ByLayer
100
AcDbEntity
100
AcDbSpline
 70
8
 71
3
 72
8
 73
4
 74
0
 40
0.0
 40
0.0
 40
0.0
 40
0.0
 40
1.0
 40
1.0
 40
1.0
 40
1.0
 10
55.2414349999999956
 20
25.2673639999999864
 30
0.0
 10
55.0474049999999977
 20
25.3820139999999981
 30
0.0
 10
54.8533769999999947
 20
25.4393389999999897
 30
0.0
 10
54.6593519999999984
 20
25.439345000000003
 30
0.0
  0
SPLINE
  5
F0
  8
Engrave2
 62
7
370
-1
  6
ByLayer
100
AcDbEntity
100
AcDbSpline
 70
8
 71
3
 72
8
 73
4
 74
0
 40
0.0
 40
0.0
 40
0.0
 40
0.0
 40
1.0
 40
1.0
 40
1.0
 40
1.0
 10
54.6593519999999984
 20
25.439345000000003
 30
0.0
 10
54.4859009999999984
 20
25.4393389999999897
 30
0.0
 10
54.330089000000001
 20
25.3864250000000027
 30
0.0
 10
54.1919209999999936
 20
25.2805950000000053
 30
0.0
  0
SPLINE
  5
F1
  8
Engrave2
 62
7
370
-1
  6
ByLayer
100
AcDbEntity
100
AcDbSpline
 70
8
 71
3
 72
8
 73
4
 74
0
 40
0.0
 40
0.0
 40
0.0
 40
0.0
 40
1.0
 40
1.0
 40
1.0
 40
1.0
 10
54.1919209999999936
 20
25.2805950000000053
 30
0.0
 10
54.0537479999999988
 20
25.1776959999999974
 30
0.0
 10
53.9552639999999997
 20
25.033647000000002
 30
0.0
 10
53.8964689999999962
 20
24.8484420000000057
 30
0.0
  0
SPLINE
  5
F2
  8
Engrave2
 62
7
370
-1
  6
ByLayer
100
AcDbEntity
100
AcDbSpline
 70
8
 71
3
 72
8
 73
4
 74
0
 40
0.0
 40
0.0
 40
0.0
 40
0.0
 40
1.0
 40
1.0
 40
1.0
 40
1.0
 10
53.8964689999999962
 20
24.8484420000000057
 30
0.0
 10
53.8082739999999973
 20
24.5662169999999946
 30
0.0
 10
53.7641770000000037
 20
24.2575359999999876
 30
0.0
 10
53.7641770000000037
 20
23.9224000000000103
 30
0.0
  0
LWPOLYLINE
  5
F3
  8
Engrave2
 62
7
370
-1
  6
ByLayer
100
AcDbEntity
100
AcDbPolyline
 90
2
 70
0
 10
55.5148379999999975
 20
26.0037890000000118
 10
55.2414349999999956
 20
25.2673639999999864
  0
LWPOLYLINE
  5
F4
  8
Engrave2
 62
7
370
-1
  6
ByLayer
100
AcDbEntity
100
AcDbPolyline
 90
3
 70
0
 10
53.7641770000000037
 20
23.9224000000000103
 10
53.7641770000000037
 20
21.470595000000003
 10
52.9704270000000008
 20
21.470595000000003
  0
SPLINE
  5
F5
  8
Engrave2
 62
7
370
-1
  6
ByLayer
100
AcDbEntity
100
AcDbSpline
 70
8
 71
3
 72
8
 73
4
 74
0
 40
0.0
 40
0.0
 40
0.0
 40
0.0
 40
1.0
 40
1.0
 40
1.0
 40
1.0
 10
59.0337959999999953
 20
22.0614970000000028
 30
0.0
 10
58.7368699999999961
 20
21.5970079999999882
 30
0.0
 10
58.3003089999999986
 20
21.3647609999999872
 30
0.0
 10
57.7241070000000036
 20
21.3647609999999872
 30
0.0
  0
SPLINE
  5
F6
  8
Engrave2
 62
7
370
-1
  6
ByLayer
100
AcDbEntity
100
AcDbSpline
 70
8
 71
3
 72
8
 73
4
 74
0
 40
0.0
 40
0.0
 40
0.0
 40
0.0
 40
1.0
 40
1.0
 40
1.0
 40
1.0
 10
57.7241070000000036
 20
21.3647609999999872
 30
0.0
 10
57.350750000000005
 20
21.3647609999999872
 30
0.0
 10
57.0067920000000044
 20
21.4676540000000102
 30
0.0
 10
56.6922320000000042
 20
21.6734419999999943
 30
0.0
  0
SPLINE
  5
F7
  8
Engrave2
 62
7
370
-1
  6
ByLayer
100
AcDbEntity
100
AcDbSpline
 70
8
 71
3
 72
8
 73
4
 74
0
 40
0.0
 40
0.0
 40
0.0
 40
0.0
 40
1.0
 40
1.0
 40
1.0
 40
1.0
 10
56.6922320000000042
 20
21.6734419999999943
 30
0.0
 10
56.3806110000000018
 20
21.879226999999986
 30
0.0
 10
56.138077999999993
 20
22.1658600000000092
 30
0.0
 10
55.9646299999999997
 20
22.5333359999999914
 30
0.0
  0
SPLINE
  5
F8
  8
Engrave2
 62
7
370
-1
  6
ByLayer
100
AcDbEntity
100
AcDbSpline
 70
8
 71
3
 72
8
 73
4
 74
0
 40
0.0
 40
0.0
 40
0.0
 40
0.0
 40
1.0
 40
1.0
 40
1.0
 40
1.0
 10
55.9646299999999997
 20
22.5333359999999914
 30
0.0
 10
55.7941189999999949
 20
22.9037529999999947
 30
0.0
 10
55.7088629999999938
 20
23.3285569999999893
 30
0.0
 10
55.7088660000000004
 20
23.8077470000000062
 30
0.0
  0
SPLINE
  5
F9
  8
Engrave2
 62
7
370
-1
  6
ByLayer
100
AcDbEntity
100
AcDbSpline
 70
8
 71
3
 72
8
 73
4
 74
0
 40
0.0
 40
0.0
 40
0.0
 40
0.0
 40
1.0
 40
1.0
 40
1.0
 40
1.0
 10
55.7088660000000004
 20
23.8077470000000062
 30
0.0
 10
55.7088629999999938
 20
24.2751749999999902
 30
0.0
 10
55.7867700000000042
 20
24.6985080000000039
 30
0.0
 10
55.9425800000000066
 20
25.077746999999988
 30
0.0
  0
SPLINE
  5
FA
  8
Engrave2
 62
7
370
-1
  6
ByLayer
100
AcDbEntity
100
AcDbSpline
 70
8
 71
3
 72
8
 73
4
 74
0
 40
0.0
 40
0.0
 40
0.0
 40
0.0
 40
1.0
 40
1.0
 40
1.0
 40
1.0
 10
55.9425800000000066
 20
25.077746999999988
 30
0.0
 10
56.0983889999999974
 20
25.4599190000000135
 30
0.0
 10
56.332105999999996
 20
25.7524310000000014
 30
0.0
 10
56.6437269999999984
 20
25.9552810000000136
 30
0.0
  0
SPLINE
  5
FB
  8
Engrave2
 62
7
370
-1
  6
ByLayer
100
AcDbEntity
100
AcDbSpline
 70
8
 71
3
 72
8
 73
4
 74
0
 40
0.0
 40
0.0
 40
0.0
 40
0.0
 40
1.0
 40
1.0
 40
1.0
 40
1.0
 10
56.6437269999999984
 20
25.9552810000000136
 30
0.0
 10
56.9553449999999941
 20
26.1581250000000125
 30
0.0
 10
57.3037120000000044
 20
26.2595469999999978
 30
0.0
 10
57.6888299999999958
 20
26.259553000000011
 30
0.0
  0
SPLINE
  5
FC
  8
Engrave2
 62
7
370
-1
  6
ByLayer
100
AcDbEntity
100
AcDbSpline
 70
8
 71
3
 72
8
 73
4
 74
0
 40
0.0
 40
0.0
 40
0.0
 40
0.0
 40
1.0
 40
1.0
 40
1.0
 40
1.0
 10
57.6888299999999958
 20
26.259553000000011
 30
0.0
 10
57.9710489999999936
 20
26.2595469999999978
 30
0.0
 10
58.2224049999999949
 20
26.1992820000000108
 30
0.0
 10
58.4428939999999955
 20
26.0787530000000061
 30
0.0
  0
SPLINE
  5
FD
  8
Engrave2
 62
7
370
-1
  6
ByLayer
100
AcDbEntity
100
AcDbSpline
 70
8
 71
3
 72
8
 73
4
 74
0
 40
0.0
 40
0.0
 40
0.0
 40
0.0
 40
1.0
 40
1.0
 40
1.0
 40
1.0
 10
58.4428939999999955
 20
26.0787530000000061
 30
0.0
 10
58.6633740000000046
 20
25.9611569999999858
 30
0.0
 10
58.8427039999999977
 20
25.8068179999999927
 30
0.0
 10
58.9808799999999991
 20
25.6157340000000033
 30
0.0
  0
LWPOLYLINE
  5
FE
  8
Engrave2
 62
7
370
-1
  6
ByLayer
100
AcDbEntity
100
AcDbPolyline
 90
2
 70
0
 10
59.0337959999999953
 20
21.470595000000003
 10
59.0337959999999953
 20
22.0614970000000028
  0
SPLINE
  5
FF
  8
Engrave2
 62
7
370
-1
  6
ByLayer
100
AcDbEntity
100
AcDbSpline
 70
8
 71
3
 72
8
 73
4
 74
0
 40
0.0
 40
0.0
 40
0.0
 40
0.0
 40
1.0
 40
1.0
 40
1.0
 40
1.0
 10
56.5246630000000039
 20
23.8077470000000062
 30
0.0
 10
56.5246630000000039
 20
23.2080219999999997
 30
0.0
 10
56.6510729999999967
 20
22.7597010000000068
 30
0.0
 10
56.9038989999999956
 20
22.4627810000000068
 30
0.0
  0
SPLINE
  5
100
  8
Engrave2
 62
7
370
-1
  6
ByLayer
100
AcDbEntity
100
AcDbSpline
 70
8
 71
3
 72
8
 73
4
 74
0
 40
0.0
 40
0.0
 40
0.0
 40
0.0
 40
1.0
 40
1.0
 40
1.0
 40
1.0
 10
56.9038989999999956
 20
22.4627810000000068
 30
0.0
 10
57.156722000000002
 20
22.1658600000000092
 30
0.0
 10
57.4551129999999972
 20
22.0174000000000092
 30
0.0
 10
57.7990740000000045
 20
22.0174000000000092
 30
0.0
  0
SPLINE
  5
101
  8
Engrave2
 62
7
370
-1
  6
ByLayer
100
AcDbEntity
100
AcDbSpline
 70
8
 71
3
 72
8
 73
4
 74
0
 40
0.0
 40
0.0
 40
0.0
 40
0.0
 40
1.0
 40
1.0
 40
1.0
 40
1.0
 10
57.7990740000000045
 20
22.0174000000000092
 30
0.0
 10
58.1459679999999963
 20
22.0174000000000092
 30
0.0
 10
58.4399499999999961
 20
22.1585110000000043
 30
0.0
 10
58.6810190000000063
 20
22.440733999999992
 30
0.0
  0
SPLINE
  5
102
  8
Engrave2
 62
7
370
-1
  6
ByLayer
100
AcDbEntity
100
AcDbSpline
 70
8
 71
3
 72
8
 73
4
 74
0
 40
0.0
 40
0.0
 40
0.0
 40
0.0
 40
1.0
 40
1.0
 40
1.0
 40
1.0
 10
58.6810190000000063
 20
22.440733999999992
 30
0.0
 10
58.925019000000006
 20
22.7258940000000109
 30
0.0
 10
59.0470210000000009
 20
23.1595169999999939
 30
0.0
 10
59.0470239999999933
 20
23.7416000000000054
 30
0.0
  0
SPLINE
  5
103
  8
Engrave2
 62
7
370
-1
  6
ByLayer
100
AcDbEntity
100
AcDbSpline
 70
8
 71
3
 72
8
 73
4
 74
0
 40
0.0
 40
0.0
 40
0.0
 40
0.0
 40
1.0
 40
1.0
 40
1.0
 40
1.0
 10
59.0470239999999933
 20
23.7416000000000054
 30
0.0
 10
59.0470210000000009
 20
24.3824789999999894
 30
0.0
 10
58.9235489999999942
 20
24.852846999999997
 30
0.0
 10
58.6766070000000042
 20
25.1527110000000107
 30
0.0
  0
SPLINE
  5
104
  8
Engrave2
 62
7
370
-1
  6
ByLayer
100
AcDbEntity
100
AcDbSpline
 70
8
 71
3
 72
8
 73
4
 74
0
 40
0.0
 40
0.0
 40
0.0
 40
0.0
 40
1.0
 40
1.0
 40
1.0
 40
1.0
 10
58.6766070000000042
 20
25.1527110000000107
 30
0.0
 10
58.4296599999999984
 20
25.4525700000000086
 30
0.0
 10
58.1253909999999934
 20
25.602499999999992
 30
0.0
 10
57.7637959999999993
 20
25.6025030000000129
 30
0.0
  0
SPLINE
  5
105
  8
Engrave2
 62
7
370
-1
  6
ByLayer
100
AcDbEntity
100
AcDbSpline
 70
8
 71
3
 72
8
 73
4
 74
0
 40
0.0
 40
0.0
 40
0.0
 40
0.0
 40
1.0
 40
1.0
 40
1.0
 40
1.0
 10
57.7637959999999993
 20
25.6025030000000129
 30
0.0
 10
57.4110160000000036
 20
25.602499999999992
 30
0.0
 10
57.1155629999999945
 20
25.4584480000000042
 30
0.0
 10
56.8774410000000046
 20
25.1703500000000133
 30
0.0
  0
SPLINE
  5
106
  8
Engrave2
 62
7
370
-1
  6
ByLayer
100
AcDbEntity
100
AcDbSpline
 70
8
 71
3
 72
8
 73
4
 74
0
 40
0.0
 40
0.0
 40
0.0
 40
0.0
 40
1.0
 40
1.0
 40
1.0
 40
1.0
 10
56.8774410000000046
 20
25.1703500000000133
 30
0.0
 10
56.6422539999999941
 20
24.8822460000000092
 30
0.0
 10
56.5246630000000039
 20
24.4280459999999948
 30
0.0
 10
56.5246630000000039
 20
23.8077470000000062
 30
0.0
  0
LWPOLYLINE
  5
107
  8
Engrave2
 62
7
370
-1
  6
ByLayer
100
AcDbEntity
100
AcDbPolyline
 90
5
 70
0
 10
58.9808799999999991
 20
25.6157340000000033
 10
58.9808799999999991
 20
27.9352470000000039
 10
59.7702189999999973
 20
27.9352470000000039
 10
59.7702189999999973
 20
21.470595000000003
 10
59.0337959999999953
 20
21.470595000000003
  0
SPLINE
  5
108
  8
Engrave2
 62
7
370
-1
  6
ByLayer
100
AcDbEntity
100
AcDbSpline
 70
8
 71
3
 72
8
 73
4
 74
0
 40
0.0
 40
0.0
 40
0.0
 40
0.0
 40
1.0
 40
1.0
 40
1.0
 40
1.0
 10
24.8310680000000019
 20
28.7068769999999915
 30
0.0
 10
24.1471190000000036
 20
27.938145999999989
 30
0.0
 10
23.6522429999999986
 20
27.0288290000000018
 30
0.0
 10
23.0987060000000071
 20
26.1678670000000011
 30
0.0
  0
SPLINE
  5
109
  8
Engrave2
 62
7
370
-1
  6
ByLayer
100
AcDbEntity
100
AcDbSpline
 70
8
 71
3
 72
8
 73
4
 74
0
 40
0.0
 40
0.0
 40
0.0
 40
0.0
 40
1.0
 40
1.0
 40
1.0
 40
1.0
 10
23.0987060000000071
 20
26.1678670000000011
 30
0.0
 10
22.8749069999999932
 20
25.8197749999999928
 30
0.0
 10
22.6439189999999968
 20
25.4763580000000047
 30
0.0
 10
22.4165239999999955
 20
25.1306050000000027
 30
0.0
  0
SPLINE
  5
10A
  8
Engrave2
 62
7
370
-1
  6
ByLayer
100
AcDbEntity
100
AcDbSpline
 70
8
 71
3
 72
8
 73
4
 74
0
 40
0.0
 40
0.0
 40
0.0
 40
0.0
 40
1.0
 40
1.0
 40
1.0
 40
1.0
 10
22.4165239999999955
 20
25.1306050000000027
 30
0.0
 10
22.1808379999999943
 20
24.7926720000000103
 30
0.0
 10
21.947496000000001
 20
24.4530880000000082
 30
0.0
 10
21.7094589999999954
 20
24.1168059999999969
 30
0.0
  0
SPLINE
  5
10B
  8
Engrave2
 62
7
370
-1
  6
ByLayer
100
AcDbEntity
100
AcDbSpline
 70
8
 71
3
 72
8
 73
4
 74
0
 40
0.0
 40
0.0
 40
0.0
 40
0.0
 40
1.0
 40
1.0
 40
1.0
 40
1.0
 10
21.7094589999999954
 20
24.1168059999999969
 30
0.0
 10
21.4931270000000012
 20
23.8111879999999871
 30
0.0
 10
21.2724939999999947
 20
23.5086369999999931
 30
0.0
 10
21.053449999999998
 20
23.2049550000000124
 30
0.0
  0
SPLINE
  5
10C
  8
Engrave2
 62
7
370
-1
  6
ByLayer
100
AcDbEntity
100
AcDbSpline
 70
8
 71
3
 72
8
 73
4
 74
0
 40
0.0
 40
0.0
 40
0.0
 40
0.0
 40
1.0
 40
1.0
 40
1.0
 40
1.0
 10
21.053449999999998
 20
23.2049550000000124
 30
0.0
 10
20.5410279999999972
 20
22.4945280000000025
 30
0.0
 10
20.0319099999999963
 20
21.7828959999999938
 30
0.0
 10
19.4738239999999934
 20
21.107403000000005
 30
0.0
  0
SPLINE
  5
10D
  8
Engrave2
 62
7
370
-1
  6
ByLayer
100
AcDbEntity
100
AcDbSpline
 70
8
 71
3
 72
8
 73
4
 74
0
 40
0.0
 40
0.0
 40
0.0
 40
0.0
 40
1.0
 40
1.0
 40
1.0
 40
1.0
 10
18.5921960000000013
 20
20.7345139999999901
 30
0.0
 10
19.7307619999999986
 20
22.0060009999999977
 30
0.0
 10
20.7001900000000063
 20
23.4200930000000085
 30
0.0
 10
21.685695999999993
 20
24.8098709999999869
 30
0.0
  0
SPLINE
  5
10E
  8
Engrave2
 62
7
370
-1
  6
ByLayer
100
AcDbEntity
100
AcDbSpline
 70
8
 71
3
 72
8
 73
4
 74
0
 40
0.0
 40
0.0
 40
0.0
 40
0.0
 40
1.0
 40
1.0
 40
1.0
 40
1.0
 10
21.685695999999993
 20
24.8098709999999869
 30
0.0
 10
21.9055100000000067
 20
25.1513899999999921
 30
0.0
 10
22.131654999999995
 20
25.4889169999999865
 30
0.0
 10
22.3451419999999956
 20
25.8344250000000102
 30
0.0
  0
SPLINE
  5
10F
  8
Engrave2
 62
7
370
-1
  6
ByLayer
100
AcDbEntity
100
AcDbSpline
 70
8
 71
3
 72
8
 73
4
 74
0
 40
0.0
 40
0.0
 40
0.0
 40
0.0
 40
1.0
 40
1.0
 40
1.0
 40
1.0
 10
22.3451419999999956
 20
25.8344250000000102
 30
0.0
 10
22.8560030000000012
 20
26.6612090000000137
 30
0.0
 10
23.2837279999999964
 20
27.5425689999999861
 30
0.0
 10
23.8889479999999992
 20
28.3081359999999904
 30
0.0
  0
LWPOLYLINE
  5
110
  8
Engrave2
 62
7
370
-1
  6
ByLayer
100
AcDbEntity
100
AcDbPolyline
 90
3
 70
0
 10
19.4738239999999934
 20
21.107403000000005
 10
18.5921960000000013
 20
20.7345139999999901
 10
18.5921960000000013
 20
20.7345139999999901
  0
LWPOLYLINE
  5
111
  8
Engrave2
 62
7
370
-1
  6
ByLayer
100
AcDbEntity
100
AcDbPolyline
 90
3
 70
0
 10
23.8889479999999992
 20
28.3081359999999904
 10
24.8310680000000019
 20
28.7068769999999915
 10
24.8310680000000019
 20
28.7068769999999915
  0
SPLINE
  5
112
  8
Engrave3
 62
7
370
-1
  6
ByLayer
100
AcDbEntity
100
AcDbSpline
 70
8
 71
3
 72
8
 73
4
 74
0
 40
0.0
 40
0.0
 40
0.0
 40
0.0
 40
1.0
 40
1.0
 40
1.0
 40
1.0
 10
17.4311679999999996
 20
28.3322980000000086
 30
0.0
 10
17.3606070000000017
 20
28.2088200000000029
 30
0.0
 10
17.3018090000000058
 20
28.0280199999999979
 30
0.0
 10
17.2547789999999992
 20
27.7899030000000096
 30
0.0
  0
SPLINE
  5
113
  8
Engrave3
 62
7
370
-1
  6
ByLayer
100
AcDbEntity
100
AcDbSpline
 70
8
 71
3
 72
8
 73
4
 74
0
 40
0.0
 40
0.0
 40
0.0
 40
0.0
 40
1.0
 40
1.0
 40
1.0
 40
1.0
 10
17.2547789999999992
 20
27.7899030000000096
 30
0.0
 10
17.2371409999999941
 20
27.7017030000000091
 30
0.0
 10
17.2136150000000043
 20
27.5708789999999908
 30
0.0
 10
17.1842240000000004
 20
27.397435999999999
 30
0.0
  0
SPLINE
  5
114
  8
Engrave3
 62
7
370
-1
  6
ByLayer
100
AcDbEntity
100
AcDbSpline
 70
8
 71
3
 72
8
 73
4
 74
0
 40
0.0
 40
0.0
 40
0.0
 40
0.0
 40
1.0
 40
1.0
 40
1.0
 40
1.0
 10
17.1180789999999945
 20
27.0049730000000068
 30
0.0
 10
17.059275999999997
 20
26.7109839999999963
 30
0.0
 10
16.9446230000000071
 20
26.2729530000000011
 30
0.0
 10
16.7741209999999938
 20
25.6908750000000055
 30
0.0
  0
SPLINE
  5
115
  8
Engrave3
 62
7
370
-1
  6
ByLayer
100
AcDbEntity
100
AcDbSpline
 70
8
 71
3
 72
8
 73
4
 74
0
 40
0.0
 40
0.0
 40
0.0
 40
0.0
 40
1.0
 40
1.0
 40
1.0
 40
1.0
 10
16.7741209999999938
 20
25.6908750000000055
 30
0.0
 10
16.6065430000000021
 20
25.1087890000000016
 30
0.0
 10
16.4933609999999931
 20
24.670755000000014
 30
0.0
 10
16.4345710000000054
 20
24.3767780000000016
 30
0.0
  0
SPLINE
  5
116
  8
Engrave3
 62
7
370
-1
  6
ByLayer
100
AcDbEntity
100
AcDbSpline
 70
8
 71
3
 72
8
 73
4
 74
0
 40
0.0
 40
0.0
 40
0.0
 40
0.0
 40
1.0
 40
1.0
 40
1.0
 40
1.0
 10
16.4345710000000054
 20
24.3767780000000016
 30
0.0
 10
16.3904679999999985
 20
24.153347999999994
 30
0.0
 10
16.3390219999999999
 20
23.8182099999999934
 30
0.0
 10
16.280231999999998
 20
23.3713610000000074
 30
0.0
  0
SPLINE
  5
117
  8
Engrave3
 62
7
370
-1
  6
ByLayer
100
AcDbEntity
100
AcDbSpline
 70
8
 71
3
 72
8
 73
4
 74
0
 40
0.0
 40
0.0
 40
0.0
 40
0.0
 40
1.0
 40
1.0
 40
1.0
 40
1.0
 10
16.280231999999998
 20
23.3713610000000074
 30
0.0
 10
16.2243689999999958
 20
22.924508000000003
 30
0.0
 10
16.1743929999999949
 20
22.5878979999999956
 30
0.0
 10
16.1303020000000004
 20
22.361534000000006
 30
0.0
  0
SPLINE
  5
118
  8
Engrave3
 62
7
370
-1
  6
ByLayer
100
AcDbEntity
100
AcDbSpline
 70
8
 71
3
 72
8
 73
4
 74
0
 40
0.0
 40
0.0
 40
0.0
 40
0.0
 40
1.0
 40
1.0
 40
1.0
 40
1.0
 10
16.1303020000000004
 20
22.361534000000006
 30
0.0
 10
16.1067639999999983
 20
22.2410020000000088
 30
0.0
 10
16.0465099999999978
 20
22.1395770000000027
 30
0.0
 10
15.9495019999999954
 20
22.0572640000000035
 30
0.0
  0
SPLINE
  5
119
  8
Engrave3
 62
7
370
-1
  6
ByLayer
100
AcDbEntity
100
AcDbSpline
 70
8
 71
3
 72
8
 73
4
 74
0
 40
0.0
 40
0.0
 40
0.0
 40
0.0
 40
1.0
 40
1.0
 40
1.0
 40
1.0
 10
15.9495019999999954
 20
22.0572640000000035
 30
0.0
 10
15.8524819999999949
 20
21.9749480000000119
 30
0.0
 10
15.7437110000000047
 20
21.9337920000000111
 30
0.0
 10
15.6231819999999999
 20
21.9337920000000111
 30
0.0
  0
SPLINE
  5
11A
  8
Engrave3
 62
7
370
-1
  6
ByLayer
100
AcDbEntity
100
AcDbSpline
 70
8
 71
3
 72
8
 73
4
 74
0
 40
0.0
 40
0.0
 40
0.0
 40
0.0
 40
1.0
 40
1.0
 40
1.0
 40
1.0
 10
15.6231819999999999
 20
21.9337920000000111
 30
0.0
 10
15.5055859999999939
 20
21.9337920000000111
 30
0.0
 10
15.4129800000000046
 20
21.9749480000000119
 30
0.0
 10
15.3453710000000001
 20
22.0572640000000035
 30
0.0
  0
SPLINE
  5
11B
  8
Engrave3
 62
7
370
-1
  6
ByLayer
100
AcDbEntity
100
AcDbSpline
 70
8
 71
3
 72
8
 73
4
 74
0
 40
0.0
 40
0.0
 40
0.0
 40
0.0
 40
1.0
 40
1.0
 40
1.0
 40
1.0
 10
15.3453710000000001
 20
22.0572640000000035
 30
0.0
 10
15.2806889999999953
 20
22.1395770000000027
 30
0.0
 10
15.2601120000000066
 20
22.2410020000000088
 30
0.0
 10
15.2836350000000039
 20
22.361534000000006
 30
0.0
  0
SPLINE
  5
11C
  8
Engrave3
 62
7
370
-1
  6
ByLayer
100
AcDbEntity
100
AcDbSpline
 70
8
 71
3
 72
8
 73
4
 74
0
 40
0.0
 40
0.0
 40
0.0
 40
0.0
 40
1.0
 40
1.0
 40
1.0
 40
1.0
 10
15.2836350000000039
 20
22.361534000000006
 30
0.0
 10
15.3277269999999959
 20
22.5878979999999956
 30
0.0
 10
15.3777029999999968
 20
22.924508000000003
 30
0.0
 10
15.433565999999999
 20
23.3713610000000074
 30
0.0
  0
SPLINE
  5
11D
  8
Engrave3
 62
7
370
-1
  6
ByLayer
100
AcDbEntity
100
AcDbSpline
 70
8
 71
3
 72
8
 73
4
 74
0
 40
0.0
 40
0.0
 40
0.0
 40
0.0
 40
1.0
 40
1.0
 40
1.0
 40
1.0
 10
15.433565999999999
 20
23.3713610000000074
 30
0.0
 10
15.4923550000000034
 20
23.8182099999999934
 30
0.0
 10
15.5438019999999995
 20
24.153347999999994
 30
0.0
 10
15.5879039999999947
 20
24.3767780000000016
 30
0.0
  0
SPLINE
  5
11E
  8
Engrave3
 62
7
370
-1
  6
ByLayer
100
AcDbEntity
100
AcDbSpline
 70
8
 71
3
 72
8
 73
4
 74
0
 40
0.0
 40
0.0
 40
0.0
 40
0.0
 40
1.0
 40
1.0
 40
1.0
 40
1.0
 10
15.5879039999999947
 20
24.3767780000000016
 30
0.0
 10
15.6319960000000009
 20
24.5913799999999867
 30
0.0
 10
15.6834419999999994
 20
24.8089280000000088
 30
0.0
 10
15.7422459999999944
 20
25.0294169999999951
 30
0.0
  0
SPLINE
  5
11F
  8
Engrave3
 62
7
370
-1
  6
ByLayer
100
AcDbEntity
100
AcDbSpline
 70
8
 71
3
 72
8
 73
4
 74
0
 40
0.0
 40
0.0
 40
0.0
 40
0.0
 40
1.0
 40
1.0
 40
1.0
 40
1.0
 10
15.7422459999999944
 20
25.0294169999999951
 30
0.0
 10
15.2365910000000042
 20
25.0205829999999878
 30
0.0
 10
14.6001239999999939
 20
24.9456279999999992
 30
0.0
 10
13.8328350000000029
 20
24.8045199999999966
 30
0.0
  0
SPLINE
  5
120
  8
Engrave3
 62
7
370
-1
  6
ByLayer
100
AcDbEntity
100
AcDbSpline
 70
8
 71
3
 72
8
 73
4
 74
0
 40
0.0
 40
0.0
 40
0.0
 40
0.0
 40
1.0
 40
1.0
 40
1.0
 40
1.0
 10
11.9057880000000011
 20
24.4429230000000075
 30
0.0
 10
11.8528680000000008
 20
24.1783360000000016
 30
0.0
 10
11.7514460000000014
 20
23.8020410000000027
 30
0.0
 10
11.6015160000000037
 20
23.3140339999999924
 30
0.0
  0
SPLINE
  5
121
  8
Engrave3
 62
7
370
-1
  6
ByLayer
100
AcDbEntity
100
AcDbSpline
 70
8
 71
3
 72
8
 73
4
 74
0
 40
0.0
 40
0.0
 40
0.0
 40
0.0
 40
1.0
 40
1.0
 40
1.0
 40
1.0
 10
11.6015160000000037
 20
23.3140339999999924
 30
0.0
 10
11.4515849999999944
 20
22.8289640000000134
 30
0.0
 10
11.3501600000000025
 20
22.452668999999986
 30
0.0
 10
11.2972460000000012
 20
22.1851450000000057
 30
0.0
  0
SPLINE
  5
122
  8
Engrave3
 62
7
370
-1
  6
ByLayer
100
AcDbEntity
100
AcDbSpline
 70
8
 71
3
 72
8
 73
4
 74
0
 40
0.0
 40
0.0
 40
0.0
 40
0.0
 40
1.0
 40
1.0
 40
1.0
 40
1.0
 10
11.2972460000000012
 20
22.1851450000000057
 30
0.0
 10
11.273736999999997
 20
22.0646130000000085
 30
0.0
 10
11.2119900000000001
 20
21.9631880000000024
 30
0.0
 10
11.1120379999999983
 20
21.8808750000000032
 30
0.0
  0
SPLINE
  5
123
  8
Engrave3
 62
7
370
-1
  6
ByLayer
100
AcDbEntity
100
AcDbSpline
 70
8
 71
3
 72
8
 73
4
 74
0
 40
0.0
 40
0.0
 40
0.0
 40
0.0
 40
1.0
 40
1.0
 40
1.0
 40
1.0
 10
11.1120379999999983
 20
21.8808750000000032
 30
0.0
 10
11.0150210000000044
 20
21.7956189999999879
 30
0.0
 10
10.90625
 20
21.7529920000000061
 30
0.0
 10
10.7857180000000028
 20
21.7529920000000061
 30
0.0
  0
SPLINE
  5
124
  8
Engrave3
 62
7
370
-1
  6
ByLayer
100
AcDbEntity
100
AcDbSpline
 70
8
 71
3
 72
8
 73
4
 74
0
 40
0.0
 40
0.0
 40
0.0
 40
0.0
 40
1.0
 40
1.0
 40
1.0
 40
1.0
 10
10.7857180000000028
 20
21.7529920000000061
 30
0.0
 10
10.6651839999999964
 20
21.7529920000000061
 30
0.0
 10
10.5725809999999996
 20
21.7956189999999879
 30
0.0
 10
10.5079039999999964
 20
21.8808750000000032
 30
0.0
  0
SPLINE
  5
125
  8
Engrave3
 62
7
370
-1
  6
ByLayer
100
AcDbEntity
100
AcDbSpline
 70
8
 71
3
 72
8
 73
4
 74
0
 40
0.0
 40
0.0
 40
0.0
 40
0.0
 40
1.0
 40
1.0
 40
1.0
 40
1.0
 10
10.5079039999999964
 20
21.8808750000000032
 30
0.0
 10
10.4461680000000001
 20
21.9631880000000024
 30
0.0
 10
10.4270589999999999
 20
22.0646130000000085
 30
0.0
 10
10.4505790000000047
 20
22.1851450000000057
 30
0.0
  0
SPLINE
  5
126
  8
Engrave3
 62
7
370
-1
  6
ByLayer
100
AcDbEntity
100
AcDbSpline
 70
8
 71
3
 72
8
 73
4
 74
0
 40
0.0
 40
0.0
 40
0.0
 40
0.0
 40
1.0
 40
1.0
 40
1.0
 40
1.0
 10
10.4505790000000047
 20
22.1851450000000057
 30
0.0
 10
10.5123159999999984
 20
22.496766000000008
 30
0.0
 10
10.6299060000000054
 20
22.9612559999999917
 30
0.0
 10
10.8033570000000054
 20
23.5786170000000084
 30
0.0
  0
SPLINE
  5
127
  8
Engrave3
 62
7
370
-1
  6
ByLayer
100
AcDbEntity
100
AcDbSpline
 70
8
 71
3
 72
8
 73
4
 74
0
 40
0.0
 40
0.0
 40
0.0
 40
0.0
 40
1.0
 40
1.0
 40
1.0
 40
1.0
 10
10.8033570000000054
 20
23.5786170000000084
 30
0.0
 10
10.9797429999999991
 20
24.198915999999997
 30
0.0
 10
11.100278000000003
 20
24.6648759999999925
 30
0.0
 10
11.1649539999999945
 20
24.9764999999999873
 30
0.0
  0
SPLINE
  5
128
  8
Engrave3
 62
7
370
-1
  6
ByLayer
100
AcDbEntity
100
AcDbSpline
 70
8
 71
3
 72
8
 73
4
 74
0
 40
0.0
 40
0.0
 40
0.0
 40
0.0
 40
1.0
 40
1.0
 40
1.0
 40
1.0
 10
11.1649539999999945
 20
24.9764999999999873
 30
0.0
 10
11.197291000000007
 20
25.1381849999999929
 30
0.0
 10
11.239918000000003
 20
25.382189000000011
 30
0.0
 10
11.2928349999999966
 20
25.7085140000000081
 30
0.0
  0
SPLINE
  5
129
  8
Engrave3
 62
7
370
-1
  6
ByLayer
100
AcDbEntity
100
AcDbSpline
 70
8
 71
3
 72
8
 73
4
 74
0
 40
0.0
 40
0.0
 40
0.0
 40
0.0
 40
1.0
 40
1.0
 40
1.0
 40
1.0
 10
11.2928349999999966
 20
25.7085140000000081
 30
0.0
 10
11.3457520000000045
 20
26.0348280000000045
 30
0.0
 10
11.3883790000000005
 20
26.280302000000006
 30
0.0
 10
11.4207179999999937
 20
26.4449360000000127
 30
0.0
  0
SPLINE
  5
12A
  8
Engrave3
 62
7
370
-1
  6
ByLayer
100
AcDbEntity
100
AcDbSpline
 70
8
 71
3
 72
8
 73
4
 74
0
 40
0.0
 40
0.0
 40
0.0
 40
0.0
 40
1.0
 40
1.0
 40
1.0
 40
1.0
 10
11.4207179999999937
 20
26.4449360000000127
 30
0.0
 10
11.4677539999999993
 20
26.6771770000000004
 30
0.0
 10
11.5515369999999962
 20
27.0255469999999889
 30
0.0
 10
11.6720710000000025
 20
27.4900419999999883
 30
0.0
  0
SPLINE
  5
12B
  8
Engrave3
 62
7
370
-1
  6
ByLayer
100
AcDbEntity
100
AcDbSpline
 70
8
 71
3
 72
8
 73
4
 74
0
 40
0.0
 40
0.0
 40
0.0
 40
0.0
 40
1.0
 40
1.0
 40
1.0
 40
1.0
 10
11.6720710000000025
 20
27.4900419999999883
 30
0.0
 10
11.795542999999995
 20
27.9574670000000083
 30
0.0
 10
11.8807970000000012
 20
28.3073039999999878
 30
0.0
 10
11.9278350000000017
 20
28.5395560000000046
 30
0.0
  0
SPLINE
  5
12C
  8
Engrave3
 62
7
370
-1
  6
ByLayer
100
AcDbEntity
100
AcDbSpline
 70
8
 71
3
 72
8
 73
4
 74
0
 40
0.0
 40
0.0
 40
0.0
 40
0.0
 40
1.0
 40
1.0
 40
1.0
 40
1.0
 10
11.9278350000000017
 20
28.5395560000000046
 30
0.0
 10
11.9542789999999997
 20
28.6630199999999888
 30
0.0
 10
12.0160290000000032
 20
28.7659150000000068
 30
0.0
 10
12.1130430000000047
 20
28.8482360000000142
 30
0.0
  0
SPLINE
  5
12D
  8
Engrave3
 62
7
370
-1
  6
ByLayer
100
AcDbEntity
100
AcDbSpline
 70
8
 71
3
 72
8
 73
4
 74
0
 40
0.0
 40
0.0
 40
0.0
 40
0.0
 40
1.0
 40
1.0
 40
1.0
 40
1.0
 10
12.1130430000000047
 20
28.8482360000000142
 30
0.0
 10
12.2100539999999995
 20
28.9305439999999976
 30
0.0
 10
12.3188279999999963
 20
28.9716999999999985
 30
0.0
 10
12.4393630000000002
 20
28.9717090000000042
 30
0.0
  0
SPLINE
  5
12E
  8
Engrave3
 62
7
370
-1
  6
ByLayer
100
AcDbEntity
100
AcDbSpline
 70
8
 71
3
 72
8
 73
4
 74
0
 40
0.0
 40
0.0
 40
0.0
 40
0.0
 40
1.0
 40
1.0
 40
1.0
 40
1.0
 10
12.4393630000000002
 20
28.9717090000000042
 30
0.0
 10
12.5598939999999999
 20
28.9716999999999985
 30
0.0
 10
12.6524969999999968
 20
28.9305439999999976
 30
0.0
 10
12.7171770000000066
 20
28.8482360000000142
 30
0.0
  0
SPLINE
  5
12F
  8
Engrave3
 62
7
370
-1
  6
ByLayer
100
AcDbEntity
100
AcDbSpline
 70
8
 71
3
 72
8
 73
4
 74
0
 40
0.0
 40
0.0
 40
0.0
 40
0.0
 40
1.0
 40
1.0
 40
1.0
 40
1.0
 10
12.7171770000000066
 20
28.8482360000000142
 30
0.0
 10
12.7818479999999965
 20
28.7659150000000068
 30
0.0
 10
12.8009569999999968
 20
28.6630199999999888
 30
0.0
 10
12.7745019999999982
 20
28.5395560000000046
 30
0.0
  0
SPLINE
  5
130
  8
Engrave3
 62
7
370
-1
  6
ByLayer
100
AcDbEntity
100
AcDbSpline
 70
8
 71
3
 72
8
 73
4
 74
0
 40
0.0
 40
0.0
 40
0.0
 40
0.0
 40
1.0
 40
1.0
 40
1.0
 40
1.0
 10
12.7745019999999982
 20
28.5395560000000046
 30
0.0
 10
12.7274639999999977
 20
28.3043629999999951
 30
0.0
 10
12.6407370000000014
 20
27.9515849999999944
 30
0.0
 10
12.5143290000000036
 20
27.481223
 30
0.0
  0
SPLINE
  5
131
  8
Engrave3
 62
7
370
-1
  6
ByLayer
100
AcDbEntity
100
AcDbSpline
 70
8
 71
3
 72
8
 73
4
 74
0
 40
0.0
 40
0.0
 40
0.0
 40
0.0
 40
1.0
 40
1.0
 40
1.0
 40
1.0
 10
12.5143290000000036
 20
27.481223
 30
0.0
 10
12.3908540000000045
 20
27.0137860000000103
 30
0.0
 10
12.3056009999999958
 20
26.6624789999999905
 30
0.0
 10
12.2585660000000018
 20
26.4272980000000075
 30
0.0
  0
LWPOLYLINE
  5
132
  8
Engrave3
 62
7
370
-1
  6
ByLayer
100
AcDbEntity
100
AcDbPolyline
 90
2
 70
0
 10
13.8328350000000029
 20
24.8045199999999966
 10
11.9057880000000011
 20
24.4429230000000075
  0
SPLINE
  5
133
  8
Engrave3
 62
7
370
-1
  6
ByLayer
100
AcDbEntity
100
AcDbSpline
 70
8
 71
3
 72
8
 73
4
 74
0
 40
0.0
 40
0.0
 40
0.0
 40
0.0
 40
1.0
 40
1.0
 40
1.0
 40
1.0
 10
14.0268630000000059
 20
25.6688249999999982
 30
0.0
 10
14.8117909999999995
 20
25.8099339999999984
 30
0.0
 10
15.4629560000000055
 20
25.8834270000000117
 30
0.0
 10
15.9803710000000052
 20
25.8893109999999922
 30
0.0
  0
SPLINE
  5
134
  8
Engrave3
 62
7
370
-1
  6
ByLayer
100
AcDbEntity
100
AcDbSpline
 70
8
 71
3
 72
8
 73
4
 74
0
 40
0.0
 40
0.0
 40
0.0
 40
0.0
 40
1.0
 40
1.0
 40
1.0
 40
1.0
 10
15.9803710000000052
 20
25.8893109999999922
 30
0.0
 10
16.0979559999999964
 20
26.3097009999999898
 30
0.0
 10
16.2405380000000008
 20
26.9432309999999973
 30
0.0
 10
16.4081130000000002
 20
27.7899030000000096
 30
0.0
  0
SPLINE
  5
135
  8
Engrave3
 62
7
370
-1
  6
ByLayer
100
AcDbEntity
100
AcDbSpline
 70
8
 71
3
 72
8
 73
4
 74
0
 40
0.0
 40
0.0
 40
0.0
 40
0.0
 40
1.0
 40
1.0
 40
1.0
 40
1.0
 10
16.4081130000000002
 20
27.7899030000000096
 30
0.0
 10
16.4522039999999947
 20
28.0133209999999906
 30
0.0
 10
16.5345200000000006
 20
28.2396860000000061
 30
0.0
 10
16.6550569999999993
 20
28.4689999999999941
 30
0.0
  0
SPLINE
  5
136
  8
Engrave3
 62
7
370
-1
  6
ByLayer
100
AcDbEntity
100
AcDbSpline
 70
8
 71
3
 72
8
 73
4
 74
0
 40
0.0
 40
0.0
 40
0.0
 40
0.0
 40
1.0
 40
1.0
 40
1.0
 40
1.0
 10
16.6550569999999993
 20
28.4689999999999941
 30
0.0
 10
16.8138019999999955
 20
28.7835540000000094
 30
0.0
 10
16.9813709999999958
 20
28.9408339999999953
 30
0.0
 10
17.1577659999999952
 20
28.9408390000000111
 30
0.0
  0
SPLINE
  5
137
  8
Engrave3
 62
7
370
-1
  6
ByLayer
100
AcDbEntity
100
AcDbSpline
 70
8
 71
3
 72
8
 73
4
 74
0
 40
0.0
 40
0.0
 40
0.0
 40
0.0
 40
1.0
 40
1.0
 40
1.0
 40
1.0
 10
17.1577659999999952
 20
28.9408390000000111
 30
0.0
 10
17.2694719999999933
 20
28.9408339999999953
 30
0.0
 10
17.3606070000000017
 20
28.8996740000000045
 30
0.0
 10
17.4311679999999996
 20
28.8173669999999902
 30
0.0
  0
SPLINE
  5
138
  8
Engrave3
 62
7
370
-1
  6
ByLayer
100
AcDbEntity
100
AcDbSpline
 70
8
 71
3
 72
8
 73
4
 74
0
 40
0.0
 40
0.0
 40
0.0
 40
0.0
 40
1.0
 40
1.0
 40
1.0
 40
1.0
 10
17.4311679999999996
 20
28.8173669999999902
 30
0.0
 10
17.5046559999999971
 20
28.7379860000000065
 30
0.0
 10
17.5296440000000047
 20
28.6365610000000004
 30
0.0
 10
17.5061350000000004
 20
28.5130980000000136
 30
0.0
  0
SPLINE
  5
139
  8
Engrave3
 62
7
370
-1
  6
ByLayer
100
AcDbEntity
100
AcDbSpline
 70
8
 71
3
 72
8
 73
4
 74
0
 40
0.0
 40
0.0
 40
0.0
 40
0.0
 40
1.0
 40
1.0
 40
1.0
 40
1.0
 10
17.5061350000000004
 20
28.5130980000000136
 30
0.0
 10
17.4973009999999931
 20
28.4689919999999859
 30
0.0
 10
17.4723189999999988
 20
28.4087260000000015
 30
0.0
 10
17.4311679999999996
 20
28.3322980000000086
 30
0.0
  0
LWPOLYLINE
  5
13A
  8
Engrave3
 62
7
370
-1
  6
ByLayer
100
AcDbEntity
100
AcDbPolyline
 90
3
 70
0
 10
12.2585660000000018
 20
26.4272980000000075
 10
12.0645379999999989
 20
25.3116390000000138
 10
14.0268630000000059
 20
25.6688249999999982
  0
SPLINE
  5
13B
  8
Engrave3
 62
7
370
-1
  6
ByLayer
100
AcDbEntity
100
AcDbSpline
 70
8
 71
3
 72
8
 73
4
 74
0
 40
0.0
 40
0.0
 40
0.0
 40
0.0
 40
1.0
 40
1.0
 40
1.0
 40
1.0
 10
17.1842240000000004
 20
27.397435999999999
 30
0.0
 10
17.1577510000000046
 20
27.223983000000004
 30
0.0
 10
17.1357100000000031
 20
27.0931610000000092
 30
0.0
 10
17.1180789999999945
 20
27.0049730000000068
 30
0.0
  0
SPLINE
  5
13C
  8
Engrave1
 62
7
370
-1
  6
ByLayer
100
AcDbEntity
100
AcDbSpline
 70
8
 71
3
 72
8
 73
4
 74
0
 40
0.0
 40
0.0
 40
0.0
 40
0.0
 40
1.0
 40
1.0
 40
1.0
 40
1.0
 10
45.4775625600000026
 20
30.7154462399999986
 30
0.0
 10
45.1584617600000016
 20
30.7643484800000024
 30
0.0
 10
44.7025803200000027
 20
30.9098887999999974
 30
0.0
 10
44.4137337599999995
 20
31.0550747200000004
 30
0.0
  0
SPLINE
  5
13D
  8
Engrave1
 62
7
370
-1
  6
ByLayer
100
AcDbEntity
100
AcDbSpline
 70
8
 71
3
 72
8
 73
4
 74
0
 40
0.0
 40
0.0
 40
0.0
 40
0.0
 40
1.0
 40
1.0
 40
1.0
 40
1.0
 10
44.4137337599999995
 20
31.0550747200000004
 30
0.0
 10
43.6634542400000001
 20
31.4321958399999986
 30
0.0
 10
43.2545278400000015
 20
32.1294062400000016
 30
0.0
 10
43.371079679999994
 20
32.8327758399999965
 30
0.0
  0
SPLINE
  5
13E
  8
Engrave1
 62
7
370
-1
  6
ByLayer
100
AcDbEntity
100
AcDbSpline
 70
8
 71
3
 72
8
 73
4
 74
0
 40
0.0
 40
0.0
 40
0.0
 40
0.0
 40
1.0
 40
1.0
 40
1.0
 40
1.0
 10
43.371079679999994
 20
32.8327758399999965
 30
0.0
 10
43.5121764800000008
 20
33.6842673599999998
 30
0.0
 10
44.2160900800000007
 20
34.3493654399999997
 30
0.0
 10
45.2865952000000007
 20
34.6426628800000032
 30
0.0
  0
SPLINE
  5
13F
  8
Engrave1
 62
7
370
-1
  6
ByLayer
100
AcDbEntity
100
AcDbSpline
 70
8
 71
3
 72
8
 73
4
 74
0
 40
0.0
 40
0.0
 40
0.0
 40
0.0
 40
1.0
 40
1.0
 40
1.0
 40
1.0
 10
45.2865952000000007
 20
34.6426628800000032
 30
0.0
 10
45.6780169600000008
 20
34.7499059200000033
 30
0.0
 10
46.4332211199999989
 20
34.8678857600000001
 30
0.0
 10
46.7306291199999961
 20
34.868254560000004
 30
0.0
  0
SPLINE
  5
140
  8
Engrave1
 62
7
370
-1
  6
ByLayer
100
AcDbEntity
100
AcDbSpline
 70
8
 71
3
 72
8
 73
4
 74
0
 40
0.0
 40
0.0
 40
0.0
 40
0.0
 40
1.0
 40
1.0
 40
1.0
 40
1.0
 10
46.7306291199999961
 20
34.868254560000004
 30
0.0
 10
46.9636137600000012
 20
34.8685255999999981
 30
0.0
 10
46.9918496000000019
 20
34.9025420800000035
 30
0.0
 10
46.8589838400000005
 20
35.0227868799999982
 30
0.0
  0
SPLINE
  5
141
  8
Engrave1
 62
7
370
-1
  6
ByLayer
100
AcDbEntity
100
AcDbSpline
 70
8
 71
3
 72
8
 73
4
 74
0
 40
0.0
 40
0.0
 40
0.0
 40
0.0
 40
1.0
 40
1.0
 40
1.0
 40
1.0
 10
46.8589838400000005
 20
35.0227868799999982
 30
0.0
 10
46.8116065600000013
 20
35.0656603199999992
 30
0.0
 10
46.7282358400000035
 20
35.2044404800000024
 30
0.0
 10
46.6737105600000035
 20
35.3311872000000022
 30
0.0
  0
SPLINE
  5
142
  8
Engrave1
 62
7
370
-1
  6
ByLayer
100
AcDbEntity
100
AcDbSpline
 70
8
 71
3
 72
8
 73
4
 74
0
 40
0.0
 40
0.0
 40
0.0
 40
0.0
 40
1.0
 40
1.0
 40
1.0
 40
1.0
 10
46.6737105600000035
 20
35.3311872000000022
 30
0.0
 10
46.5945663999999979
 20
35.5151648000000009
 30
0.0
 10
46.5786671999999982
 20
35.6215092799999979
 30
0.0
 10
46.5948644799999983
 20
35.8585452800000013
 30
0.0
  0
SPLINE
  5
143
  8
Engrave1
 62
7
370
-1
  6
ByLayer
100
AcDbEntity
100
AcDbSpline
 70
8
 71
3
 72
8
 73
4
 74
0
 40
0.0
 40
0.0
 40
0.0
 40
0.0
 40
1.0
 40
1.0
 40
1.0
 40
1.0
 10
46.5948644799999983
 20
35.8585452800000013
 30
0.0
 10
46.6060268800000017
 20
36.0218454399999999
 30
0.0
 10
46.6292504000000037
 20
36.1874643199999966
 30
0.0
 10
46.6464772799999992
 20
36.2265880000000067
 30
0.0
  0
SPLINE
  5
144
  8
Engrave1
 62
7
370
-1
  6
ByLayer
100
AcDbEntity
100
AcDbSpline
 70
8
 71
3
 72
8
 73
4
 74
0
 40
0.0
 40
0.0
 40
0.0
 40
0.0
 40
1.0
 40
1.0
 40
1.0
 40
1.0
 10
46.6464772799999992
 20
36.2265880000000067
 30
0.0
 10
46.6736473600000039
 20
36.2883020800000011
 30
0.0
 10
46.6222467199999997
 20
36.2983270399999967
 30
0.0
 10
46.2582976000000059
 20
36.3022951999999961
 30
0.0
  0
SPLINE
  5
145
  8
Engrave1
 62
7
370
-1
  6
ByLayer
100
AcDbEntity
100
AcDbSpline
 70
8
 71
3
 72
8
 73
4
 74
0
 40
0.0
 40
0.0
 40
0.0
 40
0.0
 40
1.0
 40
1.0
 40
1.0
 40
1.0
 10
46.2582976000000059
 20
36.3022951999999961
 30
0.0
 10
45.0385014399999974
 20
36.3155958400000003
 30
0.0
 10
44.1588987200000034
 20
37.0826835200000033
 30
0.0
 10
44.0309659199999999
 20
38.2447211199999941
 30
0.0
  0
SPLINE
  5
146
  8
Engrave1
 62
7
370
-1
  6
ByLayer
100
AcDbEntity
100
AcDbSpline
 70
8
 71
3
 72
8
 73
4
 74
0
 40
0.0
 40
0.0
 40
0.0
 40
0.0
 40
1.0
 40
1.0
 40
1.0
 40
1.0
 10
44.0309659199999999
 20
38.2447211199999941
 30
0.0
 10
43.9939636800000002
 20
38.580817119999999
 30
0.0
 10
44.1005244800000042
 20
39.0907344000000023
 30
0.0
 10
44.2871577599999995
 20
39.4706601600000013
 30
0.0
  0
SPLINE
  5
147
  8
Engrave1
 62
7
370
-1
  6
ByLayer
100
AcDbEntity
100
AcDbSpline
 70
8
 71
3
 72
8
 73
4
 74
0
 40
0.0
 40
0.0
 40
0.0
 40
0.0
 40
1.0
 40
1.0
 40
1.0
 40
1.0
 10
44.2871577599999995
 20
39.4706601600000013
 30
0.0
 10
44.480076320000002
 20
39.8633793599999962
 30
0.0
 10
44.9704926400000033
 20
40.352507039999999
 30
0.0
 10
45.3879873599999968
 20
40.5685948799999991
 30
0.0
  0
SPLINE
  5
148
  8
Engrave1
 62
7
370
-1
  6
ByLayer
100
AcDbEntity
100
AcDbSpline
 70
8
 71
3
 72
8
 73
4
 74
0
 40
0.0
 40
0.0
 40
0.0
 40
0.0
 40
1.0
 40
1.0
 40
1.0
 40
1.0
 10
45.3879873599999968
 20
40.5685948799999991
 30
0.0
 10
46.0878985599999993
 20
40.9308561599999976
 30
0.0
 10
46.6878984000000017
 20
41.0086366399999989
 30
0.0
 10
48.7739180800000014
 20
41.00752576
 30
0.0
  0
SPLINE
  5
149
  8
Engrave1
 62
7
370
-1
  6
ByLayer
100
AcDbEntity
100
AcDbSpline
 70
8
 71
3
 72
8
 73
4
 74
0
 40
0.0
 40
0.0
 40
0.0
 40
0.0
 40
1.0
 40
1.0
 40
1.0
 40
1.0
 10
48.7739180800000014
 20
41.00752576
 30
0.0
 10
50.3035172800000012
 20
41.0067129600000015
 30
0.0
 10
50.2444492799999978
 20
41.0315417599999961
 30
0.0
 10
49.5797686400000046
 20
40.6687665600000017
 30
0.0
  0
SPLINE
  5
14A
  8
Engrave1
 62
7
370
-1
  6
ByLayer
100
AcDbEntity
100
AcDbSpline
 70
8
 71
3
 72
8
 73
4
 74
0
 40
0.0
 40
0.0
 40
0.0
 40
0.0
 40
1.0
 40
1.0
 40
1.0
 40
1.0
 10
49.5797686400000046
 20
40.6687665600000017
 30
0.0
 10
49.228219039999999
 20
40.4768947200000042
 30
0.0
 10
49.1947227200000015
 20
40.4678099200000005
 30
0.0
 10
48.838833600000001
 20
40.4678099200000005
 30
0.0
  0
SPLINE
  5
14B
  8
Engrave1
 62
7
370
-1
  6
ByLayer
100
AcDbEntity
100
AcDbSpline
 70
8
 71
3
 72
8
 73
4
 74
0
 40
0.0
 40
0.0
 40
0.0
 40
0.0
 40
1.0
 40
1.0
 40
1.0
 40
1.0
 10
48.7452443199999976
 20
40.1771033600000038
 30
0.0
 10
49.2349923200000035
 20
39.6670782400000022
 30
0.0
 10
49.4525067200000024
 20
38.9992017599999983
 30
0.0
 10
49.3436140800000018
 20
38.3398132800000013
 30
0.0
  0
SPLINE
  5
14C
  8
Engrave1
 62
7
370
-1
  6
ByLayer
100
AcDbEntity
100
AcDbSpline
 70
8
 71
3
 72
8
 73
4
 74
0
 40
0.0
 40
0.0
 40
0.0
 40
0.0
 40
1.0
 40
1.0
 40
1.0
 40
1.0
 10
49.3436140800000018
 20
38.3398132800000013
 30
0.0
 10
49.2525487999999996
 20
37.7883953599999955
 30
0.0
 10
49.1212862400000034
 20
37.5748470399999945
 30
0.0
 10
48.499151040000001
 20
36.9659681600000027
 30
0.0
  0
SPLINE
  5
14D
  8
Engrave1
 62
7
370
-1
  6
ByLayer
100
AcDbEntity
100
AcDbSpline
 70
8
 71
3
 72
8
 73
4
 74
0
 40
0.0
 40
0.0
 40
0.0
 40
0.0
 40
1.0
 40
1.0
 40
1.0
 40
1.0
 10
48.499151040000001
 20
36.9659681600000027
 30
0.0
 10
48.1933484799999974
 20
36.6666838400000046
 30
0.0
 10
47.9217919999999964
 20
36.3656412799999984
 30
0.0
 10
47.8956876800000018
 20
36.2969840000000019
 30
0.0
  0
SPLINE
  5
14E
  8
Engrave1
 62
7
370
-1
  6
ByLayer
100
AcDbEntity
100
AcDbSpline
 70
8
 71
3
 72
8
 73
4
 74
0
 40
0.0
 40
0.0
 40
0.0
 40
0.0
 40
1.0
 40
1.0
 40
1.0
 40
1.0
 10
47.8956876800000018
 20
36.2969840000000019
 30
0.0
 10
47.7690534400000004
 20
35.9639049600000007
 30
0.0
 10
47.8787814399999974
 20
35.7799529600000028
 30
0.0
 10
48.505332800000005
 20
35.2749697599999976
 30
0.0
  0
SPLINE
  5
14F
  8
Engrave1
 62
7
370
-1
  6
ByLayer
100
AcDbEntity
100
AcDbSpline
 70
8
 71
3
 72
8
 73
4
 74
0
 40
0.0
 40
0.0
 40
0.0
 40
0.0
 40
1.0
 40
1.0
 40
1.0
 40
1.0
 10
48.505332800000005
 20
35.2749697599999976
 30
0.0
 10
49.4146979199999947
 20
34.5420446400000003
 30
0.0
 10
49.6959403199999983
 20
34.1631262399999969
 30
0.0
 10
49.800958559999998
 20
33.5293662400000017
 30
0.0
  0
SPLINE
  5
150
  8
Engrave1
 62
7
370
-1
  6
ByLayer
100
AcDbEntity
100
AcDbSpline
 70
8
 71
3
 72
8
 73
4
 74
0
 40
0.0
 40
0.0
 40
0.0
 40
0.0
 40
1.0
 40
1.0
 40
1.0
 40
1.0
 10
49.800958559999998
 20
33.5293662400000017
 30
0.0
 10
49.9396267199999997
 20
32.6925204799999989
 30
0.0
 10
49.4812481599999998
 20
31.8012427199999976
 30
0.0
 10
48.6452608000000026
 20
31.2822131200000015
 30
0.0
  0
SPLINE
  5
151
  8
Engrave1
 62
7
370
-1
  6
ByLayer
100
AcDbEntity
100
AcDbSpline
 70
8
 71
3
 72
8
 73
4
 74
0
 40
0.0
 40
0.0
 40
0.0
 40
0.0
 40
1.0
 40
1.0
 40
1.0
 40
1.0
 10
48.6452608000000026
 20
31.2822131200000015
 30
0.0
 10
47.9885275199999981
 20
30.874474720000002
 30
0.0
 10
47.3941945600000025
 20
30.7162491200000005
 30
0.0
 10
46.425829119999996
 20
30.691344959999995
 30
0.0
  0
SPLINE
  5
152
  8
Engrave1
 62
7
370
-1
  6
ByLayer
100
AcDbEntity
100
AcDbSpline
 70
8
 71
3
 72
8
 73
4
 74
0
 40
0.0
 40
0.0
 40
0.0
 40
0.0
 40
1.0
 40
1.0
 40
1.0
 40
1.0
 10
46.425829119999996
 20
30.691344959999995
 30
0.0
 10
46.053295839999997
 20
30.6817643199999992
 30
0.0
 10
45.626575840000001
 20
30.6926092799999992
 30
0.0
 10
45.4775625600000026
 20
30.7154462399999986
 30
0.0
  0
LWPOLYLINE
  5
153
  8
Engrave1
 62
7
370
-1
  6
ByLayer
100
AcDbEntity
100
AcDbPolyline
 90
3
 70
0
 10
48.838833600000001
 20
40.4678099200000005
 10
48.4660926399999994
 20
40.4678099200000005
 10
48.7452443199999976
 20
40.1771033600000038
  0
SPLINE
  5
154
  8
Engrave1
 62
7
370
-1
  6
ByLayer
100
AcDbEntity
100
AcDbSpline
 70
8
 71
3
 72
8
 73
4
 74
0
 40
0.0
 40
0.0
 40
0.0
 40
0.0
 40
1.0
 40
1.0
 40
1.0
 40
1.0
 10
47.4869846400000029
 20
31.3025281599999943
 30
0.0
 10
47.6484158399999984
 20
31.3277014399999985
 30
0.0
 10
47.9267185599999976
 20
31.419555520000003
 30
0.0
 10
48.1054352000000023
 20
31.5066483199999965
 30
0.0
  0
SPLINE
  5
155
  8
Engrave1
 62
7
370
-1
  6
ByLayer
100
AcDbEntity
100
AcDbSpline
 70
8
 71
3
 72
8
 73
4
 74
0
 40
0.0
 40
0.0
 40
0.0
 40
0.0
 40
1.0
 40
1.0
 40
1.0
 40
1.0
 10
48.1054352000000023
 20
31.5066483199999965
 30
0.0
 10
48.6429579200000006
 20
31.7685971199999955
 30
0.0
 10
48.8878816
 20
32.1495279999999966
 30
0.0
 10
48.8858134400000068
 20
32.7203871999999976
 30
0.0
  0
SPLINE
  5
156
  8
Engrave1
 62
7
370
-1
  6
ByLayer
100
AcDbEntity
100
AcDbSpline
 70
8
 71
3
 72
8
 73
4
 74
0
 40
0.0
 40
0.0
 40
0.0
 40
0.0
 40
1.0
 40
1.0
 40
1.0
 40
1.0
 10
48.8858134400000068
 20
32.7203871999999976
 30
0.0
 10
48.8840524800000011
 20
33.2037169599999942
 30
0.0
 10
48.6745215999999985
 20
33.5271315199999975
 30
0.0
 10
48.038392800000004
 20
34.0283166399999999
 30
0.0
  0
SPLINE
  5
157
  8
Engrave1
 62
7
370
-1
  6
ByLayer
100
AcDbEntity
100
AcDbSpline
 70
8
 71
3
 72
8
 73
4
 74
0
 40
0.0
 40
0.0
 40
0.0
 40
0.0
 40
1.0
 40
1.0
 40
1.0
 40
1.0
 10
48.038392800000004
 20
34.0283166399999999
 30
0.0
 10
47.3808150400000017
 20
34.5463984000000011
 30
0.0
 10
47.42405136
 20
34.5310505599999971
 30
0.0
 10
46.7916929599999989
 20
34.4709006400000035
 30
0.0
  0
SPLINE
  5
158
  8
Engrave1
 62
7
370
-1
  6
ByLayer
100
AcDbEntity
100
AcDbSpline
 70
8
 71
3
 72
8
 73
4
 74
0
 40
0.0
 40
0.0
 40
0.0
 40
0.0
 40
1.0
 40
1.0
 40
1.0
 40
1.0
 10
46.7916929599999989
 20
34.4709006400000035
 30
0.0
 10
45.6293844799999988
 20
34.3603412800000001
 30
0.0
 10
44.9838903999999999
 20
34.0541428800000006
 30
0.0
 10
44.7017043199999975
 20
33.4794841599999984
 30
0.0
  0
SPLINE
  5
159
  8
Engrave1
 62
7
370
-1
  6
ByLayer
100
AcDbEntity
100
AcDbSpline
 70
8
 71
3
 72
8
 73
4
 74
0
 40
0.0
 40
0.0
 40
0.0
 40
0.0
 40
1.0
 40
1.0
 40
1.0
 40
1.0
 10
44.7017043199999975
 20
33.4794841599999984
 30
0.0
 10
44.5294583999999958
 20
33.1287235200000012
 30
0.0
 10
44.5232992000000039
 20
32.6541796799999986
 30
0.0
 10
44.6866222400000055
 20
32.3179465600000029
 30
0.0
  0
SPLINE
  5
15A
  8
Engrave1
 62
7
370
-1
  6
ByLayer
100
AcDbEntity
100
AcDbSpline
 70
8
 71
3
 72
8
 73
4
 74
0
 40
0.0
 40
0.0
 40
0.0
 40
0.0
 40
1.0
 40
1.0
 40
1.0
 40
1.0
 10
44.6866222400000055
 20
32.3179465600000029
 30
0.0
 10
45.0646780800000002
 20
31.5396439999999956
 30
0.0
 10
46.25039984
 20
31.1096985599999982
 30
0.0
 10
47.4869846400000029
 20
31.3025281599999943
 30
0.0
  0
LWPOLYLINE
  5
15B
  8
Engrave1
 62
7
370
-1
  6
ByLayer
100
AcDbEntity
100
AcDbPolyline
 90
2
 70
0
 10
45.4775625600000026
 20
30.7154462399999986
 10
45.4775625600000026
 20
30.7154462399999986
  0
SPLINE
  5
15C
  8
Engrave1
 62
7
370
-1
  6
ByLayer
100
AcDbEntity
100
AcDbSpline
 70
8
 71
3
 72
8
 73
4
 74
0
 40
0.0
 40
0.0
 40
0.0
 40
0.0
 40
1.0
 40
1.0
 40
1.0
 40
1.0
 10
47.4448364799999993
 20
36.8158087999999992
 30
0.0
 10
47.697039359999998
 20
36.9243044800000035
 30
0.0
 10
47.9528681599999942
 20
37.1757771199999993
 30
0.0
 10
48.0512395200000029
 20
37.4118900799999992
 30
0.0
  0
SPLINE
  5
15D
  8
Engrave1
 62
7
370
-1
  6
ByLayer
100
AcDbEntity
100
AcDbSpline
 70
8
 71
3
 72
8
 73
4
 74
0
 40
0.0
 40
0.0
 40
0.0
 40
0.0
 40
1.0
 40
1.0
 40
1.0
 40
1.0
 10
48.0512395200000029
 20
37.4118900799999992
 30
0.0
 10
48.2160030399999968
 20
37.8073692800000032
 30
0.0
 10
48.1791697600000006
 20
38.4720496000000054
 30
0.0
 10
47.9561464000000015
 20
39.1277587200000028
 30
0.0
  0
SPLINE
  5
15E
  8
Engrave1
 62
7
370
-1
  6
ByLayer
100
AcDbEntity
100
AcDbSpline
 70
8
 71
3
 72
8
 73
4
 74
0
 40
0.0
 40
0.0
 40
0.0
 40
0.0
 40
1.0
 40
1.0
 40
1.0
 40
1.0
 10
47.9561464000000015
 20
39.1277587200000028
 30
0.0
 10
47.7636889600000032
 20
39.6936084800000017
 30
0.0
 10
47.4377425600000038
 20
40.1344070399999993
 30
0.0
 10
47.0380256000000045
 20
40.3694001599999979
 30
0.0
  0
SPLINE
  5
15F
  8
Engrave1
 62
7
370
-1
  6
ByLayer
100
AcDbEntity
100
AcDbSpline
 70
8
 71
3
 72
8
 73
4
 74
0
 40
0.0
 40
0.0
 40
0.0
 40
0.0
 40
1.0
 40
1.0
 40
1.0
 40
1.0
 10
47.0380256000000045
 20
40.3694001599999979
 30
0.0
 10
46.8606862399999997
 20
40.4736561600000044
 30
0.0
 10
46.7822735999999963
 20
40.4902798399999995
 30
0.0
 10
46.4709846399999975
 20
40.4896060800000015
 30
0.0
  0
SPLINE
  5
160
  8
Engrave1
 62
7
370
-1
  6
ByLayer
100
AcDbEntity
100
AcDbSpline
 70
8
 71
3
 72
8
 73
4
 74
0
 40
0.0
 40
0.0
 40
0.0
 40
0.0
 40
1.0
 40
1.0
 40
1.0
 40
1.0
 10
46.4709846399999975
 20
40.4896060800000015
 30
0.0
 10
46.1888844799999987
 20
40.4889964800000044
 30
0.0
 10
46.0701659200000009
 20
40.4676035199999973
 30
0.0
 10
45.9291180800000021
 20
40.3919630400000003
 30
0.0
  0
SPLINE
  5
161
  8
Engrave1
 62
7
370
-1
  6
ByLayer
100
AcDbEntity
100
AcDbSpline
 70
8
 71
3
 72
8
 73
4
 74
0
 40
0.0
 40
0.0
 40
0.0
 40
0.0
 40
1.0
 40
1.0
 40
1.0
 40
1.0
 10
45.9291180800000021
 20
40.3919630400000003
 30
0.0
 10
45.3812864000000005
 20
40.0981796800000012
 30
0.0
 10
45.1441384000000028
 20
39.4783708799999999
 30
0.0
 10
45.2699823999999964
 20
38.6692428799999988
 30
0.0
  0
SPLINE
  5
162
  8
Engrave1
 62
7
370
-1
  6
ByLayer
100
AcDbEntity
100
AcDbSpline
 70
8
 71
3
 72
8
 73
4
 74
0
 40
0.0
 40
0.0
 40
0.0
 40
0.0
 40
1.0
 40
1.0
 40
1.0
 40
1.0
 10
45.2699823999999964
 20
38.6692428799999988
 30
0.0
 10
45.4215244800000022
 20
37.6948727999999988
 30
0.0
 10
45.95147008
 20
36.9100990399999986
 30
0.0
 10
46.5757681599999955
 20
36.7355537600000019
 30
0.0
  0
SPLINE
  5
163
  8
Engrave1
 62
7
370
-1
  6
ByLayer
100
AcDbEntity
100
AcDbSpline
 70
8
 71
3
 72
8
 73
4
 74
0
 40
0.0
 40
0.0
 40
0.0
 40
0.0
 40
1.0
 40
1.0
 40
1.0
 40
1.0
 10
46.5757681599999955
 20
36.7355537600000019
 30
0.0
 10
46.833005760000006
 20
36.6636340800000013
 30
0.0
 10
47.1616435199999984
 20
36.6939827199999939
 30
0.0
 10
47.4448364799999993
 20
36.8158087999999992
 30
0.0
  0
LWPOLYLINE
  5
164
  8
Engrave1
 62
7
370
-1
  6
ByLayer
100
AcDbEntity
100
AcDbPolyline
 90
2
 70
0
 10
47.4869846400000029
 20
31.3025281599999943
 10
47.4869846400000029
 20
31.3025281599999943
  0
SPLINE
  5
165
  8
Engrave1
 62
7
370
-1
  6
ByLayer
100
AcDbEntity
100
AcDbSpline
 70
8
 71
3
 72
8
 73
4
 74
0
 40
0.0
 40
0.0
 40
0.0
 40
0.0
 40
1.0
 40
1.0
 40
1.0
 40
1.0
 10
23.8480527999999943
 20
34.569865759999999
 30
0.0
 10
22.6771782399999999
 20
34.7640689599999959
 30
0.0
 10
21.9295467199999941
 20
35.1386904000000015
 30
0.0
 10
21.1976339199999977
 20
35.8979336000000018
 30
0.0
  0
SPLINE
  5
166
  8
Engrave1
 62
7
370
-1
  6
ByLayer
100
AcDbEntity
100
AcDbSpline
 70
8
 71
3
 72
8
 73
4
 74
0
 40
0.0
 40
0.0
 40
0.0
 40
0.0
 40
1.0
 40
1.0
 40
1.0
 40
1.0
 10
21.1976339199999977
 20
35.8979336000000018
 30
0.0
 10
19.6279003199999948
 20
37.5262857600000004
 30
0.0
 10
19.5101119999999959
 20
40.1368030400000038
 30
0.0
 10
20.9226275199999954
 20
41.9929718400000027
 30
0.0
  0
SPLINE
  5
167
  8
Engrave1
 62
7
370
-1
  6
ByLayer
100
AcDbEntity
100
AcDbSpline
 70
8
 71
3
 72
8
 73
4
 74
0
 40
0.0
 40
0.0
 40
0.0
 40
0.0
 40
1.0
 40
1.0
 40
1.0
 40
1.0
 10
20.9226275199999954
 20
41.9929718400000027
 30
0.0
 10
22.0556616000000005
 20
43.4818772799999991
 30
0.0
 10
24.1875140799999997
 20
44.1515870399999955
 30
0.0
 10
26.4160401600000014
 20
43.7186956800000033
 30
0.0
  0
SPLINE
  5
168
  8
Engrave1
 62
7
370
-1
  6
ByLayer
100
AcDbEntity
100
AcDbSpline
 70
8
 71
3
 72
8
 73
4
 74
0
 40
0.0
 40
0.0
 40
0.0
 40
0.0
 40
1.0
 40
1.0
 40
1.0
 40
1.0
 10
26.4160401600000014
 20
43.7186956800000033
 30
0.0
 10
27.2530494400000052
 20
43.5561062399999983
 30
0.0
 10
28.1467401600000002
 20
43.2074476800000014
 30
0.0
 10
28.5435152000000016
 20
42.888696319999994
 30
0.0
  0
LWPOLYLINE
  5
169
  8
Engrave1
 62
7
370
-1
  6
ByLayer
100
AcDbEntity
100
AcDbPolyline
 90
2
 70
0
 10
47.4448364799999993
 20
36.8158087999999992
 10
47.4448364799999993
 20
36.8158087999999992
  0
SPLINE
  5
16A
  8
Engrave1
 62
7
370
-1
  6
ByLayer
100
AcDbEntity
100
AcDbSpline
 70
8
 71
3
 72
8
 73
4
 74
0
 40
0.0
 40
0.0
 40
0.0
 40
0.0
 40
1.0
 40
1.0
 40
1.0
 40
1.0
 10
28.1657371200000028
 20
42.2901702400000019
 30
0.0
 10
27.7916657599999937
 20
41.932345920000003
 30
0.0
 10
27.6027769599999999
 20
41.7844403200000016
 30
0.0
 10
27.4665390399999971
 20
41.7426767999999981
 30
0.0
  0
SPLINE
  5
16B
  8
Engrave1
 62
7
370
-1
  6
ByLayer
100
AcDbEntity
100
AcDbSpline
 70
8
 71
3
 72
8
 73
4
 74
0
 40
0.0
 40
0.0
 40
0.0
 40
0.0
 40
1.0
 40
1.0
 40
1.0
 40
1.0
 10
27.4665390399999971
 20
41.7426767999999981
 30
0.0
 10
27.175592640000005
 20
41.653488320000001
 30
0.0
 10
27.1553083200000032
 20
41.6840040000000016
 30
0.0
 10
27.3260939200000017
 20
41.9539646399999953
 30
0.0
  0
LWPOLYLINE
  5
16C
  8
Engrave1
 62
7
370
-1
  6
ByLayer
100
AcDbEntity
100
AcDbPolyline
 90
3
 70
0
 10
28.5435152000000016
 20
42.888696319999994
 10
28.6782689599999969
 20
42.7804412800000051
 10
28.1657371200000028
 20
42.2901702400000019
  0
SPLINE
  5
16D
  8
Engrave1
 62
7
370
-1
  6
ByLayer
100
AcDbEntity
100
AcDbSpline
 70
8
 71
3
 72
8
 73
4
 74
0
 40
0.0
 40
0.0
 40
0.0
 40
0.0
 40
1.0
 40
1.0
 40
1.0
 40
1.0
 10
27.2673948799999977
 20
42.3947225600000053
 30
0.0
 10
26.8017814400000063
 20
42.8234063999999961
 30
0.0
 10
26.2391523200000023
 20
43.1303129600000048
 30
0.0
 10
25.6677900800000032
 20
43.2672891200000009
 30
0.0
  0
SPLINE
  5
16E
  8
Engrave1
 62
7
370
-1
  6
ByLayer
100
AcDbEntity
100
AcDbSpline
 70
8
 71
3
 72
8
 73
4
 74
0
 40
0.0
 40
0.0
 40
0.0
 40
0.0
 40
1.0
 40
1.0
 40
1.0
 40
1.0
 10
25.6677900800000032
 20
43.2672891200000009
 30
0.0
 10
24.9804727999999976
 20
43.432064000000004
 30
0.0
 10
24.0318764800000011
 20
43.3702193600000001
 30
0.0
 10
23.4500561600000026
 20
43.1227014400000002
 30
0.0
  0
SPLINE
  5
16F
  8
Engrave1
 62
7
370
-1
  6
ByLayer
100
AcDbEntity
100
AcDbSpline
 70
8
 71
3
 72
8
 73
4
 74
0
 40
0.0
 40
0.0
 40
0.0
 40
0.0
 40
1.0
 40
1.0
 40
1.0
 40
1.0
 10
23.4500561600000026
 20
43.1227014400000002
 30
0.0
 10
22.4410100799999945
 20
42.6934347199999991
 30
0.0
 10
21.7879884799999992
 20
41.9505694399999953
 30
0.0
 10
21.4460119999999996
 20
40.8429383999999942
 30
0.0
  0
SPLINE
  5
170
  8
Engrave1
 62
7
370
-1
  6
ByLayer
100
AcDbEntity
100
AcDbSpline
 70
8
 71
3
 72
8
 73
4
 74
0
 40
0.0
 40
0.0
 40
0.0
 40
0.0
 40
1.0
 40
1.0
 40
1.0
 40
1.0
 10
21.4460119999999996
 20
40.8429383999999942
 30
0.0
 10
21.33132144
 20
40.4714521599999983
 30
0.0
 10
21.3233243200000011
 20
40.3916456000000039
 30
0.0
 10
21.3247558399999981
 20
39.6324321599999934
 30
0.0
  0
SPLINE
  5
171
  8
Engrave1
 62
7
370
-1
  6
ByLayer
100
AcDbEntity
100
AcDbSpline
 70
8
 71
3
 72
8
 73
4
 74
0
 40
0.0
 40
0.0
 40
0.0
 40
0.0
 40
1.0
 40
1.0
 40
1.0
 40
1.0
 10
21.3247558399999981
 20
39.6324321599999934
 30
0.0
 10
21.3260652799999981
 20
38.9477976000000012
 30
0.0
 10
21.3413323199999994
 20
38.7649808000000036
 30
0.0
 10
21.421704799999997
 20
38.4730438400000025
 30
0.0
  0
SPLINE
  5
172
  8
Engrave1
 62
7
370
-1
  6
ByLayer
100
AcDbEntity
100
AcDbSpline
 70
8
 71
3
 72
8
 73
4
 74
0
 40
0.0
 40
0.0
 40
0.0
 40
0.0
 40
1.0
 40
1.0
 40
1.0
 40
1.0
 10
21.421704799999997
 20
38.4730438400000025
 30
0.0
 10
21.8035265599999981
 20
37.0861468800000011
 30
0.0
 10
22.6282340800000021
 20
36.0478364800000008
 30
0.0
 10
23.8028971199999972
 20
35.4751199999999969
 30
0.0
  0
SPLINE
  5
173
  8
Engrave1
 62
7
370
-1
  6
ByLayer
100
AcDbEntity
100
AcDbSpline
 70
8
 71
3
 72
8
 73
4
 74
0
 40
0.0
 40
0.0
 40
0.0
 40
0.0
 40
1.0
 40
1.0
 40
1.0
 40
1.0
 10
23.8028971199999972
 20
35.4751199999999969
 30
0.0
 10
24.3888401599999973
 20
35.1894366399999967
 30
0.0
 10
24.8120470399999959
 20
35.0890033599999995
 30
0.0
 10
25.547080159999993
 20
35.0611988799999992
 30
0.0
  0
SPLINE
  5
174
  8
Engrave1
 62
7
370
-1
  6
ByLayer
100
AcDbEntity
100
AcDbSpline
 70
8
 71
3
 72
8
 73
4
 74
0
 40
0.0
 40
0.0
 40
0.0
 40
0.0
 40
1.0
 40
1.0
 40
1.0
 40
1.0
 10
25.547080159999993
 20
35.0611988799999992
 30
0.0
 10
26.2066809599999999
 20
35.0362476799999953
 30
0.0
 10
26.5762249599999976
 20
35.0795564800000008
 30
0.0
 10
27.0606510400000033
 20
35.2385820800000005
 30
0.0
  0
LWPOLYLINE
  5
175
  8
Engrave1
 62
7
370
-1
  6
ByLayer
100
AcDbEntity
100
AcDbPolyline
 90
3
 70
0
 10
27.3260939200000017
 20
41.9539646399999953
 10
27.4806944000000009
 20
42.1983411199999949
 10
27.2673948799999977
 20
42.3947225600000053
  0
SPLINE
  5
176
  8
Engrave1
 62
7
370
-1
  6
ByLayer
100
AcDbEntity
100
AcDbSpline
 70
8
 71
3
 72
8
 73
4
 74
0
 40
0.0
 40
0.0
 40
0.0
 40
0.0
 40
1.0
 40
1.0
 40
1.0
 40
1.0
 10
26.6815638399999955
 20
37.3345801600000016
 30
0.0
 10
26.3152393599999925
 20
37.3182763200000025
 30
0.0
 10
25.8834393600000041
 20
37.2933310399999982
 30
0.0
 10
25.7220083200000005
 20
37.2791454400000006
 30
0.0
  0
SPLINE
  5
177
  8
Engrave1
 62
7
370
-1
  6
ByLayer
100
AcDbEntity
100
AcDbSpline
 70
8
 71
3
 72
8
 73
4
 74
0
 40
0.0
 40
0.0
 40
0.0
 40
0.0
 40
1.0
 40
1.0
 40
1.0
 40
1.0
 10
25.7220083200000005
 20
37.2791454400000006
 30
0.0
 10
25.3699304000000012
 20
37.2482079999999982
 30
0.0
 10
25.3838067200000026
 20
37.2625417599999977
 30
0.0
 10
26.0477198399999992
 20
37.61556736
 30
0.0
  0
LWPOLYLINE
  5
178
  8
Engrave1
 62
7
370
-1
  6
ByLayer
100
AcDbEntity
100
AcDbPolyline
 90
5
 70
0
 10
27.0606510400000033
 20
35.2385820800000005
 10
27.3476064000000036
 20
35.3327828800000034
 10
27.3476064000000036
 20
36.3485028799999981
 10
27.3476064000000036
 20
37.3642230399999988
 10
26.6815638399999955
 20
37.3345801600000016
  0
SPLINE
  5
179
  8
Engrave1
 62
7
370
-1
  6
ByLayer
100
AcDbEntity
100
AcDbSpline
 70
8
 71
3
 72
8
 73
4
 74
0
 40
0.0
 40
0.0
 40
0.0
 40
0.0
 40
1.0
 40
1.0
 40
1.0
 40
1.0
 10
27.8200763199999983
 20
37.8487876800000009
 30
0.0
 10
28.5536399999999944
 20
37.8487876800000009
 30
0.0
 10
29.1538286400000004
 20
37.8415307200000015
 30
0.0
 10
29.1538286400000004
 20
37.8326607999999993
 30
0.0
  0
SPLINE
  5
17A
  8
Engrave1
 62
7
370
-1
  6
ByLayer
100
AcDbEntity
100
AcDbSpline
 70
8
 71
3
 72
8
 73
4
 74
0
 40
0.0
 40
0.0
 40
0.0
 40
0.0
 40
1.0
 40
1.0
 40
1.0
 40
1.0
 10
29.1538286400000004
 20
37.8326607999999993
 30
0.0
 10
29.1538286400000004
 20
37.8237908800000042
 30
0.0
 10
29.0522286400000027
 20
37.7149336000000019
 30
0.0
 10
28.9280508800000007
 20
37.5907558399999999
 30
0.0
  0
LWPOLYLINE
  5
17B
  8
Engrave1
 62
7
370
-1
  6
ByLayer
100
AcDbEntity
100
AcDbPolyline
 90
3
 70
0
 10
26.0477198399999992
 20
37.61556736
 10
26.486324800000002
 20
37.8487876800000009
 10
27.8200763199999983
 20
37.8487876800000009
  0
SPLINE
  5
17C
  8
Engrave1
 62
7
370
-1
  6
ByLayer
100
AcDbEntity
100
AcDbSpline
 70
8
 71
3
 72
8
 73
4
 74
0
 40
0.0
 40
0.0
 40
0.0
 40
0.0
 40
1.0
 40
1.0
 40
1.0
 40
1.0
 10
28.6006731199999962
 20
35.1173209600000007
 30
0.0
 10
27.6021247999999986
 20
34.8828796800000021
 30
0.0
 10
26.7629476799999964
 20
34.7067350399999981
 30
0.0
 10
26.3090305599999965
 20
34.6362999999999985
 30
0.0
  0
SPLINE
  5
17D
  8
Engrave1
 62
7
370
-1
  6
ByLayer
100
AcDbEntity
100
AcDbSpline
 70
8
 71
3
 72
8
 73
4
 74
0
 40
0.0
 40
0.0
 40
0.0
 40
0.0
 40
1.0
 40
1.0
 40
1.0
 40
1.0
 10
26.3090305599999965
 20
34.6362999999999985
 30
0.0
 10
25.5766209599999996
 20
34.5226516800000027
 30
0.0
 10
24.3348206399999967
 20
34.4891294399999992
 30
0.0
 10
23.8480527999999943
 20
34.569865759999999
 30
0.0
  0
LWPOLYLINE
  5
17E
  8
Engrave1
 62
7
370
-1
  6
ByLayer
100
AcDbEntity
100
AcDbPolyline
 90
5
 70
0
 10
28.9280508800000007
 20
37.5907558399999999
 10
28.702273120000001
 20
37.3649779200000012
 10
28.702273120000001
 20
36.2530766400000033
 10
28.702273120000001
 20
35.1411748800000012
 10
28.6006731199999962
 20
35.1173209600000007
  0
SPLINE
  5
17F
  8
Engrave1
 62
7
370
-1
  6
ByLayer
100
AcDbEntity
100
AcDbSpline
 70
8
 71
3
 72
8
 73
4
 74
0
 40
0.0
 40
0.0
 40
0.0
 40
0.0
 40
1.0
 40
1.0
 40
1.0
 40
1.0
 10
55.5924068799999986
 20
34.7088740800000011
 30
0.0
 10
55.208169280000007
 20
34.7901120000000006
 30
0.0
 10
54.9898105600000022
 20
34.8793363200000002
 30
0.0
 10
54.6499744000000049
 20
35.0939623999999952
 30
0.0
  0
SPLINE
  5
180
  8
Engrave1
 62
7
370
-1
  6
ByLayer
100
AcDbEntity
100
AcDbSpline
 70
8
 71
3
 72
8
 73
4
 74
0
 40
0.0
 40
0.0
 40
0.0
 40
0.0
 40
1.0
 40
1.0
 40
1.0
 40
1.0
 10
54.6499744000000049
 20
35.0939623999999952
 30
0.0
 10
54.008869279999999
 20
35.4988577599999999
 30
0.0
 10
53.4820755200000022
 20
36.261556800000001
 30
0.0
 10
53.2618428800000032
 20
37.103721120000003
 30
0.0
  0
SPLINE
  5
181
  8
Engrave1
 62
7
370
-1
  6
ByLayer
100
AcDbEntity
100
AcDbSpline
 70
8
 71
3
 72
8
 73
4
 74
0
 40
0.0
 40
0.0
 40
0.0
 40
0.0
 40
1.0
 40
1.0
 40
1.0
 40
1.0
 10
53.2618428800000032
 20
37.103721120000003
 30
0.0
 10
53.1379000000000019
 20
37.5776886400000052
 30
0.0
 10
53.1264576000000019
 20
38.4163695999999959
 30
0.0
 10
53.2381271999999939
 20
38.8422099200000019
 30
0.0
  0
SPLINE
  5
182
  8
Engrave1
 62
7
370
-1
  6
ByLayer
100
AcDbEntity
100
AcDbSpline
 70
8
 71
3
 72
8
 73
4
 74
0
 40
0.0
 40
0.0
 40
0.0
 40
0.0
 40
1.0
 40
1.0
 40
1.0
 40
1.0
 10
53.2381271999999939
 20
38.8422099200000019
 30
0.0
 10
53.5302655999999999
 20
39.9562403199999991
 30
0.0
 10
54.3874219199999942
 20
40.7911016000000046
 30
0.0
 10
55.527559040000007
 20
41.0720947200000026
 30
0.0
  0
SPLINE
  5
183
  8
Engrave1
 62
7
370
-1
  6
ByLayer
100
AcDbEntity
100
AcDbSpline
 70
8
 71
3
 72
8
 73
4
 74
0
 40
0.0
 40
0.0
 40
0.0
 40
0.0
 40
1.0
 40
1.0
 40
1.0
 40
1.0
 10
55.527559040000007
 20
41.0720947200000026
 30
0.0
 10
55.9013295999999968
 20
41.1642129600000004
 30
0.0
 10
56.5971587199999959
 20
41.1666540800000007
 30
0.0
 10
56.9411537599999988
 20
41.0770540799999964
 30
0.0
  0
SPLINE
  5
184
  8
Engrave1
 62
7
370
-1
  6
ByLayer
100
AcDbEntity
100
AcDbSpline
 70
8
 71
3
 72
8
 73
4
 74
0
 40
0.0
 40
0.0
 40
0.0
 40
0.0
 40
1.0
 40
1.0
 40
1.0
 40
1.0
 10
56.9411537599999988
 20
41.0770540799999964
 30
0.0
 10
57.5928928000000013
 20
40.9072980799999968
 30
0.0
 10
58.1607691199999977
 20
40.4604721600000019
 30
0.0
 10
58.4141459199999957
 20
39.9180537599999994
 30
0.0
  0
SPLINE
  5
185
  8
Engrave1
 62
7
370
-1
  6
ByLayer
100
AcDbEntity
100
AcDbSpline
 70
8
 71
3
 72
8
 73
4
 74
0
 40
0.0
 40
0.0
 40
0.0
 40
0.0
 40
1.0
 40
1.0
 40
1.0
 40
1.0
 10
58.4141459199999957
 20
39.9180537599999994
 30
0.0
 10
58.6414681600000023
 20
39.4314054399999989
 30
0.0
 10
58.6528788800000029
 20
39.4528073600000013
 30
0.0
 10
58.0308068800000001
 20
39.1989203199999992
 30
0.0
  0
SPLINE
  5
186
  8
Engrave1
 62
7
370
-1
  6
ByLayer
100
AcDbEntity
100
AcDbSpline
 70
8
 71
3
 72
8
 73
4
 74
0
 40
0.0
 40
0.0
 40
0.0
 40
0.0
 40
1.0
 40
1.0
 40
1.0
 40
1.0
 10
58.0308068800000001
 20
39.1989203199999992
 30
0.0
 10
55.4599883200000008
 20
38.1496844800000048
 30
0.0
 10
55.4024827200000018
 20
38.1295582400000015
 30
0.0
 10
54.8812068800000006
 20
38.0965824000000026
 30
0.0
  0
SPLINE
  5
187
  8
Engrave1
 62
7
370
-1
  6
ByLayer
100
AcDbEntity
100
AcDbSpline
 70
8
 71
3
 72
8
 73
4
 74
0
 40
0.0
 40
0.0
 40
0.0
 40
0.0
 40
1.0
 40
1.0
 40
1.0
 40
1.0
 10
54.8812068800000006
 20
38.0965824000000026
 30
0.0
 10
54.5930467200000038
 20
38.0783535999999998
 30
0.0
 10
54.3957846400000022
 20
38.0466814400000004
 30
0.0
 10
54.3957846400000022
 20
38.0186440000000019
 30
0.0
  0
SPLINE
  5
188
  8
Engrave1
 62
7
370
-1
  6
ByLayer
100
AcDbEntity
100
AcDbSpline
 70
8
 71
3
 72
8
 73
4
 74
0
 40
0.0
 40
0.0
 40
0.0
 40
0.0
 40
1.0
 40
1.0
 40
1.0
 40
1.0
 10
54.3957846400000022
 20
38.0186440000000019
 30
0.0
 10
54.3957846400000022
 20
37.8937572800000027
 30
0.0
 10
54.6038344000000038
 20
37.2956718399999971
 30
0.0
 10
54.7444849600000012
 20
37.0162271999999959
 30
0.0
  0
SPLINE
  5
189
  8
Engrave1
 62
7
370
-1
  6
ByLayer
100
AcDbEntity
100
AcDbSpline
 70
8
 71
3
 72
8
 73
4
 74
0
 40
0.0
 40
0.0
 40
0.0
 40
0.0
 40
1.0
 40
1.0
 40
1.0
 40
1.0
 10
54.7444849600000012
 20
37.0162271999999959
 30
0.0
 10
55.4978422399999971
 20
35.519470400000003
 30
0.0
 10
56.8933249600000011
 20
35.0029681600000018
 30
0.0
 10
58.4237776000000082
 20
35.6544345599999986
 30
0.0
  0
LWPOLYLINE
  5
18A
  8
Engrave1
 62
7
370
-1
  6
ByLayer
100
AcDbEntity
100
AcDbPolyline
 90
2
 70
0
 10
23.8480527999999943
 20
34.569865759999999
 10
23.8480527999999943
 20
34.569865759999999
  0
SPLINE
  5
18B
  8
Engrave1
 62
7
370
-1
  6
ByLayer
100
AcDbEntity
100
AcDbSpline
 70
8
 71
3
 72
8
 73
4
 74
0
 40
0.0
 40
0.0
 40
0.0
 40
0.0
 40
1.0
 40
1.0
 40
1.0
 40
1.0
 10
58.4245903999999996
 20
35.458835999999998
 30
0.0
 10
57.9873401600000093
 20
35.0435408000000024
 30
0.0
 10
57.5757156800000089
 20
34.8202519999999964
 30
0.0
 10
57.0505747200000002
 20
34.7134979199999947
 30
0.0
  0
SPLINE
  5
18C
  8
Engrave1
 62
7
370
-1
  6
ByLayer
100
AcDbEntity
100
AcDbSpline
 70
8
 71
3
 72
8
 73
4
 74
0
 40
0.0
 40
0.0
 40
0.0
 40
0.0
 40
1.0
 40
1.0
 40
1.0
 40
1.0
 10
57.0505747200000002
 20
34.7134979199999947
 30
0.0
 10
56.6410318400000108
 20
34.6302428800000044
 30
0.0
 10
55.9743100799999951
 20
34.6281286399999999
 30
0.0
 10
55.5924068799999986
 20
34.7088740800000011
 30
0.0
  0
LWPOLYLINE
  5
18D
  8
Engrave1
 62
7
370
-1
  6
ByLayer
100
AcDbEntity
100
AcDbPolyline
 90
3
 70
0
 10
58.4237776000000082
 20
35.6544345599999986
 10
58.7984513600000014
 20
35.8139217599999995
 10
58.4245903999999996
 20
35.458835999999998
  0
SPLINE
  5
18E
  8
Engrave1
 62
7
370
-1
  6
ByLayer
100
AcDbEntity
100
AcDbSpline
 70
8
 71
3
 72
8
 73
4
 74
0
 40
0.0
 40
0.0
 40
0.0
 40
0.0
 40
1.0
 40
1.0
 40
1.0
 40
1.0
 10
55.7377716800000016
 20
38.7192816000000022
 30
0.0
 10
56.4386129600000004
 20
39.022900319999998
 30
0.0
 10
57.0557224000000076
 20
39.3087296000000066
 30
0.0
 10
57.1091278399999993
 20
39.3544567999999941
 30
0.0
  0
SPLINE
  5
18F
  8
Engrave1
 62
7
370
-1
  6
ByLayer
100
AcDbEntity
100
AcDbSpline
 70
8
 71
3
 72
8
 73
4
 74
0
 40
0.0
 40
0.0
 40
0.0
 40
0.0
 40
1.0
 40
1.0
 40
1.0
 40
1.0
 10
57.1091278399999993
 20
39.3544567999999941
 30
0.0
 10
57.3367795200000074
 20
39.5493756799999971
 30
0.0
 10
57.0872364800000014
 20
40.1375900800000025
 30
0.0
 10
56.6522123200000038
 20
40.4314827199999982
 30
0.0
  0
SPLINE
  5
190
  8
Engrave1
 62
7
370
-1
  6
ByLayer
100
AcDbEntity
100
AcDbSpline
 70
8
 71
3
 72
8
 73
4
 74
0
 40
0.0
 40
0.0
 40
0.0
 40
0.0
 40
1.0
 40
1.0
 40
1.0
 40
1.0
 10
56.6522123200000038
 20
40.4314827199999982
 30
0.0
 10
56.1959019199999972
 20
40.7397569600000011
 30
0.0
 10
55.7380065599999952
 20
40.7658547200000072
 30
0.0
 10
55.2241363199999995
 20
40.5128756800000005
 30
0.0
  0
SPLINE
  5
191
  8
Engrave1
 62
7
370
-1
  6
ByLayer
100
AcDbEntity
100
AcDbSpline
 70
8
 71
3
 72
8
 73
4
 74
0
 40
0.0
 40
0.0
 40
0.0
 40
0.0
 40
1.0
 40
1.0
 40
1.0
 40
1.0
 10
55.2241363199999995
 20
40.5128756800000005
 30
0.0
 10
54.8909017599999984
 20
40.3488246399999966
 30
0.0
 10
54.7017767999999975
 20
40.1451761599999983
 30
0.0
 10
54.5133065600000037
 20
39.7474600000000038
 30
0.0
  0
SPLINE
  5
192
  8
Engrave1
 62
7
370
-1
  6
ByLayer
100
AcDbEntity
100
AcDbSpline
 70
8
 71
3
 72
8
 73
4
 74
0
 40
0.0
 40
0.0
 40
0.0
 40
0.0
 40
1.0
 40
1.0
 40
1.0
 40
1.0
 10
54.5133065600000037
 20
39.7474600000000038
 30
0.0
 10
54.3804680000000005
 20
39.4671361600000026
 30
0.0
 10
54.3724031999999937
 20
39.4184535999999994
 30
0.0
 10
54.3576824000000016
 20
38.808343200000003
 30
0.0
  0
SPLINE
  5
193
  8
Engrave1
 62
7
370
-1
  6
ByLayer
100
AcDbEntity
100
AcDbSpline
 70
8
 71
3
 72
8
 73
4
 74
0
 40
0.0
 40
0.0
 40
0.0
 40
0.0
 40
1.0
 40
1.0
 40
1.0
 40
1.0
 10
54.3576824000000016
 20
38.808343200000003
 30
0.0
 10
54.3452195200000006
 20
38.2915988800000022
 30
0.0
 10
54.3541152000000025
 20
38.165110079999998
 30
0.0
 10
54.4028380800000022
 20
38.1660619200000042
 30
0.0
  0
SPLINE
  5
194
  8
Engrave1
 62
7
370
-1
  6
ByLayer
100
AcDbEntity
100
AcDbSpline
 70
8
 71
3
 72
8
 73
4
 74
0
 40
0.0
 40
0.0
 40
0.0
 40
0.0
 40
1.0
 40
1.0
 40
1.0
 40
1.0
 10
54.4028380800000022
 20
38.1660619200000042
 30
0.0
 10
54.4362124800000018
 20
38.166712160000003
 30
0.0
 10
55.036934880000004
 20
38.4156624000000022
 30
0.0
 10
55.7377716800000016
 20
38.7192816000000022
 30
0.0
  0
LWPOLYLINE
  5
195
  8
Engrave1
 62
7
370
-1
  6
ByLayer
100
AcDbEntity
100
AcDbPolyline
 90
2
 70
0
 10
55.5924068799999986
 20
34.7088740800000011
 10
55.5924068799999986
 20
34.7088740800000011
  0
SPLINE
  5
196
  8
Engrave1
 62
7
370
-1
  6
ByLayer
100
AcDbEntity
100
AcDbSpline
 70
8
 71
3
 72
8
 73
4
 74
0
 40
0.0
 40
0.0
 40
0.0
 40
0.0
 40
1.0
 40
1.0
 40
1.0
 40
1.0
 10
32.0203516799999974
 20
34.7542576000000025
 30
0.0
 10
31.3784807999999984
 20
34.8940185599999992
 30
0.0
 10
30.8537158400000031
 20
35.1985345599999988
 30
0.0
 10
30.3792804799999985
 20
35.7065548799999988
 30
0.0
  0
SPLINE
  5
197
  8
Engrave1
 62
7
370
-1
  6
ByLayer
100
AcDbEntity
100
AcDbSpline
 70
8
 71
3
 72
8
 73
4
 74
0
 40
0.0
 40
0.0
 40
0.0
 40
0.0
 40
1.0
 40
1.0
 40
1.0
 40
1.0
 10
30.3792804799999985
 20
35.7065548799999988
 30
0.0
 10
29.8150233599999943
 20
36.3107564799999949
 30
0.0
 10
29.5405652799999956
 20
37.0191609600000007
 30
0.0
 10
29.5405652799999956
 20
37.8713654399999982
 30
0.0
  0
SPLINE
  5
198
  8
Engrave1
 62
7
370
-1
  6
ByLayer
100
AcDbEntity
100
AcDbSpline
 70
8
 71
3
 72
8
 73
4
 74
0
 40
0.0
 40
0.0
 40
0.0
 40
0.0
 40
1.0
 40
1.0
 40
1.0
 40
1.0
 10
29.5405652799999956
 20
37.8713654399999982
 30
0.0
 10
29.5405652799999956
 20
38.4679227200000042
 30
0.0
 10
29.6189814399999989
 20
38.8010760000000019
 30
0.0
 10
29.885993599999999
 20
39.3389211199999949
 30
0.0
  0
SPLINE
  5
199
  8
Engrave1
 62
7
370
-1
  6
ByLayer
100
AcDbEntity
100
AcDbSpline
 70
8
 71
3
 72
8
 73
4
 74
0
 40
0.0
 40
0.0
 40
0.0
 40
0.0
 40
1.0
 40
1.0
 40
1.0
 40
1.0
 10
29.885993599999999
 20
39.3389211199999949
 30
0.0
 10
30.0388203199999992
 20
39.6467627200000052
 30
0.0
 10
30.1572859200000032
 20
39.8035414399999965
 30
0.0
 10
30.4844292800000005
 20
40.1309020799999985
 30
0.0
  0
SPLINE
  5
19A
  8
Engrave1
 62
7
370
-1
  6
ByLayer
100
AcDbEntity
100
AcDbSpline
 70
8
 71
3
 72
8
 73
4
 74
0
 40
0.0
 40
0.0
 40
0.0
 40
0.0
 40
1.0
 40
1.0
 40
1.0
 40
1.0
 10
30.4844292800000005
 20
40.1309020799999985
 30
0.0
 10
30.8254796799999973
 20
40.4721791999999994
 30
0.0
 10
30.9626111999999978
 20
40.5739403200000055
 30
0.0
 10
31.3212953600000006
 20
40.7519160000000014
 30
0.0
  0
SPLINE
  5
19B
  8
Engrave1
 62
7
370
-1
  6
ByLayer
100
AcDbEntity
100
AcDbSpline
 70
8
 71
3
 72
8
 73
4
 74
0
 40
0.0
 40
0.0
 40
0.0
 40
0.0
 40
1.0
 40
1.0
 40
1.0
 40
1.0
 10
31.3212953600000006
 20
40.7519160000000014
 30
0.0
 10
31.8970734399999962
 20
41.0376116799999977
 30
0.0
 10
32.1812364799999955
 20
41.1069651199999981
 30
0.0
 10
32.8833032000000003
 20
41.1331431999999992
 30
0.0
  0
SPLINE
  5
19C
  8
Engrave1
 62
7
370
-1
  6
ByLayer
100
AcDbEntity
100
AcDbSpline
 70
8
 71
3
 72
8
 73
4
 74
0
 40
0.0
 40
0.0
 40
0.0
 40
0.0
 40
1.0
 40
1.0
 40
1.0
 40
1.0
 10
32.8833032000000003
 20
41.1331431999999992
 30
0.0
 10
33.579058719999999
 20
41.1590863999999996
 30
0.0
 10
34.0101519999999979
 20
41.0740291199999987
 30
0.0
 10
34.5724953599999978
 20
40.7998558399999993
 30
0.0
  0
SPLINE
  5
19D
  8
Engrave1
 62
7
370
-1
  6
ByLayer
100
AcDbEntity
100
AcDbSpline
 70
8
 71
3
 72
8
 73
4
 74
0
 40
0.0
 40
0.0
 40
0.0
 40
0.0
 40
1.0
 40
1.0
 40
1.0
 40
1.0
 10
34.5724953599999978
 20
40.7998558399999993
 30
0.0
 10
34.9986617599999974
 20
40.5920766400000019
 30
0.0
 10
35.6523601600000006
 20
39.9577928000000071
 30
0.0
 10
35.8687284800000015
 20
39.5421211200000045
 30
0.0
  0
SPLINE
  5
19E
  8
Engrave1
 62
7
370
-1
  6
ByLayer
100
AcDbEntity
100
AcDbSpline
 70
8
 71
3
 72
8
 73
4
 74
0
 40
0.0
 40
0.0
 40
0.0
 40
0.0
 40
1.0
 40
1.0
 40
1.0
 40
1.0
 10
35.8687284800000015
 20
39.5421211200000045
 30
0.0
 10
36.19489248
 20
38.9155167999999989
 30
0.0
 10
36.3298520000000025
 20
38.2103535999999977
 30
0.0
 10
36.2438406399999948
 20
37.5821612800000011
 30
0.0
  0
SPLINE
  5
19F
  8
Engrave1
 62
7
370
-1
  6
ByLayer
100
AcDbEntity
100
AcDbSpline
 70
8
 71
3
 72
8
 73
4
 74
0
 40
0.0
 40
0.0
 40
0.0
 40
0.0
 40
1.0
 40
1.0
 40
1.0
 40
1.0
 10
36.2438406399999948
 20
37.5821612800000011
 30
0.0
 10
36.045926080000001
 20
36.1366764799999984
 30
0.0
 10
35.0454668799999993
 20
35.0528875199999987
 30
0.0
 10
33.6326230399999986
 20
34.7534519999999958
 30
0.0
  0
SPLINE
  5
1A0
  8
Engrave1
 62
7
370
-1
  6
ByLayer
100
AcDbEntity
100
AcDbSpline
 70
8
 71
3
 72
8
 73
4
 74
0
 40
0.0
 40
0.0
 40
0.0
 40
0.0
 40
1.0
 40
1.0
 40
1.0
 40
1.0
 10
33.6326230399999986
 20
34.7534519999999958
 30
0.0
 10
33.2593116800000033
 20
34.67433312
 30
0.0
 10
32.3854099200000007
 20
34.6747699200000028
 30
0.0
 10
32.0203516799999974
 20
34.754255839999999
 30
0.0
  0
LWPOLYLINE
  5
1A1
  8
Engrave1
 62
7
370
-1
  6
ByLayer
100
AcDbEntity
100
AcDbPolyline
 90
2
 70
0
 10
55.7377716800000016
 20
38.7192816000000022
 10
55.7377716800000016
 20
38.7192816000000022
  0
SPLINE
  5
1A2
  8
Engrave1
 62
7
370
-1
  6
ByLayer
100
AcDbEntity
100
AcDbSpline
 70
8
 71
3
 72
8
 73
4
 74
0
 40
0.0
 40
0.0
 40
0.0
 40
0.0
 40
1.0
 40
1.0
 40
1.0
 40
1.0
 10
33.8722455999999994
 20
35.2713849599999989
 30
0.0
 10
34.3812524800000006
 20
35.5219684799999982
 30
0.0
 10
34.7203067199999964
 20
35.9718532799999977
 30
0.0
 10
34.8448036799999983
 20
36.5618544000000014
 30
0.0
  0
SPLINE
  5
1A3
  8
Engrave1
 62
7
370
-1
  6
ByLayer
100
AcDbEntity
100
AcDbSpline
 70
8
 71
3
 72
8
 73
4
 74
0
 40
0.0
 40
0.0
 40
0.0
 40
0.0
 40
1.0
 40
1.0
 40
1.0
 40
1.0
 10
34.8448036799999983
 20
36.5618544000000014
 30
0.0
 10
34.9232547200000027
 20
36.9336380800000015
 30
0.0
 10
34.9133836800000026
 20
37.7004512000000034
 30
0.0
 10
34.8240073600000031
 20
38.1774230399999936
 30
0.0
  0
SPLINE
  5
1A4
  8
Engrave1
 62
7
370
-1
  6
ByLayer
100
AcDbEntity
100
AcDbSpline
 70
8
 71
3
 72
8
 73
4
 74
0
 40
0.0
 40
0.0
 40
0.0
 40
0.0
 40
1.0
 40
1.0
 40
1.0
 40
1.0
 10
34.8240073600000031
 20
38.1774230399999936
 30
0.0
 10
34.6767459199999948
 20
38.9633062400000014
 30
0.0
 10
34.3453534399999967
 20
39.7127251200000018
 30
0.0
 10
33.9559436800000043
 20
40.1404822399999972
 30
0.0
  0
SPLINE
  5
1A5
  8
Engrave1
 62
7
370
-1
  6
ByLayer
100
AcDbEntity
100
AcDbSpline
 70
8
 71
3
 72
8
 73
4
 74
0
 40
0.0
 40
0.0
 40
0.0
 40
0.0
 40
1.0
 40
1.0
 40
1.0
 40
1.0
 10
33.9559436800000043
 20
40.1404822399999972
 30
0.0
 10
32.9748286399999984
 20
41.2182126400000044
 30
0.0
 10
31.2123467199999993
 20
40.7021857600000061
 30
0.0
 10
30.9102953599999992
 20
39.2487643199999994
 30
0.0
  0
SPLINE
  5
1A6
  8
Engrave1
 62
7
370
-1
  6
ByLayer
100
AcDbEntity
100
AcDbSpline
 70
8
 71
3
 72
8
 73
4
 74
0
 40
0.0
 40
0.0
 40
0.0
 40
0.0
 40
1.0
 40
1.0
 40
1.0
 40
1.0
 10
30.9102953599999992
 20
39.2487643199999994
 30
0.0
 10
30.8319892799999984
 20
38.8719675199999983
 30
0.0
 10
30.8817656000000014
 20
37.9104615999999979
 30
0.0
 10
31.0048656000000022
 20
37.4219982400000006
 30
0.0
  0
SPLINE
  5
1A7
  8
Engrave1
 62
7
370
-1
  6
ByLayer
100
AcDbEntity
100
AcDbSpline
 70
8
 71
3
 72
8
 73
4
 74
0
 40
0.0
 40
0.0
 40
0.0
 40
0.0
 40
1.0
 40
1.0
 40
1.0
 40
1.0
 10
31.0048656000000022
 20
37.4219982400000006
 30
0.0
 10
31.3934209599999967
 20
35.8802014400000004
 30
0.0
 10
32.186833919999998
 20
35.0582393600000017
 30
0.0
 10
33.2336692800000009
 20
35.1129955199999984
 30
0.0
  0
SPLINE
  5
1A8
  8
Engrave1
 62
7
370
-1
  6
ByLayer
100
AcDbEntity
100
AcDbSpline
 70
8
 71
3
 72
8
 73
4
 74
0
 40
0.0
 40
0.0
 40
0.0
 40
0.0
 40
1.0
 40
1.0
 40
1.0
 40
1.0
 10
33.2336692800000009
 20
35.1129955199999984
 30
0.0
 10
33.5143945599999995
 20
35.1276792000000029
 30
0.0
 10
33.6472992000000062
 20
35.1606440000000049
 30
0.0
 10
33.8722455999999994
 20
35.2713849599999989
 30
0.0
  0
LWPOLYLINE
  5
1A9
  8
Engrave1
 62
7
370
-1
  6
ByLayer
100
AcDbEntity
100
AcDbPolyline
 90
2
 70
0
 10
32.0203516799999974
 20
34.754255839999999
 10
32.0203516799999974
 20
34.7542576000000025
  0
SPLINE
  5
1AA
  8
Engrave1
 62
7
370
-1
  6
ByLayer
100
AcDbEntity
100
AcDbSpline
 70
8
 71
3
 72
8
 73
4
 74
0
 40
0.0
 40
0.0
 40
0.0
 40
0.0
 40
1.0
 40
1.0
 40
1.0
 40
1.0
 10
39.3815620799999948
 20
34.7145089600000034
 30
0.0
 10
38.5385366400000038
 20
34.9143652799999984
 30
0.0
 10
38.0554571199999998
 20
35.1727083199999981
 30
0.0
 10
37.5857191999999998
 20
35.674896320000002
 30
0.0
  0
SPLINE
  5
1AB
  8
Engrave1
 62
7
370
-1
  6
ByLayer
100
AcDbEntity
100
AcDbSpline
 70
8
 71
3
 72
8
 73
4
 74
0
 40
0.0
 40
0.0
 40
0.0
 40
0.0
 40
1.0
 40
1.0
 40
1.0
 40
1.0
 10
37.5857191999999998
 20
35.674896320000002
 30
0.0
 10
36.4409171200000017
 20
36.8987820800000037
 30
0.0
 10
36.4296489599999944
 20
38.8013707200000013
 30
0.0
 10
37.5598785600000014
 20
40.0380220800000046
 30
0.0
  0
SPLINE
  5
1AC
  8
Engrave1
 62
7
370
-1
  6
ByLayer
100
AcDbEntity
100
AcDbSpline
 70
8
 71
3
 72
8
 73
4
 74
0
 40
0.0
 40
0.0
 40
0.0
 40
0.0
 40
1.0
 40
1.0
 40
1.0
 40
1.0
 10
37.5598785600000014
 20
40.0380220800000046
 30
0.0
 10
38.1947606399999984
 20
40.7326843199999971
 30
0.0
 10
39.0006568000000016
 20
41.0880187200000009
 30
0.0
 10
40.0419579200000015
 20
41.132415679999994
 30
0.0
  0
SPLINE
  5
1AD
  8
Engrave1
 62
7
370
-1
  6
ByLayer
100
AcDbEntity
100
AcDbSpline
 70
8
 71
3
 72
8
 73
4
 74
0
 40
0.0
 40
0.0
 40
0.0
 40
0.0
 40
1.0
 40
1.0
 40
1.0
 40
1.0
 10
40.0419579200000015
 20
41.132415679999994
 30
0.0
 10
40.9391411200000022
 20
41.1706683199999972
 30
0.0
 10
41.5956536000000057
 20
40.9798887999999977
 30
0.0
 10
42.2355548800000022
 20
40.4949660799999975
 30
0.0
  0
SPLINE
  5
1AE
  8
Engrave1
 62
7
370
-1
  6
ByLayer
100
AcDbEntity
100
AcDbSpline
 70
8
 71
3
 72
8
 73
4
 74
0
 40
0.0
 40
0.0
 40
0.0
 40
0.0
 40
1.0
 40
1.0
 40
1.0
 40
1.0
 10
42.2355548800000022
 20
40.4949660799999975
 30
0.0
 10
42.749192960000002
 20
40.1057265600000008
 30
0.0
 10
43.2190892799999986
 20
39.3735264000000029
 30
0.0
 10
43.3831643200000059
 20
38.7067431999999982
 30
0.0
  0
SPLINE
  5
1AF
  8
Engrave1
 62
7
370
-1
  6
ByLayer
100
AcDbEntity
100
AcDbSpline
 70
8
 71
3
 72
8
 73
4
 74
0
 40
0.0
 40
0.0
 40
0.0
 40
0.0
 40
1.0
 40
1.0
 40
1.0
 40
1.0
 10
43.3831643200000059
 20
38.7067431999999982
 30
0.0
 10
43.470902879999997
 20
38.3501836800000007
 30
0.0
 10
43.4606219200000012
 20
37.5319361600000008
 30
0.0
 10
43.3638737600000042
 20
37.1714544000000018
 30
0.0
  0
SPLINE
  5
1B0
  8
Engrave1
 62
7
370
-1
  6
ByLayer
100
AcDbEntity
100
AcDbSpline
 70
8
 71
3
 72
8
 73
4
 74
0
 40
0.0
 40
0.0
 40
0.0
 40
0.0
 40
1.0
 40
1.0
 40
1.0
 40
1.0
 10
43.3638737600000042
 20
37.1714544000000018
 30
0.0
 10
43.1166729600000025
 20
36.2503857600000003
 30
0.0
 10
42.5315318399999995
 20
35.5027028800000011
 30
0.0
 10
41.7324166400000038
 20
35.0868057599999972
 30
0.0
  0
SPLINE
  5
1B1
  8
Engrave1
 62
7
370
-1
  6
ByLayer
100
AcDbEntity
100
AcDbSpline
 70
8
 71
3
 72
8
 73
4
 74
0
 40
0.0
 40
0.0
 40
0.0
 40
0.0
 40
1.0
 40
1.0
 40
1.0
 40
1.0
 10
41.7324166400000038
 20
35.0868057599999972
 30
0.0
 10
41.1417164799999995
 20
34.7793772799999985
 30
0.0
 10
40.9176384000000013
 20
34.7258240000000029
 30
0.0
 10
40.1492063999999971
 20
34.7084305599999965
 30
0.0
  0
SPLINE
  5
1B2
  8
Engrave1
 62
7
370
-1
  6
ByLayer
100
AcDbEntity
100
AcDbSpline
 70
8
 71
3
 72
8
 73
4
 74
0
 40
0.0
 40
0.0
 40
0.0
 40
0.0
 40
1.0
 40
1.0
 40
1.0
 40
1.0
 10
40.1492063999999971
 20
34.7084305599999965
 30
0.0
 10
39.7766731199999981
 20
34.6999982399999993
 30
0.0
 10
39.4312331200000017
 20
34.702733760000001
 30
0.0
 10
39.3815620799999948
 20
34.7145089600000034
 30
0.0
  0
LWPOLYLINE
  5
1B3
  8
Engrave1
 62
7
370
-1
  6
ByLayer
100
AcDbEntity
100
AcDbPolyline
 90
2
 70
0
 10
33.8722455999999994
 20
35.2713849599999989
 10
33.8722455999999994
 20
35.2713849599999989
  0
SPLINE
  5
1B4
  8
Engrave1
 62
7
370
-1
  6
ByLayer
100
AcDbEntity
100
AcDbSpline
 70
8
 71
3
 72
8
 73
4
 74
0
 40
0.0
 40
0.0
 40
0.0
 40
0.0
 40
1.0
 40
1.0
 40
1.0
 40
1.0
 10
40.9620063999999999
 20
35.2242168000000007
 30
0.0
 10
41.4805769599999934
 20
35.4540788799999973
 30
0.0
 10
41.8168688000000017
 20
35.8250038400000008
 30
0.0
 10
41.9771363199999996
 20
36.3438907200000045
 30
0.0
  0
SPLINE
  5
1B5
  8
Engrave1
 62
7
370
-1
  6
ByLayer
100
AcDbEntity
100
AcDbSpline
 70
8
 71
3
 72
8
 73
4
 74
0
 40
0.0
 40
0.0
 40
0.0
 40
0.0
 40
1.0
 40
1.0
 40
1.0
 40
1.0
 10
41.9771363199999996
 20
36.3438907200000045
 30
0.0
 10
42.3179953599999976
 20
37.4474632000000014
 30
0.0
 10
41.9166228799999985
 20
39.2813152000000017
 30
0.0
 10
41.1468336000000008
 20
40.1375060799999943
 30
0.0
  0
SPLINE
  5
1B6
  8
Engrave1
 62
7
370
-1
  6
ByLayer
100
AcDbEntity
100
AcDbSpline
 70
8
 71
3
 72
8
 73
4
 74
0
 40
0.0
 40
0.0
 40
0.0
 40
0.0
 40
1.0
 40
1.0
 40
1.0
 40
1.0
 10
41.1468336000000008
 20
40.1375060799999943
 30
0.0
 10
40.7596323200000015
 20
40.5681671999999978
 30
0.0
 10
40.1359180799999962
 20
40.7951222399999978
 30
0.0
 10
39.6078545599999998
 20
40.6975044799999992
 30
0.0
  0
SPLINE
  5
1B7
  8
Engrave1
 62
7
370
-1
  6
ByLayer
100
AcDbEntity
100
AcDbSpline
 70
8
 71
3
 72
8
 73
4
 74
0
 40
0.0
 40
0.0
 40
0.0
 40
0.0
 40
1.0
 40
1.0
 40
1.0
 40
1.0
 10
39.6078545599999998
 20
40.6975044799999992
 30
0.0
 10
38.8370344000000003
 20
40.5550107199999985
 30
0.0
 10
38.2562964800000032
 20
40.0005222399999951
 30
0.0
 10
38.0998639999999966
 20
39.2576763200000016
 30
0.0
  0
SPLINE
  5
1B8
  8
Engrave1
 62
7
370
-1
  6
ByLayer
100
AcDbEntity
100
AcDbSpline
 70
8
 71
3
 72
8
 73
4
 74
0
 40
0.0
 40
0.0
 40
0.0
 40
0.0
 40
1.0
 40
1.0
 40
1.0
 40
1.0
 10
38.0998639999999966
 20
39.2576763200000016
 30
0.0
 10
37.8920252799999986
 20
38.2707175999999976
 30
0.0
 10
38.2775871999999993
 20
36.6332118400000013
 30
0.0
 10
38.8971883199999979
 20
35.8713911999999979
 30
0.0
  0
SPLINE
  5
1B9
  8
Engrave1
 62
7
370
-1
  6
ByLayer
100
AcDbEntity
100
AcDbSpline
 70
8
 71
3
 72
8
 73
4
 74
0
 40
0.0
 40
0.0
 40
0.0
 40
0.0
 40
1.0
 40
1.0
 40
1.0
 40
1.0
 10
38.8971883199999979
 20
35.8713911999999979
 30
0.0
 10
39.21296976
 20
35.4831270399999994
 30
0.0
 10
39.4867158400000022
 20
35.2818505599999952
 30
0.0
 10
39.8686116800000008
 20
35.1571363199999993
 30
0.0
  0
SPLINE
  5
1BA
  8
Engrave1
 62
7
370
-1
  6
ByLayer
100
AcDbEntity
100
AcDbSpline
 70
8
 71
3
 72
8
 73
4
 74
0
 40
0.0
 40
0.0
 40
0.0
 40
0.0
 40
1.0
 40
1.0
 40
1.0
 40
1.0
 10
39.8686116800000008
 20
35.1571363199999993
 30
0.0
 10
40.1444140800000042
 20
35.0670686400000022
 30
0.0
 10
40.6818668799999941
 20
35.1000417599999963
 30
0.0
 10
40.9620063999999999
 20
35.2242168000000007
 30
0.0
  0
LWPOLYLINE
  5
1BB
  8
Engrave1
 62
7
370
-1
  6
ByLayer
100
AcDbEntity
100
AcDbPolyline
 90
2
 70
0
 10
39.3815620799999948
 20
34.7145089600000034
 10
39.3815620799999948
 20
34.7145089600000034
  0
SPLINE
  5
1BC
  8
Engrave1
 62
7
370
-1
  6
ByLayer
100
AcDbEntity
100
AcDbSpline
 70
8
 71
3
 72
8
 73
4
 74
0
 40
0.0
 40
0.0
 40
0.0
 40
0.0
 40
1.0
 40
1.0
 40
1.0
 40
1.0
 10
50.4672513599999988
 20
34.8712299200000047
 30
0.0
 10
50.4672513599999988
 20
34.8975556799999964
 30
0.0
 10
50.5383713599999993
 20
35.012237600000006
 30
0.0
 10
50.6252958399999997
 20
35.1260788800000014
 30
0.0
  0
LWPOLYLINE
  5
1BD
  8
Engrave1
 62
7
370
-1
  6
ByLayer
100
AcDbEntity
100
AcDbPolyline
 90
2
 70
0
 10
40.9620063999999999
 20
35.2242168000000007
 10
40.9620063999999999
 20
35.2242168000000007
  0
SPLINE
  5
1BE
  8
Engrave1
 62
7
370
-1
  6
ByLayer
100
AcDbEntity
100
AcDbSpline
 70
8
 71
3
 72
8
 73
4
 74
0
 40
0.0
 40
0.0
 40
0.0
 40
0.0
 40
1.0
 40
1.0
 40
1.0
 40
1.0
 10
52.4914710400000004
 20
44.2486881600000004
 30
0.0
 10
52.3839918400000002
 20
44.1674777600000041
 30
0.0
 10
52.2554113599999965
 20
44.0201577600000036
 30
0.0
 10
52.2057403200000039
 20
43.921310400000003
 30
0.0
  0
SPLINE
  5
1BF
  8
Engrave1
 62
7
370
-1
  6
ByLayer
100
AcDbEntity
100
AcDbSpline
 70
8
 71
3
 72
8
 73
4
 74
0
 40
0.0
 40
0.0
 40
0.0
 40
0.0
 40
1.0
 40
1.0
 40
1.0
 40
1.0
 10
52.2057403200000039
 20
43.921310400000003
 30
0.0
 10
52.1177727999999973
 20
43.7462558399999963
 30
0.0
 10
52.1150724799999949
 20
43.6372052800000034
 30
0.0
 10
52.1017200000000003
 20
39.7227432000000036
 30
0.0
  0
SPLINE
  5
1C0
  8
Engrave1
 62
7
370
-1
  6
ByLayer
100
AcDbEntity
100
AcDbSpline
 70
8
 71
3
 72
8
 73
4
 74
0
 40
0.0
 40
0.0
 40
0.0
 40
0.0
 40
1.0
 40
1.0
 40
1.0
 40
1.0
 10
52.1017200000000003
 20
39.7227432000000036
 30
0.0
 10
52.0919528000000014
 20
36.8589223999999973
 30
0.0
 10
52.1024875199999968
 20
35.6542263999999989
 30
0.0
 10
52.1384494400000023
 20
35.5310659200000032
 30
0.0
  0
SPLINE
  5
1C1
  8
Engrave1
 62
7
370
-1
  6
ByLayer
100
AcDbEntity
100
AcDbSpline
 70
8
 71
3
 72
8
 73
4
 74
0
 40
0.0
 40
0.0
 40
0.0
 40
0.0
 40
1.0
 40
1.0
 40
1.0
 40
1.0
 10
52.1384494400000023
 20
35.5310659200000032
 30
0.0
 10
52.2032431999999957
 20
35.3090220799999983
 30
0.0
 10
52.3436995200000013
 20
35.2485403200000036
 30
0.0
 10
52.8943625600000047
 20
35.2055615999999958
 30
0.0
  0
SPLINE
  5
1C2
  8
Engrave1
 62
7
370
-1
  6
ByLayer
100
AcDbEntity
100
AcDbSpline
 70
8
 71
3
 72
8
 73
4
 74
0
 40
0.0
 40
0.0
 40
0.0
 40
0.0
 40
1.0
 40
1.0
 40
1.0
 40
1.0
 10
52.8943625600000047
 20
35.2055615999999958
 30
0.0
 10
53.1240913600000013
 20
35.1876313599999975
 30
0.0
 10
53.3118119999999962
 20
35.1603419200000005
 30
0.0
 10
53.311514080000002
 20
35.1449190400000049
 30
0.0
  0
SPLINE
  5
1C3
  8
Engrave1
 62
7
370
-1
  6
ByLayer
100
AcDbEntity
100
AcDbSpline
 70
8
 71
3
 72
8
 73
4
 74
0
 40
0.0
 40
0.0
 40
0.0
 40
0.0
 40
1.0
 40
1.0
 40
1.0
 40
1.0
 10
53.311514080000002
 20
35.1449190400000049
 30
0.0
 10
53.3110624000000044
 20
35.129495839999997
 30
0.0
 10
53.1907364799999982
 20
35.05083664
 30
0.0
 10
53.0437777599999976
 20
34.9701211200000017
 30
0.0
  0
LWPOLYLINE
  5
1C4
  8
Engrave1
 62
7
370
-1
  6
ByLayer
100
AcDbEntity
100
AcDbPolyline
 90
11
 70
0
 10
50.6252958399999997
 20
35.1260788800000014
 10
50.7833403200000006
 20
35.333063359999997
 10
50.7833403200000006
 20
39.6163476800000041
 10
50.7833403200000006
 20
43.8996321599999959
 10
50.2527625600000007
 20
43.9031678400000018
 10
49.7221846400000018
 20
43.9067035200000007
 10
50.2188958400000018
 20
44.1484391999999986
 10
50.7156068800000028
 20
44.3901750399999955
 10
51.7012488000000019
 20
44.3932592000000028
 10
52.6868953600000012
 20
44.396343200000004
 10
52.4914710400000004
 20
44.2486881600000004
  0
SPLINE
  5
1C5
  8
Engrave1
 62
7
370
-1
  6
ByLayer
100
AcDbEntity
100
AcDbSpline
 70
8
 71
3
 72
8
 73
4
 74
0
 40
0.0
 40
0.0
 40
0.0
 40
0.0
 40
1.0
 40
1.0
 40
1.0
 40
1.0
 10
51.6219150399999975
 20
34.8233654399999963
 30
0.0
 10
50.8386739200000051
 20
34.8233654399999963
 30
0.0
 10
50.4672513599999988
 20
34.8387622400000012
 30
0.0
 10
50.4672513599999988
 20
34.8712299200000047
 30
0.0
  0
LWPOLYLINE
  5
1C6
  8
Engrave1
 62
7
370
-1
  6
ByLayer
100
AcDbEntity
100
AcDbPolyline
 90
3
 70
0
 10
53.0437777599999976
 20
34.9701211200000017
 10
52.7765742400000022
 20
34.8233654399999963
 10
51.6219150399999975
 20
34.8233654399999963
  0
LWPOLYLINE
  5
1C7
  8
Engrave1
 62
7
370
-1
  6
ByLayer
100
AcDbEntity
100
AcDbPolyline
 90
2
 70
0
 10
50.4672513599999988
 20
34.8712299200000047
 10
50.4672513599999988
 20
34.8712299200000047
  0
ENDSEC
  0
SECTION
  2
OBJECTS
  0
DICTIONARY
  5
C
100
AcDbDictionary
280
0
281
1
  3
ACAD_GROUP
350
D
  3
ACAD_LAYOUT
350
1A
  3
ACAD_MLINESTYLE
350
17
  3
ACAD_PLOTSETTINGS
350
19
  3
ACAD_PLOTSTYLENAME
350
E
  3
AcDbVariableDictionary
350
1C8
  0
DICTIONARY
  5
D
100
AcDbDictionary
280
0
281
1
  0
ACDBDICTIONARYWDFLT
  5
E
100
AcDbDictionary
281
1
  3
Normal
350
F
100
AcDbDictionaryWithDefault
340
F
  0
ACDBPLACEHOLDER
  5
F
  0
DICTIONARY
  5
17
100
AcDbDictionary
280
0
281
1
  3
Standard
350
18
  0
MLINESTYLE
  5
18
100
AcDbMlineStyle
  2
STANDARD
 70
0
  3

 62
256
 51
90.0
 52
90.0
 71
2
 49
0.5
 62
256
  6
BYLAYER
 49
-0.5
 62
256
  6
BYLAYER
  0
DICTIONARY
  5
19
100
AcDbDictionary
280
0
281
1
  0
DICTIONARY
  5
1A
100
AcDbDictionary
281
1
  3
Layout1
350
1E
  3
Layout2
350
26
  3
Model
350
22
  0
LAYOUT
  5
1E
100
AcDbPlotSettings
  1

  2
C:\Program Files\AutoCAD 2002\plotters\DWF ePlot (optimized for plotting).pc3
  4

  6

 40
0.0
 41
0.0
 42
0.0
 43
0.0
 44
0.0
 45
0.0
 46
0.0
 47
0.0
 48
0.0
 49
0.0
140
0.0
141
0.0
142
1.0
143
1.0
 70
688
 72
0
 73
0
 74
5
  7

 75
16
147
1.0
148
0.0
149
0.0
100
AcDbLayout
  1
Layout1
 70
1
 71
1
 10
0.0
 20
0.0
 11
420.0
 21
297.0
 12
0.0
 22
0.0
 32
0.0
 14
100000000000000000000.0
 24
100000000000000000000.0
 34
100000000000000000000.0
 15
-100000000000000000000.0
 25
-100000000000000000000.0
 35
-100000000000000000000.0
146
0.0
 13
0.0
 23
0.0
 33
0.0
 16
1.0
 26
0.0
 36
0.0
 17
0.0
 27
1.0
 37
0.0
 76
0
330
1B
  0
LAYOUT
  5
22
100
AcDbPlotSettings
  1

  2
C:\Program Files\AutoCAD 2002\plotters\DWF ePlot (optimized for plotting).pc3
  4

  6

 40
0.0
 41
0.0
 42
0.0
 43
0.0
 44
0.0
 45
0.0
 46
0.0
 47
0.0
 48
0.0
 49
0.0
140
0.0
141
0.0
142
1.0
143
1.0
 70
1712
 72
0
 73
0
 74
0
  7

 75
0
147
1.0
148
0.0
149
0.0
100
AcDbLayout
  1
Model
 70
1
 71
0
 10
0.0
 20
0.0
 11
12.0
 21
9.0
 12
0.0
 22
0.0
 32
0.0
 14
0.0
 24
0.0
 34
0.0
 15
0.0
 25
0.0
 35
0.0
146
0.0
 13
0.0
 23
0.0
 33
0.0
 16
1.0
 26
0.0
 36
0.0
 17
0.0
 27
1.0
 37
0.0
 76
0
330
1F
  0
LAYOUT
  5
26
100
AcDbPlotSettings
  1

  2
C:\Program Files\AutoCAD 2002\plotters\DWF ePlot (optimized for plotting).pc3
  4

  6

 40
0.0
 41
0.0
 42
0.0
 43
0.0
 44
0.0
 45
0.0
 46
0.0
 47
0.0
 48
0.0
 49
0.0
140
0.0
141
0.0
142
1.0
143
1.0
 70
688
 72
0
 73
0
 74
5
  7

 75
16
147
1.0
148
0.0
149
0.0
100
AcDbLayout
  1
Layout2
 70
1
 71
2
 10
0.0
 20
0.0
 11
12.0
 21
9.0
 12
0.0
 22
0.0
 32
0.0
 14
0.0
 24
0.0
 34
0.0
 15
0.0
 25
0.0
 35
0.0
146
0.0
 13
0.0
 23
0.0
 33
0.0
 16
1.0
 26
0.0
 36
0.0
 17
0.0
 27
1.0
 37
0.0
 76
0
330
23
  0
DICTIONARY
  5
1C8
100
AcDbDictionary
281
1
  3
DIMASSOC
350
1CA
  3
HIDETEXT
350
1C9
  0
DICTIONARYVAR
  5
1C9
100
DictionaryVariables
280
0
  1
2
  0
DICTIONARYVAR
  5
1CA
100
DictionaryVariables
280
0
  1
1
  0
ENDSEC
  0
EOF
