999
dxflib 2.2.0.0
  0
SECTION
  2
HEADER
  9
$ACADVER
  1
AC1015
  9
$HANDSEED
  5
FFFF
  9
$DIMASZ
 40
2.5
  9
$PLIMMIN
 10
0.0
 20
0.0
  9
$DIMEXE
 40
1.25
  9
$DIMGAP
 40
0.625
  9
$PLIMMAX
 10
210.0
 20
297.0
  9
$INSUNITS
 70
4
  9
$DIMSTYLE
  2
Standard
  9
$MEASUREMENT
 70
1
  9
$DIMEXO
 40
0.625
  9
$DIMTXT
 40
2.5
  0
ENDSEC
  0
SECTION
  2
TABLES
  0
TABLE
  2
VPORT
  5
8
100
AcDbSymbolTable
 70
1
  0
VPORT
  5
30
100
AcDbSymbolTableRecord
100
AcDbViewportTableRecord
  2
*Active
 70
0
 10
0.0
 20
0.0
 11
1.0
 21
1.0
 12
286.3055555555554861
 22
148.5
 13
0.0
 23
0.0
 14
10.0
 24
10.0
 15
10.0
 25
10.0
 16
0.0
 26
0.0
 36
1.0
 17
0.0
 27
0.0
 37
0.0
 40
297.0
 41
1.92798353909465
 42
50.0
 43
0.0
 44
0.0
 50
0.0
 51
0.0
 71
0
 72
100
 73
1
 74
3
 75
1
 76
1
 77
0
 78
0
281
0
 65
1
110
0.0
120
0.0
130
0.0
111
1.0
121
0.0
131
0.0
112
0.0
122
1.0
132
0.0
 79
0
146
0.0
  0
ENDTAB
  0
TABLE
  2
LTYPE
  5
5
100
AcDbSymbolTable
 70
21
  0
LTYPE
  5
14
100
AcDbSymbolTableRecord
100
AcDbLinetypeTableRecord
  2
ByBlock
 70
0
  3

 72
65
 73
0
 40
0.0
  0
LTYPE
  5
15
100
AcDbSymbolTableRecord
100
AcDbLinetypeTableRecord
  2
ByLayer
 70
0
  3

 72
65
 73
0
 40
0.0
  0
LTYPE
  5
16
100
AcDbSymbolTableRecord
100
AcDbLinetypeTableRecord
  2
CONTINUOUS
 70
0
  3
Solid line
 72
65
 73
0
 40
0.0
  0
LTYPE
  5
31
100
AcDbSymbolTableRecord
100
AcDbLinetypeTableRecord
  2
DOT
 70
0
  3
Dot . . . . . . . . . . . . . . . . . . . . . .
 72
65
 73
2
 40
6.3499999999999996
 49
0.0
 74
0
 49
-6.3499999999999996
 74
0
  0
LTYPE
  5
32
100
AcDbSymbolTableRecord
100
AcDbLinetypeTableRecord
  2
DOT2
 70
0
  3
Dot (.5x) .....................................
 72
65
 73
2
 40
3.1749999999999998
 49
0.0
 74
0
 49
-3.1749999999999998
 74
0
  0
LTYPE
  5
33
100
AcDbSymbolTableRecord
100
AcDbLinetypeTableRecord
  2
DOTX2
 70
0
  3
Dot (2x) .  .  .  .  .  .  .  .  .  .  .  .  .
 72
65
 73
2
 40
12.6999999999999993
 49
0.0
 74
0
 49
-12.6999999999999993
 74
0
  0
LTYPE
  5
34
100
AcDbSymbolTableRecord
100
AcDbLinetypeTableRecord
  2
DASHED
 70
0
  3
Dashed __ __ __ __ __ __ __ __ __ __ __ __ __ _
 72
65
 73
2
 40
19.0500000000000007
 49
12.6999999999999993
 74
0
 49
-6.3499999999999996
 74
0
  0
LTYPE
  5
35
100
AcDbSymbolTableRecord
100
AcDbLinetypeTableRecord
  2
DASHED2
 70
0
  3
Dashed (.5x) _ _ _ _ _ _ _ _ _ _ _ _ _ _ _ _ _
 72
65
 73
2
 40
9.5250000000000004
 49
6.3499999999999996
 74
0
 49
-3.1749999999999998
 74
0
  0
LTYPE
  5
36
100
AcDbSymbolTableRecord
100
AcDbLinetypeTableRecord
  2
DASHEDX2
 70
0
  3
Dashed (2x) ____  ____  ____  ____  ____  ___
 72
65
 73
2
 40
38.1000000000000014
 49
25.3999999999999986
 74
0
 49
-12.6999999999999993
 74
0
  0
LTYPE
  5
37
100
AcDbSymbolTableRecord
100
AcDbLinetypeTableRecord
  2
DASHDOT
 70
0
  3
Dash dot __ . __ . __ . __ . __ . __ . __ . __
 72
65
 73
4
 40
25.3999999999999986
 49
12.6999999999999993
 74
0
 49
-6.3499999999999996
 74
0
 49
0.0
 74
0
 49
-6.3499999999999996
 74
0
  0
LTYPE
  5
38
100
AcDbSymbolTableRecord
100
AcDbLinetypeTableRecord
  2
DASHDOT2
 70
0
  3
Dash dot (.5x) _._._._._._._._._._._._._._._.
 72
65
 73
4
 40
12.6999999999999993
 49
6.3499999999999996
 74
0
 49
-3.1749999999999998
 74
0
 49
0.0
 74
0
 49
-3.1749999999999998
 74
0
  0
LTYPE
  5
39
100
AcDbSymbolTableRecord
100
AcDbLinetypeTableRecord
  2
DASHDOTX2
 70
0
  3
Dash dot (2x) ____  .  ____  .  ____  .  ___
 72
65
 73
4
 40
50.7999999999999972
 49
25.3999999999999986
 74
0
 49
-12.6999999999999993
 74
0
 49
0.0
 74
0
 49
-12.6999999999999993
 74
0
  0
LTYPE
  5
3A
100
AcDbSymbolTableRecord
100
AcDbLinetypeTableRecord
  2
DIVIDE
 70
0
  3
Divide ____ . . ____ . . ____ . . ____ . . ____
 72
65
 73
6
 40
31.75
 49
12.6999999999999993
 74
0
 49
-6.3499999999999996
 74
0
 49
0.0
 74
0
 49
-6.3499999999999996
 74
0
 49
0.0
 74
0
 49
-6.3499999999999996
 74
0
  0
LTYPE
  5
3B
100
AcDbSymbolTableRecord
100
AcDbLinetypeTableRecord
  2
DIVIDE2
 70
0
  3
Divide (.5x) __..__..__..__..__..__..__..__.._
 72
65
 73
6
 40
15.875
 49
6.3499999999999996
 74
0
 49
-3.1749999999999998
 74
0
 49
0.0
 74
0
 49
-3.1749999999999998
 74
0
 49
0.0
 74
0
 49
-3.1749999999999998
 74
0
  0
LTYPE
  5
3C
100
AcDbSymbolTableRecord
100
AcDbLinetypeTableRecord
  2
DIVIDEX2
 70
0
  3
Divide (2x) ________  .  .  ________  .  .  _
 72
65
 73
6
 40
63.5
 49
25.3999999999999986
 74
0
 49
-12.6999999999999993
 74
0
 49
0.0
 74
0
 49
-12.6999999999999993
 74
0
 49
0.0
 74
0
 49
-12.6999999999999993
 74
0
  0
LTYPE
  5
3D
100
AcDbSymbolTableRecord
100
AcDbLinetypeTableRecord
  2
CENTER
 70
0
  3
Center ____ _ ____ _ ____ _ ____ _ ____ _ ____
 72
65
 73
4
 40
50.7999999999999972
 49
31.75
 74
0
 49
-6.3499999999999996
 74
0
 49
6.3499999999999996
 74
0
 49
-6.3499999999999996
 74
0
  0
LTYPE
  5
3E
100
AcDbSymbolTableRecord
100
AcDbLinetypeTableRecord
  2
CENTER2
 70
0
  3
Center (.5x) ___ _ ___ _ ___ _ ___ _ ___ _ ___
 72
65
 73
4
 40
28.5749999999999993
 49
19.0500000000000007
 74
0
 49
-3.1749999999999998
 74
0
 49
3.1749999999999998
 74
0
 49
-3.1749999999999998
 74
0
  0
LTYPE
  5
3F
100
AcDbSymbolTableRecord
100
AcDbLinetypeTableRecord
  2
CENTERX2
 70
0
  3
Center (2x) ________  __  ________  __  _____
 72
65
 73
4
 40
101.5999999999999943
 49
63.5
 74
0
 49
-12.6999999999999993
 74
0
 49
12.6999999999999993
 74
0
 49
-12.6999999999999993
 74
0
  0
LTYPE
  5
40
100
AcDbSymbolTableRecord
100
AcDbLinetypeTableRecord
  2
BORDER
 70
0
  3
Border __ __ . __ __ . __ __ . __ __ . __ __ .
 72
65
 73
6
 40
44.4500000000000028
 49
12.6999999999999993
 74
0
 49
-6.3499999999999996
 74
0
 49
12.6999999999999993
 74
0
 49
-6.3499999999999996
 74
0
 49
0.0
 74
0
 49
-6.3499999999999996
 74
0
  0
LTYPE
  5
41
100
AcDbSymbolTableRecord
100
AcDbLinetypeTableRecord
  2
BORDER2
 70
0
  3
Border (.5x) __.__.__.__.__.__.__.__.__.__.__.
 72
65
 73
6
 40
22.2250000000000014
 49
6.3499999999999996
 74
0
 49
-3.1749999999999998
 74
0
 49
6.3499999999999996
 74
0
 49
-3.1749999999999998
 74
0
 49
0.0
 74
0
 49
-3.1749999999999998
 74
0
  0
LTYPE
  5
42
100
AcDbSymbolTableRecord
100
AcDbLinetypeTableRecord
  2
BORDERX2
 70
0
  3
Border (2x) ____  ____  .  ____  ____  .  ___
 72
65
 73
6
 40
88.9000000000000057
 49
25.3999999999999986
 74
0
 49
-12.6999999999999993
 74
0
 49
25.3999999999999986
 74
0
 49
-12.6999999999999993
 74
0
 49
0.0
 74
0
 49
-12.6999999999999993
 74
0
  0
ENDTAB
  0
TABLE
  2
LAYER
  5
2
100
AcDbSymbolTable
 70
4
  0
LAYER
  5
10
100
AcDbSymbolTableRecord
100
AcDbLayerTableRecord
  2
0
 70
0
 62
7
  6
CONTINUOUS
390
F
  0
LAYER
  5
43
100
AcDbSymbolTableRecord
100
AcDbLayerTableRecord
  2
Guide
 70
0
 62
2
  6
CONTINUOUS
370
0
390
F
  0
LAYER
  5
44
100
AcDbSymbolTableRecord
100
AcDbLayerTableRecord
  2
Engrave1
 70
0
 62
7
  6
CONTINUOUS
370
0
390
F
  0
LAYER
  5
45
100
AcDbSymbolTableRecord
100
AcDbLayerTableRecord
  2
Engrave2
 70
0
 62
7
  6
CONTINUOUS
370
0
390
F
  0
ENDTAB
  0
TABLE
  2
STYLE
  5
3
100
AcDbSymbolTable
 70
1
  0
STYLE
  5
11
100
AcDbSymbolTableRecord
100
AcDbTextStyleTableRecord
  2
Standard
 70
0
 40
0.0
 41
0.75
 50
0.0
 71
0
 42
2.5
  3
txt
  4

  0
ENDTAB
  0
TABLE
  2
VIEW
  5
6
100
AcDbSymbolTable
 70
0
  0
ENDTAB
  0
TABLE
  2
UCS
  5
7
100
AcDbSymbolTable
 70
0
  0
ENDTAB
  0
TABLE
  2
APPID
  5
9
100
AcDbSymbolTable
 70
1
  0
APPID
  5
12
100
AcDbSymbolTableRecord
100
AcDbRegAppTableRecord
  2
ACAD
 70
0
  0
ENDTAB
  0
TABLE
  2
DIMSTYLE
  5
A
100
AcDbSymbolTable
 70
1
100
AcDbDimStyleTable
 71
0
  0
DIMSTYLE
105
27
100
AcDbSymbolTableRecord
100
AcDbDimStyleTableRecord
  2
Standard
 41
2.5
 42
0.625
 43
3.75
 44
1.25
 70
0
 73
0
 74
0
 77
1
 78
8
140
2.5
141
2.5
143
0.03937007874016
147
0.625
171
3
172
1
271
2
272
2
274
3
278
44
283
0
284
8
340
11
  0
ENDTAB
  0
TABLE
  2
BLOCK_RECORD
  5
1
100
AcDbSymbolTable
 70
1
  0
BLOCK_RECORD
  5
1F
100
AcDbSymbolTableRecord
100
AcDbBlockTableRecord
  2
*Model_Space
340
22
  0
BLOCK_RECORD
  5
1B
100
AcDbSymbolTableRecord
100
AcDbBlockTableRecord
  2
*Paper_Space
340
1E
  0
BLOCK_RECORD
  5
23
100
AcDbSymbolTableRecord
100
AcDbBlockTableRecord
  2
*Paper_Space0
340
26
  0
ENDTAB
  0
ENDSEC
  0
SECTION
  2
BLOCKS
  0
BLOCK
  5
20
100
AcDbEntity
  8
0
100
AcDbBlockBegin
  2
*Model_Space
 70
0
 10
0.0
 20
0.0
 30
0.0
  3
*Model_Space
  1

  0
ENDBLK
  5
21
100
AcDbEntity
  8
0
100
AcDbBlockEnd
  0
BLOCK
  5
1C
100
AcDbEntity
 67
1
  8
0
100
AcDbBlockBegin
  2
*Paper_Space
 70
0
 10
0.0
 20
0.0
 30
0.0
  3
*Paper_Space
  1

  0
ENDBLK
  5
1D
100
AcDbEntity
 67
1
  8
0
100
AcDbBlockEnd
  0
BLOCK
  5
24
100
AcDbEntity
  8
0
100
AcDbBlockBegin
  2
*Paper_Space0
 70
0
 10
0.0
 20
0.0
 30
0.0
  3
*Paper_Space0
  1

  0
ENDBLK
  5
25
100
AcDbEntity
  8
0
100
AcDbBlockEnd
  0
ENDSEC
  0
SECTION
  2
ENTITIES
  0
LINE
  5
46
100
AcDbEntity
100
AcDbLine
  8
Guide
 62
256
370
-1
  6
ByLayer
 10
0.0
 20
0.0
 30
0.0
 11
100.0
 21
0.0
 31
0.0
  0
LINE
  5
47
100
AcDbEntity
100
AcDbLine
  8
Guide
 62
256
370
-1
  6
ByLayer
 10
0.0
 20
0.0
 30
0.0
 11
0.0000000000000037
 21
60.0
 31
0.0
  0
LINE
  5
48
100
AcDbEntity
100
AcDbLine
  8
Guide
 62
256
370
-1
  6
ByLayer
 10
100.0
 20
0.0
 30
0.0
 11
100.0
 21
60.0
 31
0.0
  0
LINE
  5
49
100
AcDbEntity
100
AcDbLine
  8
Guide
 62
256
370
-1
  6
ByLayer
 10
0.0000000000000037
 20
60.0
 30
0.0
 11
100.0
 21
60.0
 31
0.0
  0
MTEXT
  5
4A
100
AcDbEntity
100
AcDbMText
  8
Engrave2
 62
256
370
-1
  6
ByLayer
 10
75.0
 20
49.0
 30
0.0
 40
6.0
 41
30.0
 71
5
 72
0
  1
Reisen
  7
cursive
 50
0.0
 73
1
 44
1.0
  0
LWPOLYLINE
  5
4B
  8
Engrave1
 62
7
370
-1
  6
ByLayer
100
AcDbEntity
100
AcDbPolyline
 90
2
 70
0
 10
21.9186751999999956
 20
44.9289576000000039
 10
21.921316700000002
 20
44.928957600000011
  0
SPLINE
  5
4C
  8
Engrave1
 62
7
370
-1
  6
ByLayer
100
AcDbEntity
100
AcDbSpline
 70
8
 71
3
 72
8
 73
4
 74
0
 40
0.0
 40
0.0
 40
0.0
 40
0.0
 40
1.0
 40
1.0
 40
1.0
 40
1.0
 10
28.3189375999999982
 20
52.6363082999999961
 30
0.0
 10
27.692809699999998
 20
52.6352076000000082
 30
0.0
 10
26.9082190999999966
 20
52.3139316000000107
 30
0.0
 10
26.1467083999999943
 20
51.7393749000000085
 30
0.0
  0
SPLINE
  5
4D
  8
Engrave1
 62
7
370
-1
  6
ByLayer
100
AcDbEntity
100
AcDbSpline
 70
8
 71
3
 72
8
 73
4
 74
0
 40
0.0
 40
0.0
 40
0.0
 40
0.0
 40
1.0
 40
1.0
 40
1.0
 40
1.0
 10
26.1467083999999943
 20
51.7393749000000085
 30
0.0
 10
25.9006874000000096
 20
51.5537516999999852
 30
0.0
 10
25.5454876999999954
 20
51.2154069000000121
 30
0.0
 10
25.252416800000006
 20
50.9085834000000119
 30
0.0
  0
SPLINE
  5
4E
  8
Engrave1
 62
7
370
-1
  6
ByLayer
100
AcDbEntity
100
AcDbSpline
 70
8
 71
3
 72
8
 73
4
 74
0
 40
0.0
 40
0.0
 40
0.0
 40
0.0
 40
1.0
 40
1.0
 40
1.0
 40
1.0
 10
25.252416800000006
 20
50.9085834000000119
 30
0.0
 10
25.1058815000000095
 20
50.7551673000000036
 30
0.0
 10
24.9728726000000023
 20
50.6091342000000068
 30
0.0
 10
24.8793541999999945
 20
50.4931917000000112
 30
0.0
  0
SPLINE
  5
4F
  8
Engrave1
 62
7
370
-1
  6
ByLayer
100
AcDbEntity
100
AcDbSpline
 70
8
 71
3
 72
8
 73
4
 74
0
 40
0.0
 40
0.0
 40
0.0
 40
0.0
 40
1.0
 40
1.0
 40
1.0
 40
1.0
 10
24.8793541999999945
 20
50.4931917000000112
 30
0.0
 10
24.8325953000000084
 20
50.435211900000013
 30
0.0
 10
24.7957897999999943
 20
50.3840733000000114
 30
0.0
 10
24.7708750999999978
 20
50.3450250000000068
 30
0.0
  0
SPLINE
  5
50
  8
Engrave1
 62
7
370
-1
  6
ByLayer
100
AcDbEntity
100
AcDbSpline
 70
8
 71
3
 72
8
 73
4
 74
0
 40
0.0
 40
0.0
 40
0.0
 40
0.0
 40
1.0
 40
1.0
 40
1.0
 40
1.0
 10
24.7708750999999978
 20
50.3450250000000068
 30
0.0
 10
24.7459600999999907
 20
50.3059683000000106
 30
0.0
 10
24.7364792000000051
 20
50.2747770000000145
 30
0.0
 10
24.7364792000000051
 20
50.2788750000000064
 30
0.0
  0
SPLINE
  5
51
  8
Engrave1
 62
7
370
-1
  6
ByLayer
100
AcDbEntity
100
AcDbSpline
 70
8
 71
3
 72
8
 73
4
 74
0
 40
0.0
 40
0.0
 40
0.0
 40
0.0
 40
1.0
 40
1.0
 40
1.0
 40
1.0
 10
24.7364792000000051
 20
50.2788750000000064
 30
0.0
 10
24.7364792000000051
 20
50.239327199999984
 30
0.0
 10
24.7200808999999992
 20
50.2024631999999826
 30
0.0
 10
24.6967915999999974
 20
50.1598082999999946
 30
0.0
  0
SPLINE
  5
52
  8
Engrave1
 62
7
370
-1
  6
ByLayer
100
AcDbEntity
100
AcDbSpline
 70
8
 71
3
 72
8
 73
4
 74
0
 40
0.0
 40
0.0
 40
0.0
 40
0.0
 40
1.0
 40
1.0
 40
1.0
 40
1.0
 10
24.6967915999999974
 20
50.1598082999999946
 30
0.0
 10
24.6735022999999956
 20
50.1171618000000123
 30
0.0
 10
24.6420497000000012
 20
50.0722799999999921
 30
0.0
 10
24.6068333000000052
 20
50.0328084000000075
 30
0.0
  0
SPLINE
  5
53
  8
Engrave1
 62
7
370
-1
  6
ByLayer
100
AcDbEntity
100
AcDbSpline
 70
8
 71
3
 72
8
 73
4
 74
0
 40
0.0
 40
0.0
 40
0.0
 40
0.0
 40
1.0
 40
1.0
 40
1.0
 40
1.0
 10
24.6068333000000052
 20
50.0328084000000075
 30
0.0
 10
24.5600888000000026
 20
49.9804163999999886
 30
0.0
 10
24.4976795000000038
 20
49.8573960000000085
 30
0.0
 10
24.4322083999999933
 20
49.6888584000000009
 30
0.0
  0
SPLINE
  5
54
  8
Engrave1
 62
7
370
-1
  6
ByLayer
100
AcDbEntity
100
AcDbSpline
 70
8
 71
3
 72
8
 73
4
 74
0
 40
0.0
 40
0.0
 40
0.0
 40
0.0
 40
1.0
 40
1.0
 40
1.0
 40
1.0
 10
24.4322083999999933
 20
49.6888584000000009
 30
0.0
 10
24.3667372999999969
 20
49.5203124000000017
 30
0.0
 10
24.295552100000009
 20
49.3047935999999964
 30
0.0
 10
24.225833300000005
 20
49.0538583000000088
 30
0.0
  0
SPLINE
  5
55
  8
Engrave1
 62
7
370
-1
  6
ByLayer
100
AcDbEntity
100
AcDbSpline
 70
8
 71
3
 72
8
 73
4
 74
0
 40
0.0
 40
0.0
 40
0.0
 40
0.0
 40
1.0
 40
1.0
 40
1.0
 40
1.0
 10
24.225833300000005
 20
49.0538583000000088
 30
0.0
 10
24.0863956999999971
 20
48.5519798999999921
 30
0.0
 10
23.948006300000003
 20
47.9134067999999971
 30
0.0
 10
23.839541600000004
 20
47.2520418000000078
 30
0.0
  0
SPLINE
  5
56
  8
Engrave1
 62
7
370
-1
  6
ByLayer
100
AcDbEntity
100
AcDbSpline
 70
8
 71
3
 72
8
 73
4
 74
0
 40
0.0
 40
0.0
 40
0.0
 40
0.0
 40
1.0
 40
1.0
 40
1.0
 40
1.0
 10
23.839541600000004
 20
47.2520418000000078
 30
0.0
 10
23.7802877000000024
 20
46.8907350000000065
 30
0.0
 10
23.7169679000000002
 20
46.5365067000000039
 30
0.0
 10
23.6622707000000077
 20
46.2572082000000009
 30
0.0
  0
SPLINE
  5
57
  8
Engrave1
 62
7
370
-1
  6
ByLayer
100
AcDbEntity
100
AcDbSpline
 70
8
 71
3
 72
8
 73
4
 74
0
 40
0.0
 40
0.0
 40
0.0
 40
0.0
 40
1.0
 40
1.0
 40
1.0
 40
1.0
 10
23.6622707000000077
 20
46.2572082000000009
 30
0.0
 10
23.6349218000000008
 20
46.1175591000000082
 30
0.0
 10
23.6095355000000069
 20
45.9969090000000094
 30
0.0
 10
23.5881875000000036
 20
45.9026666999999975
 30
0.0
  0
SPLINE
  5
58
  8
Engrave1
 62
7
370
-1
  6
ByLayer
100
AcDbEntity
100
AcDbSpline
 70
8
 71
3
 72
8
 73
4
 74
0
 40
0.0
 40
0.0
 40
0.0
 40
0.0
 40
1.0
 40
1.0
 40
1.0
 40
1.0
 10
23.5881875000000036
 20
45.9026666999999975
 30
0.0
 10
23.5668395000000004
 20
45.8084240999999963
 30
0.0
 10
23.5493575999999933
 20
45.7438403999999963
 30
0.0
 10
23.5352708000000064
 20
45.7068749999999966
 30
0.0
  0
SPLINE
  5
59
  8
Engrave1
 62
7
370
-1
  6
ByLayer
100
AcDbEntity
100
AcDbSpline
 70
8
 71
3
 72
8
 73
4
 74
0
 40
0.0
 40
0.0
 40
0.0
 40
0.0
 40
1.0
 40
1.0
 40
1.0
 40
1.0
 10
23.5352708000000064
 20
45.7068749999999966
 30
0.0
 10
23.4895060999999998
 20
45.5867838000000134
 30
0.0
 10
23.4078491000000071
 20
45.4909241999999949
 30
0.0
 10
23.275979300000003
 20
45.4158333000000027
 30
0.0
  0
SPLINE
  5
5A
  8
Engrave1
 62
7
370
-1
  6
ByLayer
100
AcDbEntity
100
AcDbSpline
 70
8
 71
3
 72
8
 73
4
 74
0
 40
0.0
 40
0.0
 40
0.0
 40
0.0
 40
1.0
 40
1.0
 40
1.0
 40
1.0
 10
23.275979300000003
 20
45.4158333000000027
 30
0.0
 10
23.1441092000000026
 20
45.3407423999999963
 30
0.0
 10
22.9639832000000013
 20
45.284354399999998
 30
0.0
 10
22.7150623999999937
 20
45.2306250000000105
 30
0.0
  0
SPLINE
  5
5B
  8
Engrave1
 62
7
370
-1
  6
ByLayer
100
AcDbEntity
100
AcDbSpline
 70
8
 71
3
 72
8
 73
4
 74
0
 40
0.0
 40
0.0
 40
0.0
 40
0.0
 40
1.0
 40
1.0
 40
1.0
 40
1.0
 10
22.7150623999999937
 20
45.2306250000000105
 30
0.0
 10
22.6542431000000022
 20
45.2175018000000009
 30
0.0
 10
22.5315949999999958
 20
45.1659819000000127
 30
0.0
 10
22.3949168000000043
 20
45.0983334000000013
 30
0.0
  0
SPLINE
  5
5C
  8
Engrave1
 62
7
370
-1
  6
ByLayer
100
AcDbEntity
100
AcDbSpline
 70
8
 71
3
 72
8
 73
4
 74
0
 40
0.0
 40
0.0
 40
0.0
 40
0.0
 40
1.0
 40
1.0
 40
1.0
 40
1.0
 10
22.3949168000000043
 20
45.0983334000000013
 30
0.0
 10
22.2582383000000021
 20
45.0306846000000007
 30
0.0
 10
22.1045371999999958
 20
44.9452815000000001
 30
0.0
 10
21.9662917999999934
 20
44.8575581999999997
 30
0.0
  0
SPLINE
  5
5D
  8
Engrave1
 62
7
370
-1
  6
ByLayer
100
AcDbEntity
100
AcDbSpline
 70
8
 71
3
 72
8
 73
4
 74
0
 40
0.0
 40
0.0
 40
0.0
 40
0.0
 40
1.0
 40
1.0
 40
1.0
 40
1.0
 10
21.9662917999999934
 20
44.8575581999999997
 30
0.0
 10
21.6857639000000084
 20
44.6795634000000135
 30
0.0
 10
21.3415880000000051
 20
44.4807491999999982
 30
0.0
 10
21.1937083999999949
 20
44.4104166000000049
 30
0.0
  0
SPLINE
  5
5E
  8
Engrave1
 62
7
370
-1
  6
ByLayer
100
AcDbEntity
100
AcDbSpline
 70
8
 71
3
 72
8
 73
4
 74
0
 40
0.0
 40
0.0
 40
0.0
 40
0.0
 40
1.0
 40
1.0
 40
1.0
 40
1.0
 10
21.1937083999999949
 20
44.4104166000000049
 30
0.0
 10
20.9706310999999879
 20
44.3043210000000087
 30
0.0
 10
20.663436800000003
 20
44.0958206999999973
 30
0.0
 10
20.4052499000000012
 20
43.8891917999999919
 30
0.0
  0
SPLINE
  5
5F
  8
Engrave1
 62
7
370
-1
  6
ByLayer
100
AcDbEntity
100
AcDbSpline
 70
8
 71
3
 72
8
 73
4
 74
0
 40
0.0
 40
0.0
 40
0.0
 40
0.0
 40
1.0
 40
1.0
 40
1.0
 40
1.0
 10
20.4052499000000012
 20
43.8891917999999919
 30
0.0
 10
20.2761568999999859
 20
43.7858730000000023
 30
0.0
 10
20.1584575999999913
 20
43.6825034999999957
 30
0.0
 10
20.0692291999999917
 20
43.5928584000000114
 30
0.0
  0
SPLINE
  5
60
  8
Engrave1
 62
7
370
-1
  6
ByLayer
100
AcDbEntity
100
AcDbSpline
 70
8
 71
3
 72
8
 73
4
 74
0
 40
0.0
 40
0.0
 40
0.0
 40
0.0
 40
1.0
 40
1.0
 40
1.0
 40
1.0
 10
20.0692291999999917
 20
43.5928584000000114
 30
0.0
 10
19.9800008000000027
 20
43.503204899999993
 30
0.0
 10
19.9199813000000177
 20
43.4227460999999977
 30
0.0
 10
19.905187399999992
 20
43.3838333999999932
 30
0.0
  0
SPLINE
  5
61
  8
Engrave1
 62
7
370
-1
  6
ByLayer
100
AcDbEntity
100
AcDbSpline
 70
8
 71
3
 72
8
 73
4
 74
0
 40
0.0
 40
0.0
 40
0.0
 40
0.0
 40
1.0
 40
1.0
 40
1.0
 40
1.0
 10
19.905187399999992
 20
43.3838333999999932
 30
0.0
 10
19.8592075999999871
 20
43.2628956000000002
 30
0.0
 10
19.7502949999999942
 20
43.0677981000000045
 30
0.0
 10
19.6564792999999973
 20
42.9366918000000126
 30
0.0
  0
SPLINE
  5
62
  8
Engrave1
 62
7
370
-1
  6
ByLayer
100
AcDbEntity
100
AcDbSpline
 70
8
 71
3
 72
8
 73
4
 74
0
 40
0.0
 40
0.0
 40
0.0
 40
0.0
 40
1.0
 40
1.0
 40
1.0
 40
1.0
 10
19.6564792999999973
 20
42.9366918000000126
 30
0.0
 10
19.5663254000000109
 20
42.810699299999996
 30
0.0
 10
19.4215901000000031
 20
42.4727690999999865
 30
0.0
 10
19.2860623999999881
 20
42.0741417000000055
 30
0.0
  0
SPLINE
  5
63
  8
Engrave1
 62
7
370
-1
  6
ByLayer
100
AcDbEntity
100
AcDbSpline
 70
8
 71
3
 72
8
 73
4
 74
0
 40
0.0
 40
0.0
 40
0.0
 40
0.0
 40
1.0
 40
1.0
 40
1.0
 40
1.0
 10
19.2860623999999881
 20
42.0741417000000055
 30
0.0
 10
19.1505349999999872
 20
41.6755224000000197
 30
0.0
 10
19.0206401000000085
 20
41.211997800000006
 30
0.0
 10
18.939458300000009
 20
40.8226668000000075
 30
0.0
  0
SPLINE
  5
64
  8
Engrave1
 62
7
370
-1
  6
ByLayer
100
AcDbEntity
100
AcDbSpline
 70
8
 71
3
 72
8
 73
4
 74
0
 40
0.0
 40
0.0
 40
0.0
 40
0.0
 40
1.0
 40
1.0
 40
1.0
 40
1.0
 10
18.939458300000009
 20
40.8226668000000075
 30
0.0
 10
18.8143303999999816
 20
40.222608600000008
 30
0.0
 10
18.6279271999999878
 20
38.8654781999999983
 30
0.0
 10
18.4711456999999903
 20
37.3910249999999991
 30
0.0
  0
SPLINE
  5
65
  8
Engrave1
 62
7
370
-1
  6
ByLayer
100
AcDbEntity
100
AcDbSpline
 70
8
 71
3
 72
8
 73
4
 74
0
 40
0.0
 40
0.0
 40
0.0
 40
0.0
 40
1.0
 40
1.0
 40
1.0
 40
1.0
 10
18.4711456999999903
 20
37.3910249999999991
 30
0.0
 10
18.153935299999997
 20
34.4078882999999962
 30
0.0
 10
18.1217867000000012
 20
34.2650639999999953
 30
0.0
 10
17.3863540999999984
 20
32.469775200000015
 30
0.0
  0
SPLINE
  5
66
  8
Engrave1
 62
7
370
-1
  6
ByLayer
100
AcDbEntity
100
AcDbSpline
 70
8
 71
3
 72
8
 73
4
 74
0
 40
0.0
 40
0.0
 40
0.0
 40
0.0
 40
1.0
 40
1.0
 40
1.0
 40
1.0
 10
17.3863540999999984
 20
32.469775200000015
 30
0.0
 10
17.1580945999999948
 20
31.9125498000000007
 30
0.0
 10
16.8472763000000043
 20
31.0541060999999985
 30
0.0
 10
16.6957916000000068
 20
30.567416699999999
 30
0.0
  0
SPLINE
  5
67
  8
Engrave1
 62
7
370
-1
  6
ByLayer
100
AcDbEntity
100
AcDbSpline
 70
8
 71
3
 72
8
 73
4
 74
0
 40
0.0
 40
0.0
 40
0.0
 40
0.0
 40
1.0
 40
1.0
 40
1.0
 40
1.0
 10
16.6957916000000068
 20
30.567416699999999
 30
0.0
 10
16.5426788000000009
 20
30.0754950000000072
 30
0.0
 10
16.251307699999991
 20
29.3271008999999978
 30
0.0
 10
16.0449166999999733
 20
28.8978915000000107
 30
0.0
  0
SPLINE
  5
68
  8
Engrave1
 62
7
370
-1
  6
ByLayer
100
AcDbEntity
100
AcDbSpline
 70
8
 71
3
 72
8
 73
4
 74
0
 40
0.0
 40
0.0
 40
0.0
 40
0.0
 40
1.0
 40
1.0
 40
1.0
 40
1.0
 10
16.0449166999999733
 20
28.8978915000000107
 30
0.0
 10
15.7192760000000114
 20
28.2207020999999898
 30
0.0
 10
15.5298832999999803
 20
27.7517166000000195
 30
0.0
 10
15.4548958999999897
 20
27.3924167999999995
 30
0.0
  0
SPLINE
  5
69
  8
Engrave1
 62
7
370
-1
  6
ByLayer
100
AcDbEntity
100
AcDbSpline
 70
8
 71
3
 72
8
 73
4
 74
0
 40
0.0
 40
0.0
 40
0.0
 40
0.0
 40
1.0
 40
1.0
 40
1.0
 40
1.0
 10
15.4548958999999897
 20
27.3924167999999995
 30
0.0
 10
15.3799081999999778
 20
27.0331167000000043
 30
0.0
 10
15.4172057000000144
 20
26.7873038999999977
 30
0.0
 10
15.5448542000000032
 20
26.5404582000000069
 30
0.0
  0
SPLINE
  5
6A
  8
Engrave1
 62
7
370
-1
  6
ByLayer
100
AcDbEntity
100
AcDbSpline
 70
8
 71
3
 72
8
 73
4
 74
0
 40
0.0
 40
0.0
 40
0.0
 40
0.0
 40
1.0
 40
1.0
 40
1.0
 40
1.0
 10
15.5448542000000032
 20
26.5404582000000069
 30
0.0
 10
15.6000856999999939
 20
26.4336513000000153
 30
0.0
 10
15.6311228000000177
 20
26.3498397000000004
 30
0.0
 10
15.6321667999999896
 20
26.2494168000000094
 30
0.0
  0
SPLINE
  5
6B
  8
Engrave1
 62
7
370
-1
  6
ByLayer
100
AcDbEntity
100
AcDbSpline
 70
8
 71
3
 72
8
 73
4
 74
0
 40
0.0
 40
0.0
 40
0.0
 40
0.0
 40
1.0
 40
1.0
 40
1.0
 40
1.0
 10
15.6321667999999896
 20
26.2494168000000094
 30
0.0
 10
15.6332080999999974
 20
26.1489935999999936
 30
0.0
 10
15.6042808999999849
 20
26.0340924000000129
 30
0.0
 10
15.5527916000000133
 20
25.8551915999999906
 30
0.0
  0
SPLINE
  5
6C
  8
Engrave1
 62
7
370
-1
  6
ByLayer
100
AcDbEntity
100
AcDbSpline
 70
8
 71
3
 72
8
 73
4
 74
0
 40
0.0
 40
0.0
 40
0.0
 40
0.0
 40
1.0
 40
1.0
 40
1.0
 40
1.0
 10
15.5527916000000133
 20
25.8551915999999906
 30
0.0
 10
15.4499155999999935
 20
25.4977122000000058
 30
0.0
 10
15.3773345000000035
 20
25.1737860000000211
 30
0.0
 10
15.2088332000000186
 20
24.3073748999999957
 30
0.0
  0
SPLINE
  5
6D
  8
Engrave1
 62
7
370
-1
  6
ByLayer
100
AcDbEntity
100
AcDbSpline
 70
8
 71
3
 72
8
 73
4
 74
0
 40
0.0
 40
0.0
 40
0.0
 40
0.0
 40
1.0
 40
1.0
 40
1.0
 40
1.0
 10
15.2088332000000186
 20
24.3073748999999957
 30
0.0
 10
15.1861385000000055
 20
24.190721400000001
 30
0.0
 10
15.1045664000000208
 20
23.7718835999999918
 30
0.0
 10
15.0262709000000036
 20
23.3760417000000125
 30
0.0
  0
SPLINE
  5
6E
  8
Engrave1
 62
7
370
-1
  6
ByLayer
100
AcDbEntity
100
AcDbSpline
 70
8
 71
3
 72
8
 73
4
 74
0
 40
0.0
 40
0.0
 40
0.0
 40
0.0
 40
1.0
 40
1.0
 40
1.0
 40
1.0
 10
15.0262709000000036
 20
23.3760417000000125
 30
0.0
 10
14.9740357999999851
 20
23.1119493000000169
 30
0.0
 10
14.9297609000000016
 20
22.5315677999999942
 30
0.0
 10
14.8992706999999918
 20
21.8097083999999981
 30
0.0
  0
SPLINE
  5
6F
  8
Engrave1
 62
7
370
-1
  6
ByLayer
100
AcDbEntity
100
AcDbSpline
 70
8
 71
3
 72
8
 73
4
 74
0
 40
0.0
 40
0.0
 40
0.0
 40
0.0
 40
1.0
 40
1.0
 40
1.0
 40
1.0
 10
14.8992706999999918
 20
21.8097083999999981
 30
0.0
 10
14.8687807999999961
 20
21.0878486999999915
 30
0.0
 10
14.8517068999999999
 20
20.2209467999999966
 30
0.0
 10
14.8463542999999945
 20
19.3728915000000157
 30
0.0
  0
SPLINE
  5
70
  8
Engrave1
 62
7
370
-1
  6
ByLayer
100
AcDbEntity
100
AcDbSpline
 70
8
 71
3
 72
8
 73
4
 74
0
 40
0.0
 40
0.0
 40
0.0
 40
0.0
 40
1.0
 40
1.0
 40
1.0
 40
1.0
 10
14.8463542999999945
 20
19.3728915000000157
 30
0.0
 10
14.8410031999999745
 20
18.5248449000000086
 30
0.0
 10
14.8483355000000117
 20
17.6952132000000049
 30
0.0
 10
14.8701667999999891
 20
17.0472084000000024
 30
0.0
  0
SPLINE
  5
71
  8
Engrave1
 62
7
370
-1
  6
ByLayer
100
AcDbEntity
100
AcDbSpline
 70
8
 71
3
 72
8
 73
4
 74
0
 40
0.0
 40
0.0
 40
0.0
 40
0.0
 40
1.0
 40
1.0
 40
1.0
 40
1.0
 10
14.8701667999999891
 20
17.0472084000000024
 30
0.0
 10
14.8810834999999777
 20
16.7232060000000118
 30
0.0
 10
14.8944802999999872
 20
16.4445933000000082
 30
0.0
 10
14.9125000999999884
 20
16.2322917000000047
 30
0.0
  0
SPLINE
  5
72
  8
Engrave1
 62
7
370
-1
  6
ByLayer
100
AcDbEntity
100
AcDbSpline
 70
8
 71
3
 72
8
 73
4
 74
0
 40
0.0
 40
0.0
 40
0.0
 40
0.0
 40
1.0
 40
1.0
 40
1.0
 40
1.0
 10
14.9125000999999884
 20
16.2322917000000047
 30
0.0
 10
14.9305195999999896
 20
16.0199901000000082
 30
0.0
 10
14.956278499999982
 20
15.8699184000000102
 30
0.0
 10
14.9759999000000121
 20
15.8221917000000047
 30
0.0
  0
SPLINE
  5
73
  8
Engrave1
 62
7
370
-1
  6
ByLayer
100
AcDbEntity
100
AcDbSpline
 70
8
 71
3
 72
8
 73
4
 74
0
 40
0.0
 40
0.0
 40
0.0
 40
0.0
 40
1.0
 40
1.0
 40
1.0
 40
1.0
 10
14.9759999000000121
 20
15.8221917000000047
 30
0.0
 10
15.0897022999999884
 20
15.5469828000000092
 30
0.0
 10
15.1256152999999998
 20
15.1141157999999862
 30
0.0
 10
15.1479790999999722
 20
13.87220820000001
 30
0.0
  0
SPLINE
  5
74
  8
Engrave1
 62
7
370
-1
  6
ByLayer
100
AcDbEntity
100
AcDbSpline
 70
8
 71
3
 72
8
 73
4
 74
0
 40
0.0
 40
0.0
 40
0.0
 40
0.0
 40
1.0
 40
1.0
 40
1.0
 40
1.0
 10
15.1479790999999722
 20
13.87220820000001
 30
0.0
 10
15.1616936000000067
 20
13.1106146999999922
 30
0.0
 10
15.1725433999999879
 20
12.7084734000000097
 30
0.0
 10
15.1982500999999885
 20
12.4990251000000185
 30
0.0
  0
SPLINE
  5
75
  8
Engrave1
 62
7
370
-1
  6
ByLayer
100
AcDbEntity
100
AcDbSpline
 70
8
 71
3
 72
8
 73
4
 74
0
 40
0.0
 40
0.0
 40
0.0
 40
0.0
 40
1.0
 40
1.0
 40
1.0
 40
1.0
 10
15.1982500999999885
 20
12.4990251000000185
 30
0.0
 10
15.2111032999999836
 20
12.394292400000019
 30
0.0
 10
15.2281591999999897
 20
12.3405291000000048
 30
0.0
 10
15.2458750999999886
 20
12.3138084000000063
 30
0.0
  0
SPLINE
  5
76
  8
Engrave1
 62
7
370
-1
  6
ByLayer
100
AcDbEntity
100
AcDbSpline
 70
8
 71
3
 72
8
 73
4
 74
0
 40
0.0
 40
0.0
 40
0.0
 40
0.0
 40
1.0
 40
1.0
 40
1.0
 40
1.0
 10
15.2458750999999886
 20
12.3138084000000063
 30
0.0
 10
15.2635907000000088
 20
12.287095800000003
 30
0.0
 10
15.2789272999999781
 20
12.2788749000000195
 30
0.0
 10
15.3173125999999868
 20
12.2688333000000043
 30
0.0
  0
SPLINE
  5
77
  8
Engrave1
 62
7
370
-1
  6
ByLayer
100
AcDbEntity
100
AcDbSpline
 70
8
 71
3
 72
8
 73
4
 74
0
 40
0.0
 40
0.0
 40
0.0
 40
0.0
 40
1.0
 40
1.0
 40
1.0
 40
1.0
 10
15.3173125999999868
 20
12.2688333000000043
 30
0.0
 10
15.3590489000000083
 20
12.2579198999999974
 30
0.0
 10
15.3974444000000048
 20
12.2462697000000063
 30
0.0
 10
15.4284373999999964
 20
12.2185584000000063
 30
0.0
  0
SPLINE
  5
78
  8
Engrave1
 62
7
370
-1
  6
ByLayer
100
AcDbEntity
100
AcDbSpline
 70
8
 71
3
 72
8
 73
4
 74
0
 40
0.0
 40
0.0
 40
0.0
 40
0.0
 40
1.0
 40
1.0
 40
1.0
 40
1.0
 10
15.4284373999999964
 20
12.2185584000000063
 30
0.0
 10
15.4594306999999738
 20
12.1908552000000157
 30
0.0
 10
15.4782824000000048
 20
12.1515615000000068
 30
0.0
 10
15.4892917999999895
 20
12.0995001000000002
 30
0.0
  0
SPLINE
  5
79
  8
Engrave1
 62
7
370
-1
  6
ByLayer
100
AcDbEntity
100
AcDbSpline
 70
8
 71
3
 72
8
 73
4
 74
0
 40
0.0
 40
0.0
 40
0.0
 40
0.0
 40
1.0
 40
1.0
 40
1.0
 40
1.0
 10
15.4892917999999895
 20
12.0995001000000002
 30
0.0
 10
15.5113090999999947
 20
11.9953770000000119
 30
0.0
 10
15.5068921999999958
 20
11.8335450000000151
 30
0.0
 10
15.4945831999999797
 20
11.5385832000000192
 30
0.0
  0
SPLINE
  5
7A
  8
Engrave1
 62
7
370
-1
  6
ByLayer
100
AcDbEntity
100
AcDbSpline
 70
8
 71
3
 72
8
 73
4
 74
0
 40
0.0
 40
0.0
 40
0.0
 40
0.0
 40
1.0
 40
1.0
 40
1.0
 40
1.0
 10
15.4945831999999797
 20
11.5385832000000192
 30
0.0
 10
15.4822007000000177
 20
11.2418775000000011
 30
0.0
 10
15.4808884999999883
 20
11.0793257999999994
 30
0.0
 10
15.4972250000000251
 20
11.0041251000000031
 30
0.0
  0
SPLINE
  5
7B
  8
Engrave1
 62
7
370
-1
  6
ByLayer
100
AcDbEntity
100
AcDbSpline
 70
8
 71
3
 72
8
 73
4
 74
0
 40
0.0
 40
0.0
 40
0.0
 40
0.0
 40
1.0
 40
1.0
 40
1.0
 40
1.0
 10
15.4972250000000251
 20
11.0041251000000031
 30
0.0
 10
15.5053952000000237
 20
10.9665245999999925
 30
0.0
 10
15.5159015000000053
 20
10.9551198000000056
 30
0.0
 10
15.5263291999999815
 20
10.948558200000015
 30
0.0
  0
SPLINE
  5
7C
  8
Engrave1
 62
7
370
-1
  6
ByLayer
100
AcDbEntity
100
AcDbSpline
 70
8
 71
3
 72
8
 73
4
 74
0
 40
0.0
 40
0.0
 40
0.0
 40
0.0
 40
1.0
 40
1.0
 40
1.0
 40
1.0
 10
15.5263291999999815
 20
10.948558200000015
 30
0.0
 10
15.5367565999999719
 20
10.9420389000000142
 30
0.0
 10
15.5563162999999847
 20
10.9379748000000063
 30
0.0
 10
15.592475000000011
 20
10.9379748000000063
 30
0.0
  0
SPLINE
  5
7D
  8
Engrave1
 62
7
370
-1
  6
ByLayer
100
AcDbEntity
100
AcDbSpline
 70
8
 71
3
 72
8
 73
4
 74
0
 40
0.0
 40
0.0
 40
0.0
 40
0.0
 40
1.0
 40
1.0
 40
1.0
 40
1.0
 10
15.592475000000011
 20
10.9379748000000063
 30
0.0
 10
15.6350689999999872
 20
10.9379748000000063
 30
0.0
 10
15.6806306000000006
 20
10.9578206999999921
 30
0.0
 10
15.7327040000000125
 20
11.0147082000000012
 30
0.0
  0
SPLINE
  5
7E
  8
Engrave1
 62
7
370
-1
  6
ByLayer
100
AcDbEntity
100
AcDbSpline
 70
8
 71
3
 72
8
 73
4
 74
0
 40
0.0
 40
0.0
 40
0.0
 40
0.0
 40
1.0
 40
1.0
 40
1.0
 40
1.0
 10
15.7327040000000125
 20
11.0147082000000012
 30
0.0
 10
15.7847773999999994
 20
11.0715959999999995
 30
0.0
 10
15.841622599999976
 20
11.1623670000000104
 30
0.0
 10
15.902037499999981
 20
11.2898751000000175
 30
0.0
  0
LWPOLYLINE
  5
7F
  8
Engrave1
 62
7
370
-1
  6
ByLayer
100
AcDbEntity
100
AcDbPolyline
 90
2
 70
0
 10
28.3189418000000046
 20
52.7209325999999905
 10
28.3189375999999982
 20
52.7209749000000087
  0
SPLINE
  5
80
  8
Engrave1
 62
7
370
-1
  6
ByLayer
100
AcDbEntity
100
AcDbSpline
 70
8
 71
3
 72
8
 73
4
 74
0
 40
0.0
 40
0.0
 40
0.0
 40
0.0
 40
1.0
 40
1.0
 40
1.0
 40
1.0
 10
16.2036622999999729
 20
11.2104999000000163
 30
0.0
 10
16.215257600000001
 20
11.0898413999999974
 30
0.0
 10
16.2313162999999818
 20
10.9735857000000223
 30
0.0
 10
16.2486416000000027
 20
10.8850583999999984
 30
0.0
  0
SPLINE
  5
81
  8
Engrave1
 62
7
370
-1
  6
ByLayer
100
AcDbEntity
100
AcDbSpline
 70
8
 71
3
 72
8
 73
4
 74
0
 40
0.0
 40
0.0
 40
0.0
 40
0.0
 40
1.0
 40
1.0
 40
1.0
 40
1.0
 10
16.2486416000000027
 20
10.8850583999999984
 30
0.0
 10
16.2573037999999848
 20
10.8408030000000011
 30
0.0
 10
16.2670118000000059
 20
10.8035327999999993
 30
0.0
 10
16.275099799999996
 20
10.7765831999999975
 30
0.0
  0
SPLINE
  5
82
  8
Engrave1
 62
7
370
-1
  6
ByLayer
100
AcDbEntity
100
AcDbSpline
 70
8
 71
3
 72
8
 73
4
 74
0
 40
0.0
 40
0.0
 40
0.0
 40
0.0
 40
1.0
 40
1.0
 40
1.0
 40
1.0
 10
16.275099799999996
 20
10.7765831999999975
 30
0.0
 10
16.2831856999999935
 20
10.7496338999999779
 30
0.0
 10
16.2956773999999953
 20
10.7321924999999965
 30
0.0
 10
16.2883292000000139
 20
10.7395416000000026
 30
0.0
  0
SPLINE
  5
83
  8
Engrave1
 62
7
370
-1
  6
ByLayer
100
AcDbEntity
100
AcDbSpline
 70
8
 71
3
 72
8
 73
4
 74
0
 40
0.0
 40
0.0
 40
0.0
 40
0.0
 40
1.0
 40
1.0
 40
1.0
 40
1.0
 10
16.2883292000000139
 20
10.7395416000000026
 30
0.0
 10
16.2817760000000007
 20
10.7460609000000034
 30
0.0
 10
16.2786769999999841
 20
10.743182400000002
 30
0.0
 10
16.2883292000000139
 20
10.7447909999999993
 30
0.0
  0
SPLINE
  5
84
  8
Engrave1
 62
7
370
-1
  6
ByLayer
100
AcDbEntity
100
AcDbSpline
 70
8
 71
3
 72
8
 73
4
 74
0
 40
0.0
 40
0.0
 40
0.0
 40
0.0
 40
1.0
 40
1.0
 40
1.0
 40
1.0
 10
16.2883292000000139
 20
10.7447909999999993
 30
0.0
 10
16.297981100000019
 20
10.7463995999999966
 30
0.0
 10
16.3157482999999992
 20
10.7502941999999919
 30
0.0
 10
16.3359541999999927
 20
10.7606661000000088
 30
0.0
  0
SPLINE
  5
85
  8
Engrave1
 62
7
370
-1
  6
ByLayer
100
AcDbEntity
100
AcDbSpline
 70
8
 71
3
 72
8
 73
4
 74
0
 40
0.0
 40
0.0
 40
0.0
 40
0.0
 40
1.0
 40
1.0
 40
1.0
 40
1.0
 10
16.3359541999999927
 20
10.7606661000000088
 30
0.0
 10
16.3763663000000044
 20
10.7814515999999969
 30
0.0
 10
16.4274652999999802
 20
10.8208893000000188
 30
0.0
 10
16.4788291999999892
 20
10.869149400000012
 30
0.0
  0
SPLINE
  5
86
  8
Engrave1
 62
7
370
-1
  6
ByLayer
100
AcDbEntity
100
AcDbSpline
 70
8
 71
3
 72
8
 73
4
 74
0
 40
0.0
 40
0.0
 40
0.0
 40
0.0
 40
1.0
 40
1.0
 40
1.0
 40
1.0
 10
16.4788291999999892
 20
10.869149400000012
 30
0.0
 10
16.5344407999999774
 20
10.9213887000000156
 30
0.0
 10
16.5949064000000028
 20
10.9691493000000051
 30
0.0
 10
16.6481623999999897
 20
11.0040827999999991
 30
0.0
  0
SPLINE
  5
87
  8
Engrave1
 62
7
370
-1
  6
ByLayer
100
AcDbEntity
100
AcDbSpline
 70
8
 71
3
 72
8
 73
4
 74
0
 40
0.0
 40
0.0
 40
0.0
 40
0.0
 40
1.0
 40
1.0
 40
1.0
 40
1.0
 10
16.6481623999999897
 20
11.0040827999999991
 30
0.0
 10
16.6747900999999672
 20
11.021549400000012
 30
0.0
 10
16.699519400000014
 20
11.0358327000000003
 30
0.0
 10
16.7222458999999937
 20
11.0464161000000018
 30
0.0
  0
SPLINE
  5
88
  8
Engrave1
 62
7
370
-1
  6
ByLayer
100
AcDbEntity
100
AcDbSpline
 70
8
 71
3
 72
8
 73
4
 74
0
 40
0.0
 40
0.0
 40
0.0
 40
0.0
 40
1.0
 40
1.0
 40
1.0
 40
1.0
 10
16.7222458999999937
 20
11.0464161000000018
 30
0.0
 10
16.7449721000000018
 20
11.0569992000000141
 30
0.0
 10
16.7642176999999784
 20
11.0649411000000057
 30
0.0
 10
16.7883917000000089
 20
11.0649327000000071
 30
0.0
  0
SPLINE
  5
89
  8
Engrave1
 62
7
370
-1
  6
ByLayer
100
AcDbEntity
100
AcDbSpline
 70
8
 71
3
 72
8
 73
4
 74
0
 40
0.0
 40
0.0
 40
0.0
 40
0.0
 40
1.0
 40
1.0
 40
1.0
 40
1.0
 10
16.7883917000000089
 20
11.0649327000000071
 30
0.0
 10
16.7826680000000046
 20
11.0649327
 30
0.0
 10
16.800266900000004
 20
11.0667954000000037
 30
0.0
 10
16.8201415999999924
 20
11.0781660000000173
 30
0.0
  0
SPLINE
  5
8A
  8
Engrave1
 62
7
370
-1
  6
ByLayer
100
AcDbEntity
100
AcDbSpline
 70
8
 71
3
 72
8
 73
4
 74
0
 40
0.0
 40
0.0
 40
0.0
 40
0.0
 40
1.0
 40
1.0
 40
1.0
 40
1.0
 10
16.8201415999999924
 20
11.0781660000000173
 30
0.0
 10
16.8400162999999878
 20
11.08957920000001
 30
0.0
 10
16.8655669999999809
 20
11.1088829999999987
 30
0.0
 10
16.8942247999999857
 20
11.1310827000000145
 30
0.0
  0
SPLINE
  5
8B
  8
Engrave1
 62
7
370
-1
  6
ByLayer
100
AcDbEntity
100
AcDbSpline
 70
8
 71
3
 72
8
 73
4
 74
0
 40
0.0
 40
0.0
 40
0.0
 40
0.0
 40
1.0
 40
1.0
 40
1.0
 40
1.0
 10
16.8942247999999857
 20
11.1310827000000145
 30
0.0
 10
16.9515409999999775
 20
11.1754818000000071
 30
0.0
 10
17.0218360999999803
 20
11.2373055000000122
 30
0.0
 10
17.0873707999999986
 20
11.3057076000000123
 30
0.0
  0
SPLINE
  5
8C
  8
Engrave1
 62
7
370
-1
  6
ByLayer
100
AcDbEntity
100
AcDbSpline
 70
8
 71
3
 72
8
 73
4
 74
0
 40
0.0
 40
0.0
 40
0.0
 40
0.0
 40
1.0
 40
1.0
 40
1.0
 40
1.0
 10
17.0873707999999986
 20
11.3057076000000123
 30
0.0
 10
17.2189835000000038
 20
11.4430794000000091
 30
0.0
 10
17.3355685999999665
 20
11.5304553000000141
 30
0.0
 10
17.4339748999999991
 20
11.5597077000000112
 30
0.0
  0
SPLINE
  5
8D
  8
Engrave1
 62
7
370
-1
  6
ByLayer
100
AcDbEntity
100
AcDbSpline
 70
8
 71
3
 72
8
 73
4
 74
0
 40
0.0
 40
0.0
 40
0.0
 40
0.0
 40
1.0
 40
1.0
 40
1.0
 40
1.0
 10
17.4339748999999991
 20
11.5597077000000112
 30
0.0
 10
17.4831782000000047
 20
11.5743296999999856
 30
0.0
 10
17.5335167000000105
 20
11.5740332999999964
 30
0.0
 10
17.571558200000009
 20
11.5464827999999997
 30
0.0
  0
SPLINE
  5
8E
  8
Engrave1
 62
7
370
-1
  6
ByLayer
100
AcDbEntity
100
AcDbSpline
 70
8
 71
3
 72
8
 73
4
 74
0
 40
0.0
 40
0.0
 40
0.0
 40
0.0
 40
1.0
 40
1.0
 40
1.0
 40
1.0
 10
17.571558200000009
 20
11.5464827999999997
 30
0.0
 10
17.6095996999999791
 20
11.5189236000000008
 30
0.0
 10
17.6244748999999707
 20
11.4698934000000108
 30
0.0
 10
17.6244749000000027
 20
11.4141825000000026
 30
0.0
  0
SPLINE
  5
8F
  8
Engrave1
 62
7
370
-1
  6
ByLayer
100
AcDbEntity
100
AcDbSpline
 70
8
 71
3
 72
8
 73
4
 74
0
 40
0.0
 40
0.0
 40
0.0
 40
0.0
 40
1.0
 40
1.0
 40
1.0
 40
1.0
 10
17.6244749000000027
 20
11.4141825000000026
 30
0.0
 10
17.6244749000000063
 20
11.3996030999999789
 30
0.0
 10
17.6422717999999783
 20
11.3451285000000155
 30
0.0
 10
17.6720999000000099
 20
11.2871825999999871
 30
0.0
  0
SPLINE
  5
90
  8
Engrave1
 62
7
370
-1
  6
ByLayer
100
AcDbEntity
100
AcDbSpline
 70
8
 71
3
 72
8
 73
4
 74
0
 40
0.0
 40
0.0
 40
0.0
 40
0.0
 40
1.0
 40
1.0
 40
1.0
 40
1.0
 10
17.6720999000000099
 20
11.2871825999999871
 30
0.0
 10
17.7019280000000094
 20
11.2292451
 30
0.0
 10
17.7430030999999993
 20
11.1624855000000096
 30
0.0
 10
17.7885166999999882
 20
11.1046242000000106
 30
0.0
  0
SPLINE
  5
91
  8
Engrave1
 62
7
370
-1
  6
ByLayer
100
AcDbEntity
100
AcDbSpline
 70
8
 71
3
 72
8
 73
4
 74
0
 40
0.0
 40
0.0
 40
0.0
 40
0.0
 40
1.0
 40
1.0
 40
1.0
 40
1.0
 10
17.7885166999999882
 20
11.1046242000000106
 30
0.0
 10
17.9338003999999778
 20
10.9199325000000087
 30
0.0
 10
18.0083299999999902
 20
10.5706824000000168
 30
0.0
 10
18.137766499999973
 20
9.5700411000000045
 30
0.0
  0
SPLINE
  5
92
  8
Engrave1
 62
7
370
-1
  6
ByLayer
100
AcDbEntity
100
AcDbSpline
 70
8
 71
3
 72
8
 73
4
 74
0
 40
0.0
 40
0.0
 40
0.0
 40
0.0
 40
1.0
 40
1.0
 40
1.0
 40
1.0
 10
18.137766499999973
 20
9.5700411000000045
 30
0.0
 10
18.2245439000000253
 20
8.8991847000000064
 30
0.0
 10
18.374695399999986
 20
7.9310721000000015
 30
0.0
 10
18.5240582000000096
 20
7.0670825999999991
 30
0.0
  0
SPLINE
  5
93
  8
Engrave1
 62
7
370
-1
  6
ByLayer
100
AcDbEntity
100
AcDbSpline
 70
8
 71
3
 72
8
 73
4
 74
0
 40
0.0
 40
0.0
 40
0.0
 40
0.0
 40
1.0
 40
1.0
 40
1.0
 40
1.0
 10
18.5240582000000096
 20
7.0670825999999991
 30
0.0
 10
18.673421299999994
 20
6.2030931000000038
 30
0.0
 10
18.8228662999999869
 20
5.4408645000000107
 30
0.0
 10
18.8944748000000153
 20
5.1911826000000048
 30
0.0
  0
LWPOLYLINE
  5
94
  8
Engrave1
 62
7
370
-1
  6
ByLayer
100
AcDbEntity
100
AcDbPolyline
 90
5
 70
0
 10
15.902037499999981
 20
11.2898751000000175
 10
16.0793083999999915
 20
11.6682249000000056
 10
16.1454541999999677
 20
11.8084584000000135
 10
16.1613289999999985
 20
11.6550000000000011
 10
16.2036622999999729
 20
11.2104999000000163
  0
SPLINE
  5
95
  8
Engrave1
 62
7
370
-1
  6
ByLayer
100
AcDbEntity
100
AcDbSpline
 70
8
 71
3
 72
8
 73
4
 74
0
 40
0.0
 40
0.0
 40
0.0
 40
0.0
 40
1.0
 40
1.0
 40
1.0
 40
1.0
 10
31.3060831999999891
 20
4.8101826000000045
 30
0.0
 10
31.0357738999999668
 20
5.9739597000000018
 30
0.0
 10
30.4160851999999977
 20
8.0582754000000065
 30
0.0
 10
29.9805208999999877
 20
9.271066200000007
 30
0.0
  0
SPLINE
  5
96
  8
Engrave1
 62
7
370
-1
  6
ByLayer
100
AcDbEntity
100
AcDbSpline
 70
8
 71
3
 72
8
 73
4
 74
0
 40
0.0
 40
0.0
 40
0.0
 40
0.0
 40
1.0
 40
1.0
 40
1.0
 40
1.0
 10
29.9805208999999877
 20
9.271066200000007
 30
0.0
 10
29.3453413999999952
 20
11.0396766000000071
 30
0.0
 10
29.0403583999999881
 20
11.8442046000000047
 30
0.0
 10
28.9671667999999869
 20
12.2476242000000113
 30
0.0
  0
SPLINE
  5
97
  8
Engrave1
 62
7
370
-1
  6
ByLayer
100
AcDbEntity
100
AcDbSpline
 70
8
 71
3
 72
8
 73
4
 74
0
 40
0.0
 40
0.0
 40
0.0
 40
0.0
 40
1.0
 40
1.0
 40
1.0
 40
1.0
 10
28.9671667999999869
 20
12.2476242000000113
 30
0.0
 10
28.9488686000000115
 20
12.3484793999999951
 30
0.0
 10
28.9455386000000203
 20
12.4229012999999995
 30
0.0
 10
28.9565833999999995
 20
12.4857491999999937
 30
0.0
  0
SPLINE
  5
98
  8
Engrave1
 62
7
370
-1
  6
ByLayer
100
AcDbEntity
100
AcDbSpline
 70
8
 71
3
 72
8
 73
4
 74
0
 40
0.0
 40
0.0
 40
0.0
 40
0.0
 40
1.0
 40
1.0
 40
1.0
 40
1.0
 10
28.9565833999999995
 20
12.4857491999999937
 30
0.0
 10
28.9676281999999787
 20
12.5485974000000127
 30
0.0
 10
28.9978252999999881
 20
12.5991858000000008
 30
0.0
 10
29.0386043000000029
 20
12.6339159000000052
 30
0.0
  0
SPLINE
  5
99
  8
Engrave1
 62
7
370
-1
  6
ByLayer
100
AcDbEntity
100
AcDbSpline
 70
8
 71
3
 72
8
 73
4
 74
0
 40
0.0
 40
0.0
 40
0.0
 40
0.0
 40
1.0
 40
1.0
 40
1.0
 40
1.0
 10
29.0386043000000029
 20
12.6339159000000052
 30
0.0
 10
29.1201625999999862
 20
12.7033851000000055
 30
0.0
 10
29.2336480999999964
 20
12.7239504000000068
 30
0.0
 10
29.3772707000000111
 20
12.7794326999999939
 30
0.0
  0
SPLINE
  5
9A
  8
Engrave1
 62
7
370
-1
  6
ByLayer
100
AcDbEntity
100
AcDbSpline
 70
8
 71
3
 72
8
 73
4
 74
0
 40
0.0
 40
0.0
 40
0.0
 40
0.0
 40
1.0
 40
1.0
 40
1.0
 40
1.0
 10
29.3772707000000111
 20
12.7794326999999939
 30
0.0
 10
29.6143274000000005
 20
12.871016400000002
 30
0.0
 10
29.9857025000000093
 20
12.9701525999999987
 30
0.0
 10
30.2133541999999977
 20
13.0043328000000002
 30
0.0
  0
SPLINE
  5
9B
  8
Engrave1
 62
7
370
-1
  6
ByLayer
100
AcDbEntity
100
AcDbSpline
 70
8
 71
3
 72
8
 73
4
 74
0
 40
0.0
 40
0.0
 40
0.0
 40
0.0
 40
1.0
 40
1.0
 40
1.0
 40
1.0
 10
30.2133541999999977
 20
13.0043328000000002
 30
0.0
 10
30.5014189999999843
 20
13.0475805000000094
 30
0.0
 10
30.6804763999999963
 20
13.1366073000000085
 30
0.0
 10
30.8906876000000139
 20
13.3403492999999997
 30
0.0
  0
SPLINE
  5
9C
  8
Engrave1
 62
7
370
-1
  6
ByLayer
100
AcDbEntity
100
AcDbSpline
 70
8
 71
3
 72
8
 73
4
 74
0
 40
0.0
 40
0.0
 40
0.0
 40
0.0
 40
1.0
 40
1.0
 40
1.0
 40
1.0
 10
30.8906876000000139
 20
13.3403492999999997
 30
0.0
 10
30.9999161000000001
 20
13.4462249999999983
 30
0.0
 10
31.0769836999999995
 20
13.5357768000000078
 30
0.0
 10
31.120874900000004
 20
13.6287492000000015
 30
0.0
  0
SPLINE
  5
9D
  8
Engrave1
 62
7
370
-1
  6
ByLayer
100
AcDbEntity
100
AcDbSpline
 70
8
 71
3
 72
8
 73
4
 74
0
 40
0.0
 40
0.0
 40
0.0
 40
0.0
 40
1.0
 40
1.0
 40
1.0
 40
1.0
 10
31.120874900000004
 20
13.6287492000000015
 30
0.0
 10
31.1647661000000085
 20
13.7217218999999986
 30
0.0
 10
31.1766737000000163
 20
13.8191477999999961
 30
0.0
 10
31.1552707999999825
 20
13.9462494000000063
 30
0.0
  0
SPLINE
  5
9E
  8
Engrave1
 62
7
370
-1
  6
ByLayer
100
AcDbEntity
100
AcDbSpline
 70
8
 71
3
 72
8
 73
4
 74
0
 40
0.0
 40
0.0
 40
0.0
 40
0.0
 40
1.0
 40
1.0
 40
1.0
 40
1.0
 10
31.1552707999999825
 20
13.9462494000000063
 30
0.0
 10
31.112464100000004
 20
14.2004526000000055
 30
0.0
 10
30.9247115000000008
 20
14.5728671999999975
 30
0.0
 10
30.5599583000000052
 20
15.2109575999999933
 30
0.0
  0
SPLINE
  5
9F
  8
Engrave1
 62
7
370
-1
  6
ByLayer
100
AcDbEntity
100
AcDbSpline
 70
8
 71
3
 72
8
 73
4
 74
0
 40
0.0
 40
0.0
 40
0.0
 40
0.0
 40
1.0
 40
1.0
 40
1.0
 40
1.0
 10
30.5599583000000052
 20
15.2109575999999933
 30
0.0
 10
30.1035541999999978
 20
16.0093896000000058
 30
0.0
 10
29.7515398999999903
 20
16.7354910000000032
 30
0.0
 10
29.5280833999999928
 20
17.3382078000000135
 30
0.0
  0
SPLINE
  5
A0
  8
Engrave1
 62
7
370
-1
  6
ByLayer
100
AcDbEntity
100
AcDbSpline
 70
8
 71
3
 72
8
 73
4
 74
0
 40
0.0
 40
0.0
 40
0.0
 40
0.0
 40
1.0
 40
1.0
 40
1.0
 40
1.0
 10
29.5280833999999928
 20
17.3382078000000135
 30
0.0
 10
29.3046269000000095
 20
17.940924300000006
 30
0.0
 10
29.2054330999999792
 20
18.4171319999999952
 30
0.0
 10
29.2582081999999986
 20
18.7299158999999946
 30
0.0
  0
SPLINE
  5
A1
  8
Engrave1
 62
7
370
-1
  6
ByLayer
100
AcDbEntity
100
AcDbSpline
 70
8
 71
3
 72
8
 73
4
 74
0
 40
0.0
 40
0.0
 40
0.0
 40
0.0
 40
1.0
 40
1.0
 40
1.0
 40
1.0
 10
29.2582081999999986
 20
18.7299158999999946
 30
0.0
 10
29.2841299999999904
 20
18.8835605999999956
 30
0.0
 10
29.2673498000000052
 20
19.2141923999999982
 30
0.0
 10
29.2185209000000086
 20
19.5898160999999895
 30
0.0
  0
SPLINE
  5
A2
  8
Engrave1
 62
7
370
-1
  6
ByLayer
100
AcDbEntity
100
AcDbSpline
 70
8
 71
3
 72
8
 73
4
 74
0
 40
0.0
 40
0.0
 40
0.0
 40
0.0
 40
1.0
 40
1.0
 40
1.0
 40
1.0
 10
29.2185209000000086
 20
19.5898160999999895
 30
0.0
 10
29.1696919999999906
 20
19.965431400000007
 30
0.0
 10
29.0915098999999984
 20
20.391507899999997
 30
0.0
 10
28.9962706999999824
 20
20.7460410000000124
 30
0.0
  0
SPLINE
  5
A3
  8
Engrave1
 62
7
370
-1
  6
ByLayer
100
AcDbEntity
100
AcDbSpline
 70
8
 71
3
 72
8
 73
4
 74
0
 40
0.0
 40
0.0
 40
0.0
 40
0.0
 40
1.0
 40
1.0
 40
1.0
 40
1.0
 10
28.9962706999999824
 20
20.7460410000000124
 30
0.0
 10
28.8743701999999871
 20
21.1998119999999979
 30
0.0
 10
28.5985340000000008
 20
21.7996076999999921
 30
0.0
 10
28.0278958999999972
 20
22.8547659000000074
 30
0.0
  0
SPLINE
  5
A4
  8
Engrave1
 62
7
370
-1
  6
ByLayer
100
AcDbEntity
100
AcDbSpline
 70
8
 71
3
 72
8
 73
4
 74
0
 40
0.0
 40
0.0
 40
0.0
 40
0.0
 40
1.0
 40
1.0
 40
1.0
 40
1.0
 10
28.0278958999999972
 20
22.8547659000000074
 30
0.0
 10
27.8629769000000138
 20
23.1597182999999909
 30
0.0
 10
27.68256259999999
 20
23.5577616000000063
 30
0.0
 10
27.6230833999999987
 20
23.7517077000000008
 30
0.0
  0
SPLINE
  5
A5
  8
Engrave1
 62
7
370
-1
  6
ByLayer
100
AcDbEntity
100
AcDbSpline
 70
8
 71
3
 72
8
 73
4
 74
0
 40
0.0
 40
0.0
 40
0.0
 40
0.0
 40
1.0
 40
1.0
 40
1.0
 40
1.0
 10
27.6230833999999987
 20
23.7517077000000008
 30
0.0
 10
27.5661601999999988
 20
23.9372885999999987
 30
0.0
 10
27.49560409999998
 20
24.1493616000000131
 30
0.0
 10
27.4696250000000077
 20
24.2147328000000073
 30
0.0
  0
SPLINE
  5
A6
  8
Engrave1
 62
7
370
-1
  6
ByLayer
100
AcDbEntity
100
AcDbSpline
 70
8
 71
3
 72
8
 73
4
 74
0
 40
0.0
 40
0.0
 40
0.0
 40
0.0
 40
1.0
 40
1.0
 40
1.0
 40
1.0
 10
27.4696250000000077
 20
24.2147328000000073
 30
0.0
 10
27.4381417999999826
 20
24.293938500000003
 30
0.0
 10
27.4040572999999981
 20
24.4546950000000081
 30
0.0
 10
27.3637915999999848
 20
24.6724578000000108
 30
0.0
  0
SPLINE
  5
A7
  8
Engrave1
 62
7
370
-1
  6
ByLayer
100
AcDbEntity
100
AcDbSpline
 70
8
 71
3
 72
8
 73
4
 74
0
 40
0.0
 40
0.0
 40
0.0
 40
0.0
 40
1.0
 40
1.0
 40
1.0
 40
1.0
 10
27.3637915999999848
 20
24.6724578000000108
 30
0.0
 10
27.3235258999999999
 20
24.8902202999999993
 30
0.0
 10
27.2808301999999969
 20
25.1599766999999979
 30
0.0
 10
27.2394373999999999
 20
25.4476826999999979
 30
0.0
  0
SPLINE
  5
A8
  8
Engrave1
 62
7
370
-1
  6
ByLayer
100
AcDbEntity
100
AcDbSpline
 70
8
 71
3
 72
8
 73
4
 74
0
 40
0.0
 40
0.0
 40
0.0
 40
0.0
 40
1.0
 40
1.0
 40
1.0
 40
1.0
 10
27.2394373999999999
 20
25.4476826999999979
 30
0.0
 10
27.1566521000000094
 20
26.0231028000000002
 30
0.0
 10
27.081274999999998
 20
26.6638770000000029
 30
0.0
 10
27.0595208000000014
 20
27.0642909000000067
 30
0.0
  0
SPLINE
  5
A9
  8
Engrave1
 62
7
370
-1
  6
ByLayer
100
AcDbEntity
100
AcDbSpline
 70
8
 71
3
 72
8
 73
4
 74
0
 40
0.0
 40
0.0
 40
0.0
 40
0.0
 40
1.0
 40
1.0
 40
1.0
 40
1.0
 10
27.0595208000000014
 20
27.0642909000000067
 30
0.0
 10
27.0222208999999864
 20
27.7510647000000041
 30
0.0
 10
27.054872600000003
 20
28.1309471999999978
 30
0.0
 10
27.2235626000000082
 20
29.0222076000000051
 30
0.0
  0
SPLINE
  5
AA
  8
Engrave1
 62
7
370
-1
  6
ByLayer
100
AcDbEntity
100
AcDbSpline
 70
8
 71
3
 72
8
 73
4
 74
0
 40
0.0
 40
0.0
 40
0.0
 40
0.0
 40
1.0
 40
1.0
 40
1.0
 40
1.0
 10
27.2235626000000082
 20
29.0222076000000051
 30
0.0
 10
27.4306454000000031
 20
30.1165919999999936
 30
0.0
 10
27.6202690999999945
 20
30.9244559999999957
 30
0.0
 10
27.8003543000000022
 20
31.4695992000000082
 30
0.0
  0
SPLINE
  5
AB
  8
Engrave1
 62
7
370
-1
  6
ByLayer
100
AcDbEntity
100
AcDbSpline
 70
8
 71
3
 72
8
 73
4
 74
0
 40
0.0
 40
0.0
 40
0.0
 40
0.0
 40
1.0
 40
1.0
 40
1.0
 40
1.0
 10
27.8003543000000022
 20
31.4695992000000082
 30
0.0
 10
27.8903963000000061
 20
31.7421750000000067
 30
0.0
 10
27.9769679000000053
 20
31.9483131000000071
 30
0.0
 10
28.0649374999999992
 20
32.0940159000000023
 30
0.0
  0
SPLINE
  5
AC
  8
Engrave1
 62
7
370
-1
  6
ByLayer
100
AcDbEntity
100
AcDbSpline
 70
8
 71
3
 72
8
 73
4
 74
0
 40
0.0
 40
0.0
 40
0.0
 40
0.0
 40
1.0
 40
1.0
 40
1.0
 40
1.0
 10
28.0649374999999992
 20
32.0940159000000023
 30
0.0
 10
28.1529070999999931
 20
32.2397273999999925
 30
0.0
 10
28.2405734000000024
 20
32.3272218000000038
 30
0.0
 10
28.3427501000000035
 20
32.3480160000000012
 30
0.0
  0
SPLINE
  5
AD
  8
Engrave1
 62
7
370
-1
  6
ByLayer
100
AcDbEntity
100
AcDbSpline
 70
8
 71
3
 72
8
 73
4
 74
0
 40
0.0
 40
0.0
 40
0.0
 40
0.0
 40
1.0
 40
1.0
 40
1.0
 40
1.0
 10
28.3427501000000035
 20
32.3480160000000012
 30
0.0
 10
28.3763362999999984
 20
32.3548739999999952
 30
0.0
 10
28.4417108000000098
 20
32.3619522000000046
 30
0.0
 10
28.5385418000000044
 20
32.3691824999999938
 30
0.0
  0
SPLINE
  5
AE
  8
Engrave1
 62
7
370
-1
  6
ByLayer
100
AcDbEntity
100
AcDbSpline
 70
8
 71
3
 72
8
 73
4
 74
0
 40
0.0
 40
0.0
 40
0.0
 40
0.0
 40
1.0
 40
1.0
 40
1.0
 40
1.0
 10
28.5385418000000044
 20
32.3691824999999938
 30
0.0
 10
28.6353724999999955
 20
32.3764637999999962
 30
0.0
 10
28.7606890999999933
 20
32.3849981999999983
 30
0.0
 10
28.9089583999999959
 20
32.3929992000000055
 30
0.0
  0
SPLINE
  5
AF
  8
Engrave1
 62
7
370
-1
  6
ByLayer
100
AcDbEntity
100
AcDbSpline
 70
8
 71
3
 72
8
 73
4
 74
0
 40
0.0
 40
0.0
 40
0.0
 40
0.0
 40
1.0
 40
1.0
 40
1.0
 40
1.0
 10
28.9089583999999959
 20
32.3929992000000055
 30
0.0
 10
29.2054957999999942
 20
32.4089928000000143
 30
0.0
 10
29.589730700000004
 20
32.4246222000000017
 30
0.0
 10
29.9858126000000098
 20
32.4379827000000063
 30
0.0
  0
SPLINE
  5
B0
  8
Engrave1
 62
7
370
-1
  6
ByLayer
100
AcDbEntity
100
AcDbSpline
 70
8
 71
3
 72
8
 73
4
 74
0
 40
0.0
 40
0.0
 40
0.0
 40
0.0
 40
1.0
 40
1.0
 40
1.0
 40
1.0
 10
29.9858126000000098
 20
32.4379827000000063
 30
0.0
 10
32.151481700000005
 20
32.5109822999999949
 30
0.0
 10
34.3759154000000038
 20
32.736644400000003
 30
0.0
 10
36.2802500000000094
 20
33.0782657999999969
 30
0.0
  0
SPLINE
  5
B1
  8
Engrave1
 62
7
370
-1
  6
ByLayer
100
AcDbEntity
100
AcDbSpline
 70
8
 71
3
 72
8
 73
4
 74
0
 40
0.0
 40
0.0
 40
0.0
 40
0.0
 40
1.0
 40
1.0
 40
1.0
 40
1.0
 10
36.2802500000000094
 20
33.0782657999999969
 30
0.0
 10
36.5917394000000158
 20
33.1341458999999929
 30
0.0
 10
37.2399169999999842
 20
33.1608159000000029
 30
0.0
 10
37.8254168000000064
 20
33.1602908999999926
 30
0.0
  0
SPLINE
  5
B2
  8
Engrave1
 62
7
370
-1
  6
ByLayer
100
AcDbEntity
100
AcDbSpline
 70
8
 71
3
 72
8
 73
4
 74
0
 40
0.0
 40
0.0
 40
0.0
 40
0.0
 40
1.0
 40
1.0
 40
1.0
 40
1.0
 10
37.8254168000000064
 20
33.1602908999999926
 30
0.0
 10
38.1181661000000034
 20
33.1602908999999926
 30
0.0
 10
38.3953022000000033
 20
33.1530941999999982
 30
0.0
 10
38.6032916000000128
 20
33.1391244
 30
0.0
  0
SPLINE
  5
B3
  8
Engrave1
 62
7
370
-1
  6
ByLayer
100
AcDbEntity
100
AcDbSpline
 70
8
 71
3
 72
8
 73
4
 74
0
 40
0.0
 40
0.0
 40
0.0
 40
0.0
 40
1.0
 40
1.0
 40
1.0
 40
1.0
 10
38.6032916000000128
 20
33.1391244
 30
0.0
 10
38.7072868999999997
 20
33.1321817999999979
 30
0.0
 10
38.7925208000000055
 20
33.1233849000000049
 30
0.0
 10
38.8572917000000047
 20
33.1126658999999961
 30
0.0
  0
SPLINE
  5
B4
  8
Engrave1
 62
7
370
-1
  6
ByLayer
100
AcDbEntity
100
AcDbSpline
 70
8
 71
3
 72
8
 73
4
 74
0
 40
0.0
 40
0.0
 40
0.0
 40
0.0
 40
1.0
 40
1.0
 40
1.0
 40
1.0
 10
38.8572917000000047
 20
33.1126658999999961
 30
0.0
 10
38.8896766999999883
 20
33.1073318999999913
 30
0.0
 10
38.9173846999999995
 20
33.1012529999999998
 30
0.0
 10
38.939312600000008
 20
33.094149299999998
 30
0.0
  0
SPLINE
  5
B5
  8
Engrave1
 62
7
370
-1
  6
ByLayer
100
AcDbEntity
100
AcDbSpline
 70
8
 71
3
 72
8
 73
4
 74
0
 40
0.0
 40
0.0
 40
0.0
 40
0.0
 40
1.0
 40
1.0
 40
1.0
 40
1.0
 10
38.939312600000008
 20
33.094149299999998
 30
0.0
 10
38.961240200000006
 20
33.0870375000000081
 30
0.0
 10
38.9810413999999881
 20
33.0837609000000015
 30
0.0
 10
38.9975207000000168
 20
33.0570993000000044
 30
0.0
  0
SPLINE
  5
B6
  8
Engrave1
 62
7
370
-1
  6
ByLayer
100
AcDbEntity
100
AcDbSpline
 70
8
 71
3
 72
8
 73
4
 74
0
 40
0.0
 40
0.0
 40
0.0
 40
0.0
 40
1.0
 40
1.0
 40
1.0
 40
1.0
 10
38.9975207000000168
 20
33.0570993000000044
 30
0.0
 10
38.9923645999999948
 20
33.0654813000000019
 30
0.0
 10
38.9939140999999978
 20
33.0610785000000078
 30
0.0
 10
39.0028123999999892
 20
33.0570993000000044
 30
0.0
  0
SPLINE
  5
B7
  8
Engrave1
 62
7
370
-1
  6
ByLayer
100
AcDbEntity
100
AcDbSpline
 70
8
 71
3
 72
8
 73
4
 74
0
 40
0.0
 40
0.0
 40
0.0
 40
0.0
 40
1.0
 40
1.0
 40
1.0
 40
1.0
 10
39.0028123999999892
 20
33.0570993000000044
 30
0.0
 10
39.0117091999999914
 20
33.0532047000000091
 30
0.0
 10
39.0263609000000002
 20
33.0485649000000024
 30
0.0
 10
39.0451457000000133
 20
33.0438743999999929
 30
0.0
  0
SPLINE
  5
B8
  8
Engrave1
 62
7
370
-1
  6
ByLayer
100
AcDbEntity
100
AcDbSpline
 70
8
 71
3
 72
8
 73
4
 74
0
 40
0.0
 40
0.0
 40
0.0
 40
0.0
 40
1.0
 40
1.0
 40
1.0
 40
1.0
 10
39.0451457000000133
 20
33.0438743999999929
 30
0.0
 10
39.0827159000000037
 20
33.0344934000000023
 30
0.0
 10
39.1364698999999945
 20
33.0249596999999966
 30
0.0
 10
39.2012500999999958
 20
33.0174159000000031
 30
0.0
  0
SPLINE
  5
B9
  8
Engrave1
 62
7
370
-1
  6
ByLayer
100
AcDbEntity
100
AcDbSpline
 70
8
 71
3
 72
8
 73
4
 74
0
 40
0.0
 40
0.0
 40
0.0
 40
0.0
 40
1.0
 40
1.0
 40
1.0
 40
1.0
 10
39.2012500999999958
 20
33.0174159000000031
 30
0.0
 10
39.3308101999999948
 20
33.0023369999999971
 30
0.0
 10
39.5039077999999932
 20
32.9935992000000056
 30
0.0
 10
39.6880832000000012
 20
32.9935992000000056
 30
0.0
  0
SPLINE
  5
BA
  8
Engrave1
 62
7
370
-1
  6
ByLayer
100
AcDbEntity
100
AcDbSpline
 70
8
 71
3
 72
8
 73
4
 74
0
 40
0.0
 40
0.0
 40
0.0
 40
0.0
 40
1.0
 40
1.0
 40
1.0
 40
1.0
 10
39.6880832000000012
 20
32.9935992000000056
 30
0.0
 10
39.9482495000000029
 20
32.9935992000000056
 30
0.0
 10
40.1197649000000069
 20
33.0015578999999946
 30
0.0
 10
40.2251875999999982
 20
33.020066099999994
 30
0.0
  0
SPLINE
  5
BB
  8
Engrave1
 62
7
370
-1
  6
ByLayer
100
AcDbEntity
100
AcDbSpline
 70
8
 71
3
 72
8
 73
4
 74
0
 40
0.0
 40
0.0
 40
0.0
 40
0.0
 40
1.0
 40
1.0
 40
1.0
 40
1.0
 10
40.2251875999999982
 20
33.020066099999994
 30
0.0
 10
40.2778984999999992
 20
33.0293118000000021
 30
0.0
 10
40.3140553999999938
 20
33.039073799999997
 30
0.0
 10
40.3363124000000042
 20
33.0518160000000023
 30
0.0
  0
SPLINE
  5
BC
  8
Engrave1
 62
7
370
-1
  6
ByLayer
100
AcDbEntity
100
AcDbSpline
 70
8
 71
3
 72
8
 73
4
 74
0
 40
0.0
 40
0.0
 40
0.0
 40
0.0
 40
1.0
 40
1.0
 40
1.0
 40
1.0
 10
40.3363124000000042
 20
33.0518160000000023
 30
0.0
 10
40.3585697000000039
 20
33.0645497999999947
 30
0.0
 10
40.3673689999999894
 20
33.0759036000000037
 30
0.0
 10
40.3733543000000097
 20
33.0914994000000036
 30
0.0
  0
SPLINE
  5
BD
  8
Engrave1
 62
7
370
-1
  6
ByLayer
100
AcDbEntity
100
AcDbSpline
 70
8
 71
3
 72
8
 73
4
 74
0
 40
0.0
 40
0.0
 40
0.0
 40
0.0
 40
1.0
 40
1.0
 40
1.0
 40
1.0
 10
40.3733543000000097
 20
33.0914994000000036
 30
0.0
 10
40.3890181999999882
 20
33.1323170999999945
 30
0.0
 10
40.4280217999999891
 20
33.1625600999999932
 30
0.0
 10
40.487125099999993
 20
33.1814576999999957
 30
0.0
  0
SPLINE
  5
BE
  8
Engrave1
 62
7
370
-1
  6
ByLayer
100
AcDbEntity
100
AcDbSpline
 70
8
 71
3
 72
8
 73
4
 74
0
 40
0.0
 40
0.0
 40
0.0
 40
0.0
 40
1.0
 40
1.0
 40
1.0
 40
1.0
 10
40.487125099999993
 20
33.1814576999999957
 30
0.0
 10
40.5462284000000039
 20
33.2003552999999982
 30
0.0
 10
40.6292971999999892
 20
33.2144861999999961
 30
0.0
 10
40.7543543000000099
 20
33.2237910000000056
 30
0.0
  0
SPLINE
  5
BF
  8
Engrave1
 62
7
370
-1
  6
ByLayer
100
AcDbEntity
100
AcDbSpline
 70
8
 71
3
 72
8
 73
4
 74
0
 40
0.0
 40
0.0
 40
0.0
 40
0.0
 40
1.0
 40
1.0
 40
1.0
 40
1.0
 10
40.7543543000000099
 20
33.2237910000000056
 30
0.0
 10
41.0044678999999874
 20
33.2423921999999976
 30
0.0
 10
41.4213167000000126
 20
33.2475993000000045
 30
0.0
 10
42.1196041999999977
 20
33.2475993000000045
 30
0.0
  0
SPLINE
  5
C0
  8
Engrave1
 62
7
370
-1
  6
ByLayer
100
AcDbEntity
100
AcDbSpline
 70
8
 71
3
 72
8
 73
4
 74
0
 40
0.0
 40
0.0
 40
0.0
 40
0.0
 40
1.0
 40
1.0
 40
1.0
 40
1.0
 10
42.1196041999999977
 20
33.2475993000000045
 30
0.0
 10
42.9433387999999852
 20
33.2475993000000045
 30
0.0
 10
43.3577729000000005
 20
33.2467527000000018
 30
0.0
 10
43.6012708999999958
 20
33.2740662000000071
 30
0.0
  0
SPLINE
  5
C1
  8
Engrave1
 62
7
370
-1
  6
ByLayer
100
AcDbEntity
100
AcDbSpline
 70
8
 71
3
 72
8
 73
4
 74
0
 40
0.0
 40
0.0
 40
0.0
 40
0.0
 40
1.0
 40
1.0
 40
1.0
 40
1.0
 10
43.6012708999999958
 20
33.2740662000000071
 30
0.0
 10
43.8447688999999983
 20
33.3011424000000034
 30
0.0
 10
43.9122862999999981
 20
33.3502490999999992
 30
0.0
 10
44.0695831999999967
 20
33.4592657999999972
 30
0.0
  0
SPLINE
  5
C2
  8
Engrave1
 62
7
370
-1
  6
ByLayer
100
AcDbEntity
100
AcDbSpline
 70
8
 71
3
 72
8
 73
4
 74
0
 40
0.0
 40
0.0
 40
0.0
 40
0.0
 40
1.0
 40
1.0
 40
1.0
 40
1.0
 10
44.0695831999999967
 20
33.4592657999999972
 30
0.0
 10
44.2186076000000057
 20
33.562542300000004
 30
0.0
 10
44.3112295999999972
 20
33.6205049999999943
 30
0.0
 10
44.4214792999999943
 20
33.6391827000000063
 30
0.0
  0
SPLINE
  5
C3
  8
Engrave1
 62
7
370
-1
  6
ByLayer
100
AcDbEntity
100
AcDbSpline
 70
8
 71
3
 72
8
 73
4
 74
0
 40
0.0
 40
0.0
 40
0.0
 40
0.0
 40
1.0
 40
1.0
 40
1.0
 40
1.0
 10
44.4214792999999943
 20
33.6391827000000063
 30
0.0
 10
44.5317286999999951
 20
33.6578684999999922
 30
0.0
 10
44.6498126000000042
 20
33.6351185999999984
 30
0.0
 10
44.8527500000000003
 20
33.5915660999999943
 30
0.0
  0
SPLINE
  5
C4
  8
Engrave1
 62
7
370
-1
  6
ByLayer
100
AcDbEntity
100
AcDbSpline
 70
8
 71
3
 72
8
 73
4
 74
0
 40
0.0
 40
0.0
 40
0.0
 40
0.0
 40
1.0
 40
1.0
 40
1.0
 40
1.0
 10
44.8527500000000003
 20
33.5915660999999943
 30
0.0
 10
45.0826105999999953
 20
33.542264700000004
 30
0.0
 10
45.6145501999999965
 20
33.5015994000000035
 30
0.0
 10
46.0222081999999872
 20
33.5015994000000035
 30
0.0
  0
SPLINE
  5
C5
  8
Engrave1
 62
7
370
-1
  6
ByLayer
100
AcDbEntity
100
AcDbSpline
 70
8
 71
3
 72
8
 73
4
 74
0
 40
0.0
 40
0.0
 40
0.0
 40
0.0
 40
1.0
 40
1.0
 40
1.0
 40
1.0
 10
46.0222081999999872
 20
33.5015994000000035
 30
0.0
 10
46.3350389000000078
 20
33.5015994000000035
 30
0.0
 10
46.5299839999999918
 20
33.508880700000006
 30
0.0
 10
46.6651456999999965
 20
33.5333492999999976
 30
0.0
  0
SPLINE
  5
C6
  8
Engrave1
 62
7
370
-1
  6
ByLayer
100
AcDbEntity
100
AcDbSpline
 70
8
 71
3
 72
8
 73
4
 74
0
 40
0.0
 40
0.0
 40
0.0
 40
0.0
 40
1.0
 40
1.0
 40
1.0
 40
1.0
 10
46.6651456999999965
 20
33.5333492999999976
 30
0.0
 10
46.8003077000000047
 20
33.5578179000000034
 30
0.0
 10
46.8765211999999991
 20
33.5972979000000009
 30
0.0
 10
46.9667708000000061
 20
33.6682911000000047
 30
0.0
  0
SPLINE
  5
C7
  8
Engrave1
 62
7
370
-1
  6
ByLayer
100
AcDbEntity
100
AcDbSpline
 70
8
 71
3
 72
8
 73
4
 74
0
 40
0.0
 40
0.0
 40
0.0
 40
0.0
 40
1.0
 40
1.0
 40
1.0
 40
1.0
 10
46.9667708000000061
 20
33.6682911000000047
 30
0.0
 10
47.023766600000009
 20
33.7131219000000044
 30
0.0
 10
47.07710509999999
 20
33.7732098000000036
 30
0.0
 10
47.1149374999999964
 20
33.8323326000000009
 30
0.0
  0
SPLINE
  5
C8
  8
Engrave1
 62
7
370
-1
  6
ByLayer
100
AcDbEntity
100
AcDbSpline
 70
8
 71
3
 72
8
 73
4
 74
0
 40
0.0
 40
0.0
 40
0.0
 40
0.0
 40
1.0
 40
1.0
 40
1.0
 40
1.0
 10
47.1149374999999964
 20
33.8323326000000009
 30
0.0
 10
47.1527698999999885
 20
33.8914553999999981
 30
0.0
 10
47.1731458999999944
 20
33.9504002999999983
 30
0.0
 10
47.1731458999999873
 20
33.983149499999989
 30
0.0
  0
SPLINE
  5
C9
  8
Engrave1
 62
7
370
-1
  6
ByLayer
100
AcDbEntity
100
AcDbSpline
 70
8
 71
3
 72
8
 73
4
 74
0
 40
0.0
 40
0.0
 40
0.0
 40
0.0
 40
1.0
 40
1.0
 40
1.0
 40
1.0
 10
47.1731458999999873
 20
33.983149499999989
 30
0.0
 10
47.1731458999999944
 20
34.0462938000000008
 30
0.0
 10
47.2034980999999974
 20
34.1205209999999965
 30
0.0
 10
47.2472290999999913
 20
34.2053994000000046
 30
0.0
  0
SPLINE
  5
CA
  8
Engrave1
 62
7
370
-1
  6
ByLayer
100
AcDbEntity
100
AcDbSpline
 70
8
 71
3
 72
8
 73
4
 74
0
 40
0.0
 40
0.0
 40
0.0
 40
0.0
 40
1.0
 40
1.0
 40
1.0
 40
1.0
 10
47.2472290999999913
 20
34.2053994000000046
 30
0.0
 10
47.2909603999999959
 20
34.2902693999999997
 30
0.0
 10
47.350270100000003
 20
34.3826913000000047
 30
0.0
 10
47.416562600000006
 20
34.4620409999999993
 30
0.0
  0
SPLINE
  5
CB
  8
Engrave1
 62
7
370
-1
  6
ByLayer
100
AcDbEntity
100
AcDbSpline
 70
8
 71
3
 72
8
 73
4
 74
0
 40
0.0
 40
0.0
 40
0.0
 40
0.0
 40
1.0
 40
1.0
 40
1.0
 40
1.0
 10
47.416562600000006
 20
34.4620409999999993
 30
0.0
 10
47.6894599999999969
 20
34.788693600000002
 30
0.0
 10
47.8741054999999918
 20
35.0205530999999937
 30
0.0
 10
47.9880625999999992
 20
35.181707700000004
 30
0.0
  0
SPLINE
  5
CC
  8
Engrave1
 62
7
370
-1
  6
ByLayer
100
AcDbEntity
100
AcDbSpline
 70
8
 71
3
 72
8
 73
4
 74
0
 40
0.0
 40
0.0
 40
0.0
 40
0.0
 40
1.0
 40
1.0
 40
1.0
 40
1.0
 10
47.9880625999999992
 20
35.181707700000004
 30
0.0
 10
48.0450415999999905
 20
35.2622849999999985
 30
0.0
 10
48.0836086999999992
 20
35.3250821999999971
 30
0.0
 10
48.1071251000000046
 20
35.3722077000000041
 30
0.0
  0
SPLINE
  5
CD
  8
Engrave1
 62
7
370
-1
  6
ByLayer
100
AcDbEntity
100
AcDbSpline
 70
8
 71
3
 72
8
 73
4
 74
0
 40
0.0
 40
0.0
 40
0.0
 40
0.0
 40
1.0
 40
1.0
 40
1.0
 40
1.0
 10
48.1071251000000046
 20
35.3722077000000041
 30
0.0
 10
48.1306412000000066
 20
35.419333199999997
 30
0.0
 10
48.1373806999999942
 20
35.4514302000000043
 30
0.0
 10
48.1362293000000037
 20
35.4621659999999963
 30
0.0
  0
SPLINE
  5
CE
  8
Engrave1
 62
7
370
-1
  6
ByLayer
100
AcDbEntity
100
AcDbSpline
 70
8
 71
3
 72
8
 73
4
 74
0
 40
0.0
 40
0.0
 40
0.0
 40
0.0
 40
1.0
 40
1.0
 40
1.0
 40
1.0
 10
48.1362293000000037
 20
35.4621659999999963
 30
0.0
 10
48.1324106
 20
35.497725900000006
 30
0.0
 10
48.134713700000006
 20
35.5374599999999958
 30
0.0
 10
48.1626875000000041
 20
35.567999400000005
 30
0.0
  0
SPLINE
  5
CF
  8
Engrave1
 62
7
370
-1
  6
ByLayer
100
AcDbEntity
100
AcDbSpline
 70
8
 71
3
 72
8
 73
4
 74
0
 40
0.0
 40
0.0
 40
0.0
 40
0.0
 40
1.0
 40
1.0
 40
1.0
 40
1.0
 10
48.1626875000000041
 20
35.567999400000005
 30
0.0
 10
48.1906630999999948
 20
35.5985385000000036
 30
0.0
 10
48.2313125000000014
 20
35.6100533999999982
 30
0.0
 10
48.2896874000000054
 20
35.6182658999999973
 30
0.0
  0
SPLINE
  5
D0
  8
Engrave1
 62
7
370
-1
  6
ByLayer
100
AcDbEntity
100
AcDbSpline
 70
8
 71
3
 72
8
 73
4
 74
0
 40
0.0
 40
0.0
 40
0.0
 40
0.0
 40
1.0
 40
1.0
 40
1.0
 40
1.0
 10
48.2896874000000054
 20
35.6182658999999973
 30
0.0
 10
48.406437799999992
 20
35.6346996000000047
 30
0.0
 10
48.6066412999999926
 20
35.6303055000000057
 30
0.0
 10
48.972312500000001
 20
35.6182658999999973
 30
0.0
  0
SPLINE
  5
D1
  8
Engrave1
 62
7
370
-1
  6
ByLayer
100
AcDbEntity
100
AcDbSpline
 70
8
 71
3
 72
8
 73
4
 74
0
 40
0.0
 40
0.0
 40
0.0
 40
0.0
 40
1.0
 40
1.0
 40
1.0
 40
1.0
 10
48.972312500000001
 20
35.6182658999999973
 30
0.0
 10
49.3843555999999921
 20
35.6046939000000009
 30
0.0
 10
49.5456752000000051
 20
35.6385522000000066
 30
0.0
 10
49.7740000999999879
 20
35.7796658999999977
 30
0.0
  0
SPLINE
  5
D2
  8
Engrave1
 62
7
370
-1
  6
ByLayer
100
AcDbEntity
100
AcDbSpline
 70
8
 71
3
 72
8
 73
4
 74
0
 40
0.0
 40
0.0
 40
0.0
 40
0.0
 40
1.0
 40
1.0
 40
1.0
 40
1.0
 10
49.7740000999999879
 20
35.7796658999999977
 30
0.0
 10
49.911878900000012
 20
35.8648830000000132
 30
0.0
 10
49.9943221999999921
 20
35.9424800999999974
 30
0.0
 10
50.0253541999999953
 20
36.0019161000000025
 30
0.0
  0
SPLINE
  5
D3
  8
Engrave1
 62
7
370
-1
  6
ByLayer
100
AcDbEntity
100
AcDbSpline
 70
8
 71
3
 72
8
 73
4
 74
0
 40
0.0
 40
0.0
 40
0.0
 40
0.0
 40
1.0
 40
1.0
 40
1.0
 40
1.0
 10
50.0253541999999953
 20
36.0019161000000025
 30
0.0
 10
50.0408702000000076
 20
36.0316341000000051
 30
0.0
 10
50.0452382
 20
36.0555099000000041
 30
0.0
 10
50.0412292999999977
 20
36.0759993000000065
 30
0.0
  0
SPLINE
  5
D4
  8
Engrave1
 62
7
370
-1
  6
ByLayer
100
AcDbEntity
100
AcDbSpline
 70
8
 71
3
 72
8
 73
4
 74
0
 40
0.0
 40
0.0
 40
0.0
 40
0.0
 40
1.0
 40
1.0
 40
1.0
 40
1.0
 10
50.0412292999999977
 20
36.0759993000000065
 30
0.0
 10
50.0372243000000054
 20
36.0964886999999948
 30
0.0
 10
50.0240555000000029
 20
36.1178414999999973
 30
0.0
 10
49.9988956999999985
 20
36.1394994000000054
 30
0.0
  0
SPLINE
  5
D5
  8
Engrave1
 62
7
370
-1
  6
ByLayer
100
AcDbEntity
100
AcDbSpline
 70
8
 71
3
 72
8
 73
4
 74
0
 40
0.0
 40
0.0
 40
0.0
 40
0.0
 40
1.0
 40
1.0
 40
1.0
 40
1.0
 10
49.9988956999999985
 20
36.1394994000000054
 30
0.0
 10
49.9485766999999967
 20
36.1828061999999946
 30
0.0
 10
49.8477328999999898
 20
36.2229300000000052
 30
0.0
 10
49.6972709000000066
 20
36.2506242000000043
 30
0.0
  0
SPLINE
  5
D6
  8
Engrave1
 62
7
370
-1
  6
ByLayer
100
AcDbEntity
100
AcDbSpline
 70
8
 71
3
 72
8
 73
4
 74
0
 40
0.0
 40
0.0
 40
0.0
 40
0.0
 40
1.0
 40
1.0
 40
1.0
 40
1.0
 10
49.6972709000000066
 20
36.2506242000000043
 30
0.0
 10
49.5468088999999878
 20
36.2783186999999927
 30
0.0
 10
49.3479157999999885
 20
36.2955992999999992
 30
0.0
 10
49.1072501000000017
 20
36.2955993000000063
 30
0.0
  0
SPLINE
  5
D7
  8
Engrave1
 62
7
370
-1
  6
ByLayer
100
AcDbEntity
100
AcDbSpline
 70
8
 71
3
 72
8
 73
4
 74
0
 40
0.0
 40
0.0
 40
0.0
 40
0.0
 40
1.0
 40
1.0
 40
1.0
 40
1.0
 10
49.1072501000000017
 20
36.2955993000000063
 30
0.0
 10
48.799355300000002
 20
36.2955993000000063
 30
0.0
 10
48.0896362999999951
 20
36.3364509000000027
 30
0.0
 10
47.522395699999997
 20
36.3882077999999964
 30
0.0
  0
SPLINE
  5
D8
  8
Engrave1
 62
7
370
-1
  6
ByLayer
100
AcDbEntity
100
AcDbSpline
 70
8
 71
3
 72
8
 73
4
 74
0
 40
0.0
 40
0.0
 40
0.0
 40
0.0
 40
1.0
 40
1.0
 40
1.0
 40
1.0
 10
47.522395699999997
 20
36.3882077999999964
 30
0.0
 10
47.2025734999999997
 20
36.4173923999999971
 30
0.0
 10
46.9599475999999925
 20
36.4418100000000038
 30
0.0
 10
46.7789168000000117
 20
36.4728743999999949
 30
0.0
  0
SPLINE
  5
D9
  8
Engrave1
 62
7
370
-1
  6
ByLayer
100
AcDbEntity
100
AcDbSpline
 70
8
 71
3
 72
8
 73
4
 74
0
 40
0.0
 40
0.0
 40
0.0
 40
0.0
 40
1.0
 40
1.0
 40
1.0
 40
1.0
 10
46.7789168000000117
 20
36.4728743999999949
 30
0.0
 10
46.5978856999999991
 20
36.5039385000000038
 30
0.0
 10
46.4754982999999982
 20
36.5405484000000058
 30
0.0
 10
46.3979168000000115
 20
36.607816200000002
 30
0.0
  0
SPLINE
  5
DA
  8
Engrave1
 62
7
370
-1
  6
ByLayer
100
AcDbEntity
100
AcDbSpline
 70
8
 71
3
 72
8
 73
4
 74
0
 40
0.0
 40
0.0
 40
0.0
 40
0.0
 40
1.0
 40
1.0
 40
1.0
 40
1.0
 10
46.3979168000000115
 20
36.607816200000002
 30
0.0
 10
46.320335
 20
36.6750753000000032
 30
0.0
 10
46.3007116999999937
 20
36.7741520999999949
 30
0.0
 10
46.3185416000000032
 20
36.8909160000000043
 30
0.0
  0
SPLINE
  5
DB
  8
Engrave1
 62
7
370
-1
  6
ByLayer
100
AcDbEntity
100
AcDbSpline
 70
8
 71
3
 72
8
 73
4
 74
0
 40
0.0
 40
0.0
 40
0.0
 40
0.0
 40
1.0
 40
1.0
 40
1.0
 40
1.0
 10
46.3185416000000032
 20
36.8909160000000043
 30
0.0
 10
46.3363714999999985
 20
37.0076798999999994
 30
0.0
 10
46.3882748000000049
 20
37.1507663999999949
 30
0.0
 10
46.4587708999999975
 20
37.3380659999999978
 30
0.0
  0
SPLINE
  5
DC
  8
Engrave1
 62
7
370
-1
  6
ByLayer
100
AcDbEntity
100
AcDbSpline
 70
8
 71
3
 72
8
 73
4
 74
0
 40
0.0
 40
0.0
 40
0.0
 40
0.0
 40
1.0
 40
1.0
 40
1.0
 40
1.0
 10
46.4587708999999975
 20
37.3380659999999978
 30
0.0
 10
46.5653440999999972
 20
37.6212000000000018
 30
0.0
 10
46.613343499999992
 20
37.8040122000000025
 30
0.0
 10
46.6069375999999949
 20
37.9227908999999954
 30
0.0
  0
SPLINE
  5
DD
  8
Engrave1
 62
7
370
-1
  6
ByLayer
100
AcDbEntity
100
AcDbSpline
 70
8
 71
3
 72
8
 73
4
 74
0
 40
0.0
 40
0.0
 40
0.0
 40
0.0
 40
1.0
 40
1.0
 40
1.0
 40
1.0
 10
46.6069375999999949
 20
37.9227908999999954
 30
0.0
 10
46.600528099999984
 20
38.0415698999999989
 30
0.0
 10
46.5492880999999912
 20
38.0995410000000021
 30
0.0
 10
46.4296666999999985
 20
38.163566099999997
 30
0.0
  0
SPLINE
  5
DE
  8
Engrave1
 62
7
370
-1
  6
ByLayer
100
AcDbEntity
100
AcDbSpline
 70
8
 71
3
 72
8
 73
4
 74
0
 40
0.0
 40
0.0
 40
0.0
 40
0.0
 40
1.0
 40
1.0
 40
1.0
 40
1.0
 10
46.4296666999999985
 20
38.163566099999997
 30
0.0
 10
46.3177873999999932
 20
38.2234337999999951
 30
0.0
 10
46.2398795000000007
 20
38.2273538999999971
 30
0.0
 10
46.1439167000000054
 20
38.1609413999999987
 30
0.0
  0
SPLINE
  5
DF
  8
Engrave1
 62
7
370
-1
  6
ByLayer
100
AcDbEntity
100
AcDbSpline
 70
8
 71
3
 72
8
 73
4
 74
0
 40
0.0
 40
0.0
 40
0.0
 40
0.0
 40
1.0
 40
1.0
 40
1.0
 40
1.0
 10
46.1439167000000054
 20
38.1609413999999987
 30
0.0
 10
46.0479538999999889
 20
38.0945034000000007
 30
0.0
 10
45.9382358000000011
 20
37.9488261000000051
 30
0.0
 10
45.8026042999999916
 20
37.7085081000000031
 30
0.0
  0
SPLINE
  5
E0
  8
Engrave1
 62
7
370
-1
  6
ByLayer
100
AcDbEntity
100
AcDbSpline
 70
8
 71
3
 72
8
 73
4
 74
0
 40
0.0
 40
0.0
 40
0.0
 40
0.0
 40
1.0
 40
1.0
 40
1.0
 40
1.0
 10
45.8026042999999916
 20
37.7085081000000031
 30
0.0
 10
45.595408699999993
 20
37.3413680999999968
 30
0.0
 10
45.2475658999999979
 20
36.9695543999999927
 30
0.0
 10
44.9109583999999984
 20
36.7083747000000074
 30
0.0
  0
SPLINE
  5
E1
  8
Engrave1
 62
7
370
-1
  6
ByLayer
100
AcDbEntity
100
AcDbSpline
 70
8
 71
3
 72
8
 73
4
 74
0
 40
0.0
 40
0.0
 40
0.0
 40
0.0
 40
1.0
 40
1.0
 40
1.0
 40
1.0
 10
44.9109583999999984
 20
36.7083747000000074
 30
0.0
 10
44.7426545000000004
 20
36.5777934000000045
 30
0.0
 10
44.5779296000000045
 20
36.475371899999999
 30
0.0
 10
44.4320623999999995
 20
36.4146915000000035
 30
0.0
  0
SPLINE
  5
E2
  8
Engrave1
 62
7
370
-1
  6
ByLayer
100
AcDbEntity
100
AcDbSpline
 70
8
 71
3
 72
8
 73
4
 74
0
 40
0.0
 40
0.0
 40
0.0
 40
0.0
 40
1.0
 40
1.0
 40
1.0
 40
1.0
 10
44.4320623999999995
 20
36.4146915000000035
 30
0.0
 10
44.286195499999998
 20
36.3540107999999975
 30
0.0
 10
44.1554726000000031
 20
36.3300416999999953
 30
0.0
 10
44.0590001000000058
 20
36.3829412999999988
 30
0.0
  0
SPLINE
  5
E3
  8
Engrave1
 62
7
370
-1
  6
ByLayer
100
AcDbEntity
100
AcDbSpline
 70
8
 71
3
 72
8
 73
4
 74
0
 40
0.0
 40
0.0
 40
0.0
 40
0.0
 40
1.0
 40
1.0
 40
1.0
 40
1.0
 10
44.0590001000000058
 20
36.3829412999999988
 30
0.0
 10
44.0191856000000001
 20
36.4047767999999934
 30
0.0
 10
43.8968963000000088
 20
36.4371194999999943
 30
0.0
 10
43.7203333999999941
 20
36.4623165
 30
0.0
  0
SPLINE
  5
E4
  8
Engrave1
 62
7
370
-1
  6
ByLayer
100
AcDbEntity
100
AcDbSpline
 70
8
 71
3
 72
8
 73
4
 74
0
 40
0.0
 40
0.0
 40
0.0
 40
0.0
 40
1.0
 40
1.0
 40
1.0
 40
1.0
 10
43.7203333999999941
 20
36.4623165
 30
0.0
 10
43.5437701999999973
 20
36.4875131999999951
 30
0.0
 10
43.3111181000000016
 20
36.5105340000000069
 30
0.0
 10
43.0377083000000056
 20
36.5311080000000032
 30
0.0
  0
SPLINE
  5
E5
  8
Engrave1
 62
7
370
-1
  6
ByLayer
100
AcDbEntity
100
AcDbSpline
 70
8
 71
3
 72
8
 73
4
 74
0
 40
0.0
 40
0.0
 40
0.0
 40
0.0
 40
1.0
 40
1.0
 40
1.0
 40
1.0
 10
43.0377083000000056
 20
36.5311080000000032
 30
0.0
 10
42.4908896000000027
 20
36.5722559999999959
 30
0.0
 10
41.779721600000002
 20
36.6030831000000063
 30
0.0
 10
41.018937500000014
 20
36.6210662999999954
 30
0.0
  0
SPLINE
  5
E6
  8
Engrave1
 62
7
370
-1
  6
ByLayer
100
AcDbEntity
100
AcDbSpline
 70
8
 71
3
 72
8
 73
4
 74
0
 40
0.0
 40
0.0
 40
0.0
 40
0.0
 40
1.0
 40
1.0
 40
1.0
 40
1.0
 10
41.018937500000014
 20
36.6210662999999954
 30
0.0
 10
39.4973690000000133
 20
36.6570413999999971
 30
0.0
 10
37.775464999999997
 20
36.6410645999999929
 30
0.0
 10
36.7644374000000056
 20
36.5522748000000064
 30
0.0
  0
SPLINE
  5
E7
  8
Engrave1
 62
7
370
-1
  6
ByLayer
100
AcDbEntity
100
AcDbSpline
 70
8
 71
3
 72
8
 73
4
 74
0
 40
0.0
 40
0.0
 40
0.0
 40
0.0
 40
1.0
 40
1.0
 40
1.0
 40
1.0
 10
36.7644374000000056
 20
36.5522748000000064
 30
0.0
 10
36.2514938000000058
 20
36.5072406000000029
 30
0.0
 10
35.4694700000000012
 20
36.4508442000000059
 30
0.0
 10
35.0261248999999921
 20
36.4279247999999995
 30
0.0
  0
SPLINE
  5
E8
  8
Engrave1
 62
7
370
-1
  6
ByLayer
100
AcDbEntity
100
AcDbSpline
 70
8
 71
3
 72
8
 73
4
 74
0
 40
0.0
 40
0.0
 40
0.0
 40
0.0
 40
1.0
 40
1.0
 40
1.0
 40
1.0
 10
35.0261248999999921
 20
36.4279247999999995
 30
0.0
 10
32.2683268999999981
 20
36.285269999999997
 30
0.0
 10
30.8428735999999972
 20
36.1914845999999955
 30
0.0
 10
30.303312499999997
 20
36.1210080000000104
 30
0.0
  0
SPLINE
  5
E9
  8
Engrave1
 62
7
370
-1
  6
ByLayer
100
AcDbEntity
100
AcDbSpline
 70
8
 71
3
 72
8
 73
4
 74
0
 40
0.0
 40
0.0
 40
0.0
 40
0.0
 40
1.0
 40
1.0
 40
1.0
 40
1.0
 10
30.303312499999997
 20
36.1210080000000104
 30
0.0
 10
29.3101858999999934
 20
35.9912819999999982
 30
0.0
 10
28.5418970000000058
 20
36.0182480999999939
 30
0.0
 10
28.0808126000000016
 20
36.2056749000000053
 30
0.0
  0
SPLINE
  5
EA
  8
Engrave1
 62
7
370
-1
  6
ByLayer
100
AcDbEntity
100
AcDbSpline
 70
8
 71
3
 72
8
 73
4
 74
0
 40
0.0
 40
0.0
 40
0.0
 40
0.0
 40
1.0
 40
1.0
 40
1.0
 40
1.0
 10
28.0808126000000016
 20
36.2056749000000053
 30
0.0
 10
27.8632268000000067
 20
36.2941260000000057
 30
0.0
 10
27.6120664999999974
 20
36.3897909000000013
 30
0.0
 10
27.5278334000000058
 20
36.417341399999998
 30
0.0
  0
SPLINE
  5
EB
  8
Engrave1
 62
7
370
-1
  6
ByLayer
100
AcDbEntity
100
AcDbSpline
 70
8
 71
3
 72
8
 73
4
 74
0
 40
0.0
 40
0.0
 40
0.0
 40
0.0
 40
1.0
 40
1.0
 40
1.0
 40
1.0
 10
27.5278334000000058
 20
36.417341399999998
 30
0.0
 10
27.4891795999999999
 20
36.4299737999999991
 30
0.0
 10
27.4524409999999861
 20
36.4464414000000048
 30
0.0
 10
27.4246456999999992
 20
36.4755413999999973
 30
0.0
  0
SPLINE
  5
EC
  8
Engrave1
 62
7
370
-1
  6
ByLayer
100
AcDbEntity
100
AcDbSpline
 70
8
 71
3
 72
8
 73
4
 74
0
 40
0.0
 40
0.0
 40
0.0
 40
0.0
 40
1.0
 40
1.0
 40
1.0
 40
1.0
 10
27.4246456999999992
 20
36.4755413999999973
 30
0.0
 10
27.3968507000000017
 20
36.5046497999999957
 30
0.0
 10
27.3804031999999964
 20
36.5437995000000129
 30
0.0
 10
27.3717292999999913
 20
36.5946081000000092
 30
0.0
  0
SPLINE
  5
ED
  8
Engrave1
 62
7
370
-1
  6
ByLayer
100
AcDbEntity
100
AcDbSpline
 70
8
 71
3
 72
8
 73
4
 74
0
 40
0.0
 40
0.0
 40
0.0
 40
0.0
 40
1.0
 40
1.0
 40
1.0
 40
1.0
 10
27.3717292999999913
 20
36.5946081000000092
 30
0.0
 10
27.3543808999999882
 20
36.6962334000000041
 30
0.0
 10
27.3639229999999998
 20
36.8516984999999977
 30
0.0
 10
27.3849584000000021
 20
37.1264247000000012
 30
0.0
  0
SPLINE
  5
EE
  8
Engrave1
 62
7
370
-1
  6
ByLayer
100
AcDbEntity
100
AcDbSpline
 70
8
 71
3
 72
8
 73
4
 74
0
 40
0.0
 40
0.0
 40
0.0
 40
0.0
 40
1.0
 40
1.0
 40
1.0
 40
1.0
 10
27.3849584000000021
 20
37.1264247000000012
 30
0.0
 10
27.4728151999999994
 20
38.2738952999999924
 30
0.0
 10
27.8663441000000063
 20
38.935971600000002
 30
0.0
 10
28.8242917999999904
 20
39.5500080000000125
 30
0.0
  0
SPLINE
  5
EF
  8
Engrave1
 62
7
370
-1
  6
ByLayer
100
AcDbEntity
100
AcDbSpline
 70
8
 71
3
 72
8
 73
4
 74
0
 40
0.0
 40
0.0
 40
0.0
 40
0.0
 40
1.0
 40
1.0
 40
1.0
 40
1.0
 10
28.8242917999999904
 20
39.5500080000000125
 30
0.0
 10
29.1377776999999938
 20
39.7509390000000096
 30
0.0
 10
29.3217008000000021
 20
39.9075131999999968
 30
0.0
 10
29.4196043000000031
 20
40.0818165000000022
 30
0.0
  0
SPLINE
  5
F0
  8
Engrave1
 62
7
370
-1
  6
ByLayer
100
AcDbEntity
100
AcDbSpline
 70
8
 71
3
 72
8
 73
4
 74
0
 40
0.0
 40
0.0
 40
0.0
 40
0.0
 40
1.0
 40
1.0
 40
1.0
 40
1.0
 10
29.4196043000000031
 20
40.0818165000000022
 30
0.0
 10
29.5175074999999936
 20
40.2561197999999933
 30
0.0
 10
29.5339903999999933
 20
40.4533677000000012
 30
0.0
 10
29.4989792000000008
 20
40.7459247000000104
 30
0.0
  0
SPLINE
  5
F1
  8
Engrave1
 62
7
370
-1
  6
ByLayer
100
AcDbEntity
100
AcDbSpline
 70
8
 71
3
 72
8
 73
4
 74
0
 40
0.0
 40
0.0
 40
0.0
 40
0.0
 40
1.0
 40
1.0
 40
1.0
 40
1.0
 10
29.4989792000000008
 20
40.7459247000000104
 30
0.0
 10
29.4882841999999954
 20
40.8352649999999926
 30
0.0
 10
29.4881435000000067
 20
40.9213710000000006
 30
0.0
 10
29.4989792000000079
 20
40.9919831999999928
 30
0.0
  0
SPLINE
  5
F2
  8
Engrave1
 62
7
370
-1
  6
ByLayer
100
AcDbEntity
100
AcDbSpline
 70
8
 71
3
 72
8
 73
4
 74
0
 40
0.0
 40
0.0
 40
0.0
 40
0.0
 40
1.0
 40
1.0
 40
1.0
 40
1.0
 10
29.4989792000000079
 20
40.9919831999999928
 30
0.0
 10
29.5043978000000067
 20
41.0272889999999961
 30
0.0
 10
29.5142735000000016
 20
41.0577521999999959
 30
0.0
 10
29.5254374000000013
 20
41.0845914000000008
 30
0.0
  0
SPLINE
  5
F3
  8
Engrave1
 62
7
370
-1
  6
ByLayer
100
AcDbEntity
100
AcDbSpline
 70
8
 71
3
 72
8
 73
4
 74
0
 40
0.0
 40
0.0
 40
0.0
 40
0.0
 40
1.0
 40
1.0
 40
1.0
 40
1.0
 10
29.5254374000000013
 20
41.0845914000000008
 30
0.0
 10
29.5366015999999973
 20
41.1114221999999927
 30
0.0
 10
29.5505344999999977
 20
41.1351630000000057
 30
0.0
 10
29.5757083999999963
 20
41.1507330000000024
 30
0.0
  0
SPLINE
  5
F4
  8
Engrave1
 62
7
370
-1
  6
ByLayer
100
AcDbEntity
100
AcDbSpline
 70
8
 71
3
 72
8
 73
4
 74
0
 40
0.0
 40
0.0
 40
0.0
 40
0.0
 40
1.0
 40
1.0
 40
1.0
 40
1.0
 10
29.5757083999999963
 20
41.1507330000000024
 30
0.0
 10
29.5906477999999922
 20
41.1599616000000097
 30
0.0
 10
29.6074651999999929
 20
41.1872750999999937
 30
0.0
 10
29.6206874000000084
 20
41.22481650000001
 30
0.0
  0
SPLINE
  5
F5
  8
Engrave1
 62
7
370
-1
  6
ByLayer
100
AcDbEntity
100
AcDbSpline
 70
8
 71
3
 72
8
 73
4
 74
0
 40
0.0
 40
0.0
 40
0.0
 40
0.0
 40
1.0
 40
1.0
 40
1.0
 40
1.0
 10
29.6206874000000084
 20
41.22481650000001
 30
0.0
 10
29.6339099000000061
 20
41.2623576000000014
 30
0.0
 10
29.6427388999999977
 20
41.3100419999999957
 30
0.0
 10
29.6444998999999996
 20
41.3597579999999994
 30
0.0
  0
SPLINE
  5
F6
  8
Engrave1
 62
7
370
-1
  6
ByLayer
100
AcDbEntity
100
AcDbSpline
 70
8
 71
3
 72
8
 73
4
 74
0
 40
0.0
 40
0.0
 40
0.0
 40
0.0
 40
1.0
 40
1.0
 40
1.0
 40
1.0
 10
29.6444998999999996
 20
41.3597579999999994
 30
0.0
 10
29.6480221999999998
 20
41.4591738000000021
 30
0.0
 10
29.6212486999999953
 20
41.5625433000000015
 30
0.0
 10
29.5836457999999993
 20
41.6031746999999967
 30
0.0
  0
SPLINE
  5
F7
  8
Engrave1
 62
7
370
-1
  6
ByLayer
100
AcDbEntity
100
AcDbSpline
 70
8
 71
3
 72
8
 73
4
 74
0
 40
0.0
 40
0.0
 40
0.0
 40
0.0
 40
1.0
 40
1.0
 40
1.0
 40
1.0
 10
29.5836457999999993
 20
41.6031746999999967
 30
0.0
 10
29.5522648999999973
 20
41.6370837000000122
 30
0.0
 10
29.5269980000000061
 20
41.6949618000000015
 30
0.0
 10
29.493687499999993
 20
41.7725082000000043
 30
0.0
  0
SPLINE
  5
F8
  8
Engrave1
 62
7
370
-1
  6
ByLayer
100
AcDbEntity
100
AcDbSpline
 70
8
 71
3
 72
8
 73
4
 74
0
 40
0.0
 40
0.0
 40
0.0
 40
0.0
 40
1.0
 40
1.0
 40
1.0
 40
1.0
 10
29.493687499999993
 20
41.7725082000000043
 30
0.0
 10
29.4603770000000083
 20
41.8500458999999978
 30
0.0
 10
29.4252887000000101
 20
41.9451351000000017
 30
0.0
 10
29.3957918000000049
 20
42.0397332000000077
 30
0.0
  0
SPLINE
  5
F9
  8
Engrave1
 62
7
370
-1
  6
ByLayer
100
AcDbEntity
100
AcDbSpline
 70
8
 71
3
 72
8
 73
4
 74
0
 40
0.0
 40
0.0
 40
0.0
 40
0.0
 40
1.0
 40
1.0
 40
1.0
 40
1.0
 10
29.3957918000000049
 20
42.0397332000000077
 30
0.0
 10
29.3191733000000028
 20
42.2854695000000049
 30
0.0
 10
29.0899265000000042
 20
42.7642596000000026
 30
0.0
 10
28.850750000000005
 20
43.2118415999999996
 30
0.0
  0
SPLINE
  5
FA
  8
Engrave1
 62
7
370
-1
  6
ByLayer
100
AcDbEntity
100
AcDbSpline
 70
8
 71
3
 72
8
 73
4
 74
0
 40
0.0
 40
0.0
 40
0.0
 40
0.0
 40
1.0
 40
1.0
 40
1.0
 40
1.0
 10
28.850750000000005
 20
43.2118415999999996
 30
0.0
 10
28.7311616000000072
 20
43.435623899999996
 30
0.0
 10
28.6099343000000061
 20
43.6516340999999954
 30
0.0
 10
28.5014998999999989
 20
43.8283164000000056
 30
0.0
  0
SPLINE
  5
FB
  8
Engrave1
 62
7
370
-1
  6
ByLayer
100
AcDbEntity
100
AcDbSpline
 70
8
 71
3
 72
8
 73
4
 74
0
 40
0.0
 40
0.0
 40
0.0
 40
0.0
 40
1.0
 40
1.0
 40
1.0
 40
1.0
 10
28.5014998999999989
 20
43.8283164000000056
 30
0.0
 10
28.3930658000000022
 20
44.0049987000000016
 30
0.0
 10
28.2980993000000041
 20
44.1452916000000144
 30
0.0
 10
28.239562399999997
 20
44.2066748999999959
 30
0.0
  0
SPLINE
  5
FC
  8
Engrave1
 62
7
370
-1
  6
ByLayer
100
AcDbEntity
100
AcDbSpline
 70
8
 71
3
 72
8
 73
4
 74
0
 40
0.0
 40
0.0
 40
0.0
 40
0.0
 40
1.0
 40
1.0
 40
1.0
 40
1.0
 10
28.239562399999997
 20
44.2066748999999959
 30
0.0
 10
28.1216303000000067
 20
44.330347500000002
 30
0.0
 10
27.8552207000000038
 20
44.5315406999999936
 30
0.0
 10
27.6601249999999936
 20
44.6458746000000062
 30
0.0
  0
SPLINE
  5
FD
  8
Engrave1
 62
7
370
-1
  6
ByLayer
100
AcDbEntity
100
AcDbSpline
 70
8
 71
3
 72
8
 73
4
 74
0
 40
0.0
 40
0.0
 40
0.0
 40
0.0
 40
1.0
 40
1.0
 40
1.0
 40
1.0
 10
27.6601249999999936
 20
44.6458746000000062
 30
0.0
 10
27.5579069000000061
 20
44.7057848999999976
 30
0.0
 10
27.4667717000000096
 20
44.7753045000000114
 30
0.0
 10
27.3981875000000059
 20
44.8390248000000042
 30
0.0
  0
SPLINE
  5
FE
  8
Engrave1
 62
7
370
-1
  6
ByLayer
100
AcDbEntity
100
AcDbSpline
 70
8
 71
3
 72
8
 73
4
 74
0
 40
0.0
 40
0.0
 40
0.0
 40
0.0
 40
1.0
 40
1.0
 40
1.0
 40
1.0
 10
27.3981875000000059
 20
44.8390248000000042
 30
0.0
 10
27.3638957000000005
 20
44.8708847999999989
 30
0.0
 10
27.3343852999999939
 20
44.8999086000000105
 30
0.0
 10
27.3135209000000003
 20
44.9289830999999964
 30
0.0
  0
SPLINE
  5
FF
  8
Engrave1
 62
7
370
-1
  6
ByLayer
100
AcDbEntity
100
AcDbSpline
 70
8
 71
3
 72
8
 73
4
 74
0
 40
0.0
 40
0.0
 40
0.0
 40
0.0
 40
1.0
 40
1.0
 40
1.0
 40
1.0
 10
27.3135209000000003
 20
44.9289830999999964
 30
0.0
 10
27.2926564999999925
 20
44.9580576000000107
 30
0.0
 10
27.2764793000000054
 20
44.9850156000000041
 30
0.0
 10
27.2764793000000054
 20
45.0189413999999957
 30
0.0
  0
SPLINE
  5
100
  8
Engrave1
 62
7
370
-1
  6
ByLayer
100
AcDbEntity
100
AcDbSpline
 70
8
 71
3
 72
8
 73
4
 74
0
 40
0.0
 40
0.0
 40
0.0
 40
0.0
 40
1.0
 40
1.0
 40
1.0
 40
1.0
 10
27.2764793000000054
 20
45.0189413999999957
 30
0.0
 10
27.2764793000000054
 20
45.0762522000000061
 30
0.0
 10
27.2988497000000052
 20
45.1539171000000081
 30
0.0
 10
27.3346874000000071
 20
45.2517746999999986
 30
0.0
  0
SPLINE
  5
101
  8
Engrave1
 62
7
370
-1
  6
ByLayer
100
AcDbEntity
100
AcDbSpline
 70
8
 71
3
 72
8
 73
4
 74
0
 40
0.0
 40
0.0
 40
0.0
 40
0.0
 40
1.0
 40
1.0
 40
1.0
 40
1.0
 10
27.3346874000000071
 20
45.2517746999999986
 30
0.0
 10
27.3705251000000089
 20
45.3496326000000067
 30
0.0
 10
27.420513200000002
 20
45.4650840000000116
 30
0.0
 10
27.4802084000000093
 20
45.5904414000000102
 30
0.0
  0
SPLINE
  5
102
  8
Engrave1
 62
7
370
-1
  6
ByLayer
100
AcDbEntity
100
AcDbSpline
 70
8
 71
3
 72
8
 73
4
 74
0
 40
0.0
 40
0.0
 40
0.0
 40
0.0
 40
1.0
 40
1.0
 40
1.0
 40
1.0
 10
27.4802084000000093
 20
45.5904414000000102
 30
0.0
 10
27.5995994000000024
 20
45.8411648999999954
 30
0.0
 10
27.7560404000000034
 20
46.1267964000000035
 30
0.0
 10
27.9061874000000074
 20
46.3524414000000107
 30
0.0
  0
SPLINE
  5
103
  8
Engrave1
 62
7
370
-1
  6
ByLayer
100
AcDbEntity
100
AcDbSpline
 70
8
 71
3
 72
8
 73
4
 74
0
 40
0.0
 40
0.0
 40
0.0
 40
0.0
 40
1.0
 40
1.0
 40
1.0
 40
1.0
 10
27.9061874000000074
 20
46.3524414000000107
 30
0.0
 10
28.3752331999999967
 20
47.0573253000000022
 30
0.0
 10
28.8189517999999936
 20
47.3985911999999985
 30
0.0
 10
30.0942916999999994
 20
48.0484248000000065
 30
0.0
  0
SPLINE
  5
104
  8
Engrave1
 62
7
370
-1
  6
ByLayer
100
AcDbEntity
100
AcDbSpline
 70
8
 71
3
 72
8
 73
4
 74
0
 40
0.0
 40
0.0
 40
0.0
 40
0.0
 40
1.0
 40
1.0
 40
1.0
 40
1.0
 10
30.0942916999999994
 20
48.0484248000000065
 30
0.0
 10
31.6103914999999915
 20
48.8209236000000004
 30
0.0
 10
32.2959773000000041
 20
49.2644921999999994
 30
0.0
 10
32.8247917999999999
 20
49.8105414000000053
 30
0.0
  0
SPLINE
  5
105
  8
Engrave1
 62
7
370
-1
  6
ByLayer
100
AcDbEntity
100
AcDbSpline
 70
8
 71
3
 72
8
 73
4
 74
0
 40
0.0
 40
0.0
 40
0.0
 40
0.0
 40
1.0
 40
1.0
 40
1.0
 40
1.0
 10
32.8247917999999999
 20
49.8105414000000053
 30
0.0
 10
33.081537499999996
 20
50.0756663999999958
 30
0.0
 10
33.1948103000000003
 20
50.2604769000000076
 30
0.0
 10
33.1846249999999969
 20
50.392624799999993
 30
0.0
  0
SPLINE
  5
106
  8
Engrave1
 62
7
370
-1
  6
ByLayer
100
AcDbEntity
100
AcDbSpline
 70
8
 71
3
 72
8
 73
4
 74
0
 40
0.0
 40
0.0
 40
0.0
 40
0.0
 40
1.0
 40
1.0
 40
1.0
 40
1.0
 10
33.1846249999999969
 20
50.392624799999993
 30
0.0
 10
33.1795280000000048
 20
50.458707000000004
 30
0.0
 10
33.1461946999999952
 20
50.5166105999999928
 30
0.0
 10
33.0761459000000002
 20
50.580483000000001
 30
0.0
  0
SPLINE
  5
107
  8
Engrave1
 62
7
370
-1
  6
ByLayer
100
AcDbEntity
100
AcDbSpline
 70
8
 71
3
 72
8
 73
4
 74
0
 40
0.0
 40
0.0
 40
0.0
 40
0.0
 40
1.0
 40
1.0
 40
1.0
 40
1.0
 10
33.0761459000000002
 20
50.580483000000001
 30
0.0
 10
33.0060967999999946
 20
50.6443557000000126
 30
0.0
 10
32.8993052000000006
 20
50.7095489999999884
 30
0.0
 10
32.7560000000000002
 20
50.7789248999999927
 30
0.0
  0
SPLINE
  5
108
  8
Engrave1
 62
7
370
-1
  6
ByLayer
100
AcDbEntity
100
AcDbSpline
 70
8
 71
3
 72
8
 73
4
 74
0
 40
0.0
 40
0.0
 40
0.0
 40
0.0
 40
1.0
 40
1.0
 40
1.0
 40
1.0
 10
32.7560000000000002
 20
50.7789248999999927
 30
0.0
 10
32.4264893000000001
 20
50.9384282999999911
 30
0.0
 10
32.2919531000000006
 20
50.9578170000000128
 30
0.0
 10
31.6976666000000051
 20
50.9217912000000013
 30
0.0
  0
SPLINE
  5
109
  8
Engrave1
 62
7
370
-1
  6
ByLayer
100
AcDbEntity
100
AcDbSpline
 70
8
 71
3
 72
8
 73
4
 74
0
 40
0.0
 40
0.0
 40
0.0
 40
0.0
 40
1.0
 40
1.0
 40
1.0
 40
1.0
 10
31.6976666000000051
 20
50.9217912000000013
 30
0.0
 10
31.2705233000000078
 20
50.8959087000000068
 30
0.0
 10
30.7731287000000009
 20
50.7957989999999953
 30
0.0
 10
30.3826874000000089
 20
50.6598582000000093
 30
0.0
  0
SPLINE
  5
10A
  8
Engrave1
 62
7
370
-1
  6
ByLayer
100
AcDbEntity
100
AcDbSpline
 70
8
 71
3
 72
8
 73
4
 74
0
 40
0.0
 40
0.0
 40
0.0
 40
0.0
 40
1.0
 40
1.0
 40
1.0
 40
1.0
 10
30.3826874000000089
 20
50.6598582000000093
 30
0.0
 10
29.7865919000000048
 20
50.4523062000000024
 30
0.0
 10
28.6489045999999945
 20
49.7573706000000016
 30
0.0
 10
28.0305416000000065
 20
49.2178746000000089
 30
0.0
  0
SPLINE
  5
10B
  8
Engrave1
 62
7
370
-1
  6
ByLayer
100
AcDbEntity
100
AcDbSpline
 70
8
 71
3
 72
8
 73
4
 74
0
 40
0.0
 40
0.0
 40
0.0
 40
0.0
 40
1.0
 40
1.0
 40
1.0
 40
1.0
 10
28.0305416000000065
 20
49.2178746000000089
 30
0.0
 10
27.5434595000000115
 20
48.7929242999999957
 30
0.0
 10
26.790346999999997
 20
47.6964992999999993
 30
0.0
 10
26.252541800000003
 20
46.6223162999999943
 30
0.0
  0
SPLINE
  5
10C
  8
Engrave1
 62
7
370
-1
  6
ByLayer
100
AcDbEntity
100
AcDbSpline
 70
8
 71
3
 72
8
 73
4
 74
0
 40
0.0
 40
0.0
 40
0.0
 40
0.0
 40
1.0
 40
1.0
 40
1.0
 40
1.0
 10
26.252541800000003
 20
46.6223162999999943
 30
0.0
 10
25.9562084000000084
 20
46.0304457000000014
 30
0.0
 10
25.7775752000000011
 20
45.6897807000000071
 30
0.0
 10
25.6863332000000071
 20
45.5613414000000034
 30
0.0
  0
SPLINE
  5
10D
  8
Engrave1
 62
7
370
-1
  6
ByLayer
100
AcDbEntity
100
AcDbSpline
 70
8
 71
3
 72
8
 73
4
 74
0
 40
0.0
 40
0.0
 40
0.0
 40
0.0
 40
1.0
 40
1.0
 40
1.0
 40
1.0
 10
25.6863332000000071
 20
45.5613414000000034
 30
0.0
 10
25.6749278000000061
 20
45.5452803000000017
 30
0.0
 10
25.6645562000000069
 20
45.5321739000000036
 30
0.0
 10
25.6545832999999988
 20
45.5216496000000106
 30
0.0
  0
SPLINE
  5
10E
  8
Engrave1
 62
7
370
-1
  6
ByLayer
100
AcDbEntity
100
AcDbSpline
 70
8
 71
3
 72
8
 73
4
 74
0
 40
0.0
 40
0.0
 40
0.0
 40
0.0
 40
1.0
 40
1.0
 40
1.0
 40
1.0
 10
25.6545832999999988
 20
45.5216496000000106
 30
0.0
 10
25.6446104000000048
 20
45.5111256000000068
 30
0.0
 10
25.6351075999999978
 20
45.5035733999999934
 30
0.0
 10
25.6148957000000053
 20
45.4978416000000081
 30
0.0
  0
SPLINE
  5
10F
  8
Engrave1
 62
7
370
-1
  6
ByLayer
100
AcDbEntity
100
AcDbSpline
 70
8
 71
3
 72
8
 73
4
 74
0
 40
0.0
 40
0.0
 40
0.0
 40
0.0
 40
1.0
 40
1.0
 40
1.0
 40
1.0
 10
25.6148957000000053
 20
45.4978416000000081
 30
0.0
 10
25.6047899000000001
 20
45.4949628000000033
 30
0.0
 10
25.5906743000000034
 20
45.4931000999999995
 30
0.0
 10
25.5778540999999962
 20
45.5004660000000101
 30
0.0
  0
SPLINE
  5
110
  8
Engrave1
 62
7
370
-1
  6
ByLayer
100
AcDbEntity
100
AcDbSpline
 70
8
 71
3
 72
8
 73
4
 74
0
 40
0.0
 40
0.0
 40
0.0
 40
0.0
 40
1.0
 40
1.0
 40
1.0
 40
1.0
 10
25.5778540999999962
 20
45.5004660000000101
 30
0.0
 10
25.5650339000000031
 20
45.5078321999999957
 30
0.0
 10
25.5572683999999981
 20
45.5185086000000041
 30
0.0
 10
25.554041600000005
 20
45.526924500000014
 30
0.0
  0
SPLINE
  5
111
  8
Engrave1
 62
7
370
-1
  6
ByLayer
100
AcDbEntity
100
AcDbSpline
 70
8
 71
3
 72
8
 73
4
 74
0
 40
0.0
 40
0.0
 40
0.0
 40
0.0
 40
1.0
 40
1.0
 40
1.0
 40
1.0
 10
25.554041600000005
 20
45.526924500000014
 30
0.0
 10
25.5475900999999936
 20
45.5437563000000054
 30
0.0
 10
25.5478778000000091
 20
45.5572604999999982
 30
0.0
 10
25.5487499000000042
 20
45.5719079999999863
 30
0.0
  0
SPLINE
  5
112
  8
Engrave1
 62
7
370
-1
  6
ByLayer
100
AcDbEntity
100
AcDbSpline
 70
8
 71
3
 72
8
 73
4
 74
0
 40
0.0
 40
0.0
 40
0.0
 40
0.0
 40
1.0
 40
1.0
 40
1.0
 40
1.0
 10
25.5487499000000042
 20
45.5719079999999863
 30
0.0
 10
25.5522212000000053
 20
45.6304719000000034
 30
0.0
 10
25.5787685000000096
 20
45.7289984999999959
 30
0.0
 10
25.6228333999999904
 20
45.8788245000000003
 30
0.0
  0
SPLINE
  5
113
  8
Engrave1
 62
7
370
-1
  6
ByLayer
100
AcDbEntity
100
AcDbSpline
 70
8
 71
3
 72
8
 73
4
 74
0
 40
0.0
 40
0.0
 40
0.0
 40
0.0
 40
1.0
 40
1.0
 40
1.0
 40
1.0
 10
25.6228333999999904
 20
45.8788245000000003
 30
0.0
 10
25.689852799999997
 20
46.1066879999999983
 30
0.0
 10
25.8239456000000018
 20
46.6540748999999977
 30
0.0
 10
25.9191667999999993
 20
47.0932578000000106
 30
0.0
  0
SPLINE
  5
114
  8
Engrave1
 62
7
370
-1
  6
ByLayer
100
AcDbEntity
100
AcDbSpline
 70
8
 71
3
 72
8
 73
4
 74
0
 40
0.0
 40
0.0
 40
0.0
 40
0.0
 40
1.0
 40
1.0
 40
1.0
 40
1.0
 10
25.9191667999999993
 20
47.0932578000000106
 30
0.0
 10
26.0906015000000053
 20
47.8839429000000081
 30
0.0
 10
26.3012183000000022
 20
48.4575426000000036
 30
0.0
 10
26.6203124000000031
 20
48.9030077999999975
 30
0.0
  0
SPLINE
  5
115
  8
Engrave1
 62
7
370
-1
  6
ByLayer
100
AcDbEntity
100
AcDbSpline
 70
8
 71
3
 72
8
 73
4
 74
0
 40
0.0
 40
0.0
 40
0.0
 40
0.0
 40
1.0
 40
1.0
 40
1.0
 40
1.0
 10
26.6203124000000031
 20
48.9030077999999975
 30
0.0
 10
26.9394068000000004
 20
49.3484729999999985
 30
0.0
 10
27.3653470999999939
 20
49.6633314000000041
 30
0.0
 10
27.9617501000000033
 20
49.9428246000000087
 30
0.0
  0
SPLINE
  5
116
  8
Engrave1
 62
7
370
-1
  6
ByLayer
100
AcDbEntity
100
AcDbSpline
 70
8
 71
3
 72
8
 73
4
 74
0
 40
0.0
 40
0.0
 40
0.0
 40
0.0
 40
1.0
 40
1.0
 40
1.0
 40
1.0
 10
27.9617501000000033
 20
49.9428246000000087
 30
0.0
 10
28.5023450000000054
 20
50.1961472999999856
 30
0.0
 10
28.9059694999999977
 20
50.4632706000000013
 30
0.0
 10
29.170895900000005
 20
50.739215999999999
 30
0.0
  0
SPLINE
  5
117
  8
Engrave1
 62
7
370
-1
  6
ByLayer
100
AcDbEntity
100
AcDbSpline
 70
8
 71
3
 72
8
 73
4
 74
0
 40
0.0
 40
0.0
 40
0.0
 40
0.0
 40
1.0
 40
1.0
 40
1.0
 40
1.0
 10
29.170895900000005
 20
50.739215999999999
 30
0.0
 10
29.4358220000000017
 20
51.0151617000000073
 30
0.0
 10
29.5624793000000068
 20
51.2998364999999978
 30
0.0
 10
29.5624793000000068
 20
51.5991078000000059
 30
0.0
  0
SPLINE
  5
118
  8
Engrave1
 62
7
370
-1
  6
ByLayer
100
AcDbEntity
100
AcDbSpline
 70
8
 71
3
 72
8
 73
4
 74
0
 40
0.0
 40
0.0
 40
0.0
 40
0.0
 40
1.0
 40
1.0
 40
1.0
 40
1.0
 10
29.5624793000000068
 20
51.5991078000000059
 30
0.0
 10
29.5624793000000068
 20
51.702790499999999
 30
0.0
 10
29.547233300000002
 20
51.7820384999999916
 30
0.0
 10
29.5016248999999959
 20
51.8663412000000008
 30
0.0
  0
SPLINE
  5
119
  8
Engrave1
 62
7
370
-1
  6
ByLayer
100
AcDbEntity
100
AcDbSpline
 70
8
 71
3
 72
8
 73
4
 74
0
 40
0.0
 40
0.0
 40
0.0
 40
0.0
 40
1.0
 40
1.0
 40
1.0
 40
1.0
 10
29.5016248999999959
 20
51.8663412000000008
 30
0.0
 10
29.4560168000000004
 20
51.9506435999999994
 30
0.0
 10
29.3783486000000096
 20
52.0398909000000032
 30
0.0
 10
29.2582081999999986
 20
52.1547410999999954
 30
0.0
  0
SPLINE
  5
11A
  8
Engrave1
 62
7
370
-1
  6
ByLayer
100
AcDbEntity
100
AcDbSpline
 70
8
 71
3
 72
8
 73
4
 74
0
 40
0.0
 40
0.0
 40
0.0
 40
0.0
 40
1.0
 40
1.0
 40
1.0
 40
1.0
 10
29.2582081999999986
 20
52.1547410999999954
 30
0.0
 10
29.0586337999999955
 20
52.3455120000000065
 30
0.0
 10
28.9078061000000019
 20
52.4662977000000126
 30
0.0
 10
28.7660833999999994
 20
52.538382900000002
 30
0.0
  0
SPLINE
  5
11B
  8
Engrave1
 62
7
370
-1
  6
ByLayer
100
AcDbEntity
100
AcDbSpline
 70
8
 71
3
 72
8
 73
4
 74
0
 40
0.0
 40
0.0
 40
0.0
 40
0.0
 40
1.0
 40
1.0
 40
1.0
 40
1.0
 10
28.7660833999999994
 20
52.538382900000002
 30
0.0
 10
28.6243607000000111
 20
52.6104681000000127
 30
0.0
 10
28.4906153000000018
 20
52.6365708000000154
 30
0.0
 10
28.3189375999999982
 20
52.6362744000000191
 30
0.0
  0
SPLINE
  5
11C
  8
Engrave1
 62
7
370
-1
  6
ByLayer
100
AcDbEntity
100
AcDbSpline
 70
8
 71
3
 72
8
 73
4
 74
0
 40
0.0
 40
0.0
 40
0.0
 40
0.0
 40
1.0
 40
1.0
 40
1.0
 40
1.0
 10
23.5484998999999675
 20
11.9116416000000029
 30
0.0
 10
23.671484300000003
 20
11.9116415999999958
 30
0.0
 10
23.7601411999999783
 20
11.8987215000000148
 30
0.0
 10
23.8316042000000081
 20
11.8455000000000013
 30
0.0
  0
SPLINE
  5
11D
  8
Engrave1
 62
7
370
-1
  6
ByLayer
100
AcDbEntity
100
AcDbSpline
 70
8
 71
3
 72
8
 73
4
 74
0
 40
0.0
 40
0.0
 40
0.0
 40
0.0
 40
1.0
 40
1.0
 40
1.0
 40
1.0
 10
23.8316042000000081
 20
11.8455000000000013
 30
0.0
 10
23.9030672000000095
 20
11.7922784999999877
 30
0.0
 10
23.9504074999999972
 20
11.705825400000009
 30
0.0
 10
24.014166799999991
 20
11.5676916000000105
 30
0.0
  0
SPLINE
  5
11E
  8
Engrave1
 62
7
370
-1
  6
ByLayer
100
AcDbEntity
100
AcDbSpline
 70
8
 71
3
 72
8
 73
4
 74
0
 40
0.0
 40
0.0
 40
0.0
 40
0.0
 40
1.0
 40
1.0
 40
1.0
 40
1.0
 10
24.014166799999991
 20
11.5676916000000105
 30
0.0
 10
24.094748299999992
 20
11.3931090000000097
 30
0.0
 10
24.2657612
 20
11.0215749000000045
 30
0.0
 10
24.3951667999999913
 20
10.7421918000000005
 30
0.0
  0
SPLINE
  5
11F
  8
Engrave1
 62
7
370
-1
  6
ByLayer
100
AcDbEntity
100
AcDbSpline
 70
8
 71
3
 72
8
 73
4
 74
0
 40
0.0
 40
0.0
 40
0.0
 40
0.0
 40
1.0
 40
1.0
 40
1.0
 40
1.0
 10
24.3951667999999913
 20
10.7421918000000005
 30
0.0
 10
24.7154183000000174
 20
10.0507953000000043
 30
0.0
 10
24.8971384999999827
 20
9.6450047999999953
 30
0.0
 10
25.4111665999999872
 20
8.4641249999999957
 30
0.0
  0
SPLINE
  5
120
  8
Engrave1
 62
7
370
-1
  6
ByLayer
100
AcDbEntity
100
AcDbSpline
 70
8
 71
3
 72
8
 73
4
 74
0
 40
0.0
 40
0.0
 40
0.0
 40
0.0
 40
1.0
 40
1.0
 40
1.0
 40
1.0
 10
25.4111665999999872
 20
8.4641249999999957
 30
0.0
 10
25.6525147999999987
 20
7.9096770000000092
 30
0.0
 10
25.9972765999999993
 20
7.1546703000000065
 30
0.0
 10
26.1758125999999933
 20
6.7893083999999959
 30
0.0
  0
SPLINE
  5
121
  8
Engrave1
 62
7
370
-1
  6
ByLayer
100
AcDbEntity
100
AcDbSpline
 70
8
 71
3
 72
8
 73
4
 74
0
 40
0.0
 40
0.0
 40
0.0
 40
0.0
 40
1.0
 40
1.0
 40
1.0
 40
1.0
 10
26.1758125999999933
 20
6.7893083999999959
 30
0.0
 10
26.2656166999999883
 20
6.6055476000000226
 30
0.0
 10
26.3546488999999866
 20
6.4179603000000114
 30
0.0
 10
26.424520699999988
 20
6.2627915999999999
 30
0.0
  0
SPLINE
  5
122
  8
Engrave1
 62
7
370
-1
  6
ByLayer
100
AcDbEntity
100
AcDbSpline
 70
8
 71
3
 72
8
 73
4
 74
0
 40
0.0
 40
0.0
 40
0.0
 40
0.0
 40
1.0
 40
1.0
 40
1.0
 40
1.0
 10
26.424520699999988
 20
6.2627915999999999
 30
0.0
 10
26.4943927999999715
 20
6.1076232000000132
 30
0.0
 10
26.5440566000000047
 20
5.9870492999999954
 30
0.0
 10
26.5621042999999872
 20
5.9294165999999962
 30
0.0
  0
SPLINE
  5
123
  8
Engrave1
 62
7
370
-1
  6
ByLayer
100
AcDbEntity
100
AcDbSpline
 70
8
 71
3
 72
8
 73
4
 74
0
 40
0.0
 40
0.0
 40
0.0
 40
0.0
 40
1.0
 40
1.0
 40
1.0
 40
1.0
 10
26.5621042999999872
 20
5.9294165999999962
 30
0.0
 10
26.5739828000000031
 20
5.8914945000000074
 30
0.0
 10
26.6166176000000121
 20
5.7887429999999966
 30
0.0
 10
26.673229099999979
 20
5.6568915000000004
 30
0.0
  0
LWPOLYLINE
  5
124
  8
Engrave1
 62
7
370
-1
  6
ByLayer
100
AcDbEntity
100
AcDbPolyline
 90
2
 70
0
 10
28.3189375999999982
 20
52.6362744000000191
 10
28.3189375999999982
 20
52.6363082999999961
  0
SPLINE
  5
125
  8
Engrave1
 62
7
370
-1
  6
ByLayer
100
AcDbEntity
100
AcDbSpline
 70
8
 71
3
 72
8
 73
4
 74
0
 40
0.0
 40
0.0
 40
0.0
 40
0.0
 40
1.0
 40
1.0
 40
1.0
 40
1.0
 10
22.6330418000000151
 20
5.9796918000000119
 30
0.0
 10
22.6567544000000041
 20
6.6383223000000058
 30
0.0
 10
22.6810729999999694
 20
7.4752353000000156
 30
0.0
 10
22.701833299999997
 20
8.3291916000000086
 30
0.0
  0
SPLINE
  5
126
  8
Engrave1
 62
7
370
-1
  6
ByLayer
100
AcDbEntity
100
AcDbSpline
 70
8
 71
3
 72
8
 73
4
 74
0
 40
0.0
 40
0.0
 40
0.0
 40
0.0
 40
1.0
 40
1.0
 40
1.0
 40
1.0
 10
22.701833299999997
 20
8.3291916000000086
 30
0.0
 10
22.7242175000000017
 20
9.2500941000000196
 30
0.0
 10
22.7523683000000005
 20
10.044572400000007
 30
0.0
 10
22.7812081999999947
 20
10.6204749000000049
 30
0.0
  0
SPLINE
  5
127
  8
Engrave1
 62
7
370
-1
  6
ByLayer
100
AcDbEntity
100
AcDbSpline
 70
8
 71
3
 72
8
 73
4
 74
0
 40
0.0
 40
0.0
 40
0.0
 40
0.0
 40
1.0
 40
1.0
 40
1.0
 40
1.0
 10
22.7812081999999947
 20
10.6204749000000049
 30
0.0
 10
22.795628899999997
 20
10.9084347000000008
 30
0.0
 10
22.8091526000000187
 20
11.1401333999999892
 30
0.0
 10
22.8235417999999797
 20
11.3083917000000085
 30
0.0
  0
SPLINE
  5
128
  8
Engrave1
 62
7
370
-1
  6
ByLayer
100
AcDbEntity
100
AcDbSpline
 70
8
 71
3
 72
8
 73
4
 74
0
 40
0.0
 40
0.0
 40
0.0
 40
0.0
 40
1.0
 40
1.0
 40
1.0
 40
1.0
 10
22.8235417999999797
 20
11.3083917000000085
 30
0.0
 10
22.830738199999999
 20
11.3925249000000122
 30
0.0
 10
22.8402497000000011
 20
11.4614435999999955
 30
0.0
 10
22.8473542999999921
 20
11.5121249999999975
 30
0.0
  0
SPLINE
  5
129
  8
Engrave1
 62
7
370
-1
  6
ByLayer
100
AcDbEntity
100
AcDbSpline
 70
8
 71
3
 72
8
 73
4
 74
0
 40
0.0
 40
0.0
 40
0.0
 40
0.0
 40
1.0
 40
1.0
 40
1.0
 40
1.0
 10
22.8473542999999921
 20
11.5121249999999975
 30
0.0
 10
22.8544576999999904
 20
11.5628063999999995
 30
0.0
 10
22.8560764999999861
 20
11.5897644000000071
 30
0.0
 10
22.8711667999999975
 20
11.6179583999999991
 30
0.0
  0
SPLINE
  5
12A
  8
Engrave1
 62
7
370
-1
  6
ByLayer
100
AcDbEntity
100
AcDbSpline
 70
8
 71
3
 72
8
 73
4
 74
0
 40
0.0
 40
0.0
 40
0.0
 40
0.0
 40
1.0
 40
1.0
 40
1.0
 40
1.0
 10
22.8711667999999975
 20
11.6179583999999991
 30
0.0
 10
22.9280711000000039
 20
11.7242825999999951
 30
0.0
 10
23.0054173999999989
 20
11.8022016000000036
 30
0.0
 10
23.1145832000000127
 20
11.8481414999999899
 30
0.0
  0
SPLINE
  5
12B
  8
Engrave1
 62
7
370
-1
  6
ByLayer
100
AcDbEntity
100
AcDbSpline
 70
8
 71
3
 72
8
 73
4
 74
0
 40
0.0
 40
0.0
 40
0.0
 40
0.0
 40
1.0
 40
1.0
 40
1.0
 40
1.0
 10
23.1145832000000127
 20
11.8481414999999899
 30
0.0
 10
23.223748999999998
 20
11.8940900999999926
 30
0.0
 10
23.3614213999999834
 20
11.9116500000000158
 30
0.0
 10
23.5484998999999675
 20
11.9116416000000029
 30
0.0
  0
LWPOLYLINE
  5
12C
  8
Engrave1
 62
7
370
-1
  6
ByLayer
100
AcDbEntity
100
AcDbPolyline
 90
2
 70
0
 10
23.5484998999999675
 20
11.9116416000000029
 10
23.5484998999999675
 20
11.9116416000000029
  0
LWPOLYLINE
  5
12D
  8
Engrave1
 62
7
370
-1
  6
ByLayer
100
AcDbEntity
100
AcDbPolyline
 90
2
 70
0
 10
23.5485041000000024
 20
11.8269750000000045
 10
23.548499900000003
 20
11.8269749999999974
  0
LINE
  5
12E
100
AcDbEntity
100
AcDbLine
  8
Engrave1
 62
256
370
-1
  6
ByLayer
 10
31.3060831999999891
 20
4.8101826000000045
 30
0.0
 11
27.052926701449131
 21
4.8101826000000045
 31
0.0
  0
LINE
  5
12F
100
AcDbEntity
100
AcDbLine
  8
Engrave1
 62
256
370
-1
  6
ByLayer
 10
22.5811918792652904
 20
4.8101826000000045
 30
0.0
 11
18.9791416999999925
 21
4.8101826000000116
 31
0.0
  0
LINE
  5
130
100
AcDbEntity
100
AcDbLine
  8
Engrave1
 62
256
370
-1
  6
ByLayer
 10
26.673229099999979
 20
5.6568915000000004
 30
0.0
 11
27.052926701449131
 21
4.8101826000000045
 31
0.0
  0
LINE
  5
131
100
AcDbEntity
100
AcDbLine
  8
Engrave1
 62
256
370
-1
  6
ByLayer
 10
22.6330418000000151
 20
5.9796918000000119
 30
0.0
 11
22.5811918792652904
 21
4.8101826000000045
 31
0.0
  0
LINE
  5
132
100
AcDbEntity
100
AcDbLine
  8
Engrave1
 62
256
370
-1
  6
ByLayer
 10
18.9791416999999925
 20
4.8101826000000116
 30
0.0
 11
18.8944748000000153
 21
5.1911826000000048
 31
0.0
  0
ENDSEC
  0
SECTION
  2
OBJECTS
  0
DICTIONARY
  5
C
100
AcDbDictionary
280
0
281
1
  3
ACAD_GROUP
350
D
  3
ACAD_LAYOUT
350
1A
  3
ACAD_MLINESTYLE
350
17
  3
ACAD_PLOTSETTINGS
350
19
  3
ACAD_PLOTSTYLENAME
350
E
  3
AcDbVariableDictionary
350
133
  0
DICTIONARY
  5
D
100
AcDbDictionary
280
0
281
1
  0
ACDBDICTIONARYWDFLT
  5
E
100
AcDbDictionary
281
1
  3
Normal
350
F
100
AcDbDictionaryWithDefault
340
F
  0
ACDBPLACEHOLDER
  5
F
  0
DICTIONARY
  5
17
100
AcDbDictionary
280
0
281
1
  3
Standard
350
18
  0
MLINESTYLE
  5
18
100
AcDbMlineStyle
  2
STANDARD
 70
0
  3

 62
256
 51
90.0
 52
90.0
 71
2
 49
0.5
 62
256
  6
BYLAYER
 49
-0.5
 62
256
  6
BYLAYER
  0
DICTIONARY
  5
19
100
AcDbDictionary
280
0
281
1
  0
DICTIONARY
  5
1A
100
AcDbDictionary
281
1
  3
Layout1
350
1E
  3
Layout2
350
26
  3
Model
350
22
  0
LAYOUT
  5
1E
100
AcDbPlotSettings
  1

  2
C:\Program Files\AutoCAD 2002\plotters\DWF ePlot (optimized for plotting).pc3
  4

  6

 40
0.0
 41
0.0
 42
0.0
 43
0.0
 44
0.0
 45
0.0
 46
0.0
 47
0.0
 48
0.0
 49
0.0
140
0.0
141
0.0
142
1.0
143
1.0
 70
688
 72
0
 73
0
 74
5
  7

 75
16
147
1.0
148
0.0
149
0.0
100
AcDbLayout
  1
Layout1
 70
1
 71
1
 10
0.0
 20
0.0
 11
420.0
 21
297.0
 12
0.0
 22
0.0
 32
0.0
 14
100000000000000000000.0
 24
100000000000000000000.0
 34
100000000000000000000.0
 15
-100000000000000000000.0
 25
-100000000000000000000.0
 35
-100000000000000000000.0
146
0.0
 13
0.0
 23
0.0
 33
0.0
 16
1.0
 26
0.0
 36
0.0
 17
0.0
 27
1.0
 37
0.0
 76
0
330
1B
  0
LAYOUT
  5
22
100
AcDbPlotSettings
  1

  2
C:\Program Files\AutoCAD 2002\plotters\DWF ePlot (optimized for plotting).pc3
  4

  6

 40
0.0
 41
0.0
 42
0.0
 43
0.0
 44
0.0
 45
0.0
 46
0.0
 47
0.0
 48
0.0
 49
0.0
140
0.0
141
0.0
142
1.0
143
1.0
 70
1712
 72
0
 73
0
 74
0
  7

 75
0
147
1.0
148
0.0
149
0.0
100
AcDbLayout
  1
Model
 70
1
 71
0
 10
0.0
 20
0.0
 11
12.0
 21
9.0
 12
0.0
 22
0.0
 32
0.0
 14
0.0
 24
0.0
 34
0.0
 15
0.0
 25
0.0
 35
0.0
146
0.0
 13
0.0
 23
0.0
 33
0.0
 16
1.0
 26
0.0
 36
0.0
 17
0.0
 27
1.0
 37
0.0
 76
0
330
1F
  0
LAYOUT
  5
26
100
AcDbPlotSettings
  1

  2
C:\Program Files\AutoCAD 2002\plotters\DWF ePlot (optimized for plotting).pc3
  4

  6

 40
0.0
 41
0.0
 42
0.0
 43
0.0
 44
0.0
 45
0.0
 46
0.0
 47
0.0
 48
0.0
 49
0.0
140
0.0
141
0.0
142
1.0
143
1.0
 70
688
 72
0
 73
0
 74
5
  7

 75
16
147
1.0
148
0.0
149
0.0
100
AcDbLayout
  1
Layout2
 70
1
 71
2
 10
0.0
 20
0.0
 11
12.0
 21
9.0
 12
0.0
 22
0.0
 32
0.0
 14
0.0
 24
0.0
 34
0.0
 15
0.0
 25
0.0
 35
0.0
146
0.0
 13
0.0
 23
0.0
 33
0.0
 16
1.0
 26
0.0
 36
0.0
 17
0.0
 27
1.0
 37
0.0
 76
0
330
23
  0
DICTIONARY
  5
133
100
AcDbDictionary
281
1
  3
DIMASSOC
350
135
  3
HIDETEXT
350
134
  0
DICTIONARYVAR
  5
134
100
DictionaryVariables
280
0
  1
2
  0
DICTIONARYVAR
  5
135
100
DictionaryVariables
280
0
  1
1
  0
ENDSEC
  0
EOF
